<?xml version="1.0" encoding="UTF-8"?>
<svg width="1800px" height="243px" viewBox="0 0 1800 243" version="1.1" xmlns="http://www.w3.org/2000/svg" xmlns:xlink="http://www.w3.org/1999/xlink">
    <!-- Generator: Sketch 52.6 (67491) - http://www.bohemiancoding.com/sketch -->
    <title>hills</title>
    <desc>Created with Sketch.</desc>
    <defs>
        <linearGradient x1="65.2234427%" y1="-360.319222%" x2="0%" y2="100%" id="linearGradient-1">
            <stop stop-color="#0A531A" offset="0%"></stop>
            <stop stop-color="#04290B" offset="100%"></stop>
        </linearGradient>
    </defs>
    <g id="hills" stroke="none" stroke-width="1" fill="none" fill-rule="evenodd">
        <path d="M0,72.9805111 C82.5589845,67.8052258 146.454244,60.4969378 191.685778,51.055647 C259.53308,36.893711 442.664412,5.46999778 587.184653,17.3132297 C731.704893,29.1564616 692.411811,56.4023276 812.609212,51.055647 C932.806613,45.7089665 988.045912,9.1272049 1071.48845,1.91452022 C1154.931,-5.29816446 1155.99533,8.42787142 1254.25478,33.6793691 C1352.51422,58.9308668 1387.47334,67.4442347 1450.45923,72.9805111 C1513.44511,78.5167875 1800,17.3132297 1800,33.6793691 C1800,44.5901287 1800,114.030339 1800,242 L0.22465823,242 L0,72.9805111 Z" fill="url(#linearGradient-1)"></path>
    </g>
</svg>