<?xml version="1.0" encoding="UTF-8"?>
<svg width="445px" height="165px" viewBox="0 0 445 165" version="1.1" xmlns="http://www.w3.org/2000/svg" xmlns:xlink="http://www.w3.org/1999/xlink">
    <!-- Generator: Sketch 52.6 (67491) - http://www.bohemiancoding.com/sketch -->
    <title>Cloud</title>
    <desc>Created with Sketch.</desc>
    <g id="Symbols" stroke="none" stroke-width="1" fill="none" fill-rule="evenodd">
        <g id="Les-nuages-nous-reposent" transform="translate(-17.000000, -24.000000)" fill="#FFFFFF">
            <g id="Les-nuages-nous-reposent-Copy-2" transform="translate(7.000000, 4.000000)">
                <path d="M11.5148684,134.183333 C18.6645482,98.8944082 32.127633,89.6722168 73.8158317,63.469597 C115.50403,37.2669771 139.413717,21.6850488 193.042311,20.0864255 C246.670905,18.4878021 253.289935,39.3814863 302.460956,56.6538779 C351.631977,73.9262694 373.558454,45.6716673 402.949993,63.469597 C432.341533,81.2675266 461.542455,113.811649 453.710248,139.194892 C445.878041,164.578134 411.890059,176.138644 370.21399,183.611616 C328.537922,191.084587 295.64368,165.95531 253.303905,165.95531 C210.964129,165.95531 210.853313,186.48781 171.723239,183.611616 C132.593166,180.735421 140.990754,167.42095 114.939183,165.95531 C88.887611,164.489671 78.3427742,183.052637 50.8522978,176.811517 C23.3618214,170.570397 4.3651887,169.472259 11.5148684,134.183333 Z" id="Cloud"></path>
            </g>
        </g>
    </g>
</svg>