<?xml version="1.0" encoding="UTF-8"?>
<svg width="388px" height="68px" viewBox="0 0 388 68" version="1.1" xmlns="http://www.w3.org/2000/svg" xmlns:xlink="http://www.w3.org/1999/xlink">
    <!-- Generator: Sketch 52.6 (67491) - http://www.bohemiancoding.com/sketch -->
    <title>De temps en temps</title>
    <desc>Created with Sketch.</desc>
    <g id="De-temps-en-temps" stroke="none" stroke-width="1" fill="none" fill-rule="evenodd">
        <g transform="translate(0.000000, 1.000000)" fill="#FFFFFF">
            <path d="M10.9423828,41.2753906 C10.9423828,41.0410145 10.9790035,40.7993177 11.0522461,40.550293 C11.1254886,40.3012683 11.3085923,40.1767578 11.6015625,40.1767578 C11.7480476,40.1767578 12.121579,40.2573234 12.722168,40.418457 C13.3227569,40.5795906 13.9746059,40.7626943 14.6777344,40.9677734 C15.3808629,41.1728526 16.0693326,41.3632804 16.7431641,41.5390625 C17.4169956,41.7148446 17.8857409,41.8173827 18.1494141,41.8466797 L18.3691406,41.8466797 C19.6582096,41.8466797 20.9619075,41.6049829 22.2802734,41.121582 C23.5986394,40.6381812 24.7997993,39.9570356 25.8837891,39.078125 C26.9677789,38.1992144 27.8540005,37.1811581 28.5424805,36.0239258 C29.2309605,34.8666934 29.5751953,33.6142646 29.5751953,32.2666016 C29.5751953,31.2119088 29.3701192,30.1792043 28.9599609,29.168457 C28.5498026,28.1577098 28.0004917,27.1835984 27.3120117,26.2460938 C26.6235317,25.3085891 25.8178757,24.4443399 24.8950195,23.6533203 C23.9721634,22.8623007 22.998052,22.1518586 21.9726562,21.5219727 C20.9472605,20.8920867 19.9072318,20.3574241 18.8525391,19.9179688 C17.7978463,19.4785134 16.7871142,19.1708993 15.8203125,18.9951172 C15.8496095,20.8701266 16.0034166,22.6425698 16.2817383,24.3125 C16.56006,25.9824302 16.8383775,27.5864181 17.1166992,29.1245117 C17.3950209,30.6626053 17.6074211,32.1640552 17.7539062,33.6289062 C17.9296884,35.0937573 17.9296884,36.5585864 17.7539062,38.0234375 L17.7539062,38.5727539 C17.7539062,38.7631845 17.7172855,38.9536123 17.644043,39.144043 C17.5708004,39.3344736 17.4536141,39.4882807 17.2924805,39.6054688 C17.1313469,39.7226568 16.9335949,39.78125 16.6992188,39.78125 C16.2597634,40.0156262 15.9228527,39.9277364 15.6884766,39.5175781 C15.4541004,39.1074198 15.2783209,38.4848675 15.1611328,37.6499023 C15.0439447,36.8149372 14.9707033,35.8261776 14.9414062,34.6835938 C14.9121092,33.5410099 14.8608402,32.3471742 14.7875977,31.1020508 C14.7143551,29.8569274 14.6191412,28.6337951 14.5019531,27.4326172 C14.384765,26.2314393 14.1943373,25.1328175 13.9306641,24.1367188 C13.87207,23.7851545 13.7988286,23.3310575 13.7109375,22.7744141 C13.6230464,22.2177707 13.5058601,21.6391632 13.359375,21.0385742 C13.2128899,20.4379853 13.0444345,19.8813502 12.8540039,19.3686523 C12.6635733,18.8559545 12.4658213,18.482423 12.2607422,18.2480469 C10.1513566,18.2480469 8.46680317,18.3139642 7.20703125,18.4458008 C5.94725933,18.5776374 4.94385139,18.7314444 4.19677734,18.9072266 C3.4497033,19.0830087 2.90771653,19.2661123 2.57080078,19.456543 C2.23388503,19.6469736 1.93359507,19.8007807 1.66992188,19.9179688 L1.58203125,19.9619141 C1.52343721,19.9912111 1.47949233,20.0058594 1.45019531,20.0058594 C1.39160127,20.0058594 1.36230469,19.9912111 1.36230469,19.9619141 C1.33300767,19.932617 1.30371108,19.9179688 1.27441406,19.9179688 C1.24511704,19.8886717 1.21582046,19.8300786 1.18652344,19.7421875 L1.07666016,19.4125977 C1.03271462,19.2807611 0.988769751,19.1416023 0.944824219,18.9951172 C0.900878687,18.8486321 0.87890625,18.746094 0.87890625,18.6875 L0.87890625,18.5117188 C0.87890625,18.1015604 1.09130647,17.7500015 1.51611328,17.4570312 C1.94092009,17.164061 2.46825857,16.9150401 3.09814453,16.7099609 C3.72803049,16.5048818 4.42382432,16.3364264 5.18554688,16.2045898 C5.94726943,16.0727532 6.65771155,15.9775394 7.31689453,15.9189453 C7.97607751,15.8603513 8.53271257,15.8090823 8.98681641,15.7651367 C9.44092024,15.7211912 9.68261704,15.6992188 9.71191406,15.6992188 C11.2060622,15.6992188 12.8027259,15.8676741 14.5019531,16.2045898 C16.2011804,16.5415056 17.8784097,17.0322233 19.5336914,17.6767578 C21.1889731,18.3212923 22.7709885,19.1196241 24.2797852,20.0717773 C25.7885818,21.0239305 27.1215762,22.1152282 28.2788086,23.3457031 C29.4360409,24.576178 30.3588833,25.9531174 31.0473633,27.4765625 C31.7358433,29.0000076 32.0800781,30.6406162 32.0800781,32.3984375 C32.0800781,34.0097737 31.8310572,35.4599545 31.3330078,36.7490234 C30.8349584,38.0380924 30.1464888,39.1660108 29.2675781,40.1328125 C28.3886675,41.0996142 27.3632871,41.9125944 26.1914062,42.5717773 C25.0195254,43.2309603 23.7744207,43.7143539 22.4560547,44.0219727 C21.1376887,44.3295914 19.7827218,44.4833984 18.3911133,44.4833984 C16.9995048,44.4833984 15.6445378,44.3222672 14.3261719,44 C14.0624987,43.9121089 13.7402363,43.7875985 13.359375,43.6264648 C12.9785137,43.4653312 12.6049823,43.2822276 12.2387695,43.0771484 C11.8725568,42.8720693 11.5649427,42.6157242 11.315918,42.3081055 C11.0668933,42.0004867 10.9423828,41.6562519 10.9423828,41.2753906 Z M34.1894531,32.2226562 C34.1894531,30.6992111 34.4165016,29.2417062 34.8706055,27.8500977 C35.3247093,26.4584891 35.9838824,25.2353568 36.8481445,24.1806641 C37.7124067,23.1259713 38.7670836,22.2836946 40.012207,21.6538086 C41.2573304,21.0239226 42.7001871,20.7089844 44.3408203,20.7089844 C45.307622,20.8261725 46.1498988,21.0898417 46.8676758,21.5 C47.5854528,21.9101583 48.1713844,22.4155243 48.6254883,23.0161133 C49.0795921,23.6167022 49.4091787,24.312496 49.6142578,25.1035156 C49.7900399,25.8652382 49.8779297,26.6855425 49.8779297,27.5644531 C49.8779297,28.6191459 49.5703156,29.5712848 48.9550781,30.4208984 C48.3398407,31.2705121 47.5634813,31.9809542 46.6259766,32.5522461 C45.6884719,33.123538 44.6777398,33.5629867 43.59375,33.8706055 C42.5097602,34.1782242 41.4990281,34.3320312 40.5615234,34.3320312 L39.4848633,34.3320312 C39.1186505,34.3320312 38.789064,34.2734381 38.4960938,34.15625 C38.2031235,34.0390619 37.9687509,33.8632824 37.7929688,33.6289062 C37.6171866,33.3945301 37.5292969,33.0429711 37.5292969,32.5742188 C37.5292969,32.4277336 37.5512693,32.3032232 37.5952148,32.2006836 C37.6391604,32.098144 37.7636708,32.0249026 37.96875,31.980957 C38.1738292,31.9370115 38.4814433,31.9296874 38.8916016,31.9589844 C39.3017599,32.0175784 39.8583949,32.1054682 40.5615234,32.2226562 C40.9716817,32.2226562 41.5649375,32.0834975 42.3413086,31.8051758 C43.1176797,31.5268541 43.9086874,31.1679709 44.7143555,30.7285156 C45.5200236,30.2890603 46.2158174,29.7836943 46.8017578,29.2124023 C47.3876982,28.6411104 47.6806641,28.0771512 47.6806641,27.5205078 C47.6806641,26.9345674 47.5854502,26.3559599 47.3950195,25.784668 C47.2045889,25.213376 46.9189472,24.70801 46.5380859,24.2685547 C46.1572247,23.8290994 45.7104518,23.4775404 45.1977539,23.2138672 C44.685056,22.950194 44.1064485,22.847656 43.4619141,22.90625 C42.4365183,22.9941411 41.5063518,23.2724586 40.6713867,23.7412109 C39.8364216,24.2099633 39.1259795,24.8178674 38.5400391,25.5649414 C37.9540986,26.3120155 37.5000016,27.1396439 37.1777344,28.0478516 C36.8554671,28.9560592 36.6943359,29.9081981 36.6943359,30.9042969 C36.6943359,31.6660194 36.7089842,32.4277306 36.7382812,33.1894531 C36.7675783,33.9511757 36.8774405,34.6982385 37.0678711,35.4306641 C37.2583017,36.1630896 37.5659158,36.8662076 37.9907227,37.5400391 C38.4155295,38.2138706 39.0307577,38.8071263 39.8364258,39.3198242 C40.6420939,39.8325221 41.6601501,40.2573225 42.890625,40.5942383 C44.1210999,40.931154 45.6445222,41.1435542 47.4609375,41.2314453 L55.3271484,40.7041016 C54.8583961,41.348636 54.2651403,41.8759745 53.5473633,42.2861328 C52.8295863,42.6962911 52.0678751,43.0258777 51.262207,43.2749023 C50.4565389,43.523927 49.6582071,43.7070307 48.8671875,43.8242188 C48.0761679,43.9414068 47.3291051,44 46.6259766,44 C44.9267493,44 43.3300856,43.7216825 41.8359375,43.1650391 C40.3417894,42.6083957 39.0234432,41.8247121 37.8808594,40.8139648 C36.7382755,39.8032176 35.8374056,38.5727612 35.1782227,37.1225586 C34.5190397,35.672356 34.1894531,34.0390716 34.1894531,32.2226562 Z M79.4091797,28.8828125 L78.1787109,28.8828125 C77.5927705,28.8828125 76.9848664,28.8315435 76.3549805,28.7290039 C75.7250945,28.6264643 75.1538112,28.458009 74.6411133,28.2236328 C74.1284154,27.9892566 73.8720703,27.6523459 73.8720703,27.2128906 C73.8720703,27.0957025 73.8940427,26.9272472 73.9379883,26.7075195 C73.9819338,26.4877919 74.1210926,26.3779297 74.3554688,26.3779297 L78.8818359,25.9824219 C78.999024,24.8984321 79.0869138,24.0122105 79.1455078,23.3237305 C79.2041019,22.6352505 79.2187501,21.9907257 79.1894531,21.3901367 C79.1601561,20.7895478 79.1235354,20.1596713 79.0795898,19.5004883 C79.0356443,18.8413053 78.9990236,17.9843803 78.9697266,16.9296875 C78.9697266,16.7246083 79.0136714,16.5634771 79.1015625,16.4462891 C79.1894536,16.329101 79.2993157,16.2412112 79.4311523,16.1826172 C79.5629889,16.1240231 79.7094719,16.0800783 79.8706055,16.0507812 C80.0317391,16.0214842 80.1562496,16.0068359 80.2441406,16.0068359 C80.4199228,16.0068359 80.6030264,16.0654291 80.793457,16.1826172 C80.9838877,16.2998053 81.152343,16.4462882 81.2988281,16.6220703 C81.4453132,16.7978524 81.5624996,16.9809561 81.6503906,17.1713867 C81.7382817,17.3618174 81.7822266,17.544921 81.7822266,17.7207031 L82.1337891,25.9384766 L85.9130859,26.1142578 C86.4111353,26.0556638 86.8725565,26.1508777 87.2973633,26.3999023 C87.7221701,26.648927 87.9492186,27.1103482 87.9785156,27.7841797 C87.6269514,28.165041 87.2021509,28.3920895 86.7041016,28.465332 C86.2060522,28.5385746 85.6860379,28.5678712 85.144043,28.5532227 C84.6020481,28.5385741 84.0673854,28.5385741 83.5400391,28.5532227 C83.0126927,28.5678712 82.5439474,28.7070299 82.1337891,28.9707031 C82.1337891,29.1464853 82.1484374,29.6298789 82.1777344,30.4208984 C82.2070314,31.211918 82.236328,32.1494086 82.265625,33.2333984 C82.294922,34.3173882 82.3315427,35.4746032 82.3754883,36.7050781 C82.4194338,37.935553 82.4560545,39.0707956 82.4853516,40.1108398 C82.5146486,41.1508841 82.536621,42.0371057 82.5512695,42.7695312 C82.565918,43.5019568 82.5732422,43.9121089 82.5732422,44 C81.8994107,44.4101583 81.3574239,44.3735376 80.9472656,43.8901367 C80.5371073,43.4067359 80.2075208,42.6889696 79.9584961,41.7368164 C79.7094714,40.7846632 79.5336919,39.6713931 79.4311523,38.3969727 C79.3286128,37.1225522 79.2700196,35.8627992 79.2553711,34.6176758 C79.2407226,33.3725524 79.2480467,32.2226615 79.2773438,31.1679688 C79.3066408,30.113276 79.3505856,29.3515648 79.4091797,28.8828125 Z M89.0332031,32.2226562 C89.0332031,30.6992111 89.2602516,29.2417062 89.7143555,27.8500977 C90.1684593,26.4584891 90.8276324,25.2353568 91.6918945,24.1806641 C92.5561567,23.1259713 93.6108336,22.2836946 94.855957,21.6538086 C96.1010804,21.0239226 97.5439371,20.7089844 99.1845703,20.7089844 C100.151372,20.8261725 100.993649,21.0898417 101.711426,21.5 C102.429203,21.9101583 103.015134,22.4155243 103.469238,23.0161133 C103.923342,23.6167022 104.252929,24.312496 104.458008,25.1035156 C104.63379,25.8652382 104.72168,26.6855425 104.72168,27.5644531 C104.72168,28.6191459 104.414066,29.5712848 103.798828,30.4208984 C103.183591,31.2705121 102.407231,31.9809542 101.469727,32.5522461 C100.532222,33.123538 99.5214898,33.5629867 98.4375,33.8706055 C97.3535102,34.1782242 96.3427781,34.3320312 95.4052734,34.3320312 L94.3286133,34.3320312 C93.9624005,34.3320312 93.632814,34.2734381 93.3398438,34.15625 C93.0468735,34.0390619 92.8125009,33.8632824 92.6367188,33.6289062 C92.4609366,33.3945301 92.3730469,33.0429711 92.3730469,32.5742188 C92.3730469,32.4277336 92.3950193,32.3032232 92.4389648,32.2006836 C92.4829104,32.098144 92.6074208,32.0249026 92.8125,31.980957 C93.0175792,31.9370115 93.3251933,31.9296874 93.7353516,31.9589844 C94.1455099,32.0175784 94.7021449,32.1054682 95.4052734,32.2226562 C95.8154317,32.2226562 96.4086875,32.0834975 97.1850586,31.8051758 C97.9614297,31.5268541 98.7524374,31.1679709 99.5581055,30.7285156 C100.363774,30.2890603 101.059567,29.7836943 101.645508,29.2124023 C102.231448,28.6411104 102.524414,28.0771512 102.524414,27.5205078 C102.524414,26.9345674 102.4292,26.3559599 102.23877,25.784668 C102.048339,25.213376 101.762697,24.70801 101.381836,24.2685547 C101.000975,23.8290994 100.554202,23.4775404 100.041504,23.2138672 C99.528806,22.950194 98.9501985,22.847656 98.3056641,22.90625 C97.2802683,22.9941411 96.3501018,23.2724586 95.5151367,23.7412109 C94.6801716,24.2099633 93.9697295,24.8178674 93.3837891,25.5649414 C92.7978486,26.3120155 92.3437516,27.1396439 92.0214844,28.0478516 C91.6992171,28.9560592 91.5380859,29.9081981 91.5380859,30.9042969 C91.5380859,31.6660194 91.5527342,32.4277306 91.5820312,33.1894531 C91.6113283,33.9511757 91.7211905,34.6982385 91.9116211,35.4306641 C92.1020517,36.1630896 92.4096658,36.8662076 92.8344727,37.5400391 C93.2592795,38.2138706 93.8745077,38.8071263 94.6801758,39.3198242 C95.4858439,39.8325221 96.5039001,40.2573225 97.734375,40.5942383 C98.9648499,40.931154 100.488272,41.1435542 102.304688,41.2314453 L110.170898,40.7041016 C109.702146,41.348636 109.10889,41.8759745 108.391113,42.2861328 C107.673336,42.6962911 106.911625,43.0258777 106.105957,43.2749023 C105.300289,43.523927 104.501957,43.7070307 103.710938,43.8242188 C102.919918,43.9414068 102.172855,44 101.469727,44 C99.7704993,44 98.1738356,43.7216825 96.6796875,43.1650391 C95.1855394,42.6083957 93.8671932,41.8247121 92.7246094,40.8139648 C91.5820255,39.8032176 90.6811556,38.5727612 90.0219727,37.1225586 C89.3627897,35.672356 89.0332031,34.0390716 89.0332031,32.2226562 Z M140.888672,42.4619141 C140.888672,42.374023 140.895996,42.2568367 140.910645,42.1103516 C140.925293,41.9638665 140.932617,41.8173835 140.932617,41.6708984 L140.932617,41.2753906 L140.976562,41.0117188 C140.976562,40.9238277 140.998535,40.6748067 141.04248,40.2646484 C141.086426,39.8544901 141.137695,39.4150414 141.196289,38.9462891 C141.254883,38.4775367 141.298828,38.0307638 141.328125,37.605957 C141.357422,37.1811502 141.37207,36.9101568 141.37207,36.7929688 C141.313476,36.1777313 141.181642,35.3720753 140.976562,34.3759766 C140.771483,33.3798778 140.456545,32.3984423 140.031738,31.4316406 C139.606931,30.4648389 139.072269,29.6298863 138.427734,28.9267578 C137.7832,28.2236293 137.021489,27.8720703 136.142578,27.8720703 C135.351559,27.8720703 134.52393,28.0698222 133.659668,28.465332 C132.795406,28.8608418 131.98975,29.373532 131.242676,30.003418 C130.495602,30.6333039 129.887698,31.3583943 129.418945,32.1787109 C128.920896,32.9697305 128.671875,33.8046831 128.671875,34.6835938 C128.671875,35.1230491 128.745116,35.5551737 128.891602,35.9799805 C129.038087,36.4047873 129.191894,36.8222636 129.353027,37.2324219 C129.514161,37.6425802 129.667968,38.0673806 129.814453,38.5068359 C129.960938,38.9462913 130.03418,39.4003883 130.03418,39.8691406 C130.03418,40.2207049 129.968262,40.5722639 129.836426,40.9238281 C129.704589,41.2753924 129.389651,41.4511719 128.891602,41.4511719 C128.364255,41.4511719 127.932131,41.1435578 127.595215,40.5283203 C127.258299,39.9130829 126.950685,39.1293993 126.672363,38.1772461 C126.394042,37.2250929 126.101076,36.2070367 125.793457,35.1230469 C125.485838,34.0390571 125.104983,33.0210009 124.650879,32.0688477 C124.196775,31.1166945 123.64014,30.3330109 122.980957,29.7177734 C122.321774,29.102536 121.479497,28.7949219 120.454102,28.7949219 C119.663082,28.7949219 118.959964,28.9633772 118.344727,29.300293 C117.729489,29.6372087 117.224123,30.0839816 116.828613,30.640625 C116.433103,31.1972684 116.125489,31.8271449 115.905762,32.5302734 C115.686034,33.233402 115.576172,33.9511682 115.576172,34.6835938 C115.576172,35.8554746 115.656737,37.0053655 115.817871,38.1333008 C115.979005,39.2612361 116.05957,40.3964787 116.05957,41.5390625 C116.05957,41.9492208 116.015625,42.3227522 115.927734,42.659668 C115.839843,42.9965837 115.546877,43.1650391 115.048828,43.1650391 C114.726561,43.1650391 114.455568,43.0844735 114.23584,42.9233398 C114.016112,42.7622062 113.833009,42.5571302 113.686523,42.3081055 C113.540038,42.0590808 113.422852,41.7807633 113.334961,41.4731445 C113.24707,41.1655258 113.173828,40.8945324 113.115234,40.6601562 C113.173828,39.4589784 113.181153,38.3457083 113.137207,37.3203125 C113.093261,36.2949167 113.034668,35.3208054 112.961426,34.3979492 C112.888183,33.475093 112.814942,32.5449266 112.741699,31.6074219 C112.668457,30.6699172 112.631836,29.6738334 112.631836,28.6191406 L112.631836,28.3115234 C112.631836,28.1650383 112.63916,28.0112313 112.653809,27.8500977 C112.668457,27.688964 112.675781,27.5424811 112.675781,27.4106445 L112.675781,27.125 C112.705078,27.066406 112.77832,26.9931645 112.895508,26.9052734 C113.012696,26.8173824 113.085937,26.7441409 113.115234,26.6855469 L113.334961,26.6855469 C113.83301,26.6855469 114.199218,26.8613264 114.433594,27.2128906 C114.66797,27.5058608 114.785156,27.8867164 114.785156,28.3554688 C115.253909,27.8574194 115.671385,27.4692397 116.037598,27.190918 C116.40381,26.9125963 116.755369,26.700196 117.092285,26.5537109 C117.429201,26.4072258 117.78076,26.3193361 118.146973,26.2900391 C118.513185,26.260742 118.959958,26.2460938 119.487305,26.2460938 C120.336918,26.2460938 121.105954,26.3339835 121.794434,26.5097656 C122.482914,26.6855478 123.105466,26.9418928 123.662109,27.2788086 C124.218753,27.6157243 124.731443,28.0624972 125.200195,28.6191406 C125.668948,29.146487 126.137693,29.7617152 126.606445,30.4648438 C126.635742,30.4648438 126.672363,30.4721679 126.716309,30.4868164 C126.760254,30.5014649 126.796875,30.5087891 126.826172,30.5087891 C126.855469,30.5087891 127.001952,30.3696303 127.265625,30.0913086 C127.529298,29.8129869 127.880857,29.4760762 128.320312,29.0805664 C128.759768,28.6850566 129.272458,28.2456079 129.858398,27.762207 C130.444339,27.2788062 131.059567,26.8320333 131.704102,26.421875 C132.348636,26.0117167 133.007809,25.6674819 133.681641,25.3891602 C134.355472,25.1108385 135.014645,24.9716797 135.65918,24.9716797 C136.655278,24.9716797 137.5415,25.1767558 138.317871,25.5869141 C139.094242,25.9970724 139.790036,26.5463833 140.405273,27.2348633 C141.020511,27.9233433 141.547849,28.6997027 141.987305,29.5639648 C142.42676,30.428227 142.792967,31.3217727 143.085938,32.2446289 C143.378908,33.1674851 143.591308,34.0830033 143.723145,34.9912109 C143.854981,35.8994186 143.920898,36.7343712 143.920898,37.4960938 C143.920898,37.789064 143.913574,38.29443 143.898926,39.012207 C143.884277,39.7299841 143.811036,40.4623986 143.679199,41.2094727 C143.547363,41.9565467 143.334962,42.6157198 143.041992,43.1870117 C142.749022,43.7583036 142.33887,44.0439453 141.811523,44.0439453 C141.54785,44.0439453 141.357422,43.9926763 141.240234,43.8901367 C141.123046,43.7875971 141.035157,43.6630867 140.976562,43.5166016 C140.917968,43.3701165 140.888672,43.2089853 140.888672,43.0332031 L140.888672,42.4619141 Z M145.986328,38.2431641 C145.986328,36.3974517 146.308591,34.8447329 146.953125,33.5849609 C147.597659,32.325189 148.454584,31.3144569 149.523926,30.5527344 C150.593267,29.7910118 151.838372,29.2343768 153.259277,28.8828125 C154.680183,28.5312482 156.166984,28.3554688 157.719727,28.3554688 C158.979498,28.3554688 160.202631,28.5605448 161.38916,28.9707031 C162.57569,29.3808614 163.637691,29.9521448 164.575195,30.6845703 C165.5127,31.4169958 166.259763,32.3105416 166.816406,33.3652344 C167.37305,34.4199271 167.651367,35.621087 167.651367,36.96875 C167.651367,38.1406309 167.431643,39.1000939 166.992188,39.847168 C166.552732,40.594242 165.952152,41.1801737 165.19043,41.6049805 C164.428707,42.0297873 163.58643,42.3300772 162.663574,42.5058594 C161.740718,42.6816415 160.795903,42.7695312 159.829102,42.7695312 C158.891597,42.7695312 157.932134,42.7255864 156.950684,42.6376953 C155.969233,42.5498042 155.068363,42.3447282 154.248047,42.0224609 C153.42773,41.7001937 152.753909,41.2168001 152.226562,40.5722656 C151.699216,39.9277312 151.435547,39.0195371 151.435547,37.8476562 C152.050784,37.8476562 152.64404,37.9721667 153.215332,38.2211914 C153.786624,38.4702161 154.365231,38.7338853 154.951172,39.012207 C155.537112,39.2905287 156.123044,39.5468738 156.708984,39.78125 C157.265628,40.0449232 157.866208,40.1767578 158.510742,40.1767578 C158.979495,40.1767578 159.602047,40.1328129 160.378418,40.0449219 C161.154789,39.9570308 161.887204,39.7885755 162.575684,39.5395508 C163.264164,39.2905261 163.857419,38.9462913 164.355469,38.5068359 C164.853518,38.0673806 165.102539,37.5107456 165.102539,36.8369141 C165.102539,35.8408153 164.882815,34.9765662 164.443359,34.2441406 C164.003904,33.5117151 163.432621,32.903811 162.729492,32.4204102 C162.026364,31.9370093 161.235356,31.5634779 160.356445,31.2998047 C159.477535,31.0361315 158.598637,30.9042969 157.719727,30.9042969 C157.602538,30.9042969 157.316897,30.9335935 156.862793,30.9921875 C156.408689,31.0507815 155.888675,31.1459954 155.302734,31.277832 C154.716794,31.4096686 154.101566,31.5707998 153.457031,31.7612305 C152.812497,31.9516611 152.219241,32.1860338 151.677246,32.4643555 C151.135251,32.7426772 150.688478,33.0576154 150.336914,33.4091797 C149.98535,33.7607439 149.80957,34.1562478 149.80957,34.5957031 L149.80957,35.1230469 C149.838867,35.4453141 149.875488,35.8774387 149.919434,36.4194336 C149.963379,36.9614285 150,37.5034153 150.029297,38.0454102 C150.058594,38.5874051 150.102539,39.0634745 150.161133,39.4736328 C150.219727,39.8837911 150.249023,40.1181638 150.249023,40.1767578 C150.307617,40.6455102 150.410156,41.3706006 150.556641,42.3520508 C150.703126,43.333501 150.864257,44.4321228 151.040039,45.6479492 C151.215821,46.8637756 151.413573,48.1455011 151.633301,49.4931641 C151.853028,50.8408271 152.065429,52.1225525 152.270508,53.3383789 C152.475587,54.5542053 152.658691,55.645503 152.819824,56.6123047 C152.980958,57.5791064 153.105468,58.2822244 153.193359,58.7216797 C153.193359,58.7802737 153.200684,58.8315427 153.215332,58.8754883 C153.229981,58.9194338 153.237305,58.9560545 153.237305,58.9853516 L153.237305,59.0292969 L153.193359,59.1171875 L153.193359,59.2050781 C153.134765,59.2929692 153.002931,59.4394521 152.797852,59.6445312 C152.563475,59.8203134 152.416992,59.9374997 152.358398,59.9960938 L152.094727,59.9960938 C151.801756,59.9960938 151.494142,59.7251004 151.171875,59.1831055 C150.849608,58.6411106 150.520021,57.908696 150.183105,56.9858398 C149.84619,56.0629837 149.509279,55.0009826 149.172363,53.7998047 C148.835448,52.5986268 148.505861,51.3535221 148.183594,50.0644531 C147.861327,48.7753842 147.568361,47.5009829 147.304688,46.2412109 C147.041014,44.981439 146.806642,43.8095757 146.601562,42.7255859 C146.396483,41.6415961 146.242676,40.7041055 146.140137,39.9130859 C146.037597,39.1220664 145.986328,38.5654313 145.986328,38.2431641 Z M169.321289,38.6826172 C169.555665,38.5068351 169.768065,38.3969729 169.958496,38.3530273 C170.148927,38.3090818 170.361327,38.2871094 170.595703,38.2871094 C170.859376,38.2871094 171.123046,38.3530267 171.386719,38.4848633 C171.650392,38.6166999 171.892089,38.7778311 172.111816,38.9682617 C172.331544,39.1586924 172.558593,39.341796 172.792969,39.5175781 C173.027345,39.6933603 173.276366,39.8398432 173.540039,39.9570312 C174.301762,40.2792985 174.909666,40.5429677 175.36377,40.7480469 C175.817873,40.953126 176.23535,41.1142572 176.616211,41.2314453 C176.997072,41.3486334 177.436521,41.4218749 177.93457,41.4511719 C178.43262,41.4804689 179.077144,41.4951172 179.868164,41.4951172 C180.483402,41.4951172 181.230464,41.5024413 182.109375,41.5170898 C182.988286,41.5317384 183.823238,41.4584969 184.614258,41.2973633 C185.405277,41.1362297 186.079099,40.8432638 186.635742,40.418457 C187.192386,39.9936502 187.470703,39.3418013 187.470703,38.4628906 C187.5,37.613277 187.272952,36.9467798 186.789551,36.4633789 C186.30615,35.9799781 185.654301,35.6064466 184.833984,35.3427734 C184.013668,35.0791002 183.090825,34.8959966 182.06543,34.793457 C181.040034,34.6909175 179.985357,34.5810553 178.901367,34.4638672 C177.817377,34.3466791 176.755376,34.1782238 175.715332,33.9584961 C174.675288,33.7387684 173.745121,33.3945336 172.924805,32.9257812 C172.104488,32.4570289 171.445315,31.8125041 170.947266,30.9921875 C170.449216,30.1718709 170.185547,29.1171939 170.15625,27.828125 C170.332032,26.8906203 170.793453,26.1069367 171.540527,25.4770508 C172.287601,24.8471648 173.181147,24.3637712 174.221191,24.0268555 C175.261236,23.6899397 176.367182,23.5141602 177.539062,23.4995117 C178.710943,23.4848632 179.787593,23.6313461 180.769043,23.9389648 C181.750493,24.2465836 182.570797,24.7373013 183.22998,25.4111328 C183.889163,26.0849643 184.233398,26.9199169 184.262695,27.9160156 C184.321289,28.5019561 184.277344,28.9853497 184.130859,29.3662109 C183.984374,29.7470722 183.786622,30.0327139 183.537598,30.2231445 C183.288573,30.4135752 183.032228,30.5014649 182.768555,30.4868164 C182.504881,30.4721679 182.299805,30.3696299 182.15332,30.1791992 C182.006835,29.9887686 181.940918,29.710451 181.955566,29.3442383 C181.970215,28.9780255 182.13867,28.5166043 182.460938,27.9599609 C182.343749,27.4033175 182.006839,26.9638688 181.450195,26.6416016 C180.893552,26.3193343 180.249027,26.0922858 179.516602,25.9604492 C178.784176,25.8286126 178.000492,25.799316 177.165527,25.8725586 C176.330562,25.9458011 175.568851,26.0996082 174.880371,26.3339844 C174.191891,26.5683605 173.635256,26.8759747 173.210449,27.2568359 C172.785642,27.6376972 172.602539,28.0771459 172.661133,28.5751953 C172.661133,29.454106 172.917478,30.1352515 173.430176,30.6186523 C173.942874,31.1020532 174.609371,31.4755846 175.429688,31.7392578 C176.250004,32.002931 177.194819,32.1933588 178.26416,32.3105469 C179.333501,32.427735 180.432123,32.5375971 181.560059,32.6401367 C182.687994,32.7426763 183.779292,32.8891592 184.833984,33.0795898 C185.888677,33.2700205 186.840816,33.5849587 187.69043,34.0244141 C188.540043,34.4638694 189.213865,35.0571252 189.711914,35.8041992 C190.209963,36.5512733 190.458984,37.5253846 190.458984,38.7265625 C190.458984,39.6347702 190.224612,40.4184537 189.755859,41.0776367 C189.287107,41.7368197 188.693851,42.2861306 187.976074,42.7255859 C187.258297,43.1650413 186.474614,43.4873037 185.625,43.6923828 C184.775386,43.897462 183.96973,44 183.208008,44 C182.446285,44 181.633305,43.9926759 180.769043,43.9780273 C179.904781,43.9633788 179.025883,43.9121098 178.132324,43.8242188 C177.238765,43.7363277 176.337895,43.5971689 175.429688,43.4067383 C174.52148,43.2163076 173.679203,42.9233418 172.902832,42.527832 C172.126461,42.1323222 171.430667,41.6269562 170.81543,41.0117188 C170.200192,40.3964813 169.70215,39.6201219 169.321289,38.6826172 Z M209.443359,32.2226562 C209.443359,30.6992111 209.670408,29.2417062 210.124512,27.8500977 C210.578616,26.4584891 211.237789,25.2353568 212.102051,24.1806641 C212.966313,23.1259713 214.02099,22.2836946 215.266113,21.6538086 C216.511237,21.0239226 217.954093,20.7089844 219.594727,20.7089844 C220.561528,20.8261725 221.403805,21.0898417 222.121582,21.5 C222.839359,21.9101583 223.425291,22.4155243 223.879395,23.0161133 C224.333498,23.6167022 224.663085,24.312496 224.868164,25.1035156 C225.043946,25.8652382 225.131836,26.6855425 225.131836,27.5644531 C225.131836,28.6191459 224.824222,29.5712848 224.208984,30.4208984 C223.593747,31.2705121 222.817387,31.9809542 221.879883,32.5522461 C220.942378,33.123538 219.931646,33.5629867 218.847656,33.8706055 C217.763666,34.1782242 216.752934,34.3320312 215.81543,34.3320312 L214.73877,34.3320312 C214.372557,34.3320312 214.04297,34.2734381 213.75,34.15625 C213.45703,34.0390619 213.222657,33.8632824 213.046875,33.6289062 C212.871093,33.3945301 212.783203,33.0429711 212.783203,32.5742188 C212.783203,32.4277336 212.805176,32.3032232 212.849121,32.2006836 C212.893067,32.098144 213.017577,32.0249026 213.222656,31.980957 C213.427735,31.9370115 213.73535,31.9296874 214.145508,31.9589844 C214.555666,32.0175784 215.112301,32.1054682 215.81543,32.2226562 C216.225588,32.2226562 216.818844,32.0834975 217.595215,31.8051758 C218.371586,31.5268541 219.162594,31.1679709 219.968262,30.7285156 C220.77393,30.2890603 221.469724,29.7836943 222.055664,29.2124023 C222.641604,28.6411104 222.93457,28.0771512 222.93457,27.5205078 C222.93457,26.9345674 222.839356,26.3559599 222.648926,25.784668 C222.458495,25.213376 222.172853,24.70801 221.791992,24.2685547 C221.411131,23.8290994 220.964358,23.4775404 220.45166,23.2138672 C219.938962,22.950194 219.360355,22.847656 218.71582,22.90625 C217.690425,22.9941411 216.760258,23.2724586 215.925293,23.7412109 C215.090328,24.2099633 214.379886,24.8178674 213.793945,25.5649414 C213.208005,26.3120155 212.753908,27.1396439 212.431641,28.0478516 C212.109373,28.9560592 211.948242,29.9081981 211.948242,30.9042969 C211.948242,31.6660194 211.96289,32.4277306 211.992188,33.1894531 C212.021485,33.9511757 212.131347,34.6982385 212.321777,35.4306641 C212.512208,36.1630896 212.819822,36.8662076 213.244629,37.5400391 C213.669436,38.2138706 214.284664,38.8071263 215.090332,39.3198242 C215.896,39.8325221 216.914056,40.2573225 218.144531,40.5942383 C219.375006,40.931154 220.898428,41.1435542 222.714844,41.2314453 L230.581055,40.7041016 C230.112302,41.348636 229.519047,41.8759745 228.80127,42.2861328 C228.083493,42.6962911 227.321781,43.0258777 226.516113,43.2749023 C225.710445,43.523927 224.912113,43.7070307 224.121094,43.8242188 C223.330074,43.9414068 222.583011,44 221.879883,44 C220.180656,44 218.583992,43.7216825 217.089844,43.1650391 C215.595696,42.6083957 214.277349,41.8247121 213.134766,40.8139648 C211.992182,39.8032176 211.091312,38.5727612 210.432129,37.1225586 C209.772946,35.672356 209.443359,34.0390716 209.443359,32.2226562 Z M233.085938,26.8613281 C233.085938,26.5976549 233.181151,26.4291996 233.371582,26.355957 C233.562013,26.2827145 233.774413,26.2460938 234.008789,26.2460938 C234.184571,26.2460938 234.309082,26.2900386 234.382324,26.3779297 C234.455567,26.4658208 234.506836,26.5683588 234.536133,26.6855469 C234.56543,26.802735 234.609375,26.9125971 234.667969,27.0151367 C234.726563,27.1176763 234.829101,27.1689453 234.975586,27.1689453 C235.385744,27.1689453 235.883786,27.0078141 236.469727,26.6855469 C237.055667,26.3632796 237.692868,26.0117207 238.381348,25.6308594 C239.069828,25.2499981 239.802242,24.8984391 240.578613,24.5761719 C241.354984,24.2539046 242.12402,24.0927734 242.885742,24.0927734 C243.881841,24.0927734 244.797359,24.3491185 245.632324,24.8618164 C246.467289,25.3745143 247.214352,26.0556598 247.873535,26.9052734 C248.532718,27.7548871 249.096677,28.707026 249.56543,29.7617188 C250.034182,30.8164115 250.429686,31.8930609 250.751953,32.9916992 C251.07422,34.0903375 251.308593,35.1596628 251.455078,36.199707 C251.601563,37.2397513 251.674805,38.1406212 251.674805,38.9023438 C251.674805,39.1660169 251.652832,39.5615208 251.608887,40.0888672 C251.564941,40.6162136 251.4917,41.1435521 251.38916,41.6708984 C251.286621,42.1982448 251.118165,42.659666 250.883789,43.0551758 C250.649413,43.4506856 250.356447,43.6484375 250.004883,43.6484375 C249.946289,43.6484375 249.843751,43.6411134 249.697266,43.6264648 C249.550781,43.6118163 249.404298,43.5825198 249.257812,43.5385742 C249.111327,43.4946287 248.986817,43.4433597 248.884277,43.3847656 C248.781738,43.3261716 248.730469,43.2382818 248.730469,43.1210938 C248.994142,40.8652231 248.994142,38.748545 248.730469,36.7709961 C248.466796,34.7934471 248.041995,33.0576247 247.456055,31.5634766 C246.870114,30.0693285 246.152348,28.8828169 245.302734,28.0039062 C244.453121,27.1249956 243.544927,26.6855469 242.578125,26.6855469 C241.669917,26.6855469 240.820316,26.8320298 240.029297,27.125 C239.238277,27.4179702 238.549808,27.8427707 237.963867,28.3994141 C237.377927,28.9560575 236.916506,29.6298789 236.57959,30.4208984 C236.242674,31.211918 236.074219,32.0761672 236.074219,33.0136719 C236.074219,33.9511766 236.162108,34.881343 236.337891,35.8041992 C236.513673,36.7270554 236.711425,37.6498977 236.931152,38.5727539 C237.15088,39.4956101 237.348632,40.4257766 237.524414,41.3632812 C237.700196,42.3007859 237.788086,43.2382766 237.788086,44.1757812 C236.967769,44.1757812 236.2793,43.8388706 235.722656,43.1650391 C235.166013,42.4912076 234.71924,41.6269584 234.382324,40.5722656 C234.045408,39.5175729 233.781739,38.3310613 233.591309,37.0126953 C233.400878,35.6943293 233.269043,34.3979556 233.195801,33.1235352 C233.122558,31.8491147 233.085938,30.6479549 233.085938,29.5200195 L233.085938,26.8613281 Z M275.361328,28.8828125 L274.130859,28.8828125 C273.544919,28.8828125 272.937015,28.8315435 272.307129,28.7290039 C271.677243,28.6264643 271.10596,28.458009 270.593262,28.2236328 C270.080564,27.9892566 269.824219,27.6523459 269.824219,27.2128906 C269.824219,27.0957025 269.846191,26.9272472 269.890137,26.7075195 C269.934082,26.4877919 270.073241,26.3779297 270.307617,26.3779297 L274.833984,25.9824219 C274.951172,24.8984321 275.039062,24.0122105 275.097656,23.3237305 C275.15625,22.6352505 275.170899,21.9907257 275.141602,21.3901367 C275.112305,20.7895478 275.075684,20.1596713 275.031738,19.5004883 C274.987793,18.8413053 274.951172,17.9843803 274.921875,16.9296875 C274.921875,16.7246083 274.96582,16.5634771 275.053711,16.4462891 C275.141602,16.329101 275.251464,16.2412112 275.383301,16.1826172 C275.515137,16.1240231 275.66162,16.0800783 275.822754,16.0507812 C275.983888,16.0214842 276.108398,16.0068359 276.196289,16.0068359 C276.372071,16.0068359 276.555175,16.0654291 276.745605,16.1826172 C276.936036,16.2998053 277.104491,16.4462882 277.250977,16.6220703 C277.397462,16.7978524 277.514648,16.9809561 277.602539,17.1713867 C277.69043,17.3618174 277.734375,17.544921 277.734375,17.7207031 L278.085938,25.9384766 L281.865234,26.1142578 C282.363284,26.0556638 282.824705,26.1508777 283.249512,26.3999023 C283.674319,26.648927 283.901367,27.1103482 283.930664,27.7841797 C283.5791,28.165041 283.154299,28.3920895 282.65625,28.465332 C282.158201,28.5385746 281.638186,28.5678712 281.096191,28.5532227 C280.554197,28.5385741 280.019534,28.5385741 279.492188,28.5532227 C278.964841,28.5678712 278.496096,28.7070299 278.085938,28.9707031 C278.085938,29.1464853 278.100586,29.6298789 278.129883,30.4208984 C278.15918,31.211918 278.188476,32.1494086 278.217773,33.2333984 C278.24707,34.3173882 278.283691,35.4746032 278.327637,36.7050781 C278.371582,37.935553 278.408203,39.0707956 278.4375,40.1108398 C278.466797,41.1508841 278.488769,42.0371057 278.503418,42.7695312 C278.518066,43.5019568 278.525391,43.9121089 278.525391,44 C277.851559,44.4101583 277.309572,44.3735376 276.899414,43.8901367 C276.489256,43.4067359 276.159669,42.6889696 275.910645,41.7368164 C275.66162,40.7846632 275.48584,39.6713931 275.383301,38.3969727 C275.280761,37.1225522 275.222168,35.8627992 275.20752,34.6176758 C275.192871,33.3725524 275.200195,32.2226615 275.229492,31.1679688 C275.258789,30.113276 275.302734,29.3515648 275.361328,28.8828125 Z M284.985352,32.2226562 C284.985352,30.6992111 285.2124,29.2417062 285.666504,27.8500977 C286.120608,26.4584891 286.779781,25.2353568 287.644043,24.1806641 C288.508305,23.1259713 289.562982,22.2836946 290.808105,21.6538086 C292.053229,21.0239226 293.496086,20.7089844 295.136719,20.7089844 C296.10352,20.8261725 296.945797,21.0898417 297.663574,21.5 C298.381351,21.9101583 298.967283,22.4155243 299.421387,23.0161133 C299.875491,23.6167022 300.205077,24.312496 300.410156,25.1035156 C300.585938,25.8652382 300.673828,26.6855425 300.673828,27.5644531 C300.673828,28.6191459 300.366214,29.5712848 299.750977,30.4208984 C299.135739,31.2705121 298.35938,31.9809542 297.421875,32.5522461 C296.48437,33.123538 295.473638,33.5629867 294.389648,33.8706055 C293.305659,34.1782242 292.294927,34.3320312 291.357422,34.3320312 L290.280762,34.3320312 C289.914549,34.3320312 289.584962,34.2734381 289.291992,34.15625 C288.999022,34.0390619 288.764649,33.8632824 288.588867,33.6289062 C288.413085,33.3945301 288.325195,33.0429711 288.325195,32.5742188 C288.325195,32.4277336 288.347168,32.3032232 288.391113,32.2006836 C288.435059,32.098144 288.559569,32.0249026 288.764648,31.980957 C288.969728,31.9370115 289.277342,31.9296874 289.6875,31.9589844 C290.097658,32.0175784 290.654293,32.1054682 291.357422,32.2226562 C291.76758,32.2226562 292.360836,32.0834975 293.137207,31.8051758 C293.913578,31.5268541 294.704586,31.1679709 295.510254,30.7285156 C296.315922,30.2890603 297.011716,29.7836943 297.597656,29.2124023 C298.183597,28.6411104 298.476562,28.0771512 298.476562,27.5205078 C298.476562,26.9345674 298.381349,26.3559599 298.190918,25.784668 C298.000487,25.213376 297.714846,24.70801 297.333984,24.2685547 C296.953123,23.8290994 296.50635,23.4775404 295.993652,23.2138672 C295.480954,22.950194 294.902347,22.847656 294.257812,22.90625 C293.232417,22.9941411 292.30225,23.2724586 291.467285,23.7412109 C290.63232,24.2099633 289.921878,24.8178674 289.335938,25.5649414 C288.749997,26.3120155 288.2959,27.1396439 287.973633,28.0478516 C287.651366,28.9560592 287.490234,29.9081981 287.490234,30.9042969 C287.490234,31.6660194 287.504883,32.4277306 287.53418,33.1894531 C287.563477,33.9511757 287.673339,34.6982385 287.86377,35.4306641 C288.0542,36.1630896 288.361814,36.8662076 288.786621,37.5400391 C289.211428,38.2138706 289.826656,38.8071263 290.632324,39.3198242 C291.437992,39.8325221 292.456049,40.2573225 293.686523,40.5942383 C294.916998,40.931154 296.440421,41.1435542 298.256836,41.2314453 L306.123047,40.7041016 C305.654295,41.348636 305.061039,41.8759745 304.343262,42.2861328 C303.625485,42.6962911 302.863774,43.0258777 302.058105,43.2749023 C301.252437,43.523927 300.454106,43.7070307 299.663086,43.8242188 C298.872066,43.9414068 298.125004,44 297.421875,44 C295.722648,44 294.125984,43.7216825 292.631836,43.1650391 C291.137688,42.6083957 289.819342,41.8247121 288.676758,40.8139648 C287.534174,39.8032176 286.633304,38.5727612 285.974121,37.1225586 C285.314938,35.672356 284.985352,34.0390716 284.985352,32.2226562 Z M336.84082,42.4619141 C336.84082,42.374023 336.848144,42.2568367 336.862793,42.1103516 C336.877441,41.9638665 336.884766,41.8173835 336.884766,41.6708984 L336.884766,41.2753906 L336.928711,41.0117188 C336.928711,40.9238277 336.950683,40.6748067 336.994629,40.2646484 C337.038574,39.8544901 337.089843,39.4150414 337.148438,38.9462891 C337.207032,38.4775367 337.250976,38.0307638 337.280273,37.605957 C337.30957,37.1811502 337.324219,36.9101568 337.324219,36.7929688 C337.265625,36.1777313 337.13379,35.3720753 336.928711,34.3759766 C336.723632,33.3798778 336.408694,32.3984423 335.983887,31.4316406 C335.55908,30.4648389 335.024417,29.6298863 334.379883,28.9267578 C333.735348,28.2236293 332.973637,27.8720703 332.094727,27.8720703 C331.303707,27.8720703 330.476079,28.0698222 329.611816,28.465332 C328.747554,28.8608418 327.941898,29.373532 327.194824,30.003418 C326.44775,30.6333039 325.839846,31.3583943 325.371094,32.1787109 C324.873044,32.9697305 324.624023,33.8046831 324.624023,34.6835938 C324.624023,35.1230491 324.697265,35.5551737 324.84375,35.9799805 C324.990235,36.4047873 325.144042,36.8222636 325.305176,37.2324219 C325.466309,37.6425802 325.620116,38.0673806 325.766602,38.5068359 C325.913087,38.9462913 325.986328,39.4003883 325.986328,39.8691406 C325.986328,40.2207049 325.920411,40.5722639 325.788574,40.9238281 C325.656738,41.2753924 325.341799,41.4511719 324.84375,41.4511719 C324.316404,41.4511719 323.884279,41.1435578 323.547363,40.5283203 C323.210448,39.9130829 322.902833,39.1293993 322.624512,38.1772461 C322.34619,37.2250929 322.053224,36.2070367 321.745605,35.1230469 C321.437987,34.0390571 321.057131,33.0210009 320.603027,32.0688477 C320.148924,31.1166945 319.592288,30.3330109 318.933105,29.7177734 C318.273922,29.102536 317.431646,28.7949219 316.40625,28.7949219 C315.61523,28.7949219 314.912112,28.9633772 314.296875,29.300293 C313.681638,29.6372087 313.176272,30.0839816 312.780762,30.640625 C312.385252,31.1972684 312.077638,31.8271449 311.85791,32.5302734 C311.638182,33.233402 311.52832,33.9511682 311.52832,34.6835938 C311.52832,35.8554746 311.608886,37.0053655 311.77002,38.1333008 C311.931153,39.2612361 312.011719,40.3964787 312.011719,41.5390625 C312.011719,41.9492208 311.967774,42.3227522 311.879883,42.659668 C311.791992,42.9965837 311.499026,43.1650391 311.000977,43.1650391 C310.678709,43.1650391 310.407716,43.0844735 310.187988,42.9233398 C309.968261,42.7622062 309.785157,42.5571302 309.638672,42.3081055 C309.492187,42.0590808 309.375,41.7807633 309.287109,41.4731445 C309.199218,41.1655258 309.125977,40.8945324 309.067383,40.6601562 C309.125977,39.4589784 309.133301,38.3457083 309.089355,37.3203125 C309.04541,36.2949167 308.986817,35.3208054 308.913574,34.3979492 C308.840332,33.475093 308.76709,32.5449266 308.693848,31.6074219 C308.620605,30.6699172 308.583984,29.6738334 308.583984,28.6191406 L308.583984,28.3115234 C308.583984,28.1650383 308.591309,28.0112313 308.605957,27.8500977 C308.620606,27.688964 308.62793,27.5424811 308.62793,27.4106445 L308.62793,27.125 C308.657227,27.066406 308.730468,26.9931645 308.847656,26.9052734 C308.964844,26.8173824 309.038086,26.7441409 309.067383,26.6855469 L309.287109,26.6855469 C309.785159,26.6855469 310.151366,26.8613264 310.385742,27.2128906 C310.620118,27.5058608 310.737305,27.8867164 310.737305,28.3554688 C311.206057,27.8574194 311.623533,27.4692397 311.989746,27.190918 C312.355959,26.9125963 312.707518,26.700196 313.044434,26.5537109 C313.381349,26.4072258 313.732908,26.3193361 314.099121,26.2900391 C314.465334,26.260742 314.912107,26.2460938 315.439453,26.2460938 C316.289067,26.2460938 317.058102,26.3339835 317.746582,26.5097656 C318.435062,26.6855478 319.057614,26.9418928 319.614258,27.2788086 C320.170901,27.6157243 320.683591,28.0624972 321.152344,28.6191406 C321.621096,29.146487 322.089841,29.7617152 322.558594,30.4648438 C322.587891,30.4648438 322.624511,30.4721679 322.668457,30.4868164 C322.712403,30.5014649 322.749023,30.5087891 322.77832,30.5087891 C322.807617,30.5087891 322.9541,30.3696303 323.217773,30.0913086 C323.481447,29.8129869 323.833006,29.4760762 324.272461,29.0805664 C324.711916,28.6850566 325.224606,28.2456079 325.810547,27.762207 C326.396487,27.2788062 327.011716,26.8320333 327.65625,26.421875 C328.300784,26.0117167 328.959958,25.6674819 329.633789,25.3891602 C330.307621,25.1108385 330.966794,24.9716797 331.611328,24.9716797 C332.607427,24.9716797 333.493648,25.1767558 334.27002,25.5869141 C335.046391,25.9970724 335.742184,26.5463833 336.357422,27.2348633 C336.972659,27.9233433 337.499998,28.6997027 337.939453,29.5639648 C338.378908,30.428227 338.745116,31.3217727 339.038086,32.2446289 C339.331056,33.1674851 339.543456,34.0830033 339.675293,34.9912109 C339.80713,35.8994186 339.873047,36.7343712 339.873047,37.4960938 C339.873047,37.789064 339.865723,38.29443 339.851074,39.012207 C339.836426,39.7299841 339.763184,40.4623986 339.631348,41.2094727 C339.499511,41.9565467 339.287111,42.6157198 338.994141,43.1870117 C338.70117,43.7583036 338.291018,44.0439453 337.763672,44.0439453 C337.499999,44.0439453 337.309571,43.9926763 337.192383,43.8901367 C337.075195,43.7875971 336.987305,43.6630867 336.928711,43.5166016 C336.870117,43.3701165 336.84082,43.2089853 336.84082,43.0332031 L336.84082,42.4619141 Z M341.938477,38.2431641 C341.938477,36.3974517 342.260739,34.8447329 342.905273,33.5849609 C343.549808,32.325189 344.406733,31.3144569 345.476074,30.5527344 C346.545416,29.7910118 347.79052,29.2343768 349.211426,28.8828125 C350.632331,28.5312482 352.119133,28.3554688 353.671875,28.3554688 C354.931647,28.3554688 356.154779,28.5605448 357.341309,28.9707031 C358.527838,29.3808614 359.589839,29.9521448 360.527344,30.6845703 C361.464848,31.4169958 362.211911,32.3105416 362.768555,33.3652344 C363.325198,34.4199271 363.603516,35.621087 363.603516,36.96875 C363.603516,38.1406309 363.383791,39.1000939 362.944336,39.847168 C362.504881,40.594242 361.904301,41.1801737 361.142578,41.6049805 C360.380856,42.0297873 359.538579,42.3300772 358.615723,42.5058594 C357.692866,42.6816415 356.748052,42.7695312 355.78125,42.7695312 C354.843745,42.7695312 353.884282,42.7255864 352.902832,42.6376953 C351.921382,42.5498042 351.020512,42.3447282 350.200195,42.0224609 C349.379879,41.7001937 348.706057,41.2168001 348.178711,40.5722656 C347.651365,39.9277312 347.387695,39.0195371 347.387695,37.8476562 C348.002933,37.8476562 348.596189,37.9721667 349.16748,38.2211914 C349.738772,38.4702161 350.31738,38.7338853 350.90332,39.012207 C351.489261,39.2905287 352.075192,39.5468738 352.661133,39.78125 C353.217776,40.0449232 353.818356,40.1767578 354.462891,40.1767578 C354.931643,40.1767578 355.554195,40.1328129 356.330566,40.0449219 C357.106937,39.9570308 357.839352,39.7885755 358.527832,39.5395508 C359.216312,39.2905261 359.809568,38.9462913 360.307617,38.5068359 C360.805667,38.0673806 361.054688,37.5107456 361.054688,36.8369141 C361.054688,35.8408153 360.834963,34.9765662 360.395508,34.2441406 C359.956052,33.5117151 359.384769,32.903811 358.681641,32.4204102 C357.978512,31.9370093 357.187504,31.5634779 356.308594,31.2998047 C355.429683,31.0361315 354.550786,30.9042969 353.671875,30.9042969 C353.554687,30.9042969 353.269045,30.9335935 352.814941,30.9921875 C352.360838,31.0507815 351.840823,31.1459954 351.254883,31.277832 C350.668942,31.4096686 350.053714,31.5707998 349.40918,31.7612305 C348.764645,31.9516611 348.171389,32.1860338 347.629395,32.4643555 C347.0874,32.7426772 346.640627,33.0576154 346.289062,33.4091797 C345.937498,33.7607439 345.761719,34.1562478 345.761719,34.5957031 L345.761719,35.1230469 C345.791016,35.4453141 345.827636,35.8774387 345.871582,36.4194336 C345.915528,36.9614285 345.952148,37.5034153 345.981445,38.0454102 C346.010742,38.5874051 346.054687,39.0634745 346.113281,39.4736328 C346.171875,39.8837911 346.201172,40.1181638 346.201172,40.1767578 C346.259766,40.6455102 346.362304,41.3706006 346.508789,42.3520508 C346.655274,43.333501 346.816405,44.4321228 346.992188,45.6479492 C347.16797,46.8637756 347.365722,48.1455011 347.585449,49.4931641 C347.805177,50.8408271 348.017577,52.1225525 348.222656,53.3383789 C348.427735,54.5542053 348.610839,55.645503 348.771973,56.6123047 C348.933106,57.5791064 349.057617,58.2822244 349.145508,58.7216797 C349.145508,58.7802737 349.152832,58.8315427 349.16748,58.8754883 C349.182129,58.9194338 349.189453,58.9560545 349.189453,58.9853516 L349.189453,59.0292969 L349.145508,59.1171875 L349.145508,59.2050781 C349.086914,59.2929692 348.955079,59.4394521 348.75,59.6445312 C348.515624,59.8203134 348.369141,59.9374997 348.310547,59.9960938 L348.046875,59.9960938 C347.753905,59.9960938 347.446291,59.7251004 347.124023,59.1831055 C346.801756,58.6411106 346.47217,57.908696 346.135254,56.9858398 C345.798338,56.0629837 345.461427,55.0009826 345.124512,53.7998047 C344.787596,52.5986268 344.458009,51.3535221 344.135742,50.0644531 C343.813475,48.7753842 343.520509,47.5009829 343.256836,46.2412109 C342.993163,44.981439 342.75879,43.8095757 342.553711,42.7255859 C342.348632,41.6415961 342.194825,40.7041055 342.092285,39.9130859 C341.989746,39.1220664 341.938477,38.5654313 341.938477,38.2431641 Z M365.273438,38.6826172 C365.507814,38.5068351 365.720214,38.3969729 365.910645,38.3530273 C366.101075,38.3090818 366.313475,38.2871094 366.547852,38.2871094 C366.811525,38.2871094 367.075194,38.3530267 367.338867,38.4848633 C367.60254,38.6166999 367.844237,38.7778311 368.063965,38.9682617 C368.283693,39.1586924 368.510741,39.341796 368.745117,39.5175781 C368.979493,39.6933603 369.228514,39.8398432 369.492188,39.9570312 C370.25391,40.2792985 370.861814,40.5429677 371.315918,40.7480469 C371.770022,40.953126 372.187498,41.1142572 372.568359,41.2314453 C372.949221,41.3486334 373.388669,41.4218749 373.886719,41.4511719 C374.384768,41.4804689 375.029293,41.4951172 375.820312,41.4951172 C376.43555,41.4951172 377.182613,41.5024413 378.061523,41.5170898 C378.940434,41.5317384 379.775387,41.4584969 380.566406,41.2973633 C381.357426,41.1362297 382.031247,40.8432638 382.587891,40.418457 C383.144534,39.9936502 383.422852,39.3418013 383.422852,38.4628906 C383.452149,37.613277 383.2251,36.9467798 382.741699,36.4633789 C382.258298,35.9799781 381.606449,35.6064466 380.786133,35.3427734 C379.965816,35.0791002 379.042974,34.8959966 378.017578,34.793457 C376.992182,34.6909175 375.937505,34.5810553 374.853516,34.4638672 C373.769526,34.3466791 372.707525,34.1782238 371.66748,33.9584961 C370.627436,33.7387684 369.69727,33.3945336 368.876953,32.9257812 C368.056637,32.4570289 367.397463,31.8125041 366.899414,30.9921875 C366.401365,30.1718709 366.137695,29.1171939 366.108398,27.828125 C366.284181,26.8906203 366.745602,26.1069367 367.492676,25.4770508 C368.23975,24.8471648 369.133296,24.3637712 370.17334,24.0268555 C371.213384,23.6899397 372.31933,23.5141602 373.491211,23.4995117 C374.663092,23.4848632 375.739741,23.6313461 376.721191,23.9389648 C377.702642,24.2465836 378.522946,24.7373013 379.182129,25.4111328 C379.841312,26.0849643 380.185547,26.9199169 380.214844,27.9160156 C380.273438,28.5019561 380.229493,28.9853497 380.083008,29.3662109 C379.936523,29.7470722 379.738771,30.0327139 379.489746,30.2231445 C379.240721,30.4135752 378.984376,30.5014649 378.720703,30.4868164 C378.45703,30.4721679 378.251954,30.3696299 378.105469,30.1791992 C377.958984,29.9887686 377.893066,29.710451 377.907715,29.3442383 C377.922363,28.9780255 378.090819,28.5166043 378.413086,27.9599609 C378.295898,27.4033175 377.958987,26.9638688 377.402344,26.6416016 C376.8457,26.3193343 376.201176,26.0922858 375.46875,25.9604492 C374.736324,25.8286126 373.952641,25.799316 373.117676,25.8725586 C372.282711,25.9458011 371.521,26.0996082 370.83252,26.3339844 C370.14404,26.5683605 369.587404,26.8759747 369.162598,27.2568359 C368.737791,27.6376972 368.554687,28.0771459 368.613281,28.5751953 C368.613281,29.454106 368.869626,30.1352515 369.382324,30.6186523 C369.895022,31.1020532 370.561519,31.4755846 371.381836,31.7392578 C372.202153,32.002931 373.146967,32.1933588 374.216309,32.3105469 C375.28565,32.427735 376.384272,32.5375971 377.512207,32.6401367 C378.640142,32.7426763 379.73144,32.8891592 380.786133,33.0795898 C381.840826,33.2700205 382.792965,33.5849587 383.642578,34.0244141 C384.492192,34.4638694 385.166013,35.0571252 385.664062,35.8041992 C386.162112,36.5512733 386.411133,37.5253846 386.411133,38.7265625 C386.411133,39.6347702 386.17676,40.4184537 385.708008,41.0776367 C385.239255,41.7368197 384.646,42.2861306 383.928223,42.7255859 C383.210446,43.1650413 382.426762,43.4873037 381.577148,43.6923828 C380.727535,43.897462 379.921879,44 379.160156,44 C378.398434,44 377.585454,43.9926759 376.721191,43.9780273 C375.856929,43.9633788 374.978032,43.9121098 374.084473,43.8242188 C373.190914,43.7363277 372.290044,43.5971689 371.381836,43.4067383 C370.473628,43.2163076 369.631352,42.9233418 368.85498,42.527832 C368.078609,42.1323222 367.382816,41.6269562 366.767578,41.0117188 C366.152341,40.3964813 365.654299,39.6201219 365.273438,38.6826172 Z"></path>
        </g>
    </g>
</svg>