<?xml version="1.0" encoding="UTF-8"?>
<svg width="474px" height="112px" viewBox="0 0 474 112" version="1.1" xmlns="http://www.w3.org/2000/svg" xmlns:xlink="http://www.w3.org/1999/xlink">
    <!-- Generator: Sketch 52.6 (67491) - http://www.bohemiancoding.com/sketch -->
    <title>Les nuages nous repo</title>
    <desc>Created with Sketch.</desc>
    <g id="Symbols" stroke="none" stroke-width="1" fill="none" fill-rule="evenodd">
        <g id="Les-nuages-nous-reposent" transform="translate(-7.000000, -4.000000)" fill="#FFFFFF">
            <g id="Les-nuages-nous-reposent-Copy-2" transform="translate(-1.000000, 3.000000)">
                <path d="M21.6444579,106.846375 C20.825459,106.226609 19.8949745,105.523263 18.8529766,104.736317 C17.8109786,103.949371 16.781234,103.144188 15.7637118,102.320744 C14.7461896,101.497299 13.7733392,100.686176 12.8451314,99.8873509 C11.9169236,99.0885256 11.1327897,98.3510442 10.4927062,97.6748846 C9.85262276,96.998725 9.39103149,96.4246282 9.10791855,95.9525769 C8.85743999,95.4318609 8.88678337,95.0987975 9.19594956,94.9533768 C9.473055,94.6453579 9.88755969,94.6058562 10.4394761,94.8348705 C10.9913924,95.0638848 11.656587,95.4658688 12.4350798,96.0408347 C13.2135726,96.6158006 14.0648346,97.3189311 14.9888914,98.1502474 C15.9129483,98.9815637 16.8654025,99.8231015 17.8462827,100.674886 C18.8271629,101.526671 19.8141831,102.356114 20.8073729,103.163241 C21.8005626,103.970369 22.7514433,104.643299 23.6600434,105.182053 C23.9033672,105.345225 24.193491,105.478051 24.5304236,105.580536 C24.8673561,105.68302 25.2064308,105.74285 25.5476577,105.760028 C25.8888847,105.777206 26.2302499,105.741568 26.5717637,105.653114 C26.9295946,105.540328 27.1982506,105.350109 27.3777397,105.082453 L32.9543193,98.1868392 C33.1255064,97.9841649 33.3328304,97.9380066 33.5762976,98.0483627 C33.8197648,98.1587189 34.0023266,98.2546885 34.1239885,98.3362744 C34.5619714,98.6299839 34.7642124,98.9596133 34.7307176,99.3251727 C34.6972227,99.690732 34.5822871,100.125131 34.3859072,100.628383 C34.3206384,100.725712 34.2084236,100.906198 34.0492592,101.169847 C33.8900949,101.433496 33.7227745,101.709306 33.547293,101.997287 C33.3718115,102.285268 33.2024873,102.550917 33.0393154,102.79424 L32.6966561,103.305218 C31.9460653,104.424507 31.1715123,105.395426 30.3729738,106.218002 C29.5744352,107.040578 28.7298221,107.629411 27.8391089,107.984517 C26.9483957,108.339623 25.9974394,108.442672 24.9862115,108.293666 C23.9749837,108.14466 22.861077,107.662235 21.6444579,106.846375 Z M28.7014397,89.1053091 C27.7074681,87.9507938 26.9285838,86.6981123 26.3647634,85.347227 C25.800943,83.9963417 25.5024528,82.6393357 25.4692841,81.2761681 C25.4361153,79.9130006 25.6858398,78.5865726 26.218465,77.2968443 C26.7510902,76.007116 27.6390516,74.8270541 28.8823757,73.7566232 C29.6915082,73.2146424 30.5018434,72.864916 31.3134054,72.7074336 C32.1249675,72.5499511 32.8987311,72.5506425 33.6347197,72.709508 C34.3707082,72.8683735 35.07445,73.1806295 35.7459662,73.6462855 C36.3761652,74.1088541 36.9779783,74.6731632 37.5514235,75.3392297 C38.2395576,76.1385095 38.6276608,77.0607736 38.7157445,78.1060494 C38.8038282,79.1513253 38.6790062,80.1962566 38.3412746,81.2408747 C38.003543,82.2854927 37.5242962,83.277973 36.90352,84.2183453 C36.2827438,85.1587175 35.6171302,85.9347295 34.9066592,86.5464043 L34.0907318,87.248871 C33.8132041,87.4878065 33.5252038,87.6584415 33.2267223,87.760781 C32.9282408,87.8631205 32.6359384,87.8828256 32.3498064,87.8198969 C32.0636744,87.7569682 31.7676941,87.5478892 31.4618567,87.1926537 C31.3662825,87.0816426 31.3016971,86.9729487 31.2680985,86.8665687 C31.2344999,86.7601887 31.2810715,86.6234471 31.4078148,86.45634 C31.534558,86.2892328 31.7628992,86.0829795 32.0928451,85.837574 C32.4419058,85.6143707 32.9210852,85.3177999 33.5303978,84.9478526 C33.8412288,84.6802449 34.2000228,84.1877163 34.6067906,83.470252 C35.0135584,82.7527878 35.378856,81.9647218 35.7026944,81.1060305 C36.0265328,80.2473392 36.2241016,79.4103861 36.2954066,78.5951461 C36.3667116,77.7799061 36.2207753,77.1613744 35.8575934,76.7395322 C35.4752966,76.2954879 35.0256281,75.919123 34.5085744,75.6104262 C33.9915206,75.3017294 33.4453263,75.1051138 32.8699749,75.0205734 C32.2946235,74.9360331 31.7266701,74.9611074 31.1660978,75.0957971 C30.6055255,75.2304868 30.1001373,75.5302926 29.6499182,75.9952234 C28.9301851,76.7308494 28.4068636,77.5486543 28.0799378,78.4486627 C27.753012,79.348671 27.6112432,80.272888 27.6546273,81.2213413 C27.6980113,82.1697946 27.8938682,83.0932733 28.2422038,83.9918053 C28.5905393,84.8903372 29.0896519,85.7170285 29.7395564,86.4719038 C30.2365422,87.0491615 30.7446214,87.6168532 31.2638094,88.174996 C31.7829974,88.7331388 32.3536756,89.2276073 32.9758609,89.6584163 C33.5980463,90.0892252 34.2899153,90.4213677 35.0514887,90.6548535 C35.8130621,90.8883394 36.6663713,90.9365219 37.611442,90.7994027 C38.5565126,90.6622834 39.6051891,90.3199801 40.7575028,89.7724824 C41.9098166,89.2249847 43.202895,88.3919917 44.636777,87.2734784 L50.2539771,81.7415322 C50.3192681,82.5358184 50.2137418,83.322522 49.9373952,84.1016665 C49.6610487,84.8808111 49.2988384,85.6275606 48.8507535,86.3419375 C48.4026687,87.0563144 47.9171333,87.7159477 47.3941328,88.3208572 C46.8711323,88.9257667 46.3432133,89.4575915 45.8103601,89.9163476 C44.5226315,91.0250082 43.1310406,91.8558333 41.6355456,92.4088479 C40.1400506,92.9618625 38.6296516,93.228117 37.1043033,93.2076191 C35.5789549,93.1871213 34.0934358,92.8424147 32.6477014,92.1734888 C31.2019671,91.5045629 29.8865597,90.4818465 28.7014397,89.1053091 Z M50.8289501,78.4487016 C50.9271212,78.172669 51.0434116,77.963719 51.1778248,77.8218454 C51.312238,77.6799717 51.4771047,77.5442676 51.6724298,77.4147289 C51.8921706,77.2689978 52.1483404,77.1782033 52.4409467,77.1423427 C52.733553,77.1064821 53.0240355,77.1071813 53.3124031,77.1444405 C53.6007706,77.1816996 53.8911896,77.2088064 54.1836688,77.2257615 C54.4761479,77.2427167 54.7646383,77.2271603 55.0491484,77.1790918 C55.8620709,77.0266632 56.5144167,76.9104147 57.0062056,76.830343 C57.4979944,76.7502712 57.9349687,76.6538179 58.3171414,76.5409801 C58.6993141,76.4281423 59.1060235,76.2462991 59.5372818,75.995445 C59.9685401,75.7445909 60.5137723,75.4005725 61.1729946,74.9633793 C61.6857232,74.6233403 62.3123608,74.2165457 63.0529263,73.7429834 C63.7934918,73.2694211 64.4488469,72.7469082 65.0190115,72.175429 C65.589176,71.6039499 65.9888065,70.9873789 66.2179148,70.3256977 C66.4470231,69.6640164 66.3186942,68.9669516 65.8329241,68.2344823 C65.3877619,67.5102362 64.8301734,67.0802774 64.1601417,66.9445929 C63.49011,66.8089083 62.7404208,66.8578876 61.9110518,67.0915323 C61.0816827,67.3251769 60.2114009,67.6826324 59.3001801,68.1639095 C58.3889594,68.6451865 57.449289,69.1365446 56.4811409,69.6379985 C55.5129927,70.1394524 54.5348343,70.586028 53.5466364,70.9777387 C52.5584385,71.3694493 51.5929963,71.5966688 50.6502809,71.6594039 C49.7075655,71.7221391 48.8019956,71.5493251 47.9335442,71.1409568 C47.0650928,70.7325885 46.2624399,69.9993674 45.5255615,68.9412713 C45.1539005,68.0628167 45.1053026,67.1546825 45.3797663,66.2168416 C45.65423,65.2790006 46.1317264,64.3822897 46.8122699,63.5266818 C47.4928133,62.6710739 48.3173375,61.9133307 49.2858671,61.2534293 C50.2543967,60.593528 51.2326186,60.1205449 52.2205623,59.8344659 C53.2085059,59.5483869 54.1633512,59.5039641 55.085127,59.7011963 C56.0069027,59.8984286 56.755257,60.4040069 57.3302121,61.2179464 C57.7028901,61.6738746 57.9334368,62.1010149 58.0218589,62.4993799 C58.1102811,62.897745 58.1033509,63.2450906 58.0010681,63.5414271 C57.8987853,63.8377637 57.7337279,64.0526903 57.505891,64.1862136 C57.278054,64.3197368 57.0504747,64.347628 56.8231463,64.269888 C56.5958179,64.192148 56.3870586,63.996635 56.1968622,63.6833433 C56.0066658,63.3700516 55.8920282,62.8924064 55.8529459,62.2503935 C55.4476289,61.8512656 54.9239718,61.6712455 54.2819588,61.7103278 C53.6399459,61.7494102 52.977321,61.9164178 52.2940644,62.2113559 C51.6108078,62.5062939 50.941507,62.9150172 50.286142,63.4375379 C49.630777,63.9600586 49.0809882,64.5092333 48.6367593,65.0850784 C48.1925304,65.6609235 47.8986571,66.2249337 47.7551306,66.7771259 C47.6116042,67.3293182 47.7018901,67.796748 48.0259911,68.1794292 C48.5117612,68.9118986 49.1018611,69.3378729 49.7963085,69.4573652 C50.4907558,69.5768574 51.2526526,69.519782 52.0820217,69.2861374 C52.9113907,69.0524927 53.8040321,68.688997 54.7599724,68.1956392 C55.7159128,67.7022815 56.692206,67.1866352 57.6888815,66.648685 C58.685557,66.1107348 59.6759866,65.6296556 60.6602,65.2054332 C61.6444133,64.7812107 62.6119749,64.5174319 63.5629136,64.4140888 C64.5138524,64.3107456 65.4032937,64.4327368 66.2312642,64.780066 C67.0592348,65.1273952 67.8051518,65.8015704 68.4690376,66.8026118 C68.9710001,67.5594968 69.2088164,68.3421422 69.1824937,69.1505716 C69.156171,69.959001 68.9653634,70.7446774 68.6100651,71.5076243 C68.2547669,72.2705712 67.7797713,72.9722778 67.185064,73.6127651 C66.5903566,74.2532524 65.9756088,74.7839885 65.3408021,75.2049892 C64.7059953,75.62599 64.0244234,76.0692168 63.2960657,76.534683 C62.567708,77.0001491 61.8069135,77.4431852 61.0136594,77.8638045 C60.2204052,78.2844239 59.392723,78.6663582 58.5305878,79.009619 C57.6684526,79.3528798 56.8045925,79.5742497 55.9389813,79.6737355 C55.0733702,79.7732212 54.2141937,79.7366199 53.3614261,79.5639305 C52.5086585,79.391241 51.6645083,79.0195018 50.8289501,78.4487016 Z M78.712745,46.1854746 C78.5737125,45.9614355 78.5657893,45.7680961 78.6889752,45.6054507 C78.812161,45.4428052 78.9733245,45.2996924 79.1724703,45.176108 C79.3218297,45.0834197 79.4507961,45.0551057 79.5593734,45.0911652 C79.6679506,45.1272248 79.7655805,45.1873161 79.852266,45.271441 C79.9389514,45.3555659 80.0342201,45.4257424 80.1380747,45.4819726 C80.2419294,45.5382028 80.3560881,45.5276979 80.4805542,45.4504576 C80.8290595,45.2341848 81.1672751,44.8346611 81.4952111,44.2518744 C81.8231472,43.6690877 82.179193,43.0343832 82.5633592,42.3477419 C82.9475255,41.6611006 83.384473,40.9761907 83.8742151,40.2929916 C84.3639572,39.6097926 84.9324317,39.0673765 85.5796557,38.665727 C86.4260257,38.1404931 87.339096,37.8755611 88.3188941,37.8709231 C89.2986922,37.8662851 90.292622,38.0511246 91.3007134,38.4254471 C92.3088047,38.7997696 93.2900466,39.3114169 94.2444683,39.9604044 C95.19889,40.6093919 96.1026512,41.3156588 96.9557788,42.0792264 C97.8089065,42.842794 98.5718949,43.6278008 99.2447671,44.4342703 C99.9176392,45.2407398 100.454892,45.9675757 100.856541,46.6147997 C100.995574,46.8388388 101.18545,47.1864783 101.426175,47.6577285 C101.6669,48.1289788 101.882729,48.6156699 102.073668,49.1178162 C102.264606,49.6199626 102.364776,50.1008501 102.374178,50.5604932 C102.383581,51.0201363 102.238926,51.3426414 101.940207,51.528018 C101.89042,51.5589141 101.799433,51.6067583 101.667243,51.671552 C101.535053,51.7363456 101.395141,51.7886919 101.247503,51.8285923 C101.099864,51.8684928 100.967036,51.8905835 100.849014,51.8948652 C100.730991,51.899147 100.641085,51.8515021 100.579293,51.7519292 C99.6138317,49.6961177 98.4977264,47.8976086 97.2309436,46.3563479 C95.9641607,44.8150872 94.6879307,43.5641787 93.4022152,42.603585 C92.1164997,41.6429912 90.8809877,41.0133021 89.6956423,40.7144987 C88.5102969,40.4156954 87.5069009,40.521185 86.6854242,41.0309709 C85.913734,41.5098606 85.2690802,42.0823118 84.7514435,42.7483416 C84.2338067,43.4143715 83.872818,44.1383418 83.6684664,44.9202743 C83.4641148,45.7022069 83.4273522,46.5180459 83.5581775,47.3678158 C83.6890029,48.2175857 84.0015797,49.0407501 84.4959175,49.8373335 C84.9902553,50.633917 85.5554023,51.3779218 86.1913755,52.0693703 C86.8273486,52.7608188 87.4819819,53.440671 88.1552949,54.1089475 C88.8286079,54.7772239 89.4871031,55.4632993 90.1308003,56.1671945 C90.7744975,56.8710896 91.3435064,57.6213176 91.8378442,58.4179011 C91.1408337,58.8504466 90.3782015,58.9272026 89.5499248,58.6481713 C88.7216481,58.36914 87.8863212,57.87038 87.043919,57.1518762 C86.2015168,56.4333725 85.3518442,55.5642421 84.4948757,54.544459 C83.6379071,53.5246759 82.8423231,52.4926821 82.1080996,51.4484466 C81.373876,50.4042111 80.7093992,49.4029136 80.114649,48.4445242 L78.712745,46.1854746 Z M115.85352,36.7091279 C115.452824,37.3713567 115.174614,38.0571375 115.018882,38.7664909 C114.86315,39.4758444 114.686677,40.1632399 114.489459,40.8286981 C114.292241,41.4941563 114.018031,42.1272736 113.666819,42.728069 C113.315608,43.3288643 112.731415,43.8589897 111.914224,44.3184608 C110.994884,44.8353659 110.053661,45.1040988 109.090525,45.1246676 C108.127389,45.1452364 107.168292,44.9786879 106.213205,44.6250172 C105.258118,44.2713465 104.329402,43.7852273 103.427029,43.1666452 C102.524656,42.5480631 101.684548,41.8608787 100.906682,41.1050713 C100.128815,40.3492639 99.4219814,39.5703406 98.7861593,38.768278 C98.1503373,37.9662155 97.6314154,37.2076745 97.2293781,36.4926323 C96.2497228,35.2284901 95.6813916,34.1280213 95.5243676,33.1911928 C95.3673436,32.2543643 95.4257207,31.566149 95.6995006,31.1265263 C95.9732805,30.6869036 96.3403601,30.5477303 96.8007505,30.7090024 C97.2611408,30.8702744 97.6117382,31.4041633 97.8525531,32.310685 C97.8589126,32.4415508 97.9103464,32.6226934 98.0068562,32.8541183 C98.103366,33.0855431 98.203464,33.3233487 98.307153,33.5675422 C98.410842,33.8117357 98.5073504,34.0431571 98.596681,34.2618133 C98.6860115,34.4804696 98.7522135,34.6281013 98.795289,34.704713 C99.0968169,35.2409946 99.5032575,35.8443149 100.014623,36.5146918 C100.525988,37.1850687 101.112752,37.8550506 101.774931,38.5246574 C102.43711,39.1942643 103.153147,39.8251708 103.923065,40.4173959 C104.692982,41.009621 105.480066,41.4829469 106.284339,41.8373877 C107.088612,42.1918284 107.898488,42.3918629 108.713989,42.4374971 C109.529491,42.4831313 110.294752,42.3049325 111.009794,41.9028952 C111.469464,41.6444427 111.867334,41.126651 112.203417,40.3495048 C112.5395,39.5723585 112.793403,38.7237927 112.965133,37.8037821 C113.136864,36.8837715 113.221212,35.9876968 113.218182,35.1155311 C113.215151,34.2433655 113.084412,33.5774576 112.825959,33.1177877 C112.682374,32.8624154 112.451847,32.437468 112.134371,31.8429327 C111.816895,31.2483974 111.471502,30.6191552 111.098181,29.9551875 C110.724861,29.2912197 110.366699,28.6691567 110.023686,28.0889799 C109.680672,27.508803 109.444556,27.1038031 109.31533,26.8739681 C109.324968,26.5324451 109.379681,26.2412059 109.47947,26.0002419 C109.579259,25.7592778 109.756837,25.5670063 110.012209,25.4234216 C110.318656,25.2511199 110.688891,25.311832 111.122924,25.6055598 C111.556957,25.8992875 112.017291,26.3294641 112.503939,26.8961022 C112.990587,27.4627404 113.467639,28.1019812 113.935109,28.8138436 C114.402579,29.5257061 114.842916,30.2192002 115.256132,30.8943467 C115.669348,31.5694933 116.035893,32.1616349 116.355779,32.6707895 C116.675665,33.1799441 116.911396,33.5095382 117.06298,33.6595818 C117.477836,34.0985339 117.986039,34.5690154 118.587604,35.0710404 C119.18917,35.5730655 119.773573,36.0595199 120.340832,36.5304184 C120.908091,37.0013168 121.421089,37.4354928 121.879839,37.8329593 C122.33859,38.2304258 122.639753,38.5568403 122.783338,38.8122125 C122.998715,39.1952708 123.019408,39.486125 122.845417,39.6847837 C122.671426,39.8834424 122.418442,40.0760989 122.086459,40.262759 C121.677863,40.4924946 121.320372,40.5590568 121.013975,40.4624476 C120.707578,40.3658384 120.419953,40.1830562 120.151092,39.9140956 C119.882231,39.645135 119.614579,39.3334886 119.348127,38.9791473 C119.081676,38.6248059 118.776128,38.2756492 118.431475,37.9316668 C118.086822,37.5876844 117.705458,37.2979605 117.287373,37.0624864 C116.869288,36.8270123 116.391342,36.7092273 115.85352,36.7091279 Z M121.795793,32.3712417 C121.625074,31.9024492 121.532864,31.3199379 121.519162,30.6236905 C121.50546,29.927443 121.632029,29.1865318 121.898874,28.4009347 C122.165719,27.6153375 122.593173,26.8321386 123.181249,26.0513146 C123.769325,25.2704905 124.553789,24.5563884 125.534663,23.9089867 C126.515538,23.2615849 127.719859,22.7250578 129.147664,22.2993893 C130.575468,21.8737207 132.262495,21.623247 134.208795,21.5479607 L134.034433,21.1445789 L133.837169,20.7989714 C133.53494,20.0997728 133.025214,19.4743189 132.307977,18.922591 C131.59074,18.3708631 130.791189,17.9424982 129.909301,17.6374834 C129.027412,17.3324686 128.144973,17.1553678 127.261955,17.1061758 C126.378937,17.0569837 125.601287,17.1776884 124.928981,17.4682934 C124.660058,17.5845354 124.442191,17.7265834 124.275371,17.8944417 C124.108552,18.0623 123.957176,18.2474186 123.821239,18.4498032 C123.685302,18.6521877 123.550278,18.8382173 123.416163,19.0078975 C123.282048,19.1775777 123.093979,19.3147247 122.851948,19.4193425 C122.798164,19.4425909 122.76546,19.440769 122.753836,19.4138767 L122.638287,19.3680728 C122.561254,19.3375367 122.458241,19.3022731 122.329246,19.262281 C122.20025,19.222289 122.129942,19.1888473 122.118317,19.1619551 C121.909082,18.6778944 121.816308,18.2232926 121.839993,17.798136 C121.863678,17.3729794 121.983652,16.9859987 122.19992,16.6371823 C122.416187,16.288366 122.693131,15.9691796 123.03076,15.6796135 C123.368389,15.3900475 123.752335,15.1522744 124.182611,14.9662872 C125.304798,14.6088882 126.475806,14.4936944 127.69567,14.6207023 C128.915533,14.7477102 130.115729,15.0507706 131.296293,15.5298924 C132.476857,16.0090142 133.611773,16.6594552 134.701075,17.481235 C135.790377,18.3030147 136.796254,19.20871 137.718737,20.1983481 C138.641219,21.1879861 139.425412,22.2453584 140.071338,23.3704966 C140.767405,24.5377952 141.280684,25.6883329 141.611191,26.8221441 C141.584298,26.8337683 141.500717,26.8619174 141.360444,26.9065923 C141.22017,26.9512672 141.066453,27.0017534 140.899287,27.0580525 C140.732122,27.1143515 140.588944,27.1523028 140.469751,27.1719073 L140.250624,27.2187502 C139.139549,26.1989224 138.065878,25.4501966 137.029577,24.9725504 C135.993277,24.4949042 135.036365,24.1824332 134.158813,24.0351281 C133.281261,23.887823 132.508904,23.8546373 131.841717,23.9355701 C131.17453,24.0165028 130.635262,24.097999 130.223898,24.180061 C129.820514,24.354424 129.354808,24.5876423 128.826765,24.879723 C128.298722,25.1718036 127.767954,25.5129356 127.234446,25.9031293 C126.700937,26.293323 126.181056,26.7334776 125.674785,27.2236063 C125.168515,27.713735 124.749825,28.221857 124.418701,28.7479876 C124.087576,29.2741181 123.876733,29.8200634 123.786164,30.3858397 C123.695594,30.9516161 123.778174,31.5303104 124.033907,32.12194 C124.312888,32.7673541 124.803747,33.2014859 125.506499,33.4243483 C126.209251,33.6472107 126.984688,33.7428981 127.832833,33.7114134 C128.680978,33.6799287 129.504778,33.5552339 130.304258,33.3373253 C131.103738,33.1194167 131.732053,32.9116598 132.189221,32.7140484 C132.942204,32.3885708 133.664294,32.0285723 134.355513,31.6340421 C135.046731,31.2395119 135.725404,30.8344478 136.391552,30.4188374 C137.0577,30.0032271 137.722927,29.6039749 138.387253,29.2210689 C139.051579,28.838163 139.733331,28.4956005 140.43253,28.1933713 L140.714897,28.0713178 C140.849358,28.0131968 140.993447,27.9588936 141.147166,27.9084066 C141.300886,27.8579197 141.438251,27.8065225 141.559266,27.7542136 L141.821464,27.6408782 C142.071475,27.6285614 142.244796,27.6972666 142.341434,27.8469959 C142.438071,27.9967253 142.521261,28.1522644 142.591007,28.3136179 C142.660752,28.4749714 142.568234,28.7224186 142.31345,29.0559669 C142.058666,29.3895152 141.703042,29.7666486 141.246566,30.1873784 C140.79009,30.6081082 140.276021,31.0617087 139.704342,31.5481936 C139.132663,32.0346784 138.573355,32.4759171 138.0264,32.8719229 C137.479445,33.2679287 136.964119,33.6263236 136.480404,33.9471184 C135.99669,34.2679132 135.647269,34.4748043 135.432131,34.5677979 C134.302656,35.0560143 133.065285,35.479162 131.719979,35.8372537 C130.374674,36.1953453 129.070118,36.3523073 127.806272,36.3081444 C126.542427,36.2639815 125.375846,35.9463911 124.306495,35.3553638 C123.237143,34.7643364 122.400251,33.769639 121.795793,32.3712417 Z M142.628848,43.9053873 C142.401869,43.5442181 142.30672,43.1905119 142.343398,42.8442581 C142.380077,42.4980042 142.482337,42.193716 142.650181,41.9313844 C142.818026,41.6690528 143.027404,41.4709267 143.278322,41.3370001 C143.52924,41.2030736 143.764523,41.1728432 143.984176,41.246308 C144.203829,41.3197728 144.383802,41.5191718 144.524098,41.8445108 C144.664395,42.1698499 144.707843,42.6606118 144.654445,43.3168114 C144.834288,43.9357468 145.270272,44.4649915 145.962409,44.9045614 C146.654546,45.3441313 147.485056,45.6824684 148.453962,45.9195828 C149.422868,46.1566973 150.456863,46.3291285 151.555979,46.4368818 C152.655095,46.5446351 153.709712,46.6042953 154.719862,46.6158643 C155.730012,46.6274333 156.621245,46.5972806 157.393588,46.5254054 C158.109663,46.4698796 158.636494,46.3930696 158.974095,46.2949732 C159.677431,46.0906055 160.222122,45.7340311 160.608186,45.2252392 C160.99425,44.7164474 161.277277,44.1155675 161.457276,43.4225818 C161.637275,42.729596 161.724459,41.9796913 161.71883,41.1728453 C161.713201,40.3659992 161.658339,39.5734707 161.554243,38.7952361 C161.450147,38.0170015 161.309984,37.2721402 161.13375,36.5606298 C160.957516,35.8491195 160.799916,35.2542391 160.660946,34.7759709 C160.595548,34.5509035 160.453873,34.1420726 160.235917,33.549466 C160.017961,32.9568594 159.752341,32.2789603 159.439049,31.5157485 C159.125757,30.7525367 158.790228,29.9652906 158.432453,29.1539867 C158.074678,28.3426827 157.719192,27.5917442 157.365982,26.9011487 C157.012773,26.2105531 156.693408,25.6626766 156.407879,25.2575027 C156.12235,24.8523287 155.895189,24.6742685 155.726388,24.7233168 C155.445054,24.8050638 155.139015,24.9855142 154.808262,25.2646733 C154.477509,25.5438324 154.136781,25.841141 153.78607,26.1566082 C153.435358,26.4720755 153.073531,26.7755151 152.700578,27.0669362 C152.327625,27.3583574 151.94422,27.5612878 151.550352,27.6757337 C150.762616,27.9046254 149.939911,27.9606284 149.082212,27.8437444 C148.224513,27.7268603 147.443714,27.4808578 146.739793,27.1057295 C146.035872,26.7306011 145.408849,26.2263582 144.858706,25.5929856 C144.308562,24.959613 143.91905,24.2490694 143.690159,23.4613334 C143.330472,22.2234627 143.208779,20.8859499 143.325078,19.448755 C143.441376,18.01156 143.773236,16.6337839 144.320666,15.3153852 C144.868097,13.9969865 145.627473,12.8305784 146.598818,11.8161259 C147.570162,10.8016734 148.716952,10.102352 150.039223,9.71814088 C151.133774,9.70518575 152.142636,10.106105 153.06584,10.9209108 C153.989044,11.7357166 154.83901,12.8234803 155.615762,14.1842346 C156.392515,15.544989 157.117794,17.0960987 157.791621,18.8376104 C158.465449,20.579122 159.100252,22.3700794 159.696049,24.2105361 C160.291847,26.0509928 160.870384,27.8582993 161.431678,29.6325098 C161.992972,31.4067203 162.570553,33.0007466 163.164438,34.4146365 C163.352456,35.0617053 163.540047,35.8385479 163.727217,36.7451875 C163.914387,37.6518272 164.058452,38.5938586 164.159416,39.5713099 C164.260381,40.5487612 164.296001,41.5375574 164.266278,42.5377281 C164.236555,43.5378989 164.086789,44.4661565 163.816976,45.3225288 C163.547163,46.1789012 163.130982,46.9252504 162.568421,47.5615988 C162.00586,48.1979471 161.274456,48.6469099 160.374186,48.9085005 C159.642717,49.1210428 158.739037,49.2920995 157.663118,49.4216757 C156.5872,49.5512519 155.440487,49.5946225 154.222946,49.5517888 C153.005404,49.5089551 151.770391,49.3796794 150.517868,49.1639579 C149.265345,48.9482363 148.102892,48.6224538 147.030476,48.1866008 C145.958059,47.7507477 145.029933,47.1814546 144.24607,46.4787046 C143.462206,45.7759545 142.923138,44.9181906 142.628848,43.9053873 Z M145.887101,22.0450008 C146.034245,22.5514025 146.252623,23.0142167 146.542239,23.4334574 C146.831856,23.852698 147.177495,24.2022632 147.579167,24.4821633 C147.980839,24.7620634 148.430358,24.9441572 148.927736,25.0284499 C149.425114,25.1127427 149.941063,25.0772299 150.475598,24.9219105 C151.910403,24.5050005 152.918811,23.9069054 153.500853,23.1276072 C154.082895,22.348309 154.391957,21.4957977 154.42805,20.5700479 C154.464144,19.6442981 154.343222,18.703169 154.065282,17.7466325 C153.751034,16.7701373 153.451335,15.8962096 153.166176,15.1248231 C153.05173,14.7309551 152.909153,14.3452676 152.738441,13.9677491 C152.567728,13.5902305 152.348926,13.2571998 152.082029,12.9686469 C151.815132,12.680094 151.505376,12.4802708 151.152752,12.3691712 C150.800129,12.2580717 150.398755,12.2679194 149.94862,12.3987146 C149.020217,12.6684799 148.237776,13.178035 147.601272,13.9273951 C146.964768,14.6767552 146.484624,15.5179607 146.160827,16.4510366 C145.83703,17.3841126 145.653239,18.3527651 145.609449,19.3570232 C145.565659,20.3612813 145.658209,21.2572649 145.887101,22.0450008 Z M159.636372,14.1714892 C159.393356,12.6675516 159.385,11.1924916 159.611304,9.74626509 C159.837608,8.30003854 160.29323,6.98741883 160.978183,5.80836659 C161.663137,4.62931434 162.569952,3.62958375 163.698654,2.80914482 C164.827356,1.98870589 166.201499,1.44763996 167.821124,1.18593079 C168.79424,1.14739683 169.667791,1.27333222 170.441804,1.56374075 C171.215817,1.85414928 171.874861,2.25957803 172.418954,2.78003916 C172.963048,3.30050029 173.399405,3.93480987 173.728039,4.68298692 C174.023078,5.40691547 174.240695,6.20269597 174.380897,7.0703523 C174.549138,8.1115399 174.397346,9.10055656 173.925514,10.0374319 C173.453683,10.9743073 172.800592,11.799495 171.966223,12.5130197 C171.131854,13.2265444 170.204163,13.8215952 169.183124,14.2981899 C168.162085,14.7747846 167.188831,15.0878513 166.26333,15.2373994 L165.200457,15.4091452 C164.838933,15.4675624 164.50422,15.4622942 164.196308,15.3933405 C163.888396,15.3243868 163.628984,15.1882446 163.418066,14.9849098 C163.207148,14.7815751 163.064304,14.4485377 162.98953,13.9857876 C162.966163,13.8411782 162.967992,13.7147571 162.995018,13.6065205 C163.022044,13.4982838 163.133277,13.4061187 163.32872,13.3300222 C163.524163,13.2539257 163.82667,13.1976256 164.23625,13.1611202 C164.650503,13.1535367 165.21403,13.1515082 165.926849,13.1550346 C166.331755,13.0896073 166.895216,12.857596 167.617249,12.4589936 C168.339282,12.0603913 169.062913,11.5799243 169.788163,11.0175782 C170.513414,10.4552322 171.119684,9.84534619 171.606991,9.18790202 C172.094298,8.53045785 172.293551,7.92698697 172.204757,7.3774713 C172.111289,6.79903375 171.924997,6.24302348 171.645873,5.70942382 C171.36675,5.17582417 171.004152,4.72249401 170.558067,4.34941976 C170.111982,3.97634551 169.61485,3.70055613 169.066657,3.52204334 C168.518463,3.34353056 167.930908,3.33460333 167.303974,3.49526141 C166.305728,3.74559527 165.431869,4.16872651 164.682369,4.76466782 C163.93287,5.36060913 163.328496,6.07405681 162.86923,6.90503225 C162.409963,7.73600769 162.093702,8.62547475 161.920436,9.57346011 C161.74717,10.5214455 161.739984,11.4870956 161.898879,12.4704394 C162.020387,13.2224083 162.156354,13.9720291 162.306783,14.7193246 C162.457213,15.46662 162.684838,16.1865919 162.989665,16.8792619 C163.294491,17.5719319 163.710326,18.2169768 164.237181,18.814416 C164.764036,19.4118552 165.46602,19.899375 166.343156,20.27699 C167.220292,20.6546049 168.293075,20.9115684 169.561538,21.0478881 C170.83,21.1842079 172.367797,21.1508763 174.174974,20.9478925 L181.856339,19.1725056 C181.496403,19.883561 180.994863,20.4987814 180.351704,21.0181855 C179.708546,21.5375895 179.009163,21.9844618 178.253535,22.3588156 C177.497907,22.7331695 176.739006,23.0412762 175.976809,23.2831449 C175.214611,23.5250136 174.486461,23.7020258 173.792336,23.8141869 C172.114867,24.0852428 170.494252,24.0651844 168.930442,23.754011 C167.366632,23.4428376 165.940156,22.8794878 164.650972,22.0639448 C163.361787,21.2484017 162.276173,20.1774053 161.394099,18.8509234 C160.512025,17.5244414 159.926121,15.9646456 159.636372,14.1714892 Z M184.052353,16.8457577 C184.277396,16.6581752 184.483876,16.5375539 184.671799,16.4838901 C184.859723,16.4302264 185.070715,16.3973789 185.304782,16.3853467 C185.568108,16.3718105 185.834813,16.4241048 186.104907,16.5422314 C186.375001,16.6603579 186.624651,16.8088686 186.853865,16.9877679 C187.083079,17.1666673 187.319228,17.3378735 187.562319,17.5013916 C187.805411,17.6649097 188.061623,17.7984155 188.330965,17.9019128 C189.108227,18.1846505 189.728866,18.416764 190.192899,18.5982603 C190.656932,18.7797566 191.08213,18.9192433 191.468505,19.0167246 C191.85488,19.1142058 192.297509,19.1647906 192.796406,19.1684806 C193.295303,19.1721706 193.93973,19.1537115 194.729706,19.1131028 C195.344132,19.0815183 196.090586,19.0504807 196.96909,19.0199892 C197.847594,18.9894976 198.677685,18.8734887 199.45939,18.6719588 C200.241094,18.470429 200.898987,18.1432574 201.433088,17.6904343 C201.967189,17.2376112 202.211675,16.5723338 202.166555,15.6945821 C202.152196,14.8445847 201.891231,14.1906224 201.383651,13.7326753 C200.876071,13.2747283 200.205906,12.9351535 199.373135,12.7139407 C198.540364,12.4927279 197.609338,12.3572418 196.58003,12.3074783 C195.550723,12.2577148 194.491797,12.2021416 193.40322,12.1407569 C192.314643,12.0793723 191.245395,11.9656592 190.195442,11.7996141 C189.145489,11.6335691 188.198877,11.3375403 187.355577,10.9115187 C186.512278,10.4854972 185.820886,9.87566233 185.281381,9.08199584 C184.741875,8.28832935 184.42441,7.24857913 184.328974,5.962714 C184.456396,5.01742138 184.876977,4.21108315 185.590729,3.54367513 C186.304481,2.87626711 187.172033,2.34763884 188.193409,1.95777447 C189.214786,1.5679101 190.31025,1.3355863 191.479833,1.2607961 C192.649417,1.18600591 193.732166,1.27702357 194.728115,1.53385183 C195.724063,1.79068008 196.568478,2.23863869 197.261384,2.87774109 C197.95429,3.5168435 198.340935,4.33302307 198.421331,5.3263043 C198.509928,5.90846405 198.490857,6.39347624 198.364117,6.78135544 C198.237378,7.16923463 198.054551,7.46465167 197.81563,7.66761541 C197.57671,7.87057916 197.325215,7.97151304 197.061138,7.97042007 C196.79706,7.9693271 196.586991,7.87745229 196.430922,7.69479288 C196.274854,7.51213347 196.194736,7.23756694 196.190565,6.87108505 C196.186394,6.50460317 196.330939,6.03514243 196.624205,5.46268874 C196.478595,4.91279544 196.119568,4.4912222 195.547115,4.19795639 C194.974661,3.90469058 194.31933,3.71102951 193.581102,3.61696738 C192.842874,3.52290525 192.05872,3.53387937 191.228616,3.64989006 C190.398512,3.76590074 189.645701,3.95860905 188.970161,4.22802076 C188.294621,4.49743247 187.754512,4.833217 187.349818,5.23538443 C186.945124,5.63755186 186.784821,6.08582114 186.868907,6.58020572 C186.914027,7.45795741 187.205002,8.12504475 187.741841,8.58148775 C188.278679,9.03793074 188.963473,9.37675356 189.796245,9.59796637 C190.629016,9.81917917 191.582361,9.96085178 192.656308,10.0229884 C193.730255,10.0851251 194.833068,10.1384423 195.964781,10.1829417 C197.096493,10.2274411 198.193871,10.3177068 199.256949,10.4537414 C200.320028,10.589776 201.287079,10.8554189 202.158133,11.250678 C203.029186,11.6459372 203.732575,12.2038186 204.268321,12.9243391 C204.804066,13.6448596 205.102767,14.6049025 205.164432,15.8044965 C205.211056,16.7115066 205.017225,17.5061888 204.582931,18.1885669 C204.148638,18.8709451 203.584364,19.4499877 202.890094,19.9257122 C202.195824,20.4014367 201.429718,20.7635062 200.591752,21.0119316 C199.753787,21.2603571 198.954458,21.40412 198.193739,21.4432246 C197.433021,21.4823293 196.620737,21.5167509 195.756863,21.5464904 C194.892988,21.57623 194.012618,21.5701486 193.115725,21.5282462 C192.218832,21.4863438 191.312006,21.3936166 190.395219,21.2500619 C189.478433,21.1065071 188.622227,20.8571677 187.826575,20.5020361 C187.030924,20.1469045 186.310103,19.6779249 185.664093,19.0950832 C185.018082,18.5122415 184.480841,17.7624739 184.052353,16.8457577 Z M228.507259,5.48883412 C228.5647,5.23149386 228.694325,5.08782698 228.896138,5.0578292 C229.097951,5.02783141 229.313228,5.03836197 229.541975,5.08942119 C229.713535,5.12771561 229.825481,5.19772982 229.877818,5.29946592 C229.930154,5.40120201 229.957853,5.51244632 229.960917,5.63320217 C229.963981,5.75395803 229.982937,5.87075499 230.017785,5.98359657 C230.052633,6.09643814 230.141539,6.16881385 230.284506,6.20072587 C230.684813,6.29007951 231.205996,6.2413176 231.84807,6.05443867 C232.490143,5.86755974 233.188627,5.66325971 233.943543,5.44153247 C234.698458,5.21980522 235.489869,5.0362477 236.317799,4.89085439 C237.14573,4.74546108 237.931397,4.75573551 238.674825,4.92167799 C239.646999,5.13867969 240.484683,5.58831497 241.187902,6.2705973 C241.891121,6.95287964 242.471852,7.78041419 242.930113,8.75322578 C243.388374,9.72603737 243.731363,10.7781671 243.95909,11.9096467 C244.186817,13.0411262 244.338272,14.1780776 244.413459,15.3205352 C244.488646,16.4629927 244.484435,17.5576933 244.400827,18.6046697 C244.317218,19.6516461 244.192444,20.5468345 244.026502,21.290262 C243.96906,21.5476022 243.861455,21.9288201 243.703681,22.4339271 C243.545908,22.939034 243.359544,23.437751 243.144584,23.9300931 C242.929624,24.4224353 242.664693,24.8360757 242.349784,25.1710269 C242.034875,25.5059781 241.705865,25.6351573 241.362744,25.5585684 C241.305558,25.5458036 241.207078,25.5163173 241.067302,25.4701086 C240.927527,25.4238999 240.790944,25.3633955 240.657551,25.2885934 C240.524158,25.2137913 240.413807,25.1366289 240.326495,25.0571038 C240.239183,24.9775786 240.208292,24.8806308 240.233822,24.7662573 C240.982607,22.62201 241.443729,20.5561706 241.617201,18.5686769 C241.790673,16.5811833 241.754227,14.7945085 241.507862,13.208599 C241.261498,11.6226894 240.819454,10.308309 240.181719,9.26541846 C239.543983,8.22252789 238.753337,7.59578235 237.809756,7.38516305 C236.923362,7.18730856 236.062255,7.14518631 235.22641,7.25879506 C234.390565,7.37240381 233.626088,7.63701713 232.932955,8.05264296 C232.239822,8.46826879 231.64269,9.02538493 231.141542,9.7240081 C230.640393,10.4226313 230.287706,11.2294245 230.083469,12.1444122 C229.879232,13.0593998 229.762373,13.9863723 229.732887,14.9253577 C229.703402,15.864343 229.695361,16.808101 229.708766,17.75666 C229.72217,18.7052189 229.712534,19.6561252 229.679858,20.6094072 C229.647181,21.5626892 229.528726,22.49681 229.324489,23.4117976 C228.523875,23.2330904 227.925337,22.7542874 227.528859,21.9753744 C227.13238,21.1964614 226.884616,20.2556396 226.785559,19.152881 C226.686502,18.0501223 226.687649,16.8346677 226.789,15.5064807 C226.890351,14.1782938 227.0441,12.8843361 227.250251,11.6245688 C227.456402,10.3648015 227.682336,9.1845133 227.928058,8.08366883 L228.507259,5.48883412 Z M248.210461,18.6889907 C248.886153,17.22617 249.794995,16.0969673 250.937015,15.3013486 C252.079035,14.5057299 253.340656,13.9751379 254.721918,13.7095565 C256.10318,13.4439751 257.521686,13.4295756 258.977479,13.6663574 C260.433273,13.9031393 261.812769,14.3225141 263.116009,14.9244946 C263.807525,15.2439128 264.394131,15.6681598 264.875848,16.1972484 C265.357564,16.7263371 265.769678,17.3362198 266.112204,18.0269149 C266.454729,18.7176101 266.706695,19.4471442 266.868108,20.2155391 C267.029522,20.983934 267.121877,21.7446231 267.145178,22.4976293 C267.168478,23.2506354 267.115567,23.9764952 266.986442,24.6752304 C266.857318,25.3739656 266.65762,26.0158878 266.387343,26.601016 C265.760792,27.9574497 264.935855,29.0447318 263.912508,29.862895 C262.88916,30.6810582 261.756436,31.2469861 260.514301,31.5606957 C259.272165,31.8744053 257.990218,31.9599509 256.668422,31.817335 C255.346625,31.6747191 254.087319,31.3269968 252.890465,30.7741576 C251.667015,30.2090331 250.632387,29.4971628 249.78655,28.6385255 C248.940713,27.7798881 248.298509,26.8297604 247.85992,25.7881137 C247.421331,24.746467 247.225758,23.6153909 247.273195,22.3948514 C247.320632,21.1743119 247.633051,19.9390374 248.210461,18.6889907 Z M250.312734,19.2727976 C249.931889,20.0972965 249.719336,20.9591771 249.675067,21.8584652 C249.630798,22.7577534 249.752282,23.6125749 250.039524,24.4229554 C250.326765,25.2333358 250.76595,25.976739 251.357093,26.653187 C251.948235,27.3296351 252.669343,27.8644162 253.520439,28.2575463 C253.948012,28.5195901 254.533671,28.7013666 255.277431,28.8028813 C256.021191,28.904396 256.807937,28.912822 257.637694,28.8281595 C258.467452,28.7434971 259.307455,28.5667617 260.157731,28.2979482 C261.008007,28.0291346 261.783103,27.6610632 262.483045,27.1937229 C263.182986,26.7263825 263.742273,26.1618133 264.160922,25.4999983 C264.579572,24.8381834 264.785444,24.0780973 264.778546,23.2197173 C264.771648,22.3613373 264.479852,21.4036439 263.90315,20.3466084 C263.326447,19.2895729 262.395801,18.1255327 261.111182,16.8544529 C260.233489,16.4490375 259.26421,16.1546043 258.203315,15.9711446 C257.142421,15.787685 256.109626,15.7704873 255.104899,15.9195512 C254.100173,16.0686151 253.167018,16.4120841 252.305405,16.9499685 C251.443793,17.4878529 250.779576,18.2621215 250.312734,19.2727976 Z M281.516853,37.9701415 C280.742943,37.983048 280.014235,38.112205 279.330709,38.3576164 C278.647183,38.6030278 277.97122,38.8191971 277.3028,39.0061308 C276.63438,39.1930645 275.952396,39.2975978 275.256828,39.3197339 C274.561261,39.3418699 273.80162,39.1291248 272.977885,38.6814921 C272.051183,38.1779053 271.322998,37.5237897 270.79331,36.7191257 C270.263622,35.9144617 269.894537,35.0136944 269.686044,34.0167968 C269.477551,33.0198992 269.395244,31.9748868 269.439121,30.8817282 C269.482998,29.7885696 269.618087,28.7116509 269.844391,27.65094 C270.070695,26.5902291 270.354355,25.5773755 270.69538,24.6123489 C271.036404,23.6473223 271.402751,22.8044374 271.794429,22.083669 C272.343876,20.5817073 272.973494,19.515118 273.683303,18.8838689 C274.393112,18.2526199 275.006957,17.9360088 275.524856,17.9340262 C276.042755,17.9320436 276.355851,18.1688714 276.464154,18.6445168 C276.572456,19.1201622 276.306823,19.7010189 275.667245,20.3871044 C275.559807,20.4620943 275.433768,20.6019952 275.289124,20.8068114 C275.14448,21.0116276 274.996341,21.222876 274.844702,21.4405631 C274.693064,21.6582501 274.548422,21.8630633 274.410772,22.0550086 C274.273122,22.2469539 274.183316,22.3815371 274.14135,22.4587623 C273.847591,22.9993387 273.552863,23.6644136 273.257157,24.454007 C272.961451,25.2436004 272.706182,26.0968324 272.491343,27.0137285 C272.276503,27.9306246 272.123082,28.8725453 272.031075,29.8395189 C271.939067,30.8064925 271.956876,31.724763 272.084503,32.5943579 C272.21213,33.4639528 272.473491,34.2561666 272.868593,34.9710228 C273.263696,35.685879 273.821623,36.2391382 274.542392,36.6308168 C275.005743,36.8826102 275.655838,36.9441338 276.492697,36.8153896 C277.329556,36.6866453 278.183185,36.4503228 279.053609,36.1064151 C279.924034,35.7625074 280.727712,35.357334 281.464669,34.8908825 C282.201625,34.4244311 282.695993,33.9595368 282.947786,33.4961856 C283.087672,33.2387683 283.324914,32.8175332 283.659521,32.2324677 C283.994128,31.6474021 284.343277,31.0202362 284.706979,30.3509512 C285.07068,29.6816662 285.406958,29.0475062 285.715824,28.4484521 C286.024689,27.8493981 286.242066,27.4340395 286.367963,27.2023639 C286.662299,27.0288777 286.938027,26.9203063 287.195156,26.8766465 C287.452285,26.8329866 287.709554,26.8810986 287.966971,27.0209838 C288.275872,27.188846 288.421379,27.5346599 288.403497,28.0584358 C288.385614,28.5822117 288.266172,29.2008333 288.045168,29.9143192 C287.824164,30.627805 287.536574,31.3717804 287.18239,32.1462677 C286.828207,32.9207549 286.475146,33.6624951 286.123197,34.3715103 C285.771249,35.0805256 285.464768,35.7058708 285.203745,36.2475648 C284.942722,36.7892588 284.788995,37.1641848 284.742559,37.3723539 C284.591497,37.9571312 284.463385,38.6377267 284.358218,39.4141609 C284.253051,40.1905952 284.151942,40.9442147 284.054887,41.6750421 C283.957833,42.4058694 283.863015,43.0712148 283.770431,43.6710983 C283.677847,44.2709817 283.561614,44.6996256 283.421729,44.9570429 C283.211901,45.3431689 282.976605,45.5153906 282.715835,45.4737134 C282.455065,45.4320361 282.157363,45.3202738 281.82272,45.138423 C281.410852,44.9146066 281.164345,44.6472786 281.08319,44.3364308 C281.002035,44.0255831 281.003838,43.6847986 281.088599,43.3140671 C281.173359,42.9433356 281.29491,42.5509243 281.453254,42.1368213 C281.611598,41.7227183 281.744758,41.2782654 281.852736,40.8034494 C281.960715,40.3286333 282.003221,39.8515891 281.980256,39.3723024 C281.95729,38.8930158 281.802824,38.4256335 281.516853,37.9701415 Z M286.395505,41.6122402 C286.681045,41.546678 286.919752,41.5324486 287.111633,41.5695515 C287.303514,41.6066544 287.50656,41.6727546 287.720775,41.7678541 C287.961767,41.874841 288.17601,42.0420735 288.363509,42.2695566 C288.551008,42.4970398 288.706534,42.7423806 288.830093,43.0055864 C288.953652,43.2687923 289.086875,43.5282718 289.229766,43.7840329 C289.372656,44.039794 289.540821,44.2747184 289.734263,44.488813 C290.299702,45.0924326 290.74833,45.580082 291.08016,45.9517758 C291.411991,46.3234696 291.728177,46.6401339 292.028727,46.9017783 C292.329278,47.1634227 292.701207,47.4086729 293.144528,47.6375362 C293.587848,47.8663995 294.170989,48.1413074 294.893966,48.4622681 C295.456282,48.7119042 296.136111,49.0217234 296.933476,49.3917348 C297.73084,49.7617463 298.52369,50.0335918 299.312048,50.2072793 C300.100406,50.3809669 300.835139,50.3866084 301.516269,50.224204 C302.197398,50.0617997 302.716267,49.5789507 303.07289,48.7756426 C303.444402,48.0109988 303.507319,47.3097064 303.261642,46.6717443 C303.015966,46.0337821 302.57175,45.4278899 301.928983,44.8540493 C301.286215,44.2802087 300.51705,43.7384068 299.621463,43.2286273 C298.725876,42.7188479 297.806498,42.1904947 296.863301,41.6435519 C295.920104,41.0966091 295.017807,40.511731 294.156381,39.8889 C293.294956,39.2660691 292.584476,38.5740244 292.02492,37.8127453 C291.465365,37.0514661 291.124413,36.1949191 291.002053,35.2430785 C290.879693,34.2912379 291.066645,33.2202973 291.562916,32.0302246 C292.103975,31.2446872 292.84369,30.7156391 293.782081,30.4430645 C294.720473,30.1704899 295.733297,30.0912384 296.820584,30.2053075 C297.907871,30.3193766 298.990009,30.6074613 300.06703,31.0695702 C301.144051,31.5316791 302.068652,32.1024184 302.840862,32.7818052 C303.613071,33.4611921 304.163703,34.2425423 304.492773,35.1258791 C304.821843,36.0092159 304.79768,36.9120224 304.420284,37.8343257 C304.23609,38.3936394 303.999785,38.8176213 303.711364,39.1062843 C303.422943,39.3949474 303.1263,39.5757796 302.821428,39.6487865 C302.516556,39.7217934 302.246599,39.6981095 302.01155,39.5777342 C301.776502,39.4573588 301.630671,39.2804301 301.574055,39.0469429 C301.517439,38.8134556 301.57012,38.5323322 301.732102,38.2035642 C301.894083,37.8747962 302.235272,37.5214175 302.75568,37.1434174 C302.874433,36.5871059 302.744812,36.0487544 302.366812,35.5283468 C301.988812,35.0079393 301.491855,34.5389015 300.875925,34.1212194 C300.259995,33.7035374 299.555609,33.3587768 298.762748,33.0869272 C297.969887,32.8150777 297.211289,32.6465859 296.486931,32.5814467 C295.762574,32.5163075 295.129003,32.5716033 294.586201,32.7473357 C294.043399,32.9230681 293.697737,33.2504208 293.549204,33.7294036 C293.192581,34.5327117 293.150497,35.2592797 293.422951,35.9091292 C293.695405,36.5589788 294.153008,37.1708147 294.795776,37.7446553 C295.438543,38.3184958 296.224819,38.8759073 297.154628,39.4169064 C298.084436,39.9579055 299.043979,40.5040896 300.033285,41.0554751 C301.022591,41.6068605 301.960581,42.1835435 302.847282,42.7855412 C303.733984,43.3875389 304.476433,44.0617225 305.074653,44.8081121 C305.672873,45.5545018 306.048016,46.3701335 306.200094,47.2550318 C306.352173,48.13993 306.184522,49.1312915 305.697137,50.229146 C305.328627,51.059231 304.796431,51.6804053 304.100532,52.0926875 C303.404634,52.5049696 302.639523,52.7663128 301.805177,52.8767247 C300.97083,52.9871366 300.123798,52.9636945 299.264055,52.8063974 C298.404312,52.6491004 297.626351,52.4159188 296.930151,52.1068455 C296.233951,51.7977722 295.493874,51.4612067 294.709898,51.097139 C293.925922,50.7330712 293.143428,50.3295946 292.362394,49.8866971 C291.58136,49.4437995 290.814446,48.9510779 290.061629,48.4085173 C289.308812,47.8659568 288.657859,47.2564328 288.108751,46.5799272 C287.559642,45.9034215 287.128755,45.159204 286.816075,44.3472522 C286.503396,43.5353004 286.363207,42.6236388 286.395505,41.6122402 Z M325.545037,61.5127379 C325.09715,60.2525286 324.752493,58.9052527 324.511053,57.4708697 C324.269614,56.0364867 324.102821,54.5994343 324.010671,53.1596693 C323.91852,51.7199042 323.885549,50.3268961 323.911755,48.9806032 C323.937962,47.6343103 324.009225,46.4215209 324.125547,45.3421988 C324.158495,45.1397837 324.180515,44.9133312 324.191607,44.6628345 C324.202699,44.4123379 324.236654,44.1581461 324.293475,43.9002515 C324.350295,43.642357 324.433677,43.4036311 324.543623,43.1840668 C324.653569,42.9645025 324.80941,42.7820943 325.01115,42.636837 L325.097899,42.6509576 C325.126815,42.6556645 325.14245,42.6507889 325.144803,42.6363307 C325.147157,42.6218724 325.162792,42.6169968 325.191708,42.6217037 C325.220624,42.6264106 325.233906,42.635993 325.231552,42.6504512 C325.229199,42.6649095 325.256938,42.6768453 325.314771,42.6862591 L325.40152,42.7003796 C325.454646,42.7387099 325.589812,42.8200759 325.807023,42.9444804 C326.024234,43.0688848 326.157047,43.1647089 326.205466,43.2319555 C326.754204,43.1431808 327.323274,43.0206158 327.912695,42.8642569 C328.502116,42.7078979 329.096404,42.567176 329.695576,42.442087 C330.294748,42.3169979 330.895257,42.2292325 331.49712,42.1787879 C332.098984,42.1283434 332.674613,42.1478363 333.224025,42.2372671 C333.628856,42.3031635 333.980723,42.37528 334.279639,42.4536188 C334.578555,42.5319575 334.873936,42.6319821 335.165791,42.7536955 C335.457647,42.8754089 335.768832,43.0151086 336.099355,43.1727988 C336.429878,43.3304889 336.814698,43.5192774 337.253827,43.7391698 C337.456917,43.9503235 337.639494,44.150715 337.801563,44.3403502 C337.963632,44.5299854 338.10771,44.7389513 338.233803,44.9672543 C338.359895,45.1955573 338.44278,45.4613473 338.48246,45.7646324 C338.522141,46.0679175 338.504326,46.4508858 338.429016,46.9135489 C337.956939,46.8960716 337.420648,46.7716739 336.820125,46.5403518 C336.219603,46.3090298 335.596057,46.0368594 334.949468,45.7238325 C334.30288,45.4108056 333.629908,45.1231693 332.930531,44.8609149 C332.231154,44.5986605 331.546584,44.427865 330.876799,44.348523 C330.207014,44.2691811 329.554725,44.3559387 328.919914,44.6087983 C328.2656,44.7991181 327.645931,45.2325302 327.060889,45.9090476 C326.721974,46.7146762 326.501082,47.5246621 326.398205,48.3390294 C326.295329,49.1533967 326.268274,49.9578318 326.31704,50.7523588 C326.365807,51.5468859 326.465175,52.349638 326.615149,53.1606391 C326.765123,53.9716403 326.900636,54.7802759 327.021693,55.5865702 C327.142751,56.3928644 327.243296,57.1883875 327.323332,57.9731632 C327.403368,58.757939 327.408759,59.5453939 327.339506,60.3355516 C327.292438,60.624716 327.082801,60.9096757 326.710591,61.190439 C326.338381,61.4712024 325.949867,61.5786343 325.545037,61.5127379 Z M336.457579,51.4236397 C336.389491,49.9017169 336.551172,48.4355208 336.942627,47.0250075 C337.334081,45.6144941 337.93793,44.3631235 338.754191,43.270858 C339.570452,42.1785924 340.586431,41.2900204 341.802159,40.6051153 C343.017886,39.9202102 344.445225,39.5411007 346.084219,39.4677756 C347.055292,39.5416371 347.908512,39.7673988 348.643903,40.1450675 C349.379294,40.5227362 349.987227,41.0014101 350.467719,41.5811035 C350.948211,42.1607969 351.308566,42.8411652 351.548793,43.6222287 C351.758443,44.3753339 351.882907,45.1908904 351.922189,46.0689228 C351.969326,47.1225617 351.704574,48.0874975 351.127923,48.9637591 C350.551272,49.8400207 349.807441,50.5844509 348.896406,51.197072 C347.985371,51.8096932 346.995289,52.2938757 345.926131,52.649634 C344.856972,53.0053923 343.854124,53.2042185 342.917557,53.2461186 L341.841972,53.294238 C341.476125,53.3106053 341.14425,53.2668009 340.846335,53.1628237 C340.54842,53.0588465 340.306425,52.8937175 340.120343,52.6674318 C339.934262,52.4411461 339.830748,52.0938665 339.809798,51.6255826 C339.803251,51.4792438 339.819636,51.3538758 339.858955,51.2494746 C339.898274,51.1450734 340.019387,51.0663404 340.222297,51.0132731 C340.425207,50.9602058 340.732186,50.9391407 341.143244,50.9500772 C341.555611,50.9902814 342.115618,51.0532055 342.823282,51.1388514 C343.23303,51.1205201 343.819474,50.9549859 344.58263,50.6422438 C345.345786,50.3295017 346.119964,49.9356245 346.905186,49.4606004 C347.690409,48.9855763 348.362921,48.449618 348.922743,47.8527094 C349.482565,47.2558007 349.750033,46.6793115 349.725155,46.1232243 C349.698967,45.5378694 349.577988,44.9640954 349.362215,44.4018853 C349.146442,43.8396752 348.838499,43.3475804 348.438378,42.9255861 C348.038257,42.5035918 347.576218,42.1723519 347.052248,41.9318563 C346.528278,41.6913607 345.945666,41.6147849 345.304394,41.7021267 C344.283951,41.8357582 343.367153,42.1553697 342.553972,42.660971 C341.740792,43.1665722 341.058229,43.8056208 340.506263,44.5781359 C339.954297,45.350651 339.537643,46.1977475 339.256289,47.1194508 C338.974934,48.0411541 338.856518,48.999543 338.901037,49.9946464 C338.935081,50.7556079 338.983758,51.5159032 339.047069,52.2755552 C339.110381,53.0352072 339.253522,53.7766135 339.476497,54.4997962 C339.699471,55.2229789 340.038203,55.911646 340.492701,56.5658182 C340.947199,57.2199904 341.588327,57.7851569 342.416104,58.2613345 C343.243881,58.7375122 344.279906,59.116388 345.524209,59.3979732 C346.768512,59.6795584 348.299905,59.8236597 350.118433,59.8302815 L357.953215,58.9518985 C357.513738,59.616739 356.944643,60.170065 356.245915,60.6118932 C355.547186,61.0537214 354.800967,61.417022 354.007233,61.7018057 C353.2135,61.9865895 352.424149,62.2051902 351.639158,62.3576143 C350.854166,62.5100385 350.110468,62.6019618 349.408042,62.6333869 C347.710513,62.7093308 346.103006,62.5026514 344.585473,62.0133425 C343.067939,61.5240336 341.715885,60.8000542 340.52927,59.8413827 C339.342654,58.8827112 338.387691,57.693747 337.664353,56.2744546 C336.941014,54.8551621 336.53876,53.23824 336.457579,51.4236397 Z M359.127295,56.4788567 C358.808866,54.6608201 358.858416,53.0757858 359.275945,51.7237063 C359.693475,50.3716268 360.363176,49.2282106 361.285068,48.2934232 C362.20696,47.3586359 363.337362,46.5955375 364.676309,46.0041053 C366.015255,45.412673 367.449437,44.9830211 368.978896,44.7151366 C370.219778,44.4977963 371.45995,44.4887783 372.69945,44.6880823 C373.93895,44.8873862 375.083587,45.2668833 376.133394,45.8265848 C377.183202,46.3862863 378.073221,47.1375478 378.803477,48.0803919 C379.533733,49.0232359 380.015105,50.1583685 380.247609,51.4858239 C380.449786,52.6401328 380.398886,53.6231167 380.094908,54.4348051 C379.79093,55.2464934 379.300443,55.9272534 378.623431,56.4771054 C377.946419,57.0269575 377.168579,57.4680572 376.289887,57.800418 C375.411196,58.1327787 374.495711,58.3823533 373.543406,58.5491493 C372.619959,58.7108909 371.667301,58.8331348 370.685404,58.9158849 C369.703507,58.9986349 368.780765,58.9520551 367.91715,58.776144 C367.053535,58.6002329 366.30642,58.2403376 365.675784,57.6964473 C365.045148,57.152557 364.628747,56.3034701 364.42657,55.1491612 C365.032583,55.0430182 365.638424,55.0633112 366.244112,55.2100406 C366.8498,55.3567699 367.465221,55.5166622 368.090392,55.6897221 C368.715564,55.862782 369.336935,56.0141963 369.954525,56.1439696 C370.548312,56.3076551 371.162631,56.3338987 371.797501,56.2227014 C372.259224,56.1418306 372.86486,55.9911398 373.614427,55.7706243 C374.363993,55.5501089 375.056363,55.2578208 375.691557,54.8937512 C376.326751,54.5296815 376.851722,54.0882578 377.266487,53.5694667 C377.681252,53.0506756 377.830506,52.4594251 377.714255,51.7956975 C377.542404,50.8145348 377.176871,50.0011523 376.617645,49.3555256 C376.058418,48.7098988 375.390823,48.2096698 374.61484,47.8548236 C373.838857,47.4999773 372.995267,47.2685142 372.084045,47.1604275 C371.172824,47.0523407 370.28436,47.0741133 369.418629,47.225746 C369.303198,47.2459637 369.026894,47.3241009 368.589708,47.46016 C368.152522,47.596219 367.656731,47.7797199 367.102322,48.0106681 C366.547912,48.2416164 365.969708,48.5064728 365.367692,48.8052453 C364.765676,49.1040179 364.22175,49.4372268 363.7359,49.804882 C363.250049,50.1725372 362.864309,50.5598319 362.57867,50.9667777 C362.29303,51.3737235 362.18812,51.793623 362.263936,52.2264889 L362.354916,52.7459253 C362.439372,53.0583059 362.549995,53.477633 362.686789,54.0039193 C362.823582,54.5302055 362.953159,55.0577475 363.075524,55.586561 C363.197888,56.1153745 363.323307,56.5767239 363.451785,56.9706232 C363.580262,57.3645225 363.649554,57.5903265 363.659663,57.6480419 C363.798249,58.0996567 364.024345,58.7961844 364.337957,59.7376461 C364.651569,60.6791077 364.999822,61.7334572 365.382727,62.9007263 C365.765632,64.0679953 366.181546,65.2963849 366.630483,66.5859321 C367.079419,67.8754792 367.509762,69.1013417 367.921525,70.2635563 C368.333288,71.4257709 368.70192,72.4691153 369.027434,73.3936209 C369.352947,74.3181265 369.596895,74.9892205 369.759284,75.4069231 C369.769393,75.4646385 369.785453,75.5138752 369.807463,75.5546346 C369.829474,75.595394 369.843006,75.630202 369.84806,75.6590597 L369.855642,75.7023461 L369.827519,75.7965004 L369.842682,75.8830732 C369.80013,75.9797552 369.695544,76.1467862 369.528921,76.3841713 C369.328385,76.597753 369.204316,76.7384539 369.15671,76.8062782 L368.896992,76.8517678 C368.608414,76.902312 368.25866,76.6884528 367.847718,76.2101835 C367.436776,75.7319143 366.985773,75.0673434 366.494695,74.216451 C366.003617,73.3655585 365.488538,72.3776067 364.949443,71.2525659 C364.410347,70.1275251 363.870893,68.9579516 363.331063,67.7438104 C362.791234,66.5296692 362.282797,65.3249205 361.805737,64.1295281 C361.328677,62.9341358 360.895645,61.8202789 360.506627,60.7879241 C360.117609,59.7555693 359.804369,58.8586713 359.566898,58.0972032 C359.329426,57.3357351 359.182893,56.7962917 359.127295,56.4788567 Z M384.103817,49.8207259 C384.257804,48.2167645 384.742141,46.8505614 385.556843,45.7220758 C386.371544,44.5935901 387.386753,43.6756755 388.602501,42.9683046 C389.81825,42.2609337 391.152203,41.7783003 392.604403,41.5203898 C394.056602,41.2624792 395.497172,41.2021194 396.926155,41.3393084 C397.684392,41.4121026 398.378284,41.618518 399.007852,41.9585608 C399.63742,42.2986036 400.228017,42.7379103 400.779661,43.2764941 C401.331305,43.8150779 401.810325,44.4202605 402.216737,45.09206 C402.623149,45.7638595 402.961839,46.4512214 403.232818,47.1541663 C403.503797,47.8571112 403.693875,48.5596369 403.803058,49.2617645 C403.912241,49.9638921 403.936034,50.6357381 403.874439,51.2773227 C403.731651,52.7646323 403.312638,54.0635286 402.617388,55.1740504 C401.922138,56.2845723 401.04026,57.1932137 399.971726,57.9000021 C398.903193,58.6067904 397.721642,59.1114131 396.427039,59.4138853 C395.132437,59.7163575 393.828989,59.8045973 392.516657,59.6786074 C391.175162,59.5498177 389.963344,59.2201009 388.881168,58.689447 C387.798992,58.1587931 386.878743,57.4744615 386.120393,56.6364316 C385.362044,55.7984017 384.80347,54.7956171 384.444654,53.6280477 C384.085838,52.4604784 383.972227,51.1913838 384.103817,49.8207259 Z M386.280879,49.6765549 C386.194086,50.5806058 386.278478,51.4642886 386.534058,52.3276296 C386.789638,53.1909706 387.186945,53.9575382 387.72599,54.6273552 C388.265034,55.2971722 388.925329,55.8535376 389.706894,56.2964679 C390.488459,56.7393983 391.345836,57.0056559 392.27905,57.0952488 C392.76922,57.2011708 393.382041,57.1790684 394.117531,57.0289409 C394.853022,56.8788134 395.5983,56.6266194 396.353389,56.2723514 C397.108477,55.9180833 397.842791,55.4735334 398.556353,54.9386882 C399.269914,54.403843 399.879705,53.8001818 400.385743,53.1276865 C400.891782,52.4551913 401.232928,51.7374451 401.409192,50.9744266 C401.585457,50.2114081 401.528418,49.4260031 401.238076,48.6181882 C400.947733,47.8103732 400.35568,47.0030356 399.461897,46.1961511 C398.568115,45.3892667 397.304915,44.598432 395.67226,43.8236234 C394.709884,43.7312308 393.697769,43.7738618 392.635887,43.9515176 C391.574005,44.1291735 390.593619,44.4544477 389.694698,44.9273499 C388.795777,45.4002522 388.028683,46.0329585 387.393394,46.8254878 C386.758105,47.6180172 386.38727,48.5683634 386.280879,49.6765549 Z M407.518958,56.964123 C407.811167,56.9430141 408.049241,56.9654693 408.233188,57.0314892 C408.417134,57.0975091 408.607678,57.1938929 408.804824,57.3206434 C409.026613,57.4632377 409.212751,57.6612764 409.363243,57.9147653 C409.513735,58.1682541 409.629898,58.4344994 409.711738,58.713509 C409.793577,58.9925186 409.885537,59.2693243 409.98762,59.5439342 C410.089703,59.8185441 410.21995,60.0764288 410.378364,60.3175961 C410.844806,61.0006108 411.213553,61.5511508 411.484617,61.9692326 C411.75568,62.3873143 412.019701,62.748621 412.276688,63.0531635 C412.533675,63.357706 412.863709,63.6569668 413.2668,63.9509549 C413.669891,64.244943 414.204113,64.6058231 414.86948,65.033606 C415.386988,65.3663261 416.01142,65.776498 416.742795,66.264134 C417.47417,66.75177 418.216101,67.1417047 418.968609,67.4339499 C419.721118,67.7261951 420.446339,67.8441686 421.144296,67.7878742 C421.842253,67.7315797 422.42888,67.3337899 422.904194,66.5944929 C423.388308,65.8956828 423.557767,65.2122699 423.412576,64.5442336 C423.267386,63.8761973 422.921088,63.2094812 422.373672,62.5440653 C421.826255,61.8786495 421.149027,61.2255589 420.341967,60.5847741 C419.534908,59.9439894 418.707178,59.2812099 417.858753,58.5964159 C417.010329,57.9116218 416.208126,57.1955957 415.452119,56.4483161 C414.696113,55.7010365 414.099864,54.9084493 413.663354,54.0705307 C413.226845,53.2326122 413.020939,52.3339887 413.045631,51.3746333 C413.070323,50.4152779 413.418906,49.3855425 414.09139,48.2853964 C414.746252,47.5918757 415.558192,47.1822154 416.527237,47.056403 C417.496281,46.9305907 418.509308,47.0072125 419.566346,47.2862706 C420.623385,47.5653288 421.648715,48.0155666 422.642366,48.6369975 C423.636017,49.2584284 424.462425,49.9638941 425.121613,50.7534158 C425.780802,51.5429375 426.205422,52.3993257 426.395487,53.3226059 C426.585552,54.2458861 426.423564,55.1343698 425.909517,55.9880836 C425.641928,56.5126359 425.343544,56.8954778 425.014359,57.1366208 C424.685173,57.3777638 424.364359,57.5110876 424.051906,57.5365963 C423.739454,57.5621049 423.476298,57.4974022 423.262431,57.3424863 C423.048564,57.1875703 422.931516,56.9904153 422.911285,56.7510152 C422.891053,56.5116151 422.986121,56.2418598 423.19649,55.9417413 C423.40686,55.6416227 423.798092,55.3445981 424.3702,55.0506586 C424.57266,54.5190619 424.526921,53.9672178 424.232981,53.3951098 C423.939042,52.8230017 423.519686,52.2834608 422.974902,51.776471 C422.430119,51.2694811 421.786766,50.8210226 421.044824,50.431082 C420.302882,50.0411414 419.578989,49.7585835 418.873122,49.5833997 C418.167256,49.408216 417.532684,49.3659382 416.969387,49.4565649 C416.406091,49.5471917 416.014419,49.8178123 415.794361,50.268435 C415.319047,51.007732 415.166309,51.71931 415.336142,52.4031901 C415.505976,53.0870702 415.864596,53.7617081 416.412012,54.4271239 C416.959428,55.0925398 417.651177,55.7636738 418.48728,56.4405459 C419.323383,57.117418 420.188077,57.8039628 421.081388,58.500201 C421.974699,59.1964391 422.813428,59.9098266 423.5976,60.6403849 C424.381772,61.3709432 425.012346,62.1507702 425.489343,62.9798894 C425.96634,63.8090085 426.212293,64.6724287 426.227211,65.5701761 C426.242129,66.4679234 425.924794,67.4219691 425.275198,68.4323417 C424.78404,69.196282 424.163081,69.7287301 423.412303,70.0297019 C422.661526,70.3306737 421.865441,70.471895 421.024024,70.4533701 C420.182608,70.4348452 419.349132,70.2821011 418.523571,69.9951331 C417.698011,69.7081652 416.96488,69.3587169 416.324155,68.9467778 C415.683431,68.5348386 415.003553,68.0890187 414.284499,67.6093046 C413.565446,67.1295905 412.853886,66.6111582 412.149799,66.0539922 C411.445711,65.4968262 410.7632,64.8925826 410.102245,64.2412434 C409.441289,63.5899041 408.891243,62.8879727 408.452088,62.135428 C408.012934,61.3828832 407.700968,60.5815089 407.51618,59.7312809 C407.331392,58.8810528 407.332318,57.9586761 407.518958,56.964123 Z M432.111575,64.8634271 C433.121996,63.7232811 434.258606,62.783074 435.521439,62.0427778 C436.784272,61.3024816 438.088836,60.8242848 439.435173,60.6081729 C440.781509,60.392061 442.129467,60.4612134 443.479088,60.8156323 C444.828709,61.1700511 446.117425,61.891323 447.345274,62.9794694 C447.991104,63.7084021 448.446585,64.4643703 448.711733,65.2473968 C448.976881,66.0304232 449.080209,66.797257 449.021721,67.547921 C448.963233,68.2985851 448.748411,69.0379146 448.377251,69.7659318 C448.003595,70.452592 447.525307,71.1248003 446.942371,71.7825769 C446.242848,72.5719087 445.381126,73.080465 444.357178,73.3082607 C443.33323,73.5360565 442.281003,73.5528326 441.200467,73.3585894 C440.119931,73.1643462 439.072035,72.8228637 438.05675,72.3341316 C437.041465,71.8453995 436.183021,71.2901428 435.481393,70.6683449 L434.67562,69.9542524 C434.401547,69.7113625 434.193746,69.4489139 434.052212,69.1668985 C433.910678,68.884883 433.851859,68.5978825 433.875753,68.3058883 C433.899647,68.0138941 434.067041,67.6924948 434.37794,67.3416806 C434.475096,67.2320512 434.574122,67.1534407 434.67502,67.1058469 C434.775918,67.0582531 434.917678,67.0860205 435.100306,67.18915 C435.282934,67.2922794 435.51801,67.4908224 435.805542,67.7847849 C436.073642,68.1006733 436.431935,68.535637 436.880431,69.089689 C437.187393,69.3617256 437.723683,69.6510548 438.489315,69.9576853 C439.254947,70.2643158 440.084966,70.5203619 440.979395,70.7258313 C441.873825,70.9313006 442.72974,71.0145685 443.547166,70.9756374 C444.364592,70.9367064 444.957892,70.7089483 445.327084,70.2923565 C445.715708,69.8538388 446.02821,69.3576586 446.2646,68.8038012 C446.50099,68.2499437 446.622399,67.6822766 446.62883,67.1007829 C446.635261,66.5192892 446.534067,65.9598613 446.325245,65.4224826 C446.116423,64.8851039 445.751401,64.4246043 445.230169,64.0409699 C444.40447,63.4266561 443.52374,63.018018 442.587953,62.8150433 C441.652166,62.6120687 440.71728,62.5958248 439.783267,62.7663112 C438.849254,62.9367976 437.960486,63.2550157 437.116934,63.7209751 C436.273383,64.1869345 435.521288,64.7926452 434.860628,65.5381253 C434.355417,66.1081983 433.861176,66.6879783 433.377891,67.2774825 C432.894606,67.8669867 432.481339,68.4989543 432.138078,69.1734041 C431.794817,69.847854 431.558693,70.5780918 431.429702,71.3641393 C431.30071,72.1501869 431.367671,73.0022282 431.630587,73.9202888 C431.893503,74.8383495 432.373668,75.8314936 433.071097,76.8997511 C433.768525,77.9680086 434.76778,79.1373755 436.068892,80.4078867 L442.305722,85.2304701 C441.527422,85.4019406 440.733673,85.403125 439.924452,85.2340233 C439.115232,85.0649217 438.326569,84.8063809 437.558443,84.4583933 C436.790316,84.1104058 436.071401,83.7179486 435.401677,83.2810101 C434.731954,82.8440716 434.13399,82.3924349 433.607769,81.9260865 C432.336068,80.7990777 431.325718,79.5318011 430.576691,78.1242188 C429.827663,76.7166365 429.360789,75.2557376 429.176056,73.7414782 C428.991322,72.2272189 429.133209,70.7088455 429.60172,69.1863125 C430.070231,67.6637794 430.906841,66.2228321 432.111575,64.8634271 Z M455.190278,78.8060223 C455.396102,78.6412205 455.587111,78.6102566 455.763308,78.7131296 C455.939505,78.8160027 456.100846,78.9589149 456.247337,79.1418704 C456.357205,79.279087 456.400723,79.4037472 456.377893,79.5158548 C456.355063,79.6279623 456.307065,79.7320718 456.233899,79.8281865 C456.160733,79.9243012 456.10244,80.0272713 456.05902,80.1370998 C456.015599,80.2469282 456.039667,80.3590144 456.131224,80.4733616 C456.387582,80.7935337 456.82465,81.0815976 457.44244,81.337562 C458.06023,81.5935263 458.732924,81.8711966 459.460543,82.1705814 C460.188161,82.4699661 460.920366,82.821961 461.65718,83.2265767 C462.393994,83.6311923 463.000439,84.1307954 463.476533,84.7254008 C464.099117,85.5029617 464.471233,86.3778426 464.59289,87.3500696 C464.714547,88.3222966 464.649772,89.3311902 464.398563,90.3767807 C464.147354,91.4223712 463.756596,92.4577101 463.226277,93.4828284 C462.695959,94.5079467 462.102718,95.4896102 461.446539,96.4278484 C460.790359,97.3660865 460.102126,98.2173922 459.381817,98.9817911 C458.661509,99.7461899 458.004062,100.366427 457.409456,100.842521 C457.203631,101.007323 456.881165,101.23737 456.442048,101.53267 C456.002931,101.827969 455.54551,102.100395 455.069771,102.349956 C454.594031,102.599517 454.128554,102.756418 453.673326,102.820665 C453.218098,102.884913 452.880622,102.779821 452.660886,102.505388 C452.624263,102.459649 452.565892,102.375029 452.48577,102.251527 C452.405648,102.128024 452.336962,101.995367 452.27971,101.853553 C452.222457,101.711739 452.184656,101.582501 452.166305,101.465835 C452.147955,101.34917 452.184518,101.254216 452.275995,101.18097 C454.201744,99.976824 455.854036,98.6538514 457.232922,97.2120127 C458.611807,95.7701741 459.701291,94.3536431 460.501406,92.9623772 C461.301521,91.5711114 461.779099,90.2692215 461.934154,89.0566683 C462.089209,87.8441152 461.864603,86.8605076 461.26033,86.1058161 C460.692679,85.3968635 460.047313,84.8252149 459.324213,84.3908532 C458.601114,83.9564915 457.839202,83.6845778 457.038457,83.575104 C456.237711,83.4656302 455.423323,83.5265959 454.595268,83.7580028 C453.767213,83.9894098 452.987286,84.3980882 452.255464,84.9840502 C451.523642,85.5700123 450.852481,86.2199951 450.241962,86.9340181 C449.631443,87.6480412 449.034666,88.3792053 448.451613,89.1275325 C447.868561,89.8758597 447.266066,90.6116016 446.644112,91.3347803 C446.022158,92.057959 445.34528,92.7125196 444.613458,93.2984816 C444.100741,92.6581373 443.933426,91.9101366 444.111509,91.0544571 C444.289591,90.1987775 444.684986,89.3098481 445.297705,88.3876422 C445.910425,87.4654364 446.671824,86.5180174 447.581925,85.5453569 C448.492026,84.5726964 449.421584,83.659522 450.370627,82.8058062 C451.319669,81.9520904 452.234413,81.1727514 453.114886,80.4677658 L455.190278,78.8060223 Z M470.061791,103.21608 L469.506658,102.117954 C469.242308,101.595034 469.013803,101.029383 468.821137,100.420983 C468.628471,99.8125831 468.52107,99.2267444 468.498932,98.6634495 C468.476793,98.1001546 468.661815,97.7193814 469.054005,97.5211185 C469.158589,97.4682484 469.318839,97.411858 469.53476,97.3519455 C469.750682,97.2920331 469.91151,97.3666596 470.01725,97.5758275 L472.412317,101.436926 C473.432588,101.052462 474.263144,100.731074 474.90401,100.472754 C475.544876,100.214435 476.126687,99.9367262 476.649462,99.6396209 C477.172238,99.3425157 477.717846,99.0256612 478.286305,98.6890479 C478.854763,98.3524346 479.603,97.9331458 480.531038,97.4311689 C480.71406,97.3386462 480.877686,97.3051693 481.021923,97.3307371 C481.166159,97.356305 481.294161,97.414699 481.405932,97.5059209 C481.517703,97.5971427 481.623008,97.7080447 481.72185,97.8386301 C481.820693,97.9692155 481.889939,98.0737256 481.929592,98.1521635 C482.008897,98.3090394 482.039214,98.4988841 482.020544,98.7217031 C482.001874,98.9445221 481.947145,99.1609458 481.856357,99.3709809 C481.765569,99.581016 481.655028,99.7682066 481.524732,99.9325585 C481.394436,100.09691 481.250852,100.218737 481.093976,100.298042 L473.918673,104.31929 L475.46685,107.77141 C475.74384,108.189456 475.86704,108.644206 475.836453,109.135671 C475.805867,109.627137 475.496508,110.037938 474.908368,110.368087 C474.40986,110.226163 474.01558,109.949487 473.725517,109.538049 C473.435454,109.126611 473.174701,108.675744 472.94325,108.185434 C472.711799,107.695125 472.470582,107.217968 472.219594,106.753949 C471.968605,106.28993 471.632937,105.934383 471.212577,105.687297 C471.055702,105.766602 470.630908,105.997761 469.938184,106.38078 C469.24546,106.763799 468.422018,107.212899 467.467834,107.728093 C466.51365,108.243288 465.497421,108.798054 464.419116,109.392409 C463.340811,109.986764 462.344191,110.531618 461.429226,111.026986 C460.514261,111.522354 459.73327,111.941787 459.086229,112.285298 C458.439188,112.62881 458.076454,112.820389 457.998016,112.860041 C457.32797,112.443729 457.116131,111.943514 457.362494,111.359381 C457.608858,110.775248 458.10073,110.157285 458.838125,109.505475 C459.575521,108.853665 460.48975,108.194533 461.580838,107.528059 C462.671927,106.861586 463.769753,106.24095 464.874349,105.666132 C465.978944,105.091314 467.008463,104.57907 467.962936,104.129385 C468.917409,103.679701 469.617021,103.375268 470.061791,103.21608 Z" id="Les-nuages-nous-repo"></path>
            </g>
        </g>
    </g>
</svg>