<?xml version="1.0" encoding="UTF-8"?>
<svg width="338px" height="142px" viewBox="0 0 338 142" version="1.1" xmlns="http://www.w3.org/2000/svg" xmlns:xlink="http://www.w3.org/1999/xlink">
    <!-- Generator: Sketch 52.6 (67491) - http://www.bohemiancoding.com/sketch -->
    <title>Cloud</title>
    <desc>Created with Sketch.</desc>
    <g id="Symbols" stroke="none" stroke-width="1" fill="none" fill-rule="evenodd">
        <g id="Cloud" transform="translate(-18.000000, -7.000000)" fill="#FFFFFF">
            <path d="M19.1506192,105.266869 C24.5811624,74.8970058 34.8070561,66.9603321 66.4713508,44.4101986 C98.1356455,21.8600651 116.296261,8.45016323 157.02989,7.0743783 C197.763519,5.69859336 202.791007,23.6798246 240.138883,38.5445494 C277.48676,53.4092743 294.141028,29.0931925 316.465388,44.4101986 C338.789748,59.7272047 360.969325,87.7348737 355.020368,109.579846 C349.071411,131.424818 323.25582,141.373863 291.600739,147.805148 C259.945658,154.236433 234.960818,132.610025 202.801617,132.610025 C170.642417,132.610025 170.558247,150.280419 140.836977,147.805148 C111.115708,145.329877 117.494101,133.871363 97.7066152,132.610025 C77.9191292,131.348686 69.9097926,147.324087 49.0293858,141.952942 C28.148979,136.581796 13.7200759,135.636732 19.1506192,105.266869 Z"></path>
        </g>
    </g>
</svg>