<?xml version="1.0" encoding="UTF-8"?>
<svg width="1011px" height="787px" viewBox="0 0 1011 787" version="1.1" xmlns="http://www.w3.org/2000/svg" xmlns:xlink="http://www.w3.org/1999/xlink">
    <!-- Generator: Sketch 52.6 (67491) - http://www.bohemiancoding.com/sketch -->
    <title>Moon</title>
    <desc>Created with Sketch.</desc>
    <defs>
        <radialGradient cx="85.0933754%" cy="15.0096318%" fx="85.0933754%" fy="15.0096318%" r="98.9474891%" id="radialGradient-1">
            <stop stop-color="#C47043" stop-opacity="0.5" offset="0%"></stop>
            <stop stop-color="#C47043" stop-opacity="0" offset="100%"></stop>
        </radialGradient>
        <circle id="path-2" cx="370.5" cy="370.5" r="370.5"></circle>
        <filter x="-4.3%" y="-2.9%" width="107.2%" height="107.2%" filterUnits="objectBoundingBox" id="filter-3">
            <feOffset dx="-5" dy="5" in="SourceAlpha" result="shadowOffsetOuter1"></feOffset>
            <feGaussianBlur stdDeviation="8" in="shadowOffsetOuter1" result="shadowBlurOuter1"></feGaussianBlur>
            <feColorMatrix values="0 0 0 0 1   0 0 0 0 1   0 0 0 0 1  0 0 0 0.5 0" type="matrix" in="shadowBlurOuter1"></feColorMatrix>
        </filter>
        <filter x="-3.0%" y="-1.6%" width="104.6%" height="104.6%" filterUnits="objectBoundingBox" id="filter-4">
            <feOffset dx="-2" dy="2" in="SourceAlpha" result="shadowOffsetInner1"></feOffset>
            <feComposite in="shadowOffsetInner1" in2="SourceAlpha" operator="arithmetic" k2="-1" k3="1" result="shadowInnerInner1"></feComposite>
            <feColorMatrix values="0 0 0 0 0.768627451   0 0 0 0 0.439215686   0 0 0 0 0.262745098  0 0 0 0.7 0" type="matrix" in="shadowInnerInner1"></feColorMatrix>
        </filter>
        <ellipse id="path-5" cx="64.862069" cy="122.931818" rx="64.862069" ry="64.5274295"></ellipse>
        <filter x="-1.2%" y="-1.2%" width="102.3%" height="102.3%" filterUnits="objectBoundingBox" id="filter-6">
            <feOffset dx="3" dy="1" in="SourceAlpha" result="shadowOffsetInner1"></feOffset>
            <feComposite in="shadowOffsetInner1" in2="SourceAlpha" operator="arithmetic" k2="-1" k3="1" result="shadowInnerInner1"></feComposite>
            <feColorMatrix values="0 0 0 0 0.768627451   0 0 0 0 0.439215686   0 0 0 0 0.262745098  0 0 0 0.7 0" type="matrix" in="shadowInnerInner1"></feColorMatrix>
        </filter>
        <ellipse id="path-7" cx="213.856822" cy="113.511755" rx="40.8913043" ry="40.9772727"></ellipse>
        <filter x="-1.8%" y="-1.8%" width="103.7%" height="103.7%" filterUnits="objectBoundingBox" id="filter-8">
            <feOffset dx="3" dy="1" in="SourceAlpha" result="shadowOffsetInner1"></feOffset>
            <feComposite in="shadowOffsetInner1" in2="SourceAlpha" operator="arithmetic" k2="-1" k3="1" result="shadowInnerInner1"></feComposite>
            <feColorMatrix values="0 0 0 0 0.768627451   0 0 0 0 0.439215686   0 0 0 0 0.262745098  0 0 0 0.7 0" type="matrix" in="shadowInnerInner1"></feColorMatrix>
        </filter>
        <ellipse id="path-9" cx="472.835082" cy="28.2601881" rx="28.2008996" ry="28.2601881"></ellipse>
        <filter x="-2.7%" y="-2.7%" width="105.3%" height="105.3%" filterUnits="objectBoundingBox" id="filter-10">
            <feOffset dx="3" dy="1" in="SourceAlpha" result="shadowOffsetInner1"></feOffset>
            <feComposite in="shadowOffsetInner1" in2="SourceAlpha" operator="arithmetic" k2="-1" k3="1" result="shadowInnerInner1"></feComposite>
            <feColorMatrix values="0 0 0 0 0.768627451   0 0 0 0 0.439215686   0 0 0 0 0.262745098  0 0 0 0.7 0" type="matrix" in="shadowInnerInner1"></feColorMatrix>
        </filter>
        <ellipse id="path-11" cx="107.633433" cy="254.812696" rx="24.9107946" ry="24.9631661"></ellipse>
        <filter x="-3.0%" y="-3.0%" width="106.0%" height="106.0%" filterUnits="objectBoundingBox" id="filter-12">
            <feOffset dx="3" dy="1" in="SourceAlpha" result="shadowOffsetInner1"></feOffset>
            <feComposite in="shadowOffsetInner1" in2="SourceAlpha" operator="arithmetic" k2="-1" k3="1" result="shadowInnerInner1"></feComposite>
            <feColorMatrix values="0 0 0 0 0.768627451   0 0 0 0 0.439215686   0 0 0 0 0.262745098  0 0 0 0.7 0" type="matrix" in="shadowInnerInner1"></feColorMatrix>
        </filter>
        <ellipse id="path-13" cx="368.491754" cy="521.871473" rx="78.9625187" ry="79.1285266"></ellipse>
        <filter x="-0.9%" y="-0.9%" width="101.9%" height="101.9%" filterUnits="objectBoundingBox" id="filter-14">
            <feOffset dx="3" dy="1" in="SourceAlpha" result="shadowOffsetInner1"></feOffset>
            <feComposite in="shadowOffsetInner1" in2="SourceAlpha" operator="arithmetic" k2="-1" k3="1" result="shadowInnerInner1"></feComposite>
            <feColorMatrix values="0 0 0 0 0.768627451   0 0 0 0 0.439215686   0 0 0 0 0.262745098  0 0 0 0.7 0" type="matrix" in="shadowInnerInner1"></feColorMatrix>
        </filter>
        <ellipse id="path-15" cx="234.537481" cy="462.054075" rx="44.6514243" ry="43.8032915"></ellipse>
        <filter x="-1.7%" y="-1.7%" width="103.4%" height="103.4%" filterUnits="objectBoundingBox" id="filter-16">
            <feOffset dx="3" dy="1" in="SourceAlpha" result="shadowOffsetInner1"></feOffset>
            <feComposite in="shadowOffsetInner1" in2="SourceAlpha" operator="arithmetic" k2="-1" k3="1" result="shadowInnerInner1"></feComposite>
            <feColorMatrix values="0 0 0 0 0.768627451   0 0 0 0 0.439215686   0 0 0 0 0.262745098  0 0 0 0.7 0" type="matrix" in="shadowInnerInner1"></feColorMatrix>
        </filter>
        <ellipse id="path-17" cx="305.509745" cy="419.19279" rx="15.9805097" ry="16.0141066"></ellipse>
        <filter x="-4.7%" y="-4.7%" width="109.4%" height="109.4%" filterUnits="objectBoundingBox" id="filter-18">
            <feOffset dx="3" dy="1" in="SourceAlpha" result="shadowOffsetInner1"></feOffset>
            <feComposite in="shadowOffsetInner1" in2="SourceAlpha" operator="arithmetic" k2="-1" k3="1" result="shadowInnerInner1"></feComposite>
            <feColorMatrix values="0 0 0 0 0.768627451   0 0 0 0 0.439215686   0 0 0 0 0.262745098  0 0 0 0.7 0" type="matrix" in="shadowInnerInner1"></feColorMatrix>
        </filter>
        <ellipse id="path-19" cx="162.625187" cy="522.81348" rx="28.2008996" ry="28.2601881"></ellipse>
        <filter x="-2.7%" y="-2.7%" width="105.3%" height="105.3%" filterUnits="objectBoundingBox" id="filter-20">
            <feOffset dx="3" dy="1" in="SourceAlpha" result="shadowOffsetInner1"></feOffset>
            <feComposite in="shadowOffsetInner1" in2="SourceAlpha" operator="arithmetic" k2="-1" k3="1" result="shadowInnerInner1"></feComposite>
            <feColorMatrix values="0 0 0 0 0.768627451   0 0 0 0 0.439215686   0 0 0 0 0.262745098  0 0 0 0.7 0" type="matrix" in="shadowInnerInner1"></feColorMatrix>
        </filter>
        <ellipse id="path-21" cx="523.596702" cy="320.282132" rx="78.9625187" ry="79.1285266"></ellipse>
        <filter x="-0.9%" y="-0.9%" width="101.9%" height="101.9%" filterUnits="objectBoundingBox" id="filter-22">
            <feOffset dx="3" dy="1" in="SourceAlpha" result="shadowOffsetInner1"></feOffset>
            <feComposite in="shadowOffsetInner1" in2="SourceAlpha" operator="arithmetic" k2="-1" k3="1" result="shadowInnerInner1"></feComposite>
            <feColorMatrix values="0 0 0 0 0.768627451   0 0 0 0 0.439215686   0 0 0 0 0.262745098  0 0 0 0.7 0" type="matrix" in="shadowInnerInner1"></feColorMatrix>
        </filter>
        <ellipse id="path-23" cx="602.089205" cy="227.494514" rx="24.9107946" ry="24.9631661"></ellipse>
        <filter x="-3.0%" y="-3.0%" width="106.0%" height="106.0%" filterUnits="objectBoundingBox" id="filter-24">
            <feOffset dx="3" dy="1" in="SourceAlpha" result="shadowOffsetInner1"></feOffset>
            <feComposite in="shadowOffsetInner1" in2="SourceAlpha" operator="arithmetic" k2="-1" k3="1" result="shadowInnerInner1"></feComposite>
            <feColorMatrix values="0 0 0 0 0.768627451   0 0 0 0 0.439215686   0 0 0 0 0.262745098  0 0 0 0.7 0" type="matrix" in="shadowInnerInner1"></feColorMatrix>
        </filter>
    </defs>
    <g id="Moon" stroke="none" stroke-width="1" fill="none" fill-rule="evenodd">
        <g transform="translate(135.000000, 23.000000)">
            <g id="background" transform="translate(370.500000, 370.500000) rotate(-360.000000) translate(-370.500000, -370.500000) ">
                <use fill="black" fill-opacity="1" filter="url(#filter-3)" xlink:href="#path-2"></use>
                <use fill="#FFFFFF" fill-rule="evenodd" xlink:href="#path-2"></use>
                <use fill="url(#radialGradient-1)" fill-rule="evenodd" xlink:href="#path-2"></use>
                <use fill="black" fill-opacity="1" filter="url(#filter-4)" xlink:href="#path-2"></use>
            </g>
            <path d="M14.4106494,313.913864 C15.48606,314.049974 16.6021105,314.331497 17.7588344,314.758441 C18.9155584,315.185385 19.9648386,315.761142 20.9067064,316.485731 C21.8485743,317.210319 22.5885413,318.071761 23.1266296,319.070083 C23.6647179,320.068405 23.8491502,321.236047 23.6799321,322.573044 C23.5916444,323.270608 23.4016315,323.955286 23.1098878,324.627099 C22.8181441,325.298912 22.4364516,325.981478 21.964799,326.674816 C21.4931463,327.368155 20.9524266,328.082271 20.3426235,328.817187 C19.7328203,329.552102 19.0657256,330.331432 18.3413191,331.1552 C19.4892105,331.418606 20.6936479,331.526752 21.9546674,331.479638 C23.2156869,331.432525 24.4622461,331.324524 25.6943824,331.155632 C26.9265188,330.98674 28.0941607,330.802308 29.1973432,330.60233 C30.3005258,330.402351 31.2827436,330.283042 32.1440262,330.244397 C33.0053089,330.205752 33.7047013,330.279506 34.2422246,330.465661 C34.7797478,330.651816 35.0843812,331.044736 35.1561339,331.644432 C34.4755072,332.355618 33.5689016,332.927452 32.4362898,333.359952 C31.3036781,333.792451 30.0140774,334.123865 28.567449,334.354201 C27.1208206,334.584538 25.5889501,334.730254 23.9717915,334.791354 C22.354633,334.852453 20.721218,334.867196 19.0714976,334.835583 C17.4217773,334.803969 15.820277,334.741543 14.2669487,334.648302 C12.7136205,334.555061 11.2829209,334.484722 9.97480707,334.437283 C8.66669326,334.389843 7.54843936,334.359049 6.62001184,334.3449 C5.69158431,334.33075 5.02558176,334.401491 4.62198423,334.557125 C4.15694182,334.498266 3.88744662,334.294358 3.81349054,333.945394 C3.73953446,333.59643 3.72462856,333.247563 3.76877241,332.898781 C3.80555895,332.608129 3.94581972,332.374874 4.18955892,332.199008 C4.43329813,332.023142 4.70784667,331.895474 5.01321279,331.816 C5.31857892,331.736526 5.6593517,331.668917 6.03554137,331.613172 C6.41173104,331.557427 6.75977,331.490739 7.0796687,331.413104 C7.39956739,331.335469 7.67043734,331.236866 7.89228666,331.11729 C8.11413598,330.997715 8.23977338,330.82167 8.26920261,330.589149 C8.27655992,330.531018 8.27940988,330.450171 8.2777526,330.346603 C8.27609531,330.243036 8.26073432,330.189414 8.23166917,330.185735 C7.54586968,329.537852 6.89383446,328.798278 6.27554395,327.966989 C5.65725344,327.135701 5.13536284,326.242799 4.7098565,325.288257 C4.28435016,324.333715 3.97336078,323.349384 3.77687903,322.335237 C3.58039728,321.321089 3.54469406,320.319923 3.66976829,319.331707 C3.80955714,318.227232 4.29517948,317.306813 5.12664988,316.570422 C5.95812027,315.834032 6.91834808,315.246836 8.0073621,314.808819 C9.09637612,314.370801 10.2251102,314.085471 11.3935983,313.95282 C12.5620864,313.820168 13.56776,313.807183 14.4106494,313.913864 Z M13.2837812,316.517587 C12.2006492,316.675806 11.2520033,316.821513 10.437815,316.954711 C9.62362672,317.087908 8.94833666,317.29036 8.41192458,317.562072 C7.8755125,317.833784 7.45435666,318.186522 7.14844442,318.620296 C6.84253218,319.05407 6.64175657,319.648795 6.54611157,320.404488 C6.42839464,321.334573 6.57217089,322.356801 6.97744464,323.471201 C7.38271838,324.585602 7.94977229,325.646636 8.67862339,326.654337 C9.40747448,327.662038 10.2364749,328.519983 11.1656495,329.2282 C12.0948241,329.936416 13.0244399,330.349377 13.9545247,330.467094 L15.0008649,330.599525 C16.7072214,329.250362 17.9692137,327.970485 18.7868797,326.759855 C19.6045457,325.549226 20.0850142,324.436207 20.2282996,323.420766 C20.3715851,322.405325 20.2585308,321.490342 19.8891334,320.67579 C19.519736,319.861238 18.9884669,319.159096 18.2953101,318.569343 C17.6021533,317.979591 16.805259,317.509602 15.9046035,317.159364 C15.0039479,316.809126 14.1303492,316.595202 13.2837812,316.517587 Z M13.3582561,336.805572 C14.8786741,336.901563 16.3189768,337.219996 17.6792076,337.760881 C19.0394383,338.301767 20.2186064,339.036698 21.2167472,339.965698 C22.214888,340.894698 22.989037,342.00035 23.5392174,343.282688 C24.0893979,344.565026 24.3127975,346.024859 24.2094229,347.662233 C24.0315505,348.619729 23.7153342,349.443719 23.2607645,350.134226 C22.8061948,350.824733 22.2649141,351.377658 21.6369059,351.793017 C21.0088977,352.208376 20.2937196,352.493466 19.49135,352.648297 C18.7200651,352.775734 17.895853,352.811763 17.0186888,352.756384 C15.9660917,352.689929 15.0352272,352.322932 14.2260672,351.655384 C13.4169073,350.987836 12.7567944,350.168255 12.2457089,349.196617 C11.7346233,348.224978 11.359733,347.188565 11.1210265,346.087347 C10.8823201,344.986128 10.7925039,343.967713 10.851575,343.032072 L10.9194143,341.957551 C10.942489,341.592066 11.0217326,341.266826 11.1571476,340.981822 C11.2925625,340.696818 11.4827603,340.473986 11.7277466,340.313321 C11.9727329,340.152656 12.3291312,340.087092 12.7969521,340.116628 C12.9431462,340.125858 13.0660248,340.155632 13.1655916,340.205951 C13.2651585,340.25627 13.3304091,340.385148 13.3613455,340.592589 C13.3922819,340.800029 13.3802091,341.107494 13.3251266,341.514991 C13.2408054,341.920642 13.1180173,342.470634 12.9567586,343.164981 C12.930915,343.574324 13.0324168,344.17517 13.2612672,344.967535 C13.4901175,345.7599 13.798447,346.571949 14.1862648,347.403705 C14.5740826,348.235462 15.0346032,348.961716 15.5678404,349.582489 C16.1010777,350.203261 16.6454568,350.53118 17.2009942,350.566253 C17.7857703,350.603173 18.3692274,350.544605 18.951383,350.39055 C19.5335386,350.236494 20.0558984,349.983262 20.5184782,349.630847 C20.9810579,349.278433 21.3600691,348.854699 21.6555229,348.359633 C21.9509767,347.864568 22.0897684,347.293571 22.0719023,346.646625 C22.048795,345.617729 21.8296393,344.671875 21.4144286,343.809033 C20.999218,342.946191 20.437286,342.198858 19.728616,341.567009 C19.0199459,340.935161 18.2225741,340.429818 17.3364768,340.050966 C16.4503795,339.672114 15.5102852,339.451309 14.5161658,339.388546 C13.7559568,339.340551 12.9948363,339.307175 12.2327813,339.288419 C11.4707263,339.269662 10.7182256,339.332235 9.97525662,339.476137 C9.23228761,339.62004 8.51118432,339.882741 7.81192512,340.264246 C7.11266593,340.645751 6.48182408,341.222376 5.91938065,341.994139 C5.35693723,342.765902 4.86883423,343.755169 4.45505701,344.96197 C4.0412798,346.168771 3.73331239,347.675783 3.53114555,349.483051 L3.56179975,357.366859 C2.94808159,356.858427 2.45917138,356.233123 2.09505445,355.490928 C1.73093753,354.748734 1.4500005,353.96777 1.25223494,353.148012 C1.05446938,352.328254 0.922031629,351.519971 0.854917713,350.723139 C0.787803797,349.926307 0.776398705,349.177037 0.820702094,348.475306 C0.927768618,346.779455 1.30613722,345.2035 1.95581926,343.747395 C2.6055013,342.291289 3.47069527,341.024942 4.55142713,339.948314 C5.63215898,338.871687 6.91693333,338.050137 8.40578871,337.483639 C9.8946441,336.917142 11.54545,336.691122 13.3582561,336.805572 Z M15.3318648,380.756689 L15.2922449,379.526858 C15.2733782,378.941222 15.3050468,378.331982 15.3872515,377.699121 C15.4694562,377.06626 15.6194294,376.489849 15.8371757,375.96987 C16.054922,375.449891 16.3834039,375.182831 16.8226314,375.168681 C16.9397587,375.164908 17.1088342,375.181445 17.3298629,375.218292 C17.5508916,375.25514 17.6651776,375.390689 17.6727243,375.624944 L18.2137716,380.136229 C19.3009726,380.218453 20.1895647,380.277762 20.8795744,380.314157 C21.569584,380.350552 22.2142463,380.34444 22.8135805,380.29582 C23.4129147,380.2472 24.0412854,380.190316 24.6987116,380.125169 C25.3561378,380.060021 26.2114393,379.995827 27.2646419,379.932585 C27.4696147,379.925982 27.6320773,379.964716 27.7520347,380.048788 C27.871992,380.13286 27.9633736,380.239835 28.0261823,380.369717 C28.0889909,380.499598 28.1376296,380.64459 28.1720998,380.804697 C28.20657,380.964804 28.2252198,381.088778 28.2280498,381.176623 C28.2337098,381.352314 28.1810428,381.53721 28.0700471,381.731315 C27.9590515,381.92542 27.8180686,382.098505 27.6470943,382.250574 C27.47612,382.402643 27.2968846,382.525665 27.1093827,382.619642 C26.9218808,382.713619 26.7402871,382.763437 26.5645961,382.769097 L18.3624038,383.385081 L18.3084033,387.168078 C18.3830036,387.663983 18.3026964,388.12823 18.0674792,388.560835 C17.832262,388.99344 17.3783908,389.235228 16.7058521,389.286207 C16.3138683,388.947088 16.0732593,388.529819 15.984018,388.034386 C15.8947768,387.538953 15.8487514,387.020152 15.8459407,386.477966 C15.8431299,385.935781 15.8259143,385.401395 15.7942933,384.874794 C15.7626724,384.348193 15.6084926,383.884171 15.3317495,383.482716 C15.1560585,383.488376 14.6733872,383.518581 13.8837211,383.573333 C13.094055,383.628085 12.1579938,383.687553 11.0755094,383.751738 C9.99302506,383.815923 8.83758926,383.889786 7.60916739,383.973329 C6.38074552,384.056872 5.24727077,384.130027 4.20870913,384.192797 C3.17014749,384.255568 2.2850929,384.306064 1.55351881,384.344288 C0.821944715,384.382513 0.41224107,384.403039 0.324395579,384.405869 C-0.107246752,383.745594 -0.0880964494,383.202709 0.38184706,382.777199 C0.85179057,382.351688 1.55857229,381.999161 2.50221343,381.719607 C3.44585457,381.440053 4.5528875,381.228518 5.82334545,381.084997 C7.0938034,380.941475 8.35101657,380.84235 9.59502269,380.787617 C10.8390288,380.732885 11.9885592,380.70318 13.0436485,380.698501 C14.0987377,380.693823 14.8614688,380.713219 15.3318648,380.756689 Z M7.97608237,390.249839 C8.47485426,390.238088 9.05624703,390.337105 9.72027811,390.546893 C10.3843092,390.756681 11.0457752,391.113657 11.704696,391.617832 C12.3636168,392.122007 12.9688772,392.777581 13.5204953,393.584574 C14.0721134,394.391566 14.4976813,395.363274 14.797212,396.499728 C15.0967426,397.636181 15.2197336,398.948859 15.1661887,400.437802 C15.1126438,401.926745 14.8101733,403.605229 14.2587681,405.473305 L14.6967334,405.437174 L15.087289,405.360859 C15.8464327,405.298232 16.6020982,405.01542 17.3543083,404.512416 C18.1065185,404.009412 18.7681875,403.388951 19.3393351,402.651014 C19.9104828,401.913077 20.360617,401.13369 20.6897514,400.31283 C21.0188857,399.491971 21.1533415,398.716579 21.0931226,397.986634 C21.0690351,397.694655 21.0041627,397.442791 20.8985035,397.231034 C20.7928444,397.019276 20.6658909,396.816628 20.5176394,396.623082 C20.3693879,396.429537 20.2363395,396.24209 20.1184902,396.060734 C20.0006409,395.879379 19.9308778,395.657314 19.9091991,395.394534 C19.9043815,395.336138 19.9165715,395.305737 19.9457694,395.303328 L20.0261362,395.208508 C20.0797143,395.145295 20.1460839,395.058981 20.2252467,394.949562 C20.3044096,394.840143 20.3585891,394.78423 20.3877869,394.781822 C20.9133479,394.738464 21.3737358,394.796021 21.7689645,394.954493 C22.1641933,395.112965 22.4924444,395.35045 22.7537277,395.666955 C23.015011,395.98346 23.2288081,396.347971 23.3951252,396.760501 C23.5614424,397.17303 23.6638695,397.61287 23.7024096,398.080036 C23.6819684,399.257584 23.4164338,400.403891 22.9057978,401.518991 C22.3951618,402.634092 21.724021,403.674229 20.8923552,404.639434 C20.0606894,405.604639 19.0813158,406.471781 17.954205,407.240886 C16.8270942,408.009991 15.6471715,408.673207 14.4144015,409.230554 C13.1816315,409.787901 11.9289349,410.192556 10.6562741,410.44453 C9.32762633,410.73052 8.07334277,410.848693 6.89338573,410.799054 C6.89097697,410.769857 6.89105017,410.681662 6.89360531,410.534469 C6.89616046,410.387275 6.8975112,410.225485 6.89765759,410.049094 C6.89780398,409.872702 6.90765844,409.724909 6.92722125,409.605709 L6.95295221,409.383113 C8.27466646,408.656747 9.32756254,407.879077 10.111672,407.05008 C10.8957815,406.221082 11.4979978,405.414451 11.9183387,404.630162 C12.3386797,403.845873 12.6172427,403.124734 12.754036,402.466725 C12.8908293,401.808716 12.98616,401.271721 13.0400309,400.855725 C13.0038996,400.417758 12.9319475,399.901913 12.8241724,399.308175 C12.7163972,398.714437 12.5630211,398.102423 12.3640393,397.472114 C12.1650576,396.841806 11.9143812,396.208423 11.6120026,395.571946 C11.3096241,394.935469 10.9621765,394.37621 10.5696493,393.894153 C10.1771221,393.412096 9.72733718,393.037657 9.22028104,392.770824 C8.7132249,392.503992 8.1385293,392.397073 7.496177,392.450066 C6.79542904,392.507876 6.22706465,392.834028 5.79106676,393.428531 C5.35506887,394.023034 5.01630457,394.727092 4.77476371,395.540725 C4.53322284,396.354359 4.38778149,397.17475 4.33843529,398.001924 C4.28908908,398.829099 4.28489046,399.490858 4.32583928,399.987221 C4.3932844,400.80476 4.50332024,401.604075 4.65595011,402.38519 C4.80857997,403.166306 4.97520406,403.938905 5.15582738,404.703013 C5.33645069,405.46712 5.50187043,406.225121 5.65209153,406.977039 C5.80231264,407.728956 5.90873541,408.484475 5.97136302,409.243619 L5.99665481,409.550195 C6.00869859,409.696184 6.01404501,409.850072 6.01269424,410.011865 C6.01134347,410.173657 6.01608772,410.320246 6.02692711,410.451637 L6.05041235,410.736314 C5.98208889,410.977123 5.86153985,411.11935 5.68876161,411.163001 C5.51598338,411.206651 5.34200338,411.235702 5.16681639,411.250155 C4.9916294,411.264607 4.78679185,411.09778 4.5522976,410.749669 C4.31780335,410.401557 4.07427992,409.94396 3.82172001,409.376865 C3.5691601,408.80977 3.30388502,408.177591 3.0258868,407.48031 C2.74788858,406.783028 2.50879999,406.111944 2.30861386,405.467037 C2.10842773,404.822129 1.93375573,404.219221 1.78459261,403.658294 C1.63542948,403.097367 1.55121417,402.700118 1.53194414,402.466535 C1.43077645,401.240226 1.42577937,399.932512 1.51695274,398.543353 C1.6081261,397.154193 1.87681799,395.867994 2.32303645,394.684717 C2.76925492,393.501439 3.44340664,392.497799 4.34551185,391.673765 C5.24761705,390.849732 6.45779512,390.375094 7.97608237,390.249839 Z M19.5246197,411.554629 C19.7856833,411.517625 19.965834,411.588255 20.0650772,411.766522 C20.1643205,411.944789 20.2303876,412.149947 20.2632806,412.382004 C20.2879504,412.556046 20.2619146,412.685492 20.1851725,412.770344 C20.1084303,412.855197 20.0141024,412.920349 19.9021857,412.965802 C19.7902691,413.011256 19.6876615,413.070184 19.5943601,413.142589 C19.5010586,413.214994 19.4646874,413.323712 19.4852456,413.468748 C19.5428084,413.874847 19.7722415,414.345346 20.1735517,414.880259 C20.574862,415.415173 21.0123682,415.996728 21.4860833,416.624943 C21.9597984,417.253158 22.4106671,417.928985 22.838703,418.652445 C23.2667388,419.375904 23.5342039,420.114715 23.6411062,420.868898 C23.7809015,421.855139 23.6555799,422.797572 23.2651376,423.696227 C22.8746953,424.594882 22.305136,425.430145 21.5564426,426.202041 C20.8077492,426.973937 19.9441813,427.665941 18.9657129,428.278073 C17.9872445,428.890204 16.9767569,429.432894 15.9342197,429.906158 C14.8916825,430.379421 13.865833,430.761547 12.8566402,431.052545 C11.8474474,431.343543 10.9657724,431.54249 10.2115886,431.649392 C9.95052499,431.686397 9.55585177,431.720148 9.02755711,431.750647 C8.49926245,431.781145 7.96686414,431.782637 7.43034622,431.755122 C6.89382831,431.727606 6.41333234,431.625575 5.9888439,431.449026 C5.56435547,431.272476 5.32744505,431.010163 5.27810552,430.662078 C5.26988227,430.604064 5.26274345,430.501513 5.25668885,430.354421 C5.25063425,430.20733 5.25908305,430.058186 5.28203552,429.906983 C5.30498799,429.75578 5.33827544,429.625307 5.38189888,429.515559 C5.42552233,429.405811 5.50534699,429.342714 5.62137526,429.326268 C7.89192413,429.270736 9.98765336,428.973676 11.9086258,428.435077 C13.8295982,427.896479 15.4886235,427.232272 16.8857515,426.442438 C18.2828794,425.652604 19.3569147,424.775423 20.1078895,423.810869 C20.8588644,422.846315 21.1665054,421.885436 21.0308217,420.928203 C20.9033612,420.028984 20.6390927,419.208349 20.2380081,418.466275 C19.8369235,417.7242 19.3197055,417.102162 18.6863387,416.600141 C18.0529718,416.098121 17.3210621,415.735833 16.4905876,415.513265 C15.660113,415.290698 14.7807759,415.245201 13.8525497,415.376773 C12.9243235,415.508345 12.0156976,415.725907 11.1266447,416.029466 C10.2375919,416.333024 9.351636,416.658333 8.46875056,417.005403 C7.58586512,417.352472 6.6926576,417.678809 5.78910118,417.984423 C4.88554477,418.290038 3.96966721,418.508628 3.04144104,418.6402 C2.92631548,417.828002 3.16326998,417.099063 3.75231163,416.453361 C4.34135328,415.80766 5.13434758,415.244017 6.13131831,414.762418 C7.12828905,414.280818 8.26605359,413.85324 9.54464608,413.47967 C10.8232386,413.106101 12.08828,412.793635 13.3398084,412.542261 C14.5913368,412.290888 15.7754693,412.086055 16.8922414,411.927758 L19.5246197,411.554629 Z M21.2526489,436.227057 L21.0216908,435.018458 C20.9117102,434.442932 20.8479649,433.836209 20.8304529,433.198272 C20.8129409,432.560334 20.8711727,431.967586 21.0051502,431.420008 C21.1391277,430.87243 21.4219346,430.557403 21.8535793,430.474918 C21.9686845,430.452922 22.13827,430.442885 22.3623409,430.444807 C22.5864118,430.446728 22.7204414,430.562793 22.7644336,430.793003 L24.0025075,435.164685 C25.0892272,435.076326 25.9761944,434.996311 26.6634358,434.924636 C27.3506772,434.852961 27.9864961,434.746373 28.5709114,434.604866 C29.1553268,434.46336 29.7671346,434.309163 30.4063531,434.14227 C31.0455715,433.975377 31.8803924,433.778563 32.9108406,433.551822 C33.1122748,433.513329 33.2787905,433.526248 33.4103929,433.590581 C33.5419952,433.654914 33.6489439,433.746327 33.7312421,433.864822 C33.8135404,433.983317 33.884199,434.118948 33.9432199,434.271719 C34.0022409,434.42449 34.0399994,434.544038 34.0564964,434.630367 C34.0894906,434.803025 34.0663073,434.993872 33.9869457,435.202914 C33.9075841,435.411956 33.7953237,435.604912 33.6501609,435.781788 C33.5049982,435.958664 33.3471447,436.108136 33.1765958,436.230208 C33.0060468,436.352281 32.834446,436.429813 32.6617881,436.462807 L24.6560609,438.350591 L25.192775,442.095711 C25.3438111,442.57391 25.3368979,443.045002 25.1720352,443.509 C25.0071724,443.972998 24.5965691,444.28262 23.940213,444.437874 C23.5001326,444.164045 23.1973848,443.789412 23.0319605,443.313962 C22.8665362,442.838512 22.7401541,442.333239 22.6528102,441.798128 C22.5654663,441.263017 22.4651106,440.737857 22.3517399,440.222633 C22.2383692,439.707409 22.0137007,439.273115 21.6777274,438.919738 C21.5050696,438.952732 21.033017,439.057852 20.2615556,439.235102 C19.4900942,439.412352 18.574765,439.617095 17.5155404,439.849335 C16.4563159,440.081575 15.3265423,440.334754 14.1261857,440.608877 C12.9258291,440.883001 11.8176374,441.132055 10.8015774,441.356047 C9.78551733,441.580039 8.91917114,441.767964 8.20251285,441.919827 C7.48585455,442.071691 7.08436696,442.155871 6.99803802,442.172368 C6.468692,441.587499 6.40293135,441.048271 6.8007541,440.554669 C7.19857686,440.061067 7.84172279,439.602614 8.7302112,439.179297 C9.61869961,438.75598 10.6791894,438.374364 11.9117124,438.03444 C13.1442354,437.694515 14.3706004,437.400508 15.5908441,437.152411 C16.8110879,436.904315 17.9419159,436.695675 18.9833622,436.526486 C20.0248085,436.357298 20.7812298,436.257489 21.2526489,436.227057 Z M13.2460231,468.76738 C14.1979629,467.827944 15.2724933,466.94515 16.4696465,466.118971 C17.6667998,465.292792 18.8979842,464.533105 20.1632368,463.839887 C21.4284894,463.146669 22.6764473,462.526863 23.9071478,461.98045 C25.1378483,461.434036 26.2666899,460.984978 27.2937063,460.633262 C27.491027,460.577387 27.7054949,460.501432 27.9371164,460.405395 C28.168738,460.309358 28.4133896,460.232469 28.6710787,460.174724 C28.9287678,460.116979 29.1803409,460.091414 29.4258056,460.098029 C29.6712702,460.104644 29.9025115,460.168569 30.1195363,460.289809 L30.1434826,460.374374 C30.1514647,460.402563 30.1625028,460.414662 30.1765971,460.41067 C30.1906915,460.406679 30.2017296,460.418778 30.2097117,460.446967 C30.2176938,460.475155 30.2146378,460.491245 30.2005434,460.495236 C30.1864491,460.499227 30.187384,460.529411 30.2033483,460.585788 L30.2272946,460.670354 C30.2150702,460.734713 30.1986038,460.891618 30.1778948,461.141074 C30.1571859,461.39053 30.1266254,461.551426 30.0862123,461.623768 C30.3990227,462.083271 30.7510548,462.546884 31.142319,463.014621 C31.5335832,463.482357 31.9127429,463.961125 32.2798096,464.450938 C32.6468762,464.940751 32.9806975,465.447581 33.2812835,465.971444 C33.5818695,466.495306 33.8079894,467.025022 33.95965,467.560607 C34.0713999,467.955248 34.1550854,468.304545 34.2107091,468.608508 C34.2663329,468.912472 34.3008146,469.222417 34.3141553,469.538353 C34.3274961,469.854289 34.332729,470.195353 34.3298543,470.561555 C34.3269795,470.927756 34.3189277,471.356315 34.3056985,471.847244 C34.2004236,472.120647 34.0962108,472.370908 33.9930569,472.598036 C33.8899031,472.825164 33.7616187,473.044181 33.6081998,473.255094 C33.4547808,473.466006 33.2491043,473.653654 32.991164,473.818041 C32.7332237,473.982428 32.3787496,474.128477 31.9277309,474.256191 C31.7436394,473.821136 31.6292119,473.282629 31.5844451,472.640653 C31.5396782,471.998677 31.5221653,471.318545 31.5319058,470.600237 C31.5416463,469.881928 31.517212,469.150471 31.458602,468.405844 C31.399992,467.661216 31.2648001,466.968734 31.0530224,466.328377 C30.8412446,465.68802 30.4864077,465.133856 29.988501,464.665868 C29.5389895,464.153727 28.8839338,463.775921 28.0233143,463.532438 C27.149968,463.566599 26.322657,463.709522 25.5413564,463.96121 C24.7600558,464.212899 24.0198632,464.529067 23.3207563,464.909726 C22.6216494,465.290384 21.9365215,465.720367 21.2653521,466.199686 C20.5941827,466.679004 19.9190323,467.144222 19.2398807,467.595352 C18.5607292,468.046483 17.8826483,468.474469 17.2056179,468.879325 C16.5285875,469.284182 15.817518,469.622552 15.0723883,469.894447 C14.7905016,469.974268 14.4435769,469.90504 14.0316037,469.686759 C13.6196306,469.468478 13.357773,469.162022 13.2460231,468.76738 Z M27.595532,476.115624 C29.0374077,475.623811 30.4901717,475.368178 31.9538677,475.348716 C33.4175636,475.329254 34.7880063,475.558271 36.0652369,476.035773 C37.3424676,476.513274 38.4801269,477.239569 39.4782491,478.21468 C40.4763714,479.189791 41.2402431,480.453722 41.7698872,482.006511 C41.9710855,482.959379 41.9934452,483.841678 41.8369672,484.653434 C41.6804892,485.465191 41.3913377,486.182897 40.9695038,486.806574 C40.54767,487.430252 39.995531,487.966814 39.3130703,488.416277 C38.64888,488.828553 37.9008704,489.176555 37.069019,489.460293 C36.0707974,489.800779 35.0703318,489.817013 34.0675923,489.508997 C33.0648527,489.200981 32.1418182,488.695542 31.298461,487.992663 C30.4551038,487.289785 29.7128906,486.475037 29.0717992,485.548395 C28.4307078,484.621753 27.9588422,483.714792 27.6561884,482.827484 L27.3086112,481.808471 C27.190387,481.461866 27.1394428,481.131011 27.1557771,480.815896 C27.1721113,480.50078 27.2628167,480.22221 27.4278962,479.980176 C27.5929756,479.738142 27.8973378,479.541465 28.3409919,479.390138 C28.4796338,479.342848 28.6045709,479.323449 28.7158072,479.331938 C28.8270434,479.340428 28.9365589,479.434628 29.044357,479.614539 C29.1521551,479.794451 29.2583939,480.08323 29.3630765,480.480886 C29.4400308,480.887999 29.5365449,481.443203 29.6526217,482.146516 C29.7850328,482.534714 30.1082608,483.05128 30.6223156,483.696232 C31.1363704,484.341184 31.7313982,484.973981 32.407417,485.594642 C33.0834358,486.215304 33.7863657,486.710696 34.5162277,487.080834 C35.2460897,487.450972 35.8744309,487.546189 36.4012701,487.366488 C36.9558377,487.17733 37.4727271,486.900422 37.951954,486.535758 C38.4311808,486.171094 38.8172747,485.7376 39.1102473,485.235262 C39.4032199,484.732924 39.5917242,484.196579 39.6757658,483.626211 C39.7598074,483.055843 39.6700639,482.475113 39.4065327,481.884005 C38.99232,480.941885 38.4286195,480.151372 37.7154144,479.51244 C37.0022093,478.873508 36.1975027,478.397354 35.3012704,478.083963 C34.4050381,477.770573 33.4751274,477.607972 32.5115104,477.596156 C31.5478934,477.58434 30.5947168,477.739214 29.6519519,478.060784 C28.931014,478.30669 28.2148159,478.566456 27.503336,478.840091 C26.791856,479.113726 26.1202597,479.458879 25.4885268,479.875562 C24.8567938,480.292245 24.2906295,480.810375 23.7900168,481.429969 C23.2894041,482.049563 22.9265264,482.82337 22.7013729,483.751415 C22.4762193,484.679459 22.4028221,485.780144 22.4811788,487.053502 C22.5595356,488.32686 22.8503129,489.837283 23.3535195,491.584816 L26.3920696,498.859607 C25.6307184,498.624027 24.9400948,498.232776 24.3201782,497.685842 C23.7002616,497.138908 23.1424195,496.524381 22.6466351,495.842243 C22.1508508,495.160105 21.7198263,494.463629 21.3535486,493.752794 C20.987271,493.04196 20.6906414,492.353812 20.4636511,491.688331 C19.915091,490.080085 19.6630572,488.479062 19.7075419,486.885214 C19.7520266,485.291366 20.0681491,483.790612 20.6559189,482.382907 C21.2436886,480.975201 22.117436,479.725339 23.2771874,478.633283 C24.4369387,477.541227 25.8763725,476.702016 27.595532,476.115624 Z M10.1390325,500.190768 C10.4757702,499.928908 10.8182267,499.798966 11.1664123,499.800938 C11.5145978,499.80291 11.8275658,499.87432 12.1053255,500.015172 C12.3830853,500.156023 12.6011007,500.344603 12.7593784,500.580918 C12.917656,500.817232 12.9711953,501.048327 12.9199977,501.274211 C12.8688001,501.500095 12.6883394,501.699052 12.3786103,501.871088 C12.0688811,502.043125 11.5848969,502.135289 10.926643,502.147585 C10.3287238,502.388245 9.84558739,502.874826 9.47721943,503.607343 C9.10885147,504.339859 8.8550086,505.199965 8.71568323,506.187685 C8.57635785,507.175405 8.50788322,508.22144 8.51025729,509.325823 C8.51263136,510.430205 8.55842194,511.485515 8.64763042,512.491785 C8.73683891,513.498055 8.85570416,514.38184 9.00422976,515.143168 C9.13087717,515.850139 9.25983349,516.366685 9.39110257,516.692823 C9.66457982,517.372277 10.0736873,517.878701 10.6184373,518.21211 C11.1631873,518.54552 11.7892928,518.767224 12.4967726,518.87723 C13.2042523,518.987236 13.9591129,518.999214 14.7613771,518.913164 C15.5636412,518.827114 16.3467501,518.693505 17.1107275,518.512332 C17.8747048,518.331158 18.6018789,518.117425 19.2922717,517.871126 C19.9826645,517.624827 20.5588666,517.408699 21.0208951,517.222734 C21.2383203,517.135221 21.6309878,516.953489 22.1989093,516.677531 C22.7668309,516.401573 23.4148674,516.069685 24.1430383,515.681856 C24.8712092,515.294027 25.6210775,514.881676 26.3926656,514.444791 C27.1642537,514.007906 27.8760053,513.579316 28.5279417,513.159009 C29.1798781,512.738702 29.6931813,512.366301 30.0678667,512.041796 C30.4425521,511.717291 30.5970752,511.473507 30.5314407,511.310438 C30.4220498,511.038657 30.2119842,510.752135 29.9012376,510.450865 C29.5904909,510.149594 29.2606907,509.840209 28.9118268,509.522699 C28.562963,509.20519 28.2249585,508.875421 27.8978032,508.533383 C27.570648,508.191346 27.3305004,507.830085 27.1773531,507.449591 C26.8710586,506.688603 26.7333046,505.875582 26.7640869,505.010502 C26.7948693,504.145423 26.9617942,503.343988 27.2648668,502.606171 C27.5679394,501.868354 28.0071505,501.194179 28.5825133,500.583625 C29.1578761,499.973071 29.8260415,499.514653 30.5870297,499.208359 C31.7828682,498.727039 33.1015822,498.472592 34.5432111,498.445012 C35.98484,498.417431 37.3888394,498.610262 38.7552513,499.02351 C40.1216632,499.436759 41.3579745,500.076051 42.4642223,500.941406 C43.5704701,501.806761 44.3806505,502.878108 44.8947877,504.155481 C45.0168135,505.243286 44.7184835,506.287095 43.9997887,507.286941 C43.2810939,508.286787 42.283499,509.240976 41.0069738,510.149535 C39.7304487,511.058095 38.2593845,511.934418 36.593737,512.77853 C34.9280896,513.622642 33.2093518,514.432854 31.4374722,515.20919 C29.6655925,515.985526 27.9249769,516.741383 26.2155731,517.476782 C24.5061692,518.212181 22.9776757,518.945821 21.6300465,519.677723 C21.004949,519.929322 20.2506819,520.193435 19.3672225,520.470071 C18.4837631,520.746707 17.5607905,520.983982 16.5982771,521.181903 C15.6357636,521.379824 14.6554464,521.513858 13.6572962,521.584008 C12.6591459,521.654157 11.7205811,521.597692 10.8415738,521.414611 C9.96256649,521.231529 9.17844008,520.891839 8.48917107,520.39553 C7.79990205,519.899221 7.2802499,519.216227 6.93019902,518.346526 C6.64578268,517.639894 6.38547447,516.757773 6.14926658,515.700136 C5.91305868,514.642499 5.75556804,513.505825 5.67678992,512.29008 C5.5980118,511.074335 5.60350282,509.832586 5.69326314,508.564795 C5.78302346,507.297005 5.99127692,506.107862 6.31802978,504.997332 C6.64478264,503.886801 7.11869737,502.906537 7.7397882,502.05651 C8.36087903,501.206483 9.16061913,500.584575 10.1390325,500.190768 Z M32.2153565,501.253134 C31.7261499,501.450037 31.2874159,501.713472 30.8991414,502.043447 C30.5108669,502.373422 30.1975067,502.752193 29.9590512,503.179772 C29.7205957,503.607351 29.5842299,504.072785 29.5499497,504.57609 C29.5156694,505.079394 29.6024494,505.589231 29.8102921,506.105616 C30.3681857,507.491702 31.0638465,508.43545 31.8972953,508.936889 C32.7307442,509.438328 33.6098231,509.660849 34.5345585,509.604458 C35.4592939,509.548066 36.3836762,509.333909 37.3077333,508.96198 C38.2480294,508.551934 39.0877198,508.166591 39.8268298,507.80594 C40.2073239,507.652793 40.5768734,507.47247 40.9354893,507.264967 C41.2941052,507.057463 41.6036601,506.806546 41.8641634,506.512208 C42.1246666,506.21787 42.292609,505.889734 42.3679956,505.52779 C42.4433822,505.165846 42.3935635,504.767455 42.2185381,504.332604 C41.8575481,503.435725 41.2725168,502.707989 40.4634265,502.149374 C39.6543362,501.590759 38.7694487,501.196883 37.8087373,500.967734 C36.848026,500.738585 35.8658751,500.652293 34.8622553,500.708853 C33.8586355,500.765414 32.9763447,500.946839 32.2153565,501.253134 Z M36.9047097,513.989949 C37.3685525,513.806206 37.9482618,513.697767 38.6438552,513.664629 C39.3394485,513.631491 40.083605,513.737323 40.876347,513.982127 C41.6690889,514.226932 42.4639182,514.63235 43.2608585,515.198394 C44.0577989,515.764438 44.7935272,516.528656 45.4680653,517.49107 C46.1426035,518.453485 46.7125496,519.642356 47.1779207,521.057717 C47.6432917,522.473079 47.9407745,524.152454 48.0703778,526.095894 L48.4687337,525.910336 L48.8086981,525.703498 C49.499185,525.381863 50.110162,524.854872 50.6416474,524.122508 C51.1731329,523.390145 51.5790049,522.578945 51.8592759,521.688883 C52.1395469,520.798822 52.2919383,519.911781 52.3164547,519.027734 C52.3409711,518.143687 52.1985992,517.369711 51.8893348,516.705781 C51.765629,516.440209 51.6175529,516.226393 51.445102,516.064326 C51.2726511,515.902258 51.0833777,515.756111 50.8772764,515.625878 C50.671175,515.495645 50.4814476,515.365869 50.3080887,515.236544 C50.1347298,515.107219 49.9923849,514.923052 49.8810497,514.684037 C49.8563085,514.630923 49.8572165,514.598181 49.8837737,514.585811 L49.9263333,514.469028 C49.9547065,514.391172 49.9870799,514.287215 50.0234545,514.157153 C50.059829,514.027091 50.0912944,513.955876 50.1178516,513.943506 C50.595881,513.720835 51.047715,513.615404 51.4733672,513.627208 C51.8990194,513.639012 52.2891993,513.748134 52.6439184,513.954577 C52.9986376,514.16102 53.3254326,514.428943 53.6243134,514.758355 C53.9231941,515.087767 54.1715954,515.464924 54.3695246,515.889839 C54.758119,517.001609 54.9059659,518.168944 54.8130696,519.391878 C54.7201734,520.614812 54.4507442,521.823002 54.004774,523.016485 C53.5588038,524.209967 52.9403065,525.362602 52.1492637,526.474426 C51.3582209,527.58625 50.4809658,528.617025 49.517472,529.566781 C48.5539783,530.516538 47.5189153,531.32995 46.4122519,532.007041 C45.2648447,532.735431 44.1290879,533.280636 43.0049475,533.642673 C42.9925769,533.616116 42.9621049,533.533353 42.9135306,533.394382 C42.8649563,533.255411 42.8101976,533.103163 42.7492527,532.937635 C42.6883078,532.772106 42.6463734,532.630044 42.6234483,532.511445 L42.570505,532.293711 C43.5589107,531.154593 44.2773645,530.060434 44.7258879,529.0112 C45.1744114,527.961966 45.4600407,526.996703 45.5827846,526.11538 C45.7055284,525.234057 45.7171347,524.461074 45.6176037,523.796407 C45.5180727,523.13174 45.4215504,522.594958 45.3280338,522.186046 C45.1424752,521.787688 44.8963439,521.328675 44.5896327,520.808994 C44.2829214,520.289313 43.9271018,519.768278 43.5221631,519.245872 C43.1172245,518.723467 42.6627249,518.216079 42.1586508,517.723692 C41.6545767,517.231305 41.1349617,516.826966 40.5997903,516.510662 C40.0646189,516.194358 39.5129992,515.998841 38.9449145,515.924105 C38.3768298,515.849369 37.800667,515.948076 37.2164089,516.220229 C36.5790364,516.517123 36.1587801,517.019913 35.9556275,517.728614 C35.7524749,518.437315 35.6784772,519.215121 35.7336324,520.062057 C35.7887875,520.908992 35.9364366,521.728989 36.176584,522.522072 C36.4167315,523.315156 36.6419517,523.937425 36.8522516,524.388897 C37.1986278,525.132498 37.5786488,525.844254 37.992326,526.524187 C38.4060031,527.204119 38.8298599,527.871217 39.263909,528.5255 C39.6979581,529.179783 40.1156297,529.833602 40.5169363,530.486978 C40.9182429,531.140353 41.2797083,531.812274 41.6013433,532.502761 L41.7312337,532.78161 C41.7930866,532.914396 41.851392,533.056911 41.9061516,533.209161 C41.9609112,533.361411 42.0161239,533.497288 42.0717915,533.616795 L42.1924041,533.875726 C42.2116971,534.125295 42.1478583,534.300468 42.0008858,534.401248 C41.8539132,534.502029 41.7007577,534.58953 41.5414146,534.663753 C41.3820714,534.737977 41.1321373,534.652404 40.7916048,534.407034 C40.4510722,534.161663 40.0641558,533.816708 39.6308439,533.372158 C39.1975321,532.927608 38.7297541,532.426405 38.227496,531.868533 C37.7252379,531.310661 37.2685537,530.763892 36.8574298,530.228208 C36.4463058,529.692524 36.0736612,529.187406 35.7394848,528.712838 C35.4053083,528.238269 35.1887411,527.894762 35.0897764,527.682304 C34.5702121,526.566902 34.1126784,525.341829 33.7171615,524.007047 C33.3216447,522.672265 33.1283169,521.3726 33.1371723,520.108014 C33.1460277,518.843428 33.4309199,517.668434 33.9918573,516.582997 C34.5527948,515.497559 35.5237359,514.633219 36.9047097,513.989949 Z M41.6945607,541.267953 C42.427595,540.149298 43.2923916,539.06023 44.2889765,538.000718 C45.2855614,536.941206 46.3294025,535.93954 47.4205311,534.995689 C48.5116597,534.051839 49.6013224,533.183396 50.6895519,532.390333 C51.7777813,531.597271 52.786909,530.920811 53.7169654,530.360934 C53.8981183,530.264803 54.091811,530.145435 54.2980494,530.002826 C54.5042877,529.860217 54.7272922,529.733586 54.9670695,529.622929 C55.2068468,529.512272 55.447414,529.434362 55.6887782,529.389195 C55.9301424,529.344029 56.1696567,529.357884 56.4073283,529.43076 L56.4485269,529.508397 C56.4622598,529.534276 56.4755959,529.543782 56.4885354,529.536915 C56.5014748,529.530049 56.5148109,529.539555 56.5285438,529.565434 C56.5422768,529.591313 56.5426735,529.607685 56.529734,529.614552 C56.5167945,529.621418 56.5240576,529.65073 56.5515235,529.702488 L56.5927221,529.780125 C56.594309,529.845616 56.6112156,530.002474 56.6434422,530.250705 C56.6756689,530.498935 56.6796361,530.66266 56.655344,530.741884 C57.057811,531.125308 57.4994865,531.5045 57.9803838,531.87947 C58.4612812,532.254441 58.9326652,532.642742 59.39455,533.044385 C59.8564349,533.446028 60.2893977,533.8713 60.6934516,534.320215 C61.0975054,534.76913 61.4299904,535.239431 61.6909164,535.731131 C61.8831777,536.093437 62.0384645,536.417316 62.1567814,536.702778 C62.2750984,536.988241 62.3740047,537.283998 62.4535032,537.59006 C62.5330017,537.896121 62.6098592,538.228454 62.6840782,538.587067 C62.7582971,538.94568 62.8405715,539.366344 62.9309038,539.849073 C62.8854935,540.138502 62.836254,540.405085 62.7831837,540.64883 C62.7301135,540.892575 62.6507688,541.133676 62.5451471,541.372141 C62.4395255,541.610606 62.2779216,541.837318 62.0603306,542.052285 C61.8427397,542.267251 61.5269171,542.484595 61.1128534,542.704322 C60.8413683,542.317724 60.6162276,541.815334 60.4374246,541.197138 C60.2586217,540.578942 60.0984369,539.91771 59.9568655,539.213423 C59.815294,538.509137 59.6375466,537.799185 59.4236178,537.083545 C59.209689,536.367906 58.9318604,535.719354 58.5901236,535.137871 C58.2483868,534.556387 57.784922,534.08926 57.1997153,533.736476 C56.6525336,533.330347 55.9326632,533.098782 55.0400825,533.041775 C54.1934615,533.258878 53.4147234,533.572625 52.7038449,533.983027 C51.9929664,534.393428 51.3358394,534.858221 50.7324441,535.377418 C50.1290488,535.896615 49.5496949,536.461091 48.9943649,537.070865 C48.439035,537.680638 47.8768469,538.277463 47.307784,538.861358 C46.7387211,539.445252 46.1658368,540.006296 45.589114,540.544505 C45.0123912,541.082715 44.3884058,541.563086 43.7171392,541.985634 C43.4583494,542.122963 43.1046245,542.128258 42.6559538,542.001518 C42.2072831,541.874778 41.8868219,541.630259 41.6945607,541.267953 Z M55.7244149,546.360443 C56.6536816,545.802324 57.7048136,545.33334 58.8778424,544.953479 C60.0508713,544.573618 61.2315002,544.377147 62.4197646,544.36406 C63.608029,544.350973 64.7222697,544.570294 65.76252,545.02203 C66.8027704,545.473765 67.6698217,546.277273 68.3636999,547.432577 C68.7257234,548.035345 68.9998391,548.690898 69.1860553,549.399256 C69.3722715,550.107613 69.4944532,550.880049 69.552604,551.716585 C69.6107548,552.553122 69.6274802,553.4487 69.6027807,554.403347 C69.5780813,555.357993 69.5358281,556.382974 69.4760201,557.478319 C70.54097,556.975408 71.5543351,556.315517 72.5161458,555.498627 C73.4779565,554.681736 74.3907485,553.825941 75.254549,552.931216 C76.1183495,552.036491 76.9218574,551.16944 77.6650969,550.330036 C78.4083363,549.490633 79.1064069,548.789431 79.7593294,548.226409 C80.412252,547.663388 81.0074685,547.288812 81.5449968,547.102672 C82.082525,546.916531 82.5649133,547.036901 82.992176,547.463786 C82.8971461,548.443586 82.538354,549.453634 81.9157891,550.49396 C81.2932241,551.534285 80.4847763,552.592263 79.4904215,553.667925 C78.4960667,554.743586 77.3823931,555.805467 76.1493672,556.8536 C74.9163413,557.901732 73.6418716,558.92349 72.3259198,559.918903 C71.009968,560.914316 69.7128532,561.855695 68.4345366,562.743067 C67.15622,563.630439 65.988432,564.459969 64.9311378,565.231682 C63.8738435,566.003395 62.9760411,566.670771 62.2377038,567.233831 C61.4993664,567.79689 61.0197505,568.264364 60.7988415,568.636268 C60.3969965,568.877617 60.0591136,568.884047 59.7851828,568.655558 C59.511252,568.427069 59.2837841,568.162136 59.1027724,567.860753 C58.9519293,567.6096 58.9178956,567.339557 59.0006703,567.050618 C59.083445,566.761678 59.2202383,566.49156 59.4110542,566.240256 C59.6018701,565.988952 59.8278478,565.725075 60.0889942,565.448617 C60.3501405,565.17216 60.582397,564.904512 60.7857706,564.645665 C60.9891442,564.386819 61.1410215,564.141816 61.2414072,563.910649 C61.3417928,563.679482 61.3316486,563.463441 61.2109741,563.262518 C61.1808055,563.212288 61.1330455,563.146993 61.0676928,563.066631 C61.00234,562.98627 60.9571067,562.953632 60.9319913,562.968716 C59.9923913,562.883717 59.0226182,562.705783 58.0226431,562.434908 C57.0226679,562.164033 56.0603424,561.785122 55.1356376,561.298165 C54.2109329,560.811208 53.3577968,560.23002 52.576204,559.554584 C51.7946111,558.879148 51.1473911,558.114482 50.6345246,557.260561 C50.0613208,556.306179 49.8737118,555.282556 50.0716918,554.189662 C50.2696719,553.096768 50.661102,552.041487 51.245994,551.023787 C51.830886,550.006088 52.5414195,549.08381 53.3776159,548.256927 C54.2138122,547.430043 54.9960707,546.797888 55.7244149,546.360443 Z M56.4491386,549.10343 C55.6958303,549.897618 55.0404665,550.598802 54.4830275,551.207 C53.9255884,551.815199 53.5201296,552.39192 53.2666388,552.937179 C53.013148,553.482439 52.9003387,554.020091 52.9282075,554.550153 C52.9560763,555.080214 53.1661035,555.671735 53.5582956,556.324734 C54.0409935,557.128424 54.7861655,557.842804 55.793834,558.467896 C56.8015025,559.092987 57.9032991,559.576091 59.0992569,559.91722 C60.2952146,560.25835 61.477258,560.419861 62.6454226,560.401759 C63.8135872,560.383657 64.7994997,560.13326 65.6031898,559.650562 L66.5073367,559.10753 C67.0138646,556.992034 67.214047,555.205799 67.1078898,553.74877 C67.0017326,552.291742 66.6909621,551.119956 66.1755689,550.233378 C65.6601757,549.3468 65.0054704,548.697696 64.2114333,548.286046 C63.4173962,547.874397 62.5656747,547.651192 61.6562432,547.616423 C60.7468117,547.581655 59.8299275,547.705157 58.9055629,547.986932 C57.9811983,548.268708 57.1623984,548.64087 56.4491386,549.10343 Z M69.0652034,565.015982 C70.3191428,564.150811 71.6477491,563.50997 73.051062,563.09344 C74.454375,562.67691 75.8354758,562.52485 77.1944059,562.637255 C78.553336,562.74966 79.845565,563.139426 81.0711317,563.806565 C82.2966983,564.473705 83.3753268,565.482457 84.3070495,566.832854 C84.7596434,567.695175 85.0209513,568.538187 85.0909809,569.361916 C85.1610105,570.185645 85.0777995,570.954922 84.8413455,571.669769 C84.6048915,572.384617 84.219361,573.051042 83.6847424,573.669065 C83.1576001,574.246336 82.532325,574.784532 81.8088984,575.283669 C80.9407865,575.882633 79.9823907,576.170161 78.9336824,576.146262 C77.884974,576.122363 76.8593151,575.886809 75.8566749,575.439593 C74.8540346,574.992377 73.9183277,574.410013 73.0495259,573.692485 C72.1807241,572.974957 71.4801273,572.230377 70.9477143,571.458722 L70.3362744,570.572529 C70.1283006,570.271101 69.9893547,569.966545 69.9194325,569.658851 C69.8495104,569.351157 69.8610923,569.05842 69.9541786,568.780632 C70.0472649,568.502843 70.2867183,568.23085 70.6725458,567.964643 C70.7931169,567.881454 70.908079,567.828829 71.0174356,567.806768 C71.1267923,567.784706 71.257787,567.845596 71.4104236,567.989439 C71.5630603,568.133281 71.7437841,568.382318 71.9526006,568.736555 C72.1373028,569.107429 72.3810766,569.615506 72.6839295,570.260799 C72.9168601,570.598398 73.3683135,571.007674 74.038303,571.488641 C74.7082926,571.969608 75.452904,572.416871 76.2721597,572.830443 C77.0914154,573.244016 77.9025237,573.52972 78.7055091,573.687566 C79.5084945,573.845411 80.1390628,573.766275 80.597233,573.450154 C81.0795174,573.117396 81.5016937,572.710433 81.8637746,572.229251 C82.2258555,571.74807 82.4796024,571.22596 82.625023,570.662906 C82.7704435,570.099853 82.8060856,569.532465 82.7319502,568.960725 C82.6578149,568.388985 82.4136197,567.854504 81.9993574,567.357267 C81.3446881,566.563183 80.5873609,565.955626 79.7273531,565.534577 C78.8673453,565.113528 77.9635196,564.873999 77.0158489,564.815981 C76.0681782,564.757963 75.129078,564.854212 74.1985203,565.104731 C73.2679625,565.355249 72.392755,565.763347 71.5728715,566.329036 C70.9459018,566.761621 70.3272603,567.206257 69.7169285,567.662957 C69.1065967,568.119656 68.5540845,568.634344 68.0593754,569.207034 C67.5646663,569.779724 67.1606291,570.432223 66.8472516,571.164551 C66.5338742,571.896879 66.3949593,572.740182 66.4305028,573.694487 C66.4660463,574.648791 66.6945539,575.727994 67.1160324,576.932127 C67.5375108,578.13626 68.2278434,579.510804 69.1870508,581.055799 L74.0883596,587.230954 C73.2916403,587.21116 72.5206783,587.022332 71.7754506,586.664465 C71.0302229,586.306597 70.3263629,585.86681 69.6638497,585.345091 C69.0013365,584.823373 68.3972487,584.270255 67.8515684,583.685723 C67.3058881,583.101191 66.8334002,582.519563 66.4340905,581.940821 C65.4690921,580.542197 64.7914215,579.069934 64.4010586,577.523988 C64.0106956,575.978043 63.9070469,574.447862 64.0901092,572.9334 C64.2731715,571.418937 64.7743457,569.978655 65.5936467,568.612508 C66.4129477,567.246362 67.5701217,566.047532 69.0652034,565.015982 Z M75.0194308,593.938975 C75.5547508,592.713348 76.2249275,591.494823 77.0299809,590.283362 C77.8350343,589.071902 78.6963649,587.909555 79.6139983,586.796288 C80.5316318,585.683021 81.4604497,584.644341 82.4004799,583.680217 C83.3405101,582.716093 84.2220854,581.880174 85.0452322,581.172434 C85.2077256,581.04732 85.3786897,580.897197 85.5581298,580.722061 C85.7375698,580.546924 85.9362152,580.384731 86.1540719,580.235478 C86.3719286,580.086224 86.5960487,579.969123 86.8264387,579.884169 C87.0568288,579.799216 87.2952803,579.77276 87.5418004,579.8048 L87.5954201,579.874439 C87.6132935,579.897653 87.6280333,579.904791 87.6396399,579.895854 C87.6512466,579.886917 87.6659864,579.894056 87.6838597,579.917269 C87.7017331,579.940482 87.7048664,579.956557 87.6932597,579.965494 C87.681653,579.97443 87.6937229,580.002112 87.7294695,580.048538 L87.7830893,580.118178 C87.7956226,580.182478 87.838562,580.334289 87.9119088,580.573616 C87.9852555,580.812943 88.0165884,580.97369 88.0059084,581.055864 C88.4669086,581.366464 88.9658547,581.666324 89.5027615,581.955454 C90.0396684,582.244584 90.569429,582.54845 91.0920593,582.86706 C91.6146895,583.18567 92.1127639,583.53242 92.5862974,583.90732 C93.059831,584.28222 93.4663884,584.69019 93.8059819,585.131244 C94.0562087,585.456231 94.2635474,585.749526 94.4280042,586.01114 C94.5924609,586.272753 94.7395055,586.547767 94.8691422,586.836191 C94.998779,587.124614 95.1302121,587.43938 95.2634455,587.780496 C95.3966789,588.121613 95.5482468,588.522555 95.7181536,588.983336 C95.7218603,589.276282 95.7179654,589.547347 95.7064687,589.796537 C95.6949721,590.045727 95.6571294,590.296712 95.5929394,590.549498 C95.5287494,590.802285 95.4073995,591.052861 95.2288862,591.301235 C95.0503728,591.549608 94.7754136,591.816778 94.4040001,592.102751 C94.0716,591.767085 93.7654961,591.3095 93.4856792,590.729983 C93.2058624,590.150466 92.9371929,589.525403 92.6796627,588.854777 C92.4221325,588.18415 92.1279884,587.513996 91.7972215,586.844296 C91.4664547,586.174596 91.0839269,585.581738 90.6496266,585.065705 C90.2153264,584.549671 89.6801709,584.166767 89.044144,583.91698 C88.4366704,583.608233 87.6881847,583.500509 86.7986644,583.593802 C86.0003642,583.949636 85.2851747,584.389379 84.6530746,584.913046 C84.0209744,585.436713 83.4509762,586.005 82.9430628,586.617923 C82.4351494,587.230847 81.9585215,587.884384 81.5131647,588.578555 C81.067808,589.272725 80.6135215,589.955278 80.1502914,590.626235 C79.6870613,591.297192 79.2162367,591.946261 78.7378033,592.573461 C78.2593699,593.200662 77.7246544,593.778757 77.133641,594.307763 C76.9015076,594.486497 76.553666,594.550961 76.0901059,594.501158 C75.6265457,594.451354 75.2696576,594.263962 75.0194308,593.938975 Z M93.9134099,616.479974 C95.2685637,614.874932 96.6914761,613.356686 98.1821901,611.925191 C99.672904,610.493696 101.193468,609.084636 102.743927,607.697969 C104.294386,606.311302 105.853433,604.956258 107.421115,603.632796 C108.988798,602.309335 110.527162,600.953137 112.036253,599.564163 C112.210952,599.407919 112.389647,599.366014 112.572343,599.438447 C112.755038,599.510881 112.924505,599.634445 113.080749,599.809145 C113.256524,600.005682 113.341795,600.243852 113.336566,600.523663 C113.331336,600.803473 113.27382,601.090738 113.164017,601.385465 C113.054214,601.680192 112.919999,601.947618 112.76137,602.187752 C112.602741,602.427886 112.457916,602.606541 112.326891,602.723724 C109.321319,605.647614 106.795363,608.063942 104.748947,609.972781 C102.702532,611.881621 101.021074,613.385449 99.7045216,614.484309 C98.3879698,615.58317 97.380041,616.356881 96.680705,616.805467 C95.9813691,617.254054 95.454165,617.499564 95.0990768,617.542007 C94.7439887,617.584451 94.4955158,617.482415 94.3536508,617.235898 C94.2117857,616.989382 94.0650402,616.737409 93.9134099,616.479974 Z M101.975256,614.84167 C102.354028,614.516951 102.866869,614.225719 103.513794,613.967966 C104.160719,613.710213 104.898798,613.568054 105.728052,613.541485 C106.557307,613.514915 107.440816,613.639533 108.378605,613.915342 C109.316395,614.191151 110.260812,614.674266 111.211887,615.364702 C112.162961,616.055138 113.088852,616.993742 113.989587,618.180542 C114.890322,619.367343 115.718249,620.858427 116.473395,622.653841 L116.789656,622.348721 L117.043779,622.042488 C117.591969,621.513612 117.998133,620.816444 118.262286,619.950963 C118.526438,619.085483 118.646156,618.186347 118.621444,617.253529 C118.596732,616.32071 118.452087,615.432373 118.187506,614.588491 C117.922925,613.744609 117.536373,613.059126 117.027839,612.532021 C116.824425,612.321179 116.614814,612.167207 116.399001,612.070099 C116.183188,611.972992 115.956651,611.896413 115.719382,611.84036 C115.482114,611.784307 115.260476,611.723355 115.054462,611.657502 C114.848449,611.59165 114.653908,611.463847 114.470836,611.274089 C114.430153,611.231921 114.420354,611.200666 114.441438,611.180325 L114.443666,611.056049 C114.445152,610.973197 114.441924,610.864364 114.433982,610.729545 C114.426039,610.594726 114.43261,610.517147 114.453694,610.496806 C114.83321,610.130661 115.226119,609.883897 115.632432,609.756506 C116.038746,609.629115 116.443196,609.605289 116.845796,609.685026 C117.248395,609.764763 117.644604,609.911722 118.034433,610.125906 C118.424262,610.340091 118.781902,610.615853 119.107364,610.9532 C119.836683,611.877933 120.356452,612.93357 120.666687,614.120142 C120.976921,615.306713 121.115438,616.536806 121.08224,617.810457 C121.049042,619.084108 120.839418,620.375296 120.45336,621.684059 C120.067302,622.992821 119.573344,624.253012 118.971473,625.464667 C118.369602,626.676323 117.655679,627.782355 116.829681,628.782797 C115.981856,629.845006 115.08542,630.730215 114.140345,631.438449 C114.120004,631.417365 114.064251,631.349028 113.973087,631.233436 C113.881922,631.117845 113.780588,630.991713 113.669082,630.855037 C113.557575,630.718361 113.471683,630.597686 113.411401,630.493008 L113.290468,630.304365 C113.854256,628.905552 114.177428,627.637119 114.259994,626.49903 C114.342559,625.360941 114.298434,624.355271 114.127618,623.481991 C113.956802,622.608711 113.716166,621.874046 113.405703,621.277975 C113.095239,620.681904 112.829248,620.205774 112.607721,619.849571 C112.302601,619.533308 111.920463,619.17941 111.461296,618.787867 C111.002129,618.396324 110.496087,618.019485 109.943156,617.657339 C109.390224,617.295194 108.795319,616.96338 108.158422,616.661887 C107.521525,616.360395 106.898593,616.147213 106.289609,616.022337 C105.680624,615.89746 105.095404,615.892146 104.53393,616.006395 C103.972456,616.120644 103.459801,616.401519 102.995948,616.84903 C102.489927,617.337223 102.256219,617.949427 102.294816,618.68566 C102.333414,619.421892 102.516626,620.181426 102.84446,620.964284 C103.172293,621.747142 103.578815,622.474421 104.064037,623.146145 C104.549259,623.817868 104.964765,624.332937 105.310569,624.691368 C105.880128,625.281726 106.471134,625.831021 107.083604,626.33927 C107.696074,626.847519 108.313991,627.340319 108.937375,627.817685 C109.560759,628.295051 110.168506,628.777309 110.760634,629.264474 C111.352763,629.751639 111.913257,630.269308 112.442133,630.817497 L112.655717,631.03888 C112.757424,631.144301 112.858943,631.260077 112.960279,631.38621 C113.061615,631.512344 113.158049,631.622849 113.249585,631.717728 L113.447913,631.923298 C113.547391,632.152995 113.544049,632.339408 113.437885,632.48254 C113.331721,632.625673 113.215388,632.758261 113.088883,632.880309 C112.962378,633.002358 112.698201,633.002801 112.296344,632.881638 C111.894488,632.760475 111.416358,632.56025 110.861941,632.280955 C110.307523,632.001661 109.702076,631.680018 109.045581,631.316015 C108.389085,630.952013 107.779295,630.583674 107.216193,630.210986 C106.653091,629.838299 106.136322,629.481987 105.66587,629.14204 C105.195418,628.802093 104.878831,628.547786 104.7161,628.379113 C103.861762,627.493576 103.030377,626.48415 102.221921,625.350803 C101.413465,624.217456 100.807618,623.0515 100.404362,621.852901 C100.001105,620.654302 99.8880152,619.450564 100.065088,618.241651 C100.242161,617.032738 100.878877,615.899422 101.975256,614.84167 Z M125.784792,648.207073 C126.936597,646.450388 128.16613,644.771698 129.473426,643.170953 C130.780722,641.570208 132.120355,639.988138 133.492364,638.424693 C134.864373,636.861248 136.24872,635.328161 137.645446,633.825385 C139.042171,632.322609 140.405846,630.790869 141.736511,629.230121 C141.891104,629.053958 142.063444,628.990819 142.253539,629.040703 C142.443633,629.090586 142.626759,629.192823 142.802922,629.347415 C143.001105,629.521332 143.114463,629.747487 143.142998,630.025888 C143.171534,630.304289 143.149064,630.596391 143.075587,630.902205 C143.00211,631.208019 142.90111,631.489673 142.772582,631.747177 C142.644054,632.00468 142.52182,632.19949 142.405875,632.331612 C139.774655,635.596466 137.558374,638.299648 135.756966,640.44124 C133.955557,642.582831 132.467626,644.278372 131.293127,645.527914 C130.118628,646.777457 129.21131,647.66702 128.571144,648.196631 C127.930978,648.726243 127.437211,649.033511 127.089828,649.118446 C126.742445,649.203381 126.483485,649.13204 126.31294,648.904421 C126.142395,648.676801 125.966347,648.444354 125.784792,648.207073 Z M145.384745,656.559287 C144.621654,656.429687 143.881623,656.422666 143.164628,656.538224 C142.447634,656.653783 141.74345,656.741988 141.052055,656.802843 C140.360661,656.863698 139.671084,656.841064 138.983303,656.734939 C138.295523,656.628815 137.587946,656.280033 136.860552,655.688583 C136.042233,655.023202 135.446724,654.246357 135.074007,653.358024 C134.701289,652.469691 134.504106,651.516421 134.482451,650.498185 C134.460796,649.479948 134.572023,648.437617 134.816134,647.37116 C135.060246,646.304703 135.391028,645.270979 135.808491,644.269956 C136.225954,643.268934 136.690997,642.325498 137.203633,641.439621 C137.716268,640.553744 138.231338,639.792582 138.748856,639.156112 C139.565079,637.780772 140.380062,636.848122 141.193829,636.358135 C142.007596,635.868149 142.669188,635.669793 143.178623,635.763062 C143.688059,635.856332 143.952276,636.146686 143.971282,636.634136 C143.990289,637.121585 143.62239,637.643702 142.867575,638.200503 C142.748181,638.254461 142.59857,638.368805 142.418735,638.543536 C142.2389,638.718267 142.054447,638.898678 141.865371,639.084775 C141.676294,639.270872 141.496462,639.445601 141.325869,639.608967 C141.155275,639.772332 141.042256,639.88811 140.986808,639.956303 C140.598669,640.433656 140.186688,641.033206 139.750852,641.754973 C139.315017,642.47674 138.907228,643.268494 138.527476,644.130261 C138.147723,644.992028 137.823741,645.889685 137.555519,646.823259 C137.287297,647.756833 137.135975,648.662725 137.101547,649.540961 C137.067119,650.419197 137.178372,651.245959 137.43531,652.021271 C137.692248,652.796582 138.138946,653.442988 138.775416,653.960506 C139.184575,654.293197 139.812277,654.473195 140.65854,654.500506 C141.504804,654.527816 142.38733,654.452466 143.306146,654.274452 C144.224962,654.096438 145.089433,653.845932 145.899586,653.522925 C146.70974,653.199917 147.281153,652.83384 147.613844,652.42468 C147.798672,652.19737 148.109316,651.826933 148.545786,651.31336 C148.982256,650.799787 149.44076,650.247505 149.921313,649.656497 C150.401866,649.065489 150.849005,648.503966 151.262744,647.97191 C151.676483,647.439854 151.966521,647.071542 152.132866,646.866962 C152.454081,646.750548 152.74507,646.694521 153.005843,646.69888 C153.266616,646.703239 153.510654,646.797831 153.737964,646.982659 C154.010737,647.204452 154.090184,647.571124 153.976308,648.082683 C153.862432,648.594243 153.63129,649.180359 153.282875,649.84105 C152.93446,650.50174 152.51499,651.180159 152.024451,651.876325 C151.533911,652.572492 151.050497,653.236676 150.574192,653.868898 C150.097888,654.50112 149.681658,655.059457 149.325492,655.543927 C148.969326,656.028396 148.749287,656.368668 148.66537,656.564751 C148.409369,657.111786 148.15831,657.757226 147.912185,658.501089 C147.66606,659.244952 147.428118,659.967136 147.198352,660.667661 C146.968586,661.368187 146.753057,662.004757 146.55176,662.577393 C146.350463,663.150028 146.157403,663.549995 145.972575,663.777306 C145.695333,664.118272 145.432385,664.244298 145.183722,664.155387 C144.93506,664.066477 144.662981,663.901886 144.367477,663.661609 C144.00378,663.365884 143.810624,663.057792 143.788003,662.737322 C143.765382,662.416853 143.829809,662.082209 143.981286,661.733381 C144.132762,661.384552 144.324387,661.021178 144.556167,660.643246 C144.787947,660.265315 145.000551,659.85292 145.193986,659.406051 C145.387421,658.959181 145.516909,658.498084 145.582455,658.022745 C145.648,657.547406 145.582097,657.059592 145.384745,656.559287 Z M156.840371,651.939552 C156.994545,651.725651 157.170284,651.644666 157.367595,651.696597 C157.564906,651.748528 157.758625,651.843013 157.94876,651.980057 C158.091362,652.082839 158.166674,652.191292 158.1747,652.305419 C158.182726,652.419546 158.164362,652.532706 158.119607,652.644904 C158.074852,652.757102 158.046263,652.871922 158.033841,652.989366 C158.021418,653.106811 158.074623,653.208358 158.193457,653.29401 C158.526193,653.533836 159.02444,653.694334 159.688212,653.775507 C160.351984,653.85668 161.074468,653.944063 161.855685,654.037659 C162.636901,654.131254 163.436626,654.274311 164.254883,654.466832 C165.073139,654.659352 165.791226,654.978304 166.409165,655.423695 C167.217238,656.006129 167.810053,656.749404 168.187626,657.653541 C168.565199,658.557679 168.772968,659.54707 168.81094,660.621743 C168.848912,661.696417 168.749687,662.798584 168.513262,663.928278 C168.276836,665.057972 167.96815,666.162649 167.587194,667.242341 C167.206239,668.322033 166.77112,669.326552 166.281824,670.255928 C165.792528,671.185304 165.325191,671.958949 164.8798,672.576888 C164.725626,672.79079 164.476544,673.09879 164.132546,673.500898 C163.788548,673.903006 163.420789,674.287978 163.029257,674.655825 C162.637725,675.023672 162.231268,675.299496 161.809872,675.483305 C161.388476,675.667114 161.035182,675.656236 160.74998,675.450671 C160.702446,675.41641 160.623546,675.350513 160.513277,675.252978 C160.403008,675.155442 160.301306,675.046025 160.208167,674.924722 C160.115028,674.80342 160.043998,674.689025 159.995075,674.581535 C159.946152,674.474045 159.955951,674.372767 160.024473,674.2777 C161.557418,672.601825 162.795073,670.884695 163.737475,669.126258 C164.679877,667.36782 165.350225,665.711267 165.74854,664.156549 C166.146854,662.60183 166.258347,661.219597 166.083021,660.009809 C165.907694,658.80002 165.427885,657.912487 164.643579,657.347183 C163.906806,656.81614 163.131926,656.438197 162.318916,656.213345 C161.505907,655.988492 160.699006,655.930547 159.898191,656.039509 C159.097376,656.148471 158.329059,656.4253 157.593219,656.870006 C156.857378,657.314711 156.21538,657.917325 155.667207,658.677864 C155.119033,659.438404 154.64645,660.244381 154.249442,661.09582 C153.852435,661.947259 153.473259,662.811532 153.111902,663.688667 C152.750544,664.565801 152.367085,665.436017 151.961513,666.299339 C151.55594,667.162661 151.079074,667.97458 150.530901,668.73512 C149.865428,668.255468 149.503913,667.579594 149.446342,666.707478 C149.388771,665.835362 149.531672,664.873015 149.875049,663.820407 C150.218425,662.7678 150.698299,661.651085 151.314683,660.470229 C151.931068,659.289372 152.582129,658.160618 153.267885,657.083933 C153.953642,656.007249 154.626271,655.011409 155.285792,654.096385 L156.840371,651.939552 Z M169.585808,667.699616 C170.401997,666.413256 171.374572,665.304216 172.503562,664.372462 C173.632553,663.440709 174.844438,662.761079 176.139253,662.333552 C177.434068,661.906025 178.775863,661.759872 180.164677,661.895088 C181.553492,662.030305 182.940533,662.537391 184.325844,663.416363 C185.079404,664.03328 185.649341,664.707167 186.035671,665.438045 C186.422002,666.168922 186.645997,666.909555 186.707665,667.659965 C186.769333,668.410374 186.674855,669.174462 186.424229,669.952251 C186.164561,670.689607 185.799293,671.429339 185.328416,672.171469 C184.763362,673.062026 183.99351,673.701184 183.018837,674.088963 C182.044164,674.476742 181.008004,674.660686 179.910327,674.640801 C178.812651,674.620916 177.723778,674.450475 176.643676,674.129471 C175.563574,673.808468 174.627734,673.396837 173.836128,672.894568 L172.927023,672.317745 C172.617802,672.121546 172.370898,671.895495 172.186305,671.639585 C172.001712,671.383675 171.897987,671.109685 171.875129,670.817608 C171.85227,670.525531 171.966406,670.181596 172.217541,669.785793 C172.296021,669.662105 172.38128,669.568743 172.473323,669.505705 C172.565365,669.442667 172.709738,669.44753 172.906445,669.520295 C173.103153,669.59306 173.366819,669.751681 173.697451,669.996161 C174.012386,670.26538 174.435308,670.63781 174.966229,671.113463 C175.312557,671.333206 175.888042,671.533541 176.692702,671.714475 C177.497363,671.895409 178.357542,672.016161 179.273268,672.076733 C180.188993,672.137306 181.047255,672.08336 181.84808,671.914893 C182.648904,671.746427 183.198419,671.427191 183.496642,670.957174 C183.81056,670.462421 184.040154,669.922848 184.18543,669.338439 C184.330705,668.754031 184.360267,668.174279 184.274116,667.599166 C184.187965,667.024054 183.999069,666.487847 183.707423,665.990529 C183.415776,665.493211 182.982149,665.09664 182.406528,664.800805 C181.493621,664.325661 180.559102,664.062327 179.602943,664.010797 C178.646784,663.959266 177.721219,664.091945 176.826219,664.408837 C175.931219,664.72573 175.104387,665.181276 174.345699,665.775489 C173.58701,666.369702 172.940845,667.087339 172.407184,667.92842 C171.99909,668.5716 171.60337,669.222618 171.220014,669.881494 C170.836657,670.54037 170.529182,671.230031 170.297579,671.950497 C170.065976,672.670962 169.949021,673.429463 169.946711,674.226021 C169.944402,675.022578 170.146048,675.853119 170.551655,676.717666 C170.957263,677.582214 171.589297,678.48633 172.447777,679.430043 C173.306257,680.373755 174.478804,681.369276 175.965453,682.416637 L182.890015,686.185696 C182.148902,686.47879 181.365449,686.606224 180.539632,686.568002 C179.713816,686.529779 178.894069,686.399986 178.080367,686.178619 C177.266665,685.957251 176.494475,685.684152 175.763774,685.359312 C175.033072,685.034473 174.370879,684.683708 173.777175,684.307005 C172.342389,683.396642 171.143314,682.306222 170.179914,681.035714 C169.216515,679.765205 168.523195,678.397176 168.099934,676.931584 C167.676674,675.465993 167.57522,673.944383 167.795571,672.366709 C168.015921,670.789035 168.612661,669.233353 169.585808,667.699616 Z M185.973522,686.952209 C186.090325,686.749011 186.348075,686.49167 186.746779,686.180178 C187.145484,685.868685 187.579581,685.569098 188.049085,685.281406 C188.518588,684.993715 188.961584,684.766827 189.378086,684.600734 C189.794588,684.434642 190.091733,684.402697 190.269531,684.5049 C190.777524,684.796908 191.145361,685.185757 191.373053,685.67146 C191.600744,686.157162 191.718433,686.672555 191.726124,687.217654 C191.733814,687.762753 191.662456,688.313092 191.512047,688.868688 C191.361638,689.424284 191.169633,689.905272 190.936027,690.311667 C190.760822,690.616463 190.474823,690.908253 190.078019,691.187046 C189.681215,691.465838 189.254569,691.693677 188.798067,691.870569 C188.341565,692.047461 187.882522,692.155301 187.420922,692.194093 C186.959323,692.232885 186.563431,692.15738 186.233235,691.967575 C185.85224,691.748569 185.5987,691.42542 185.472607,690.998119 C185.346515,690.570818 185.288674,690.098275 185.299083,689.580477 C185.309491,689.062679 185.384349,688.565039 185.523656,688.087542 C185.662964,687.610046 185.812918,687.231605 185.973522,686.952209 Z" id="de-tant-regarder-la" fill="#0A191E"></path>
            <g id="Moon-face" transform="translate(63.000000, 113.000000)">
                <g id="Cratre">
                    <use fill-opacity="0.1" fill="#C47043" fill-rule="evenodd" xlink:href="#path-5"></use>
                    <use fill="black" fill-opacity="1" filter="url(#filter-6)" xlink:href="#path-5"></use>
                </g>
                <g id="Cratre-Copy">
                    <use fill-opacity="0.1" fill="#C47043" fill-rule="evenodd" xlink:href="#path-7"></use>
                    <use fill="black" fill-opacity="1" filter="url(#filter-8)" xlink:href="#path-7"></use>
                </g>
                <g id="Cratre-Copy-8">
                    <use fill-opacity="0.1" fill="#C47043" fill-rule="evenodd" xlink:href="#path-9"></use>
                    <use fill="black" fill-opacity="1" filter="url(#filter-10)" xlink:href="#path-9"></use>
                </g>
                <g id="Cratre-Copy-2">
                    <use fill-opacity="0.1" fill="#C47043" fill-rule="evenodd" xlink:href="#path-11"></use>
                    <use fill="black" fill-opacity="1" filter="url(#filter-12)" xlink:href="#path-11"></use>
                </g>
                <g id="Cratre-Copy-3">
                    <use fill-opacity="0.1" fill="#C47043" fill-rule="evenodd" xlink:href="#path-13"></use>
                    <use fill="black" fill-opacity="1" filter="url(#filter-14)" xlink:href="#path-13"></use>
                </g>
                <g id="Cratre-Copy-6">
                    <use fill-opacity="0.1" fill="#C47043" fill-rule="evenodd" xlink:href="#path-15"></use>
                    <use fill="black" fill-opacity="1" filter="url(#filter-16)" xlink:href="#path-15"></use>
                </g>
                <g id="Cratre-Copy-7">
                    <use fill-opacity="0.1" fill="#C47043" fill-rule="evenodd" xlink:href="#path-17"></use>
                    <use fill="black" fill-opacity="1" filter="url(#filter-18)" xlink:href="#path-17"></use>
                </g>
                <g id="Cratre-Copy-9">
                    <use fill-opacity="0.1" fill="#C47043" fill-rule="evenodd" xlink:href="#path-19"></use>
                    <use fill="black" fill-opacity="1" filter="url(#filter-20)" xlink:href="#path-19"></use>
                </g>
                <g id="Cratre-Copy-4">
                    <use fill-opacity="0.1" fill="#C47043" fill-rule="evenodd" xlink:href="#path-21"></use>
                    <use fill="black" fill-opacity="1" filter="url(#filter-22)" xlink:href="#path-21"></use>
                </g>
                <g id="Cratre-Copy-5">
                    <use fill-opacity="0.1" fill="#C47043" fill-rule="evenodd" xlink:href="#path-23"></use>
                    <use fill="black" fill-opacity="1" filter="url(#filter-24)" xlink:href="#path-23"></use>
                </g>
            </g>
        </g>
    </g>
</svg>