<?xml version="1.0" encoding="UTF-8"?>
<svg width="495px" height="189px" viewBox="0 0 495 189" version="1.1" xmlns="http://www.w3.org/2000/svg" xmlns:xlink="http://www.w3.org/1999/xlink">
    <!-- Generator: Sketch 52.6 (67491) - http://www.bohemiancoding.com/sketch -->
    <title>Les nuages nous reposent</title>
    <desc>Created with Sketch.</desc>
    <defs>
        <path d="M1.92764549,135.03006 C8.66566166,97.9964876 21.3535703,88.3183609 60.64145,60.8203112 C99.9293296,33.3222616 122.462346,16.9699792 173.003119,15.2923216 C223.543891,13.6146641 229.781811,35.5413099 276.121668,53.6676302 C322.461524,71.7939505 343.125521,42.1424708 370.824757,60.8203112 C398.523993,79.4981517 426.043588,113.651221 418.662343,140.289384 C411.281098,166.927547 379.250072,179.059597 339.973625,186.902024 C300.697177,194.744452 269.696916,168.37281 229.794976,168.37281 C189.893036,168.37281 189.788601,189.920415 152.911555,186.902024 C116.034509,183.883633 123.948582,169.910909 99.3970047,168.37281 C74.8454278,166.83471 64.9077407,186.31541 39.0001082,179.765736 C13.0924758,173.216062 -4.81037069,172.063632 1.92764549,135.03006 Z" id="path-1"></path>
        <filter x="-0.2%" y="-0.6%" width="100.5%" height="101.2%" filterUnits="objectBoundingBox" id="filter-2">
            <feOffset dx="-1" dy="2" in="SourceAlpha" result="shadowOffsetInner1"></feOffset>
            <feComposite in="shadowOffsetInner1" in2="SourceAlpha" operator="arithmetic" k2="-1" k3="1" result="shadowInnerInner1"></feComposite>
            <feColorMatrix values="0 0 0 0 0   0 0 0 0 0   0 0 0 0 0  0 0 0 0.5 0" type="matrix" in="shadowInnerInner1"></feColorMatrix>
        </filter>
    </defs>
    <g id="Les-nuages-nous-reposent" stroke="none" stroke-width="1" fill="none" fill-rule="evenodd">
        <g id="Les-nuages-nous-reposent-Copy-2">
            <g id="Cloud">
                <use fill="#FFFFFF" fill-rule="evenodd" xlink:href="#path-1"></use>
                <use fill="black" fill-opacity="1" filter="url(#filter-2)" xlink:href="#path-1"></use>
            </g>
            <path d="M6.98933022,114.44092 C4.94361759,113.963783 2.94439877,113.38683 0.991613777,112.710046 C-0.961171215,112.033261 -2.90754717,111.319689 -4.84757248,110.569309 C-6.7875978,109.818929 -8.70336349,109.046521 -10.594927,108.252061 C-12.4864906,107.457601 -14.3938786,106.704139 -16.3171484,105.991652 C-16.5357428,105.907102 -16.6543185,105.767004 -16.672879,105.571352 C-16.6914395,105.3757 -16.6584453,105.168579 -16.5738954,104.949985 C-16.4787769,104.704066 -16.3054256,104.519823 -16.0538366,104.39725 C-15.8022475,104.274676 -15.5202449,104.195282 -15.2078204,104.159063 C-14.8953959,104.122845 -14.5961868,104.120781 -14.3101841,104.152874 C-14.0241814,104.184966 -13.7992106,104.232717 -13.6352648,104.29613 C-9.66447746,105.643513 -6.36382924,106.794519 -3.73322111,107.749185 C-1.10261298,108.70385 1.00132657,109.51763 2.57866067,110.190549 C4.15599477,110.863469 5.30340516,111.409362 6.02092628,111.828246 C6.73844739,112.24713 7.19683201,112.605045 7.39609389,112.902003 C7.59535577,113.19896 7.6174606,113.466656 7.46240905,113.7051 C7.3073575,113.943543 7.14966614,114.188814 6.98933022,114.44092 Z M-0.760896426,104.033898 C-2.033954,103.197113 -3.12719778,102.206815 -4.04066055,101.062975 C-4.95412333,99.9191348 -5.61416126,98.6964689 -6.02079414,97.3949408 C-6.42742702,96.0934126 -6.55196628,94.7494396 -6.39441566,93.3629813 C-6.23686504,91.9765231 -5.70752103,90.5978221 -4.80636776,89.226837 C-4.1774035,88.4833032 -3.49443121,87.9242858 -2.75743038,87.5497682 C-2.02042956,87.1752505 -1.27628789,86.9632036 -0.524983076,86.913621 C0.226321742,86.8640383 0.988790126,86.9708012 1.76244495,87.2339126 C2.49552587,87.505414 3.22928347,87.8825393 3.96373976,88.3653 C4.84508732,88.9446128 5.47177266,89.7246516 5.8438146,90.7054396 C6.21585654,91.6862277 6.38310093,92.7252134 6.34555279,93.8224279 C6.30800466,94.9196424 6.12006084,96.0056311 5.7817157,97.0804268 C5.44337056,98.1552225 5.01673203,99.0843164 4.5017873,99.8677364 L3.91040842,100.767441 C3.70925814,101.073464 3.47926258,101.316698 3.22041485,101.497148 C2.96156712,101.677599 2.68594381,101.776901 2.39353666,101.795056 C2.10112952,101.813211 1.75907606,101.693554 1.36736604,101.436081 C1.24495666,101.355621 1.15297908,101.26887 1.09143055,101.175825 C1.02988201,101.08278 1.03706831,100.938504 1.11298965,100.742993 C1.188911,100.547482 1.35175433,100.286403 1.60152452,99.9597491 C1.87577659,99.6491869 2.25496496,99.2323135 2.73910101,98.7091166 C2.96438933,98.3663703 3.17396074,97.7941838 3.36782151,96.9925399 C3.56168229,96.1908959 3.6962619,95.3327709 3.77156437,94.4181389 C3.84686685,93.503507 3.80674063,92.6444879 3.65118449,91.8410559 C3.49562835,91.037624 3.18527712,90.4830421 2.72012146,90.1772936 C2.23048394,89.8554532 1.69467584,89.6172054 1.1126811,89.4625432 C0.530686365,89.3078809 -0.0485145367,89.2689924 -0.624938978,89.3458765 C-1.20136342,89.4227605 -1.7405412,89.6030021 -2.24248848,89.8866068 C-2.74443577,90.1702114 -3.14793373,90.5974 -3.45299448,91.1681853 C-3.94276964,92.0733271 -4.22110936,93.0034869 -4.28802199,93.9586927 C-4.35493461,94.9138986 -4.23716899,95.8414796 -3.9347216,96.7414637 C-3.63227421,97.6414479 -3.19009418,98.4755041 -2.60816826,99.2436574 C-2.02624234,100.011811 -1.31909809,100.669442 -0.486714294,101.216571 C0.149814493,101.634963 0.794379623,102.041109 1.44700043,102.43502 C2.09962124,102.82893 2.78424391,103.147465 3.50088896,103.390633 C4.21753402,103.633802 4.97405395,103.762949 5.77047143,103.778078 C6.56688892,103.793207 7.40056689,103.604954 8.27153035,103.213313 C9.14249381,102.821672 10.0566651,102.20427 11.0140716,101.36109 C11.9714782,100.517909 12.9857417,99.361536 14.0568928,97.8919358 L17.9369077,91.0289299 C18.2180366,91.7746644 18.3328452,92.560067 18.2813369,93.3851613 C18.2298286,94.2102556 18.0868593,95.0278074 17.8524246,95.8378412 C17.6179899,96.647875 17.3324983,97.4155697 16.9959412,98.1409485 C16.6593841,98.8663272 16.2980067,99.5227893 15.9117982,100.110354 C14.9784609,101.530303 13.8688844,102.711673 12.5830356,103.654501 C11.2971868,104.597328 9.91817628,105.268541 8.44596266,105.668159 C6.97374904,106.067778 5.45070338,106.144729 3.87677998,105.899016 C2.30285659,105.653303 0.756979911,105.031604 -0.760896426,104.033898 Z M18.3531717,87.3809243 C18.4158713,87.0947421 18.5049778,86.8728331 18.6204938,86.7151908 C18.7360098,86.5575485 18.8825132,86.4021992 19.0600085,86.2491384 C19.2596906,86.0769449 19.5024175,85.9546739 19.7881964,85.8823215 C20.0739753,85.8099691 20.3622423,85.7741537 20.653006,85.774874 C20.9437698,85.7755944 21.2352927,85.765985 21.5275836,85.7460456 C21.8198745,85.7261062 22.104122,85.6744143 22.3803346,85.5909685 C23.1676528,85.3375768 23.8002151,85.1402603 24.2780404,84.9990133 C24.7558657,84.8577662 25.1772522,84.7071569 25.5422124,84.5471806 C25.9071726,84.3872044 26.287802,84.155686 26.6841121,83.8526186 C27.0804221,83.5495512 27.5780929,83.1397335 28.1771394,82.6231531 C28.6430645,82.2213684 29.2136052,81.7390409 29.8887787,81.1761562 C30.5639523,80.6132715 31.1484388,80.012534 31.642256,79.3739256 C32.1360732,78.7353173 32.4550412,78.0734082 32.5991697,77.3881785 C32.7432981,76.7029489 32.5283765,76.0275405 31.9543983,75.3619333 C31.4217396,74.6993804 30.8145334,74.3429113 30.1327615,74.2925153 C29.4509895,74.2421193 28.7134011,74.3849346 27.9199743,74.7209654 C27.1265474,75.0569962 26.3080933,75.5209982 25.4645875,76.1129852 C24.6210816,76.7049722 23.7506187,77.310536 22.8531727,77.9296948 C21.9557267,78.5488536 21.0414525,79.1148274 20.1103228,79.6276331 C19.179193,80.1404388 18.2499645,80.4871976 17.3226094,80.6679201 C16.3952543,80.8486425 15.4751454,80.7910151 14.562255,80.4950359 C13.6493646,80.1990568 12.7609219,79.572531 11.8969004,78.6154397 C11.4177784,77.790663 11.2554275,76.8958381 11.4098426,75.9309382 C11.5642577,74.9660382 11.925265,74.016424 12.4928752,73.0820671 C13.0604854,72.1477101 13.7832347,71.2923456 14.6611447,70.515948 C15.5390547,69.7395503 16.4500729,69.1473704 17.3942267,68.7393907 C18.3383804,68.3314109 19.2800709,68.1673311 20.2193262,68.2471463 C21.1585816,68.3269616 21.9645449,68.7344742 22.6372404,69.4696964 C23.0642664,69.8751694 23.3466698,70.2699463 23.4844591,70.6540392 C23.6222484,71.038132 23.6590292,71.3835942 23.5948024,71.6904363 C23.5305756,71.9972783 23.39384,72.2312459 23.1845916,72.3923459 C22.9753431,72.5534459 22.753074,72.6097191 22.5177775,72.5611672 C22.282481,72.5126153 22.0508042,72.3448906 21.8227401,72.0579879 C21.594676,71.7710853 21.4209147,71.3116359 21.3014512,70.679626 C20.8491841,70.3346052 20.3070537,70.2218282 19.6750438,70.3412918 C19.0430339,70.4607553 18.4066538,70.7097204 17.7658843,71.0881944 C17.1251149,71.4666685 16.5124917,71.9562714 15.9279964,72.557018 C15.343501,73.1577645 14.8670948,73.7716843 14.4987633,74.3987958 C14.1304318,75.0259073 13.9097762,75.6223804 13.83679,76.188233 C13.7638037,76.7540856 13.9121224,77.2064612 14.2817505,77.5453734 C14.8557287,78.2109806 15.4946876,78.5594107 16.1986465,78.5906741 C16.9026054,78.6219374 17.651287,78.469556 18.4447139,78.1335252 C19.2381407,77.7974944 20.0780178,77.3246899 20.9643704,76.7150974 C21.8507229,76.1055049 22.7544657,75.4712426 23.6756257,74.8122914 C24.5967858,74.1533403 25.5188973,73.5515943 26.4419879,73.0070354 C27.3650785,72.4624765 28.2918146,72.0791818 29.222224,71.8571398 C30.1526334,71.6350979 31.0503541,71.6443327 31.9154129,71.8848445 C32.7804718,72.1253563 33.6052073,72.7004352 34.3896441,73.6100984 C34.9827549,74.2978926 35.3170519,75.044442 35.392545,75.8497691 C35.4680381,76.6550962 35.3774909,77.458524 35.1209008,78.2600764 C34.8643106,79.0616289 34.4812753,79.8174707 33.9717832,80.5276246 C33.4622911,81.2377786 32.9191234,81.8415703 32.3422638,82.3390181 C31.7654042,82.8364658 31.1449437,83.361841 30.4808636,83.9151595 C29.8167836,84.4684779 29.1177048,85.0036209 28.3836063,85.5206047 C27.6495078,86.0375885 26.8763921,86.520521 26.064236,86.9694169 C25.25208,87.4183128 24.4228928,87.7465012 23.5766495,87.953992 C22.7304063,88.1614828 21.8734427,88.233157 21.0057329,88.1690166 C20.1380231,88.1048763 19.2538449,87.8421815 18.3531717,87.3809243 Z M43.5022015,51.9227554 C43.3510036,51.7067398 43.3324108,51.5141334 43.4464226,51.3449306 C43.5604345,51.1757278 43.713445,51.0239296 43.9054589,50.8895314 C44.0494693,50.7887328 44.1766744,50.7533369 44.2870781,50.7833427 C44.3974817,50.8133484 44.4982824,50.8679541 44.5894832,50.9471613 C44.680684,51.0263684 44.7796843,51.0911743 44.886487,51.1415808 C44.9932896,51.1919874 45.1066936,51.1751914 45.2267022,51.0911926 C45.5627265,50.8559958 45.8783525,50.4383965 46.1735897,49.838382 C46.4688269,49.2383675 46.7892626,48.5849616 47.1349063,47.8781444 C47.48055,47.1713273 47.8789902,46.4633229 48.3302386,45.7541099 C48.7814871,45.044897 49.3191258,44.4719021 49.9431709,44.0351081 C50.7592298,43.4639159 51.6562685,43.148943 52.6343139,43.0901799 C53.6123593,43.0314168 54.6149831,43.161061 55.6422154,43.4791165 C56.6694477,43.7971719 57.6774585,44.2538259 58.6662779,44.849092 C59.6550974,45.444358 60.5964982,46.099615 61.4905086,46.8148826 C62.384519,47.5301501 63.1897124,48.2718041 63.9061129,49.0398668 C64.6225134,49.8079295 65.199102,50.5039729 65.635896,51.128018 C65.7870939,51.3440336 65.9958864,51.6806518 66.2622796,52.1378826 C66.5286729,52.5951135 66.7710608,53.069137 66.9894506,53.5599674 C67.2078403,54.0507978 67.3344248,54.5254166 67.3692079,54.9838382 C67.4039909,55.4422598 67.2773739,55.7722642 66.9893531,55.9738614 C66.9413496,56.007461 66.8531449,56.060259 66.7247364,56.1322569 C66.5963278,56.2042549 66.4595215,56.2642511 66.3143131,56.3122474 C66.1691048,56.3602436 66.0376998,56.3896392 65.9200942,56.4004349 C65.8024886,56.4112306 65.7100877,56.3686257 65.6428886,56.2726187 C64.5653219,54.2732873 63.3515568,52.5391881 62.0015567,51.070269 C60.6515567,49.6013499 59.3081653,48.4228616 57.9713424,47.5347685 C56.6345195,46.6466755 55.3661054,46.0862081 54.166062,45.8533494 C52.9660187,45.6204907 51.9699833,45.7812552 51.1779261,46.3356476 C50.4338724,46.8564404 49.8218301,47.4636333 49.341781,48.1572444 C48.8617319,48.8508555 48.5412927,49.5936641 48.3804536,50.3856924 C48.2196146,51.1777208 48.2279818,51.9943447 48.4055557,52.8355889 C48.5831295,53.6768331 48.9407074,54.4814708 49.4783,55.2495263 C50.0158927,56.0175817 50.6212815,56.7292268 51.2944846,57.3844828 C51.9676877,58.0397388 52.6588818,58.6823853 53.3680876,59.3124416 C54.0772933,59.9424979 54.7726873,60.5911448 55.4542903,61.2584017 C56.1358933,61.9256585 56.745482,62.6433039 57.2830746,63.4113594 C56.6110261,63.8817529 55.8537994,64.0005258 55.0113717,63.7676816 C54.1689441,63.5348373 53.3073374,63.0829894 52.4265257,62.4121244 C51.5457141,61.7412593 50.6493213,60.9203994 49.7373204,59.9495199 C48.8253195,58.9786404 47.9739346,57.9921774 47.1831403,56.9901014 C46.392346,55.9880254 45.6735641,55.0249685 45.0267729,54.1009018 L43.5022015,51.9227554 Z M79.6164545,40.0537676 C79.2731213,40.7474725 79.0538256,41.4543003 78.9585609,42.1742722 C78.8632961,42.894244 78.7455107,43.5940881 78.6052013,44.2738254 C78.4648918,44.9535627 78.2451334,45.6075774 77.9459194,46.235889 C77.6467054,46.8642006 77.1093741,47.441772 76.3339092,47.9686205 C75.4615113,48.561325 74.5463474,48.9085924 73.5883902,49.0104331 C72.6304329,49.1122737 71.6606963,49.0273246 70.6791512,48.7555831 C69.6976061,48.4838416 68.7311512,48.0778977 67.7797577,47.5377392 C66.8283641,46.9975807 65.9332198,46.383806 65.0942979,45.6963969 C64.2553759,45.0089877 63.4852808,44.2925459 62.7839892,43.54705 C62.0826977,42.801554 61.5015644,42.0895509 61.040572,41.4110191 C59.957649,40.2341343 59.2984042,39.1855981 59.0628178,38.265379 C58.8272313,37.3451599 58.827274,36.6544732 59.0629456,36.1932981 C59.2986173,35.732123 59.6526309,35.5624439 60.1249971,35.6842557 C60.5973634,35.8060675 60.9917997,36.3084377 61.3083179,37.1913814 C61.3257074,37.3212425 61.3922566,37.4973939 61.5079675,37.7198408 C61.6236783,37.9422876 61.7435034,38.1707894 61.8674462,38.4053529 C61.9913891,38.6399164 62.1070982,38.8623599 62.214577,39.0726901 C62.3220559,39.2830204 62.4004902,39.4245333 62.4498822,39.4972331 C62.7956265,40.0061319 63.2515706,40.572969 63.8177281,41.1977613 C64.3838857,41.8225536 65.0251385,42.4405842 65.7415058,43.0518716 C66.4578731,43.6631591 67.2246378,44.2313356 68.0418228,44.7564184 C68.8590078,45.2815011 69.6832557,45.6866596 70.514591,45.9719059 C71.3459263,46.2571523 72.1698028,46.3880709 72.986245,46.3646657 C73.8026872,46.3412605 74.550163,46.0990653 75.2286947,45.6380729 C75.6648937,45.3417207 76.0176104,44.7921754 76.2868555,43.9894207 C76.5561006,43.1866661 76.7374273,42.3196879 76.8308411,41.3884604 C76.9242549,40.4572328 76.9326208,39.5572358 76.8559389,38.6884424 C76.779257,37.819649 76.5927427,37.1671626 76.2963905,36.7309636 C76.1317503,36.4886309 75.8661564,36.0846719 75.4996007,35.5190745 C75.1330449,34.9534771 74.7357409,34.3556548 74.3076765,33.7255896 C73.8796121,33.0955245 73.4701915,32.505934 73.0794026,31.9568007 C72.6886136,31.4076673 72.4191351,31.0240567 72.2709589,30.8059572 C72.2517184,30.4648403 72.2816382,30.1700208 72.360719,29.9214897 C72.4397999,29.6729585 72.6005043,29.466376 72.842837,29.3017358 C73.1336364,29.1041677 73.5076756,29.1333933 73.9649661,29.3894136 C74.4222565,29.6454339 74.9172777,30.0351941 75.4500445,30.5587059 C75.9828112,31.0822178 76.5121481,31.6788832 77.0380711,32.3487202 C77.5639941,33.0185572 78.061329,33.6723831 78.5300907,34.3102176 C78.9988523,34.948052 79.4140997,35.5071199 79.7758453,35.9874381 C80.1375909,36.4677562 80.4003171,36.7762631 80.5640317,36.912968 C81.0144784,37.3153135 81.5606018,37.7411917 82.2024183,38.1906155 C82.8442348,38.6400392 83.4676356,39.0753975 84.0726395,39.4967034 C84.6776433,39.9180092 85.2254776,40.3073067 85.7161588,40.6646075 C86.2068401,41.0219083 86.5344958,41.3217206 86.699136,41.5640533 C86.9460962,41.9275525 86.9912802,42.2156197 86.8346894,42.4282636 C86.6780986,42.6409076 86.4422905,42.8542425 86.1272579,43.0682747 C85.7395255,43.3316989 85.3889337,43.4282165 85.075472,43.3578304 C84.7620103,43.2874443 84.4599756,43.1296077 84.169359,42.8843158 C83.8787423,42.6390239 83.585725,42.3510967 83.2902982,42.0205256 C82.9948715,41.6899545 82.6609261,41.3678516 82.2884521,41.0542072 C81.9159781,40.7405629 81.5115077,40.4840837 81.0750286,40.2847619 C80.6385496,40.0854402 80.152363,40.0084428 79.6164545,40.0537676 Z M84.9293328,35.3228885 C84.7037652,34.877882 84.5425416,34.3105824 84.445657,33.6209726 C84.3487724,32.9313629 84.3858098,32.1806316 84.5567703,31.3687563 C84.7277309,30.556881 85.0584345,29.7281757 85.5488911,28.8826155 C86.0393477,28.0370554 86.7327628,27.2342474 87.6291571,26.4741675 C88.5255513,25.7140876 89.6570502,25.0373589 91.0236875,24.4439613 C92.3903248,23.8505636 94.0352798,23.4000963 95.9586017,23.092546 L95.7372413,22.7129164 L95.500054,22.3933858 C95.1163608,21.7353578 94.5354818,21.1753647 93.7573997,20.7133894 C92.9793175,20.2514142 92.1342687,19.9217621 91.2222279,19.7244232 C90.3101871,19.5270843 89.4128992,19.4568071 88.5303371,19.5135894 C87.6477751,19.5703717 86.8901459,19.7832275 86.2574267,20.1521633 C86.004339,20.2997376 85.8050265,20.4668258 85.659483,20.6534328 C85.5139395,20.8400399 85.3857933,21.0419361 85.2750403,21.2591276 C85.1642874,21.476319 85.0524846,21.6771638 84.9396287,21.8616677 C84.8267727,22.0461717 84.6564578,22.2048298 84.4286789,22.3376467 C84.3780614,22.3671615 84.3453744,22.3692645 84.3306169,22.3439558 L84.2104189,22.3123019 C84.1302865,22.2911993 84.0237954,22.2685106 83.8909425,22.2442353 C83.7580895,22.21996 83.6842854,22.1951684 83.669528,22.1698596 C83.4038942,21.7143018 83.2574097,21.2740609 83.2300701,20.8491236 C83.2027305,20.4241863 83.2755552,20.0256334 83.4485466,19.6534528 C83.621538,19.2812722 83.8583145,18.931251 84.1588831,18.6033788 C84.4594518,18.2755066 84.812201,17.9935153 85.2171413,17.7573964 C86.2885217,17.2683342 87.4373433,17.0138987 88.6636407,16.9940822 C89.889938,16.9742656 91.1177671,17.1315901 92.3471649,17.4660602 C93.5765627,17.8005303 94.7811323,18.3105498 95.9609099,18.996134 C97.1406875,19.6817181 98.2476768,20.4605941 99.2819109,21.3327853 C100.316145,22.2049765 101.221184,23.160957 101.997055,24.2007556 C102.827749,25.2764143 103.474963,26.3572964 103.938717,27.4434342 C103.913408,27.4581916 103.833794,27.4961362 103.699871,27.5572689 C103.565949,27.6184017 103.419374,27.6869122 103.260142,27.7628024 C103.100911,27.8386926 102.963301,27.8934973 102.847309,27.9272183 L102.635358,27.9999355 C101.410275,27.1203295 100.254754,26.5054052 99.1687601,26.1551442 C98.0827666,25.8048832 97.0953491,25.6091155 96.2064779,25.5678353 C95.3176068,25.5265552 94.5468247,25.5859925 93.8941085,25.746149 C93.2413923,25.9063055 92.7157446,26.0517204 92.3171495,26.1823981 C91.937518,26.4037596 91.5030514,26.6910085 91.0137365,27.0441533 C90.5244216,27.3972982 90.0382687,27.7994683 89.5552629,28.2506756 C89.0722572,28.7018829 88.6087568,29.2010625 88.1647477,29.7482292 C87.7207386,30.2953959 87.3658322,30.8499511 87.100018,31.4119113 C86.8342037,31.9738716 86.6901765,32.541117 86.6679321,33.1136647 C86.6456877,33.6862124 86.7968949,34.2508742 87.1215584,34.8076671 C87.4757368,35.4150775 88.0149999,35.7873789 88.7393641,35.9245823 C89.4637283,36.0617858 90.2450436,36.0640332 91.0833333,35.9313246 C91.921623,35.798616 92.7245935,35.5762785 93.4922687,35.2643055 C94.2599439,34.9523325 94.858897,34.6709121 95.2891461,34.4200358 C95.9977915,34.0068277 96.6716364,33.5630418 97.3107008,33.0886649 C97.9497652,32.6142879 98.5751143,32.1309532 99.1867669,31.6386462 C99.7984195,31.1463392 100.411114,30.6703831 101.02487,30.2107636 C101.638626,29.7511441 102.274508,29.329494 102.932536,28.9458008 L103.198277,28.7908486 C103.324821,28.7170614 103.461379,28.6459132 103.607956,28.5774017 C103.754533,28.5088902 103.884764,28.4414312 103.998653,28.3750228 L104.245413,28.2311386 C104.492155,28.1890054 104.67245,28.2364857 104.786304,28.3735809 C104.900157,28.510676 105.001354,28.6551478 105.089899,28.8070004 C105.178444,28.958853 105.116188,29.2155901 104.903131,29.5772193 C104.690073,29.9388486 104.382112,30.3558119 103.979239,30.8281219 C103.576365,31.3004319 103.120244,31.8122657 102.61086,32.3636385 C102.101476,32.9150113 101.598961,33.4199832 101.103301,33.8785692 C100.607641,34.3371552 100.138883,34.7546173 99.6970128,35.1309679 C99.2551429,35.5073185 98.9329777,35.7545198 98.7305075,35.8725792 C97.6675393,36.4923914 96.4896658,37.0605078 95.1968518,37.5769457 C93.9040377,38.0933836 92.6276226,38.4052617 91.3675682,38.5125894 C90.1075138,38.619917 88.9113202,38.444146 87.7789514,37.9852712 C86.6465826,37.5263964 85.6967192,36.6389444 84.9293328,35.3228885 Z M107.120841,44.3145011 C106.849504,43.9853524 106.709868,43.6467328 106.701929,43.2986322 C106.693991,42.9505316 106.756465,42.635658 106.889354,42.3540021 C107.022244,42.0723462 107.204543,41.849052 107.436257,41.684113 C107.667971,41.5191739 107.897449,41.4590793 108.124698,41.5038274 C108.351948,41.5485756 108.55596,41.7233008 108.736742,42.0280083 C108.917523,42.3327158 109.023425,42.8138809 109.05445,43.4715182 C109.312029,44.062346 109.812163,44.5314385 110.554867,44.8788097 C111.297571,45.2261808 112.164552,45.4554421 113.155837,45.5666003 C114.147122,45.6777585 115.194683,45.716435 116.29855,45.6826309 C117.402418,45.6488268 118.455997,45.5730204 119.459321,45.4552094 C120.462644,45.3373984 121.342688,45.1934286 122.09948,45.0232956 C122.802561,44.8765789 123.315228,44.7329738 123.637498,44.592476 C124.308893,44.2997721 124.803468,43.8764174 125.121239,43.3223991 C125.43901,42.7683809 125.642805,42.1362192 125.732632,41.4258953 C125.822458,40.7155713 125.812948,39.9606756 125.7041,39.1611854 C125.595252,38.3616953 125.43941,37.5827061 125.236567,36.8241945 C125.033724,36.0656829 124.799382,35.3448862 124.533534,34.6617827 C124.267686,33.9786793 124.035246,33.4088618 123.836207,32.952313 C123.742542,32.7374665 123.549708,32.3501302 123.257699,31.7902925 C122.96569,31.2304548 122.615493,30.5921264 122.207097,29.8752882 C121.798701,29.1584499 121.365176,28.420621 120.906508,27.6617793 C120.44784,26.9029376 119.999167,26.2036721 119.560476,25.5639618 C119.121785,24.9242515 118.734927,24.4217548 118.399889,24.0564567 C118.064852,23.6911586 117.816769,23.5436362 117.655634,23.6138851 C117.387076,23.7309667 117.106649,23.9491017 116.814345,24.2682966 C116.52204,24.5874916 116.222166,24.9259634 115.914714,25.2837224 C115.607262,25.6414813 115.287247,25.9887341 114.954658,26.3254913 C114.62207,26.6622485 114.267791,26.9125804 113.891809,27.0764946 C113.139847,27.4043229 112.331075,27.5651599 111.46547,27.5590104 C110.599865,27.5528608 109.794004,27.4088125 109.04786,27.1268612 C108.301717,26.8449098 107.615315,26.4250638 106.988633,25.8673106 C106.361951,25.3095573 105.884703,24.6547092 105.556875,23.9027465 C105.041716,22.7210908 104.749842,21.4101526 104.681244,19.9698926 C104.612645,18.5296326 104.76544,17.120714 105.139632,15.7430944 C105.513824,14.3654749 106.117672,13.11147 106.951192,11.9810421 C107.784713,10.8506142 108.832569,10.0102712 110.094792,9.45998794 C111.178683,9.30705247 112.23056,9.5755546 113.250455,10.2655024 C114.27035,10.9554502 115.252544,11.9254847 116.197066,13.1756349 C117.141587,14.4257851 118.059422,15.8713131 118.950597,17.5122622 C119.841771,19.1532114 120.700571,20.8481941 121.527021,22.5972613 C122.353471,24.3463285 123.158559,26.0647272 123.942311,27.752509 C124.726062,29.4402907 125.502906,30.9472856 126.272865,32.2735388 C126.542152,32.8912225 126.827626,33.6376673 127.129293,34.5128958 C127.43096,35.3881242 127.694407,36.30397 127.919641,37.2604607 C128.144876,38.2169514 128.306755,39.1930568 128.405284,40.1888063 C128.503813,41.1845558 128.474082,42.1243473 128.316092,43.0082091 C128.158101,43.892071 127.840865,44.6855474 127.364374,45.3886623 C126.887883,46.0917771 126.219954,46.6306569 125.360568,47.0053179 C124.662317,47.3097299 123.787962,47.5950381 122.737476,47.8612509 C121.68699,48.1274637 120.555258,48.3172405 119.342248,48.4305871 C118.129237,48.5439337 116.887835,48.5737853 115.618003,48.520143 C114.348172,48.4665006 113.153584,48.2921748 112.034204,47.9971602 C110.914824,47.7021456 109.921469,47.2563214 109.05411,46.6596741 C108.186751,46.0630268 107.542335,45.2813103 107.120841,44.3145011 Z M107.554479,22.2168845 C107.765226,22.7002891 108.041041,23.1313479 108.381932,23.510074 C108.722824,23.8888 109.11036,24.1912534 109.544552,24.4174433 C109.978744,24.6436332 110.447871,24.7666974 110.951947,24.7866396 C111.456023,24.8065818 111.963184,24.7053269 112.473444,24.482872 C113.843091,23.8857561 114.766658,23.1635178 115.244174,22.3161355 C115.72169,21.4687532 115.919102,20.5836973 115.836415,19.6609415 C115.753728,18.7381856 115.51335,17.8202726 115.115273,16.9071751 C114.678632,15.9789298 114.269547,15.1505465 113.888007,14.4220001 C113.724093,14.0460187 113.533326,13.681751 113.3157,13.3291859 C113.098074,12.9766209 112.838449,12.6743325 112.536816,12.4223117 C112.235184,12.1702909 111.902401,12.0117554 111.538458,11.9467003 C111.174514,11.8816453 110.777702,11.9427821 110.348009,12.1301125 C109.461768,12.5164817 108.750976,13.1219876 108.215615,13.9466484 C107.680253,14.7713092 107.31172,15.6670481 107.110006,16.633892 C106.908292,17.6007358 106.849987,18.5849447 106.935088,19.5865483 C107.020189,20.5881518 107.226651,21.4649218 107.554479,22.2168845 Z M120.475317,12.6068525 C120.078516,11.1359908 119.918102,9.66965561 119.994069,8.20780285 C120.070037,6.74595009 120.387877,5.39334549 120.9476,4.14994845 C121.507323,2.90655142 122.306215,1.81864266 123.3443,0.886189538 C124.382384,-0.0462635821 125.69341,-0.726141937 127.277414,-1.15346592 C128.241369,-1.29213864 129.12325,-1.25695203 129.923083,-1.04790505 C130.722916,-0.838858071 131.420253,-0.503548729 132.015114,-0.0419669683 C132.609975,0.419614793 133.109414,1.00554746 133.513445,1.71584861 C133.881561,2.40549474 134.180076,3.1745933 134.408999,4.02316735 C134.683707,5.04145621 134.634708,6.04085303 134.261999,7.02138777 C133.88929,8.00192252 133.324771,8.8900557 132.568426,9.68581397 C131.81208,10.4815722 130.950695,11.1691111 129.984243,11.748451 C129.017792,12.327791 128.082007,12.7395474 127.176862,12.9837325 L126.137364,13.2641625 C125.783791,13.3595473 125.450319,13.3888216 125.136938,13.3519863 C124.823557,13.3151509 124.55149,13.206484 124.320729,13.0259823 C124.089968,12.8454806 123.913544,12.5289481 123.791451,12.0763753 C123.753297,11.9349463 123.742081,11.8090104 123.757802,11.6985639 C123.773523,11.5881174 123.874659,11.4849736 124.061213,11.3891294 C124.247768,11.2932852 124.542857,11.2060918 124.946489,11.1275466 C125.357751,11.0772873 125.918066,11.0171606 126.627448,10.947165 C127.023449,10.840334 127.559982,10.5514574 128.237064,10.0805264 C128.914145,9.6095955 129.584374,9.05707151 130.247772,8.42293788 C130.91117,7.78880425 131.451319,7.11965306 131.868234,6.41546421 C132.28515,5.71127537 132.421113,5.09047514 132.276128,4.55304491 C132.123513,3.98732887 131.880879,3.45349235 131.548221,2.95151932 C131.215563,2.44954629 130.808152,2.03602257 130.325975,1.71093576 C129.843798,1.38584894 129.320877,1.16279215 128.757199,1.04175868 C128.19352,0.920725205 127.608177,0.972432137 127.001151,1.19688102 C126.03404,1.54881592 125.208471,2.05980081 124.524418,2.72985102 C123.840365,3.39990124 123.312781,4.17186659 122.94165,5.04577024 C122.570519,5.9196739 122.347662,6.83701121 122.273073,7.79780971 C122.198483,8.7586082 122.29091,9.71985166 122.550357,10.6815689 C122.748758,11.4169998 122.961298,12.1486042 123.187984,12.8764043 C123.41467,13.6042044 123.715322,14.2968665 124.08995,14.9544114 C124.464577,15.6119564 124.94471,16.2106834 125.530362,16.7506104 C126.116014,17.2905375 126.864528,17.7030723 127.775926,17.9882272 C128.687325,18.2733821 129.780886,18.4183543 131.056644,18.423148 C132.332402,18.4279417 133.858564,18.2362158 135.635176,17.8479645 L143.092522,15.289967 C142.807827,16.0343472 142.3724,16.6980051 141.786229,17.2809606 C141.200057,17.863916 140.550483,18.380524 139.837485,18.8307999 C139.124487,19.2810758 138.401402,19.6657952 137.668209,19.9849696 C136.935015,20.304144 136.228999,20.5552969 135.55014,20.7384357 C133.909564,21.1810213 132.295519,21.3281818 130.707958,21.1799216 C129.120397,21.0316614 127.643435,20.6184078 126.277027,19.9401483 C124.910618,19.2618887 123.720355,18.308546 122.7062,17.0800915 C121.692046,15.851637 120.948425,14.3605722 120.475317,12.6068525 Z M145.265437,12.7669679 C145.478735,12.5661308 145.67755,12.4332542 145.861888,12.368334 C146.046226,12.3034138 146.254848,12.257878 146.48776,12.2317253 C146.749787,12.2023035 147.019165,12.2383878 147.295902,12.3399793 C147.572639,12.4415707 147.830807,12.5747261 148.070411,12.7394493 C148.310016,12.9041725 148.556078,13.0607976 148.808605,13.2093292 C149.061132,13.3578609 149.324943,13.4756421 149.600046,13.5626766 C150.392971,13.7979349 151.0265,13.9921249 151.500652,14.1452525 C151.974803,14.29838 152.407652,14.4119211 152.799211,14.4858792 C153.190771,14.5598372 153.635648,14.5835857 154.133856,14.5571252 C154.632064,14.5306647 155.274198,14.4733027 156.060278,14.3850372 C156.671673,14.3163863 157.414888,14.2403042 158.289944,14.1567885 C159.165,14.0732729 159.986566,13.9073211 160.754666,13.6589284 C161.522765,13.4105356 162.159688,13.0442115 162.665454,12.5599449 C163.171219,12.0756783 163.375062,11.3968443 163.276989,10.5234224 C163.2113,9.6758456 162.911299,9.03884573 162.376977,8.61240371 C161.842655,8.1859617 161.153196,7.88749915 160.308581,7.71700713 C159.463965,7.5465151 158.526455,7.46752974 157.496021,7.48004867 C156.465587,7.4925676 155.405237,7.50107699 154.314941,7.50557707 C153.224644,7.51007715 152.150478,7.46117655 151.092411,7.35887378 C150.034344,7.25657102 149.071575,7.01827799 148.204076,6.64398754 C147.336577,6.26969709 146.609601,5.70275078 146.023128,4.94313162 C145.436654,4.18351245 145.056946,3.16484336 144.883992,1.88709379 C144.954066,0.935829312 145.325158,0.105552482 145.997281,-0.603761611 C146.669404,-1.3130757 147.503431,-1.89315624 148.499385,-2.34402063 C149.49534,-2.79488502 150.574765,-3.09297305 151.737693,-3.23829368 C152.900621,-3.3836143 153.986892,-3.35818343 154.996538,-3.16200031 C156.006185,-2.96581719 156.876123,-2.56969713 157.606378,-1.97362826 C158.336633,-1.37755939 158.771886,-0.586232343 158.912149,0.400376624 C159.035759,0.976119654 159.046028,1.46139801 158.942956,1.85622624 C158.839884,2.25105448 158.67524,2.55697834 158.449019,2.774007 C158.222799,2.99103565 157.977862,3.10698063 157.714201,3.12184541 C157.45054,3.13671019 157.235303,3.05769579 157.068483,2.88479985 C156.901664,2.7119039 156.805102,2.44267982 156.778796,2.07711952 C156.752489,1.71155922 156.868405,1.23422266 157.126547,0.645095519 C156.947978,0.105004729 156.564136,-0.294105658 155.975009,-0.552247616 C155.385882,-0.810389574 154.720047,-0.96410126 153.977484,-1.01338728 C153.234922,-1.06267331 152.452864,-1.00434009 151.631286,-0.838385878 C150.809708,-0.672431665 150.069916,-0.434590078 149.411888,-0.124853982 C148.75386,0.184882114 148.235026,0.55268694 147.855371,0.97857153 C147.475715,1.40445612 147.342791,1.86159198 147.456593,2.34999283 C147.554666,3.22341465 147.885415,3.87170229 148.448851,4.29487522 C149.012287,4.71804814 149.716303,5.01487617 150.560918,5.1853682 C151.405534,5.35586022 152.365697,5.43967221 153.441436,5.43680667 C154.517176,5.43394113 155.621196,5.42052819 156.753529,5.39656744 C157.885862,5.37260669 158.98669,5.39640304 160.056045,5.4679572 C161.1254,5.53951136 162.106735,5.74623898 163.000079,6.08814628 C163.893423,6.43005359 164.629235,6.94441653 165.207536,7.63125054 C165.785836,8.31808456 166.141998,9.2583257 166.27603,10.4520022 C166.377372,11.3545381 166.23191,12.1594798 165.83964,12.8668516 C165.447369,13.5742234 164.919113,14.1863019 164.254855,14.7031056 C163.590597,15.2199092 162.847767,15.6276059 162.026342,15.9262079 C161.204918,16.2248099 160.415735,16.4166062 159.65877,16.5016026 C158.901804,16.5865989 158.093084,16.6700364 157.232585,16.7519175 C156.372085,16.8337986 155.492956,16.880921 154.59517,16.8932861 C153.697383,16.9056511 152.786612,16.8678844 151.862827,16.7799848 C150.939042,16.6920852 150.069335,16.4949339 149.253679,16.188525 C148.438024,15.882116 147.690184,15.4575457 147.010138,14.9148014 C146.330092,14.372057 145.748531,13.6561196 145.265437,12.7669679 Z M188.706765,-1.41742742 C188.744737,-1.6783521 188.863218,-1.83133961 189.062211,-1.87639454 C189.261204,-1.92144948 189.476664,-1.92710046 189.708597,-1.89334767 C189.882547,-1.86803307 189.999431,-1.80661537 190.059253,-1.70909273 C190.119075,-1.61157009 190.155043,-1.50271759 190.167158,-1.38253197 C190.179273,-1.26234634 190.206938,-1.1473008 190.250155,-1.0373919 C190.293371,-0.927482991 190.387457,-0.861981771 190.532415,-0.840886275 C190.938298,-0.781818885 191.454353,-0.869546852 192.080596,-1.10407281 C192.706839,-1.33859876 193.388026,-1.59472909 194.124177,-1.87247146 C194.860329,-2.15021383 195.635737,-2.39263228 196.450425,-2.59973409 C197.265114,-2.8068359 198.049337,-2.85553779 198.80312,-2.7458412 C199.788835,-2.60239183 200.657894,-2.21687399 201.410321,-1.58927612 C202.162748,-0.961678244 202.803931,-0.180047516 203.333889,0.755639517 C203.863847,1.69132655 204.284808,2.71475687 204.596787,3.82596117 C204.908766,4.93716548 205.145097,6.05954892 205.305789,7.19314518 C205.466481,8.32674143 205.544415,9.41867238 205.539595,10.4689708 C205.534776,11.5192692 205.477518,12.421296 205.367822,13.1750785 C205.32985,13.4360031 205.251149,13.82422 205.131718,14.3397407 C205.012287,14.8552614 204.863866,15.3665554 204.686452,15.8736379 C204.509037,16.3807204 204.275888,16.8130723 203.986997,17.1707065 C203.698106,17.5283407 203.379716,17.6818409 203.031816,17.6312117 C202.973833,17.6227735 202.873419,17.6007591 202.73057,17.5651678 C202.587721,17.5295765 202.446984,17.4794901 202.308355,17.4149072 C202.169725,17.3503242 202.053896,17.2816587 201.960864,17.2089086 C201.867831,17.1361585 201.829754,17.0418016 201.84663,16.9258351 C202.432425,14.7314514 202.737251,12.6368375 202.761115,10.6419305 C202.78498,8.6470235 202.614585,6.8681191 202.249927,5.30516394 C201.885268,3.74220877 201.345855,2.46469894 200.63167,1.47259613 C199.917486,0.480493325 199.082045,-0.0851647328 198.125321,-0.224395009 C197.22658,-0.355187086 196.36474,-0.332583149 195.539775,-0.156582519 C194.71481,0.019418111 193.972341,0.340643109 193.312346,0.807102113 C192.65235,1.27356112 192.098701,1.87390881 191.651382,2.60816321 C191.204062,3.3424176 190.912901,4.17339843 190.77789,5.10113063 C190.642879,6.02886282 190.595898,6.9619904 190.636946,7.90054138 C190.677994,8.83909235 190.740785,9.78079352 190.825321,10.7256731 C190.909856,11.6705528 190.971593,12.6195017 191.010531,13.5725485 C191.04947,14.5255953 191.001434,15.4659707 190.866423,16.3937029 C190.054657,16.2755681 189.421883,15.843022 188.968082,15.0960516 C188.51428,14.3490812 188.196626,13.4295006 188.015109,12.3372823 C187.833593,11.2450639 187.743543,10.0329491 187.744957,8.7009016 C187.746371,7.36885406 187.802603,6.06700797 187.913655,4.79532427 C188.024707,3.52364057 188.161448,2.32972773 188.323883,1.21354994 L188.706765,-1.41742742 Z M209.644891,10.4732332 C210.267722,8.9871356 211.13551,7.82608549 212.248281,6.99004802 C213.361052,6.15401055 214.602847,5.57854291 215.973702,5.26362783 C217.344558,4.94871275 218.761637,4.88348326 220.224982,5.06793742 C221.688326,5.25239157 223.081966,5.62205594 224.405944,6.1769416 C225.108463,6.47137072 225.709898,6.87432125 226.210267,7.38580527 C226.710636,7.89728929 227.144344,8.49201004 227.511404,9.16998535 C227.878464,9.84796067 228.156414,10.5679956 228.345263,11.3301118 C228.534113,12.0922281 228.653672,12.8491184 228.703945,13.6008057 C228.754218,14.3524929 228.727355,15.0797827 228.623356,15.7826969 C228.519357,16.485611 228.342794,17.1342779 228.093662,17.7287169 C227.516128,19.1067347 226.730689,20.222884 225.737322,21.0771983 C224.743955,21.9315126 223.632241,22.5376737 222.402147,22.8956998 C221.172054,23.2537259 219.893996,23.3851614 218.567937,23.2900103 C217.241878,23.1948592 215.970919,22.8924937 214.755021,22.3829048 C213.512103,21.8619918 212.452626,21.1876599 211.576559,20.3598889 C210.700491,19.532118 210.024648,18.6056171 209.549008,17.5803587 C209.073368,16.5551002 208.837383,15.4317601 208.841046,14.2103046 C208.844708,12.9888491 209.112654,11.7431711 209.644891,10.4732332 Z M211.766738,10.9813197 C211.415687,11.8189383 211.23416,12.6878831 211.22215,13.5881801 C211.21014,14.4884771 211.362183,15.3383954 211.678284,16.1379606 C211.994385,16.9375257 212.459931,17.6647108 213.074938,18.3195378 C213.689944,18.9743648 214.429755,19.4829578 215.294394,19.8453321 C215.731085,20.0918833 216.322882,20.2525531 217.069802,20.3273463 C217.816722,20.4021395 218.603266,20.3823631 219.429456,20.2680165 C220.255645,20.15367 221.088775,19.9469425 221.92887,19.6478278 C222.768965,19.3487132 223.530373,18.9530988 224.213115,18.4609728 C224.895857,17.9688469 225.43455,17.3845956 225.829211,16.7082014 C226.223873,16.0318073 226.402371,15.2648311 226.364713,14.4072498 C226.327055,13.5496685 226.001123,12.6030483 225.386907,11.5673609 C224.772691,10.5316734 223.800923,9.40173542 222.471574,8.17751291 C221.579916,7.8038144 220.600707,7.54430933 219.533918,7.39898991 C218.46713,7.2536705 217.434382,7.27349922 216.435644,7.45847666 C215.436905,7.64345411 214.516659,8.02014668 213.674879,8.58856566 C212.833098,9.15698464 212.197057,9.95456133 211.766738,10.9813197 Z M243.348855,30.0758784 C242.57521,30.0518486 241.84117,30.1460935 241.146714,30.358616 C240.452258,30.5711384 239.766752,30.7548128 239.090175,30.9096448 C238.413598,31.0644768 237.727404,31.1363551 237.031572,31.125282 C236.33574,31.1142088 235.587114,30.8654652 234.785673,30.3790436 C233.88405,29.8318193 233.187902,29.1437085 232.697206,28.3146905 C232.206509,27.4856725 231.880818,26.5683226 231.720122,25.5626134 C231.559426,24.5569042 231.527068,23.509155 231.623048,22.4193344 C231.719027,21.3295138 231.905339,20.2602662 232.18199,19.2115595 C232.458641,18.1628529 232.790299,17.1646854 233.176974,16.2170272 C233.56365,15.269369 233.969791,14.4449214 234.39541,13.7436598 C235.015886,12.2696213 235.695672,11.2342841 236.434788,10.6376172 C237.173904,10.0409504 237.802155,9.75398502 238.319559,9.77671249 C238.836963,9.79943996 239.138404,10.0509353 239.223892,10.5312059 C239.309379,11.0114766 239.016336,11.5789991 238.344755,12.2337905 C238.233862,12.3035694 238.101292,12.437298 237.947041,12.6349803 C237.792791,12.8326626 237.634742,13.0366031 237.472891,13.246808 C237.31104,13.4570128 237.156791,13.6546922 237.010141,13.839852 C236.86349,14.0250117 236.767365,14.1551573 236.721763,14.2302925 C236.402549,14.7562387 236.076428,15.4064955 235.743389,16.1810823 C235.41035,16.9556692 235.114665,17.7957513 234.856328,18.7013538 C234.59799,19.6069564 234.399806,20.5404852 234.261771,21.5019682 C234.123736,22.4634513 234.097717,23.3815258 234.183712,24.2562193 C234.269707,25.1309129 234.492975,25.9346935 234.853524,26.6675852 C235.214072,27.400477 235.74497,27.9797236 236.446231,28.4053425 C236.897042,28.6789547 237.543462,28.7714229 238.38551,28.6827499 C239.227559,28.5940769 240.09149,28.3987483 240.97733,28.0967582 C241.86317,27.7947681 242.685264,27.4283977 243.443634,26.997636 C244.202005,26.5668743 244.717989,26.1260945 244.991601,25.6752835 C245.143608,25.4248329 245.400677,25.0153957 245.762815,24.4469597 C246.124953,23.8785237 246.503625,23.2687291 246.898842,22.6175576 C247.29406,21.9663861 247.66021,21.3489913 247.997303,20.7653546 C248.334396,20.1817179 248.571342,19.7772029 248.708148,19.5517974 C249.010425,19.3925508 249.291019,19.2972575 249.549938,19.2659144 C249.808857,19.2345713 250.063538,19.2949022 250.313989,19.446909 C250.614529,19.6293171 250.743373,19.981679 250.700522,20.5040053 C250.657672,21.0263317 250.508853,21.6385506 250.254062,22.3406804 C249.99927,23.0428102 249.676514,23.7722182 249.285785,24.5289262 C248.895055,25.2856343 248.50701,26.0096861 248.121637,26.7011033 C247.736264,27.3925206 247.400298,28.0025322 247.113729,28.5311566 C246.82716,29.0597809 246.655721,29.426946 246.599406,29.6326628 C246.420618,30.2095673 246.260182,30.8832759 246.118093,31.6538088 C245.976004,32.4243416 245.839057,33.1722793 245.707246,33.8976443 C245.575436,34.6230092 245.448984,35.2830735 245.327886,35.8778568 C245.206788,36.4726402 245.070238,36.8952508 244.918231,37.1457014 C244.690221,37.5213773 244.446977,37.6821775 244.188492,37.6281069 C243.930007,37.5740364 243.637976,37.4481986 243.312391,37.2505898 C242.91167,37.007379 242.678196,36.728595 242.611964,36.4142295 C242.545731,36.099864 242.56379,35.7595535 242.666141,35.3932879 C242.768492,35.0270223 242.908625,34.6408567 243.086545,34.2347795 C243.264465,33.8287023 243.418677,33.3911082 243.549185,32.9219843 C243.679693,32.4528603 243.744909,31.9783872 243.744835,31.4985506 C243.744762,31.018714 243.61277,30.5444947 243.348855,30.0758784 Z M248.201274,33.9657058 C248.490784,33.9208107 248.729896,33.9237539 248.918619,33.9745355 C249.107342,34.0253172 249.305118,34.1058227 249.511954,34.2160546 C249.744645,34.3400655 249.946329,34.5222462 250.117014,34.7626023 C250.287699,35.0029584 250.425213,35.258831 250.529558,35.5302276 C250.633903,35.8016242 250.748155,36.0699979 250.872317,36.3353568 C250.996479,36.6007156 251.147345,36.8471058 251.32492,37.0745346 C251.845568,37.7171877 252.258032,38.2357843 252.562324,38.6303401 C252.866616,39.0248958 253.159253,39.363441 253.440246,39.6459858 C253.721238,39.9285306 254.074603,40.1998475 254.500351,40.4599448 C254.926098,40.720042 255.487999,41.0361022 256.186071,41.4081348 C256.729015,41.6974934 257.38485,42.0553158 258.153596,42.4816126 C258.922341,42.9079094 259.69363,43.2359693 260.467486,43.4658021 C261.241342,43.695635 261.973774,43.7540058 262.664805,43.6409162 C263.355836,43.5278267 263.908027,43.0834712 264.321397,42.3078362 C264.746842,41.5718348 264.85994,40.8768683 264.660694,40.2229158 C264.461448,39.5689633 264.061873,38.9327456 263.461958,38.3142436 C262.862043,37.6957415 262.133756,37.1001219 261.277075,36.5273667 C260.420394,35.9546115 259.541317,35.3616225 258.639816,34.7483821 C257.738316,34.1351417 256.880332,33.4869999 256.06584,32.8039372 C255.251348,32.1208745 254.59238,31.3796125 254.088918,30.580129 C253.585456,29.7806455 253.306871,28.9018325 253.253157,27.9436639 C253.199442,26.9854952 253.462791,25.9307382 254.043212,24.7793613 C254.639266,24.0346913 255.415051,23.5601096 256.370588,23.355602 C257.326126,23.1510944 258.342026,23.1447544 259.418319,23.3365816 C260.494612,23.5284088 261.553278,23.893433 262.594347,24.4316651 C263.635417,24.9698973 264.516661,25.6055379 265.238108,26.3386061 C265.959554,27.0716743 266.452674,27.8905365 266.717484,28.7952171 C266.982294,29.6998977 266.893384,30.5986404 266.450753,31.4914723 C266.226883,32.0361203 265.960752,32.4420449 265.652352,32.7092584 C265.343953,32.976472 265.035095,33.1355428 264.725768,33.1864757 C264.416441,33.2374086 264.148882,33.1944066 263.923081,33.0574685 C263.69728,32.9205304 263.564527,32.7335895 263.524817,32.4966404 C263.485108,32.2596912 263.557835,31.9830749 263.743,31.6667832 C263.928164,31.3504915 264.293841,31.0225172 264.840041,30.6828506 C264.998424,30.1364992 264.907783,29.5902316 264.568117,29.0440314 C264.22845,28.4978312 263.766445,27.9943288 263.182088,27.5335089 C262.597731,27.072689 261.919912,26.6782526 261.148612,26.3501878 C260.377311,26.022123 259.632766,25.7996089 258.914953,25.6826387 C258.197141,25.5656685 257.561235,25.5753399 257.007218,25.7116531 C256.453201,25.8479663 256.084931,26.1496606 255.902398,26.616745 C255.489028,27.39238 255.394895,28.1140523 255.619995,28.7817838 C255.845096,29.4495152 256.257598,30.0926223 256.857513,30.7111244 C257.457428,31.3296264 258.201661,31.9420437 259.090234,32.5483946 C259.978807,33.1547456 260.896666,33.7684026 261.843838,34.3893843 C262.791009,35.0103659 263.685181,35.6528959 264.52638,36.3169936 C265.367578,36.9810913 266.059715,37.7068333 266.60281,38.4942413 C267.145906,39.2816493 267.46153,40.1221069 267.549693,41.0156393 C267.637855,41.9091718 267.399471,42.8859405 266.834532,43.945975 C266.407384,44.7474644 265.831969,45.3288316 265.108269,45.690094 C264.38457,46.0513565 263.602673,46.2571008 262.762553,46.3073331 C261.922433,46.3575655 261.079269,46.2733784 260.233035,46.0547693 C259.386802,45.8361603 258.627588,45.5477333 257.955371,45.1894797 C257.283154,44.8312261 256.569147,44.4424014 255.813329,44.0229942 C255.057511,43.6035869 254.306001,43.1449788 253.558775,42.6471563 C252.81155,42.1493338 252.081985,41.6028293 251.370059,41.0076266 C250.658133,40.4124238 250.052616,39.7577429 249.553488,39.0435641 C249.05436,38.3293853 248.678009,37.5561559 248.424423,36.7238528 C248.170837,35.8915496 248.096455,34.9721765 248.201274,33.9657058 Z M285.830049,56.5957465 C285.474241,55.3065102 285.227674,53.937881 285.09034,52.4898178 C284.953006,51.0417546 284.890318,49.596414 284.902272,48.1537525 C284.914226,46.7110911 284.981832,45.3193339 285.105092,43.9784392 C285.228352,42.6375446 285.38692,41.4330561 285.580801,40.3649375 C285.628266,40.1654267 285.666565,39.9411527 285.695699,39.6921089 C285.724833,39.4430651 285.777037,39.1919852 285.852314,38.9388616 C285.927591,38.685738 286.027977,38.4536493 286.153476,38.2425886 C286.278975,38.0315278 286.447569,37.8608373 286.659262,37.730512 L286.744766,37.7508539 C286.773268,37.7576345 286.789213,37.7538995 286.792604,37.7396487 C286.795994,37.725398 286.81194,37.721663 286.840441,37.7284436 C286.868943,37.7352243 286.881498,37.7457398 286.878108,37.7599906 C286.874718,37.7742414 286.901524,37.7881472 286.958527,37.8017085 L287.044031,37.8220504 C287.094253,37.8641132 287.223198,37.9550183 287.430868,38.0947681 C287.638539,38.234518 287.764093,38.3396736 287.807535,38.410238 C288.361246,38.3612805 288.937676,38.2800876 289.536841,38.1666569 C290.136006,38.0532262 290.738897,37.9557429 291.345532,37.8742041 C291.952167,37.7926653 292.557443,37.7484492 293.161377,37.7415546 C293.765311,37.73466 294.338034,37.795628 294.879564,37.9244604 C295.278586,38.0193896 295.624334,38.116702 295.91682,38.2164004 C296.209305,38.3160988 296.496701,38.4371716 296.779016,38.5796223 C297.06133,38.7220731 297.361626,38.8838577 297.679912,39.064981 C297.998199,39.2461042 298.368397,39.4621617 298.790518,39.71316 C298.977847,39.9384145 299.145492,40.1514549 299.293458,40.3522877 C299.441425,40.5531205 299.570053,40.7719358 299.679347,41.0087402 C299.788641,41.2455447 299.852136,41.5166215 299.869834,41.821979 C299.887532,42.1273364 299.842136,42.5080218 299.733646,42.9640465 C299.26406,42.9125591 298.73814,42.7497974 298.155869,42.4757563 C297.573599,42.2017153 296.971312,41.8852714 296.34899,41.5264151 C295.726668,41.1675589 295.0762,40.8321238 294.397564,40.5200996 C293.718929,40.2080755 293.048463,39.98834 292.386147,39.8608865 C291.723831,39.7334329 291.066983,39.7729083 290.415584,39.9793138 C289.749245,40.1219355 289.099924,40.5095154 288.467603,41.1420651 C288.071453,41.9211454 287.792704,42.7130856 287.631347,43.5179096 C287.46999,44.3227336 287.384974,45.123121 287.376296,45.9190959 C287.367618,46.7150709 287.408817,47.5228998 287.499894,48.342607 C287.590971,49.1623143 287.667797,49.9786189 287.730373,50.7915455 C287.792948,51.604472 287.835842,52.4051757 287.859056,53.1936805 C287.88227,53.9821853 287.83084,54.7679775 287.704766,55.5510806 C287.636959,55.836096 287.407312,56.10519 287.015818,56.3583706 C286.624323,56.6115512 286.229071,56.6906757 285.830049,56.5957465 Z M297.018942,47.2754788 C297.005483,45.7520931 297.219646,44.2926391 297.661438,42.8970731 C298.10323,41.5015071 298.751572,40.272599 299.606482,39.210312 C300.461393,38.148025 301.508587,37.2964635 302.748097,36.6556019 C303.987607,36.0147404 305.427625,35.6870674 307.068195,35.672573 C308.035994,35.7812153 308.880567,36.037433 309.60194,36.4412341 C310.323312,36.8450351 310.913686,37.3452049 311.373078,37.9417586 C311.83247,38.5383123 312.168191,39.2311672 312.38025,40.0203441 C312.562755,40.780484 312.657888,41.5999798 312.665653,42.4788562 C312.674971,43.5335078 312.375781,44.4883272 311.768073,45.343343 C311.160366,46.1983589 310.390313,46.9156321 309.457892,47.4951842 C308.525471,48.0747362 307.518661,48.5230972 306.437431,48.8402806 C305.356201,49.1574639 304.346867,49.3201943 303.409399,49.3284768 L302.332781,49.3379887 C301.966583,49.341224 301.636491,49.2855449 301.342497,49.1709496 C301.048503,49.0563544 300.812587,48.8826524 300.634741,48.6498383 C300.456895,48.4170242 300.365903,48.0662554 300.361762,47.5975214 C300.360467,47.451042 300.381339,47.3263423 300.424377,47.2234185 C300.467415,47.1204946 300.591273,47.046156 300.795956,47.0004004 C301.000639,46.9546448 301.308177,46.9446033 301.718578,46.9702756 C302.129238,47.0252438 302.686627,47.1082125 303.390764,47.2191841 C303.800906,47.2155606 304.392909,47.071166 305.166791,46.7859963 C305.940673,46.5008265 306.728479,46.1349692 307.530234,45.6884132 C308.331988,45.2418573 309.02329,44.730364 309.60416,44.1539178 C310.185031,43.5774716 310.473003,43.0109462 310.468085,42.4543245 C310.462909,41.8684069 310.362587,41.2906632 310.167116,40.721076 C309.971646,40.1514887 309.681551,39.6486659 309.296822,39.2125925 C308.912093,38.7765191 308.462232,38.4289209 307.947224,38.1697874 C307.432217,37.910654 306.852726,37.8132317 306.208735,37.8775177 C305.184155,37.9744643 304.256484,38.2609886 303.425693,38.7370992 C302.594901,39.2132098 301.889858,39.8273667 301.31054,40.5795881 C300.731223,41.3318095 300.284455,42.1634174 299.970224,43.0744368 C299.655993,43.9854561 299.50328,44.9389814 299.51208,45.9350412 C299.51881,46.6967341 299.540187,47.4582861 299.576212,48.2197201 C299.612237,48.9811541 299.728695,49.7272172 299.925589,50.4579317 C300.122483,51.1886463 300.436297,51.8890192 300.86704,52.5590714 C301.297784,53.2291236 301.918229,53.8169209 302.728395,54.3224811 C303.538561,54.8280412 304.560331,55.2438309 305.793734,55.5698628 C307.027137,55.8958947 308.552377,56.0948278 310.369498,56.1666681 L318.230743,55.5698502 C317.767703,56.2185008 317.179129,56.7510598 316.465004,57.1675434 C315.750878,57.5840269 314.992109,57.92033 314.188672,58.1764627 C313.385235,58.4325955 312.588552,58.6227449 311.798599,58.7469167 C311.008645,58.8710886 310.262129,58.9362794 309.559028,58.9424913 C307.859867,58.9575033 306.260807,58.6933025 304.7618,58.149881 C303.262792,57.6064595 301.937574,56.8344535 300.786105,55.83384 C299.634636,54.8332265 298.722931,53.6107769 298.050962,52.1664545 C297.378993,50.7221322 297.034989,49.0918232 297.018942,47.2754788 Z M319.128391,53.1259683 C318.774242,51.314551 318.792587,49.7288485 319.183424,48.3688133 C319.574262,47.008778 320.221329,45.8524025 321.124644,44.8996519 C322.027959,43.9469013 323.143123,43.1617026 324.47017,42.5440323 C325.797217,41.9263619 327.222665,41.4685662 328.746555,41.1706314 C329.982919,40.9289106 331.222674,40.8954858 332.465856,41.0703558 C333.709039,41.2452258 334.860923,41.602121 335.921543,42.1410522 C336.982163,42.6799834 337.886796,43.4135824 338.635467,44.3418712 C339.384138,45.2701599 339.887759,46.3955985 340.146344,47.7182207 C340.3712,48.8683269 340.339657,49.8521222 340.051713,50.6696361 C339.763769,51.48715 339.286775,52.1774317 338.620717,52.7405019 C337.954658,53.3035721 337.18565,53.7598956 336.31367,54.109486 C335.44169,54.4590764 334.531295,54.7266209 333.582457,54.9121275 C332.662372,55.0920126 331.712305,55.2329828 330.732226,55.3350421 C329.752148,55.4371015 328.828668,55.4086917 327.961758,55.2498121 C327.094848,55.0909324 326.340795,54.7458112 325.699576,54.2144382 C325.058358,53.6830652 324.625326,52.8423382 324.40047,51.692232 C325.004276,51.5741823 325.610399,51.5825474 326.218858,51.7173274 C326.827316,51.8521075 327.445765,51.9998563 328.074221,52.1605783 C328.702678,52.3213002 329.326909,52.4604557 329.946933,52.5780487 C330.543827,52.7300157 331.158543,52.7441635 331.791101,52.6204925 C332.251144,52.5305499 332.853697,52.3679683 333.598778,52.1327429 C334.343859,51.8975175 335.030342,51.5916591 335.658247,51.2151583 C336.286153,50.8386576 336.802335,50.386987 337.206809,49.8601332 C337.611283,49.3332794 337.748871,48.7392058 337.619579,48.0778947 C337.428451,47.1003045 337.04698,46.2942738 336.475155,45.6597786 C335.90333,45.0252834 335.226019,44.5382906 334.443202,44.1987857 C333.660385,43.8592808 332.812403,43.6444658 331.89923,43.5543342 C330.986058,43.4642027 330.098195,43.5034575 329.235616,43.6720999 C329.120605,43.6945855 328.845892,43.7781457 328.411469,43.9227829 C327.977046,44.0674201 327.484963,44.2606434 326.935206,44.5024586 C326.385449,44.7442738 325.81257,45.0204589 325.216551,45.3310222 C324.620531,45.6415855 324.08327,45.9854352 323.604749,46.3625816 C323.126228,46.7397279 322.748186,47.1345396 322.470611,47.5470284 C322.193036,47.9595172 322.096411,48.3814002 322.180732,48.81269 L322.281917,49.3302352 C322.372505,49.640893 322.49136,50.0579617 322.638485,50.5814537 C322.78561,51.1049457 322.925545,51.6298352 323.058294,52.1561379 C323.191042,52.6824406 323.325517,53.1412322 323.461722,53.5325266 C323.597928,53.9238209 323.67165,54.1482174 323.682893,54.2057227 C323.830341,54.6545224 324.070102,55.3464653 324.402182,56.2815722 C324.734263,57.2166791 325.1032,58.2639702 325.509004,59.4234769 C325.914809,60.5829836 326.35482,61.8029495 326.829049,63.083411 C327.303279,64.3638726 327.757666,65.5810278 328.192223,66.7349131 C328.62678,67.8887984 329.015876,68.9246855 329.359522,69.8426053 C329.703169,70.7605252 329.960277,71.4266879 330.130857,71.8411135 C330.142099,71.8986188 330.159125,71.9475299 330.181933,71.9878482 C330.204742,72.0281665 330.218956,72.0627014 330.224578,72.0914541 L330.23301,72.1345828 L330.206745,72.2292724 L330.223609,72.31553 C330.182968,72.4130308 330.08169,72.5820879 329.919771,72.8227063 C329.723479,73.0401936 329.602203,73.1833091 329.55594,73.2520572 L329.297168,73.3026497 C329.009641,73.3588638 328.655745,73.1519297 328.23547,72.6818411 C327.815195,72.2117525 327.351199,71.5561868 326.843469,70.7151244 C326.335739,69.874062 325.801315,68.8964391 325.240182,67.7822265 C324.679048,66.6680139 324.11668,65.5092843 323.553058,64.306003 C322.989437,63.1027217 322.457387,61.9082132 321.956892,60.7224417 C321.456398,59.5366702 321.001527,58.4315519 320.592266,57.4070535 C320.183005,56.3825552 319.852173,55.491996 319.599761,54.7353492 C319.347349,53.9787024 319.190227,53.4422475 319.128391,53.1259683 Z M344.066098,46.0422555 C344.200963,44.4365731 344.668987,43.064696 345.470183,41.9265828 C346.27138,40.7884696 347.27558,39.8585234 348.482813,39.1367164 C349.690046,38.4149094 351.018155,37.9164154 352.467178,37.6412195 C353.916201,37.3660236 355.355949,37.2885028 356.786466,37.408655 C357.545516,37.4724091 358.241818,37.6705418 358.875393,38.0030588 C359.508968,38.3355759 360.104758,38.7678141 360.66278,39.2997865 C361.220803,39.831759 361.707,40.4311908 362.121388,41.0981 C362.535776,41.7650091 362.882632,42.4482866 363.161968,43.1479527 C363.441304,43.8476188 363.639739,44.5478298 363.757281,45.2486066 C363.874822,45.9493833 363.906619,46.6208981 363.852673,47.2631711 C363.727617,48.7520765 363.324111,50.0558734 362.642143,51.1746007 C361.960175,52.2933279 361.089187,53.212413 360.029151,53.9318833 C358.969115,54.6513536 357.793661,55.1700193 356.502754,55.4878959 C355.211847,55.8057725 353.909543,55.9095374 352.595803,55.7991936 C351.252869,55.6863977 350.037209,55.3711438 348.948786,54.8534223 C347.860364,54.3357007 346.932026,53.662383 346.163745,52.8334487 C345.395463,52.0045145 344.82498,51.0084568 344.452278,49.8452458 C344.079575,48.6820348 343.95085,47.4143841 344.066098,46.0422555 Z M346.241288,45.8721539 C346.165273,46.7771748 346.260189,47.6597892 346.526038,48.5200236 C346.791887,49.380258 347.1983,50.142037 347.745288,50.8053834 C348.292275,51.4687299 348.959153,52.0171879 349.74594,52.4507741 C350.532727,52.8843603 351.393216,53.1403829 352.327431,53.2188496 C352.818829,53.3189235 353.431343,53.2895205 354.164992,53.1306399 C354.898641,52.9717593 355.640861,52.7107028 356.391675,52.3474626 C357.142489,51.9842224 357.871454,51.5309543 358.578591,50.9876446 C359.285729,50.4443349 359.888284,49.8334505 360.386273,49.1549733 C360.884263,48.4764961 361.216832,47.754736 361.383992,46.9896713 C361.551152,46.2246066 361.48476,45.4399371 361.184812,44.6356391 C360.884865,43.8313411 360.283233,43.0311154 359.3799,42.2349381 C358.476566,41.4387608 357.204033,40.663034 355.562262,39.9077344 C354.598853,39.8268156 353.587318,39.8815035 352.527628,40.0717996 C351.467939,40.2620958 350.491497,40.5990287 349.598275,41.0826085 C348.705053,41.5661884 347.945553,42.2079901 347.319752,43.008033 C346.693952,43.8080759 346.334467,44.7627733 346.241288,45.8721539 Z M367.71984,53.2102894 C368.012743,53.2039852 368.249377,53.2384516 368.429749,53.3136897 C368.610122,53.3889278 368.795547,53.4948245 368.986031,53.631383 C369.200325,53.7850113 369.376209,53.99221 369.513689,54.2529852 C369.651169,54.5137605 369.753719,54.7855398 369.821344,55.0683312 C369.888968,55.3511227 369.966812,55.6322247 370.054876,55.9116458 C370.142941,56.1910669 370.259979,56.4552086 370.405994,56.7040786 C370.837297,57.4098085 371.177731,57.9782925 371.427304,58.4095476 C371.676877,58.8408027 371.922288,59.2149993 372.163544,59.5321486 C372.404801,59.8492979 372.719278,60.1648664 373.106986,60.4788636 C373.494694,60.7928608 374.009981,61.180296 374.652863,61.6411809 C375.152882,61.9996469 375.755772,62.440873 376.46155,62.9648725 C377.167328,63.488872 377.888589,63.9158291 378.625355,64.2457565 C379.362121,64.575684 380.080449,64.7301829 380.780359,64.7092579 C381.48027,64.6883329 382.086263,64.3207193 382.598357,63.6064061 C383.117192,62.9329731 383.320997,62.2590047 383.209776,61.5844805 C383.098556,60.9099564 382.786418,60.2265803 382.273354,59.5343317 C381.76029,58.842083 381.116957,58.1555791 380.343336,57.4747992 C379.569715,56.7940193 378.776563,56.0902276 377.963856,55.3634029 C377.151149,54.6365782 376.386183,53.8808989 375.668936,53.0963423 C374.951689,52.3117858 374.396286,51.490059 374.002711,50.6311373 C373.609135,49.7722156 373.448939,48.8643288 373.522116,47.9074497 C373.595293,46.9505706 373.995506,45.9397816 374.722767,44.8750524 C375.411864,44.2155372 376.243483,43.8474629 377.21765,43.7708186 C378.191818,43.6941743 379.199673,43.8219293 380.241246,44.1540875 C381.28282,44.4862456 382.284068,44.9877608 383.24502,45.6586479 C384.205973,46.3295351 384.995645,47.0758916 385.614062,47.8977399 C386.232479,48.7195881 386.613246,49.5963545 386.756376,50.5280653 C386.899505,51.4597762 386.692791,52.3389308 386.136228,53.1655556 C385.842453,53.675904 385.52509,54.0431661 385.18413,54.2673527 C384.84317,54.4915394 384.516024,54.6084682 384.202682,54.6181427 C383.889339,54.6278172 383.629792,54.5498889 383.424033,54.3843553 C383.218274,54.2188218 383.111347,54.0159997 383.103249,53.7758828 C383.09515,53.5357659 383.203738,53.2711636 383.429016,52.982068 C383.654294,52.6929724 384.060047,52.4161135 384.646289,52.151483 C384.875373,51.6308054 384.857601,51.0773543 384.59297,50.4911131 C384.32834,49.9048719 383.936807,49.3448135 383.41836,48.8109213 C382.899913,48.2770291 382.280063,47.7966085 381.558791,47.369645 C380.837519,46.9426815 380.128841,46.6238761 379.432738,46.4132191 C378.736634,46.2025621 378.105012,46.1282464 377.537853,46.1902699 C376.970694,46.2522934 376.565838,46.5027599 376.323272,46.941677 C375.811178,47.6559903 375.622649,48.3589333 375.75768,49.0505272 C375.89271,49.7421212 376.216753,50.4340321 376.729817,51.1262807 C377.242881,51.8185293 377.899804,52.523788 378.700606,53.2420778 C379.501408,53.9603676 380.330275,54.6897636 381.187233,55.4302878 C382.04419,56.1708121 382.845768,56.9257033 383.59199,57.6949843 C384.338212,58.4642653 384.928542,59.2749842 385.362998,60.1271653 C385.797454,60.9793464 385.999427,61.8541003 385.968925,62.7514533 C385.938422,63.6488063 385.573245,64.5855828 384.873383,65.5618108 C384.344219,66.2999345 383.697127,66.8002978 382.93209,67.0629157 C382.167052,67.3255337 381.364844,67.4263143 380.525441,67.3652606 C379.686038,67.3042068 378.861353,67.1095072 378.051361,66.7811558 C377.24137,66.4528044 376.526849,66.066727 375.907778,65.6229119 C375.288706,65.1790969 374.632244,64.6994643 373.938371,64.1839997 C373.244498,63.6685351 372.560067,63.1147808 371.885058,62.5227203 C371.210049,61.9306598 370.558969,61.2926731 369.931799,60.6087412 C369.30463,59.9248092 368.790785,59.1959587 368.390251,58.4221678 C367.989717,57.6483769 367.718677,56.8322511 367.577124,55.9737658 C367.435571,55.1152806 367.483142,54.194131 367.71984,53.2102894 Z M391.965681,62.3514938 C393.03929,61.2706381 394.227516,60.3965723 395.530394,59.7292702 C396.833273,59.0619682 398.162915,58.6587141 399.51936,58.5194959 C400.875806,58.3802778 402.217652,58.5259548 403.54494,58.9565313 C404.872227,59.3871079 406.117852,60.1804813 407.28185,61.3366755 C407.885193,62.1011469 408.296958,62.8817882 408.517159,63.6786227 C408.73736,64.4754573 408.796923,65.2469253 408.695852,65.9930499 C408.59478,66.7391745 408.338273,67.4650948 407.926322,68.1708326 C407.514232,68.8351384 406.998499,69.4790669 406.37911,70.1026375 C405.635842,70.8509223 404.7466,71.3096638 403.711357,71.4788759 C402.676114,71.648088 401.624636,71.6050139 400.556891,71.3496524 C399.489146,71.0942909 398.46236,70.6937841 397.476503,70.1481198 C396.490646,69.6024555 395.665159,68.9992912 395.000017,68.3386088 L394.236147,67.5798602 C393.976326,67.3217811 393.783783,67.0479427 393.658511,66.7583367 C393.53324,66.4687307 393.490833,66.1788504 393.531289,65.8886869 C393.571746,65.5985235 393.757142,65.287161 394.087483,64.95459 C394.190714,64.8506615 394.294049,64.7778082 394.39749,64.7360278 C394.50093,64.6942474 394.640883,64.7300295 394.817353,64.8433753 C394.993822,64.956721 395.21723,65.1683078 395.487583,65.478142 C395.73729,65.8087619 396.070274,66.2633923 396.486545,66.8420469 C396.777545,67.1310954 397.296517,67.4504467 398.043478,67.8001102 C398.790439,68.1497738 399.604558,68.4525954 400.485859,68.708584 C401.36716,68.9645726 402.216956,69.0963677 403.035274,69.1039733 C403.853591,69.1115789 404.45888,68.9179206 404.85116,68.5229926 C405.264087,68.1072789 405.604293,67.6296682 405.871789,67.0901462 C406.139286,66.5506242 406.292772,65.9907778 406.332253,65.4105903 C406.371734,64.8304028 406.302509,64.2661266 406.124577,63.7177447 C405.946644,63.1693629 405.608394,62.6888553 405.109816,62.2762075 C404.320378,61.6159432 403.464305,61.1578933 402.541572,60.9020441 C401.618839,60.6461948 400.686389,60.5768255 399.744194,60.693934 C398.801999,60.8110425 397.896576,61.0782161 397.027897,61.4954628 C396.159218,61.9127095 395.373903,62.4746811 394.671928,63.1813945 C394.135124,63.7218223 393.60872,64.2725651 393.092701,64.8336392 C392.576683,65.3947134 392.128154,66.002163 391.747103,66.6560063 C391.366052,67.3098496 391.088794,68.0254817 390.915321,68.8029242 C390.741848,69.5803667 390.760259,70.4348368 390.970555,71.3663603 C391.180851,72.2978837 391.603775,73.3167206 392.239341,74.4229017 C392.874907,75.5290827 393.806063,76.7533694 395.032837,78.0957986 L400.985398,83.2651684 C400.198608,83.3921123 399.406076,83.3481673 398.607778,83.133332 C397.80948,82.9184966 397.036792,82.6155357 396.289692,82.2244401 C395.542592,81.8333445 394.847153,81.4006492 394.203354,80.9263412 C393.559556,80.4520332 392.988236,79.9671306 392.48938,79.4716188 C391.28381,78.274132 390.347144,76.9514631 389.679355,75.5035726 C389.011565,74.055682 388.628504,72.5706026 388.53016,71.0482897 C388.431817,69.5259769 388.659799,68.0181262 389.214114,66.5246924 C389.768429,65.0312587 390.685609,63.6402064 391.965681,62.3514938 Z M414.211542,77.57277 C414.426315,77.4198122 414.618763,77.3996464 414.788892,77.512272 C414.95902,77.6248975 415.112064,77.7766628 415.248026,77.9675721 C415.349998,78.1107542 415.386432,78.2376658 415.357329,78.3483109 C415.328227,78.4589561 415.274446,78.5601996 415.195987,78.6520445 C415.117528,78.7438894 415.053533,78.8434158 415.004,78.9506268 C414.954468,79.0578377 414.97219,79.1711007 415.057167,79.290419 C415.295101,79.6245104 415.715265,79.9367139 416.317672,80.2270389 C416.920079,80.517364 417.576081,80.8324503 418.285698,81.1723076 C418.995316,81.5121648 419.706552,81.904807 420.419428,82.3502458 C421.132304,82.7956847 421.709673,83.3286239 422.151551,83.9490794 C422.729392,84.7604442 423.051683,85.6548795 423.118435,86.6324121 C423.185187,87.6099447 423.063739,88.6135943 422.754087,89.643391 C422.444435,90.6731877 421.996033,91.6848958 421.408865,92.6785458 C420.821698,93.6721958 420.174155,94.6189189 419.466215,95.5187435 C418.758276,96.418568 418.023226,97.2297941 417.261042,97.9524461 C416.498858,98.675098 415.807549,99.2573543 415.187093,99.6992324 C414.97232,99.8521902 414.637419,100.063726 414.18238,100.333846 C413.727341,100.603966 413.255314,100.850219 412.766284,101.072612 C412.277254,101.295005 411.803686,101.425463 411.345564,101.46399 C410.887442,101.502517 410.556414,101.378601 410.35247,101.092237 C410.318479,101.044509 410.264962,100.956739 410.191918,100.828923 C410.118873,100.701107 410.057761,100.564795 410.00858,100.419984 C409.959399,100.275173 409.928931,100.144012 409.917174,100.026499 C409.905418,99.9089853 409.947267,99.8162393 410.042721,99.7482581 C412.033182,98.6543921 413.757306,97.4264992 415.215146,96.0645426 C416.672986,94.702586 417.84046,93.3496108 418.717601,92.0055765 C419.594742,90.6615421 420.144827,89.3885911 420.367873,88.1866853 C420.590919,86.9847794 420.422022,85.9900908 419.861177,85.2025897 C419.334322,84.4628158 418.722149,83.855755 418.024639,83.381389 C417.327129,82.907023 416.581727,82.5926634 415.788411,82.4383009 C414.995095,82.2839384 414.178566,82.2989775 413.338801,82.4834187 C412.499036,82.6678599 411.697346,83.0320001 410.933709,83.57585 C410.170071,84.1197 409.463396,84.730883 408.813663,85.4094174 C408.163929,86.0879518 407.526951,86.7843734 406.90271,87.4987033 C406.278469,88.2130332 405.635526,88.9137036 404.97386,89.6007356 C404.312195,90.2877676 403.599554,90.9031994 402.835916,91.4470494 C402.360047,90.7788666 402.235092,90.0226355 402.461045,89.1783336 C402.686999,88.3340317 403.131792,87.4687619 403.795438,86.5824985 C404.459084,85.696235 405.272593,84.7931654 406.235989,83.8732625 C407.199384,82.9533595 408.178858,82.0939434 409.17444,81.2949881 C410.170021,80.4960328 411.127173,79.7694064 412.045924,79.1150868 L414.211542,77.57277 Z M427.683002,102.567016 L427.176852,101.44547 C426.935827,100.911398 426.732498,100.336217 426.566859,99.7199097 C426.401219,99.1036027 426.319767,98.5135965 426.322499,97.9498733 C426.325231,97.3861501 426.526871,97.0139097 426.927425,96.8331409 C427.034239,96.7849359 427.196821,96.7356696 427.415175,96.6853406 C427.633529,96.6350117 427.790909,96.7166604 427.887319,96.9302893 L430.109725,100.893285 C431.145963,100.554203 431.989889,100.269768 432.641526,100.039971 C433.293163,99.8101737 433.88666,99.5584017 434.422032,99.2846474 C434.957405,99.0108931 435.51646,98.7184161 436.099215,98.4072075 C436.681969,98.0959989 437.447974,97.710126 438.397253,97.2495773 C438.584178,97.1652186 438.749122,97.1389925 438.89209,97.1708983 C439.035059,97.2028041 439.16036,97.2667879 439.267998,97.3628517 C439.375635,97.4589154 439.475946,97.5743549 439.568931,97.7091735 C439.661917,97.8439921 439.726485,97.9514552 439.762639,98.031566 C439.834946,98.1917876 439.856859,98.3827849 439.828378,98.6045633 C439.799897,98.8263418 439.735674,99.0401406 439.635709,99.2459662 C439.535744,99.4517917 439.417053,99.6339238 439.279633,99.7923677 C439.142213,99.9508117 438.993395,100.066186 438.833173,100.138493 L431.487462,103.839294 L432.881845,107.35635 C433.140124,107.786209 433.243143,108.24595 433.190905,108.735588 C433.138668,109.225226 432.811488,109.621981 432.209356,109.925863 C431.717594,109.762086 431.335904,109.468285 431.064274,109.044452 C430.792643,108.620619 430.552033,108.158688 430.342437,107.658645 C430.132841,107.158603 429.912909,106.671269 429.682634,106.19663 C429.45236,105.721991 429.132703,105.351982 428.723653,105.086593 C428.563431,105.1589 428.128853,105.371095 427.419907,105.723182 C426.710961,106.075269 425.868509,106.487607 424.892527,106.960207 C423.916545,107.432807 422.876832,107.942203 421.773357,108.488411 C420.669882,109.034619 419.650197,109.534977 418.71427,109.9895 C417.778343,110.444023 416.979609,110.828596 416.318045,111.143229 C415.65648,111.457862 415.285648,111.633253 415.205537,111.669406 C414.554508,111.223941 414.364942,110.714868 414.636834,110.142172 C414.908726,109.569475 415.42738,108.973813 416.192812,108.355167 C416.958243,107.73652 417.900659,107.11836 419.020087,106.500668 C420.139514,105.882976 421.26365,105.311374 422.392528,104.785843 C423.521406,104.260313 424.572519,103.793985 425.545901,103.386843 C426.519282,102.979702 427.231642,102.706429 427.683002,102.567016 Z" id="les-nuages-nous-repo" fill="#FFFFFF"></path>
        </g>
    </g>
</svg>