<?xml version="1.0" encoding="UTF-8"?>
<svg width="207px" height="348px" viewBox="0 0 207 348" version="1.1" xmlns="http://www.w3.org/2000/svg" xmlns:xlink="http://www.w3.org/1999/xlink">
    <!-- Generator: Sketch 52.6 (67491) - http://www.bohemiancoding.com/sketch -->
    <title>Group 3</title>
    <desc>Created with Sketch.</desc>
    <g id="Maquettes" stroke="none" stroke-width="1" fill="none" fill-rule="evenodd">
        <g id="Illustration" transform="translate(-999.000000, -87.000000)">
            <g id="Moon" transform="translate(1001.000000, -83.000000)">
                <g id="Group-2">
                    <g id="Group-3">
                        <circle id="background-copy" transform="translate(262.500000, 262.500000) rotate(-360.000000) translate(-262.500000, -262.500000) " cx="262.5" cy="262.5" r="262.5"></circle>
                        <path d="M27.1804536,170.766154 C28.2065893,171.115553 29.243321,171.615564 30.2906798,172.266203 C31.3380386,172.916842 32.2502459,173.691673 33.0273291,174.59072 C33.8044122,175.489767 34.3562158,176.482312 34.6827562,177.568387 C35.0092966,178.654461 34.9553739,179.835348 34.5209864,181.111084 C34.2943494,181.776686 33.9706504,182.409227 33.5498797,183.008726 C33.1291089,183.608225 32.6180633,184.200186 32.0167273,184.784626 C31.4153914,185.369065 30.7422222,185.959983 29.9971996,186.557395 C29.2521769,187.154807 28.4421074,187.784218 27.5669666,188.445646 C28.6385297,188.934308 29.7966798,189.282235 31.0414516,189.489437 C32.2862234,189.69664 33.529063,189.841291 34.7700075,189.923395 C36.0109521,190.005499 37.1918396,190.059422 38.3127054,190.085165 C39.4335713,190.110908 40.4197317,190.191371 41.2712163,190.326557 C42.1227008,190.461743 42.7930139,190.67451 43.2821756,190.964865 C43.7713373,191.255219 43.9908163,191.701332 43.9406192,192.303216 C43.1309847,192.863153 42.1279767,193.241179 40.9315652,193.437303 C39.7351536,193.633427 38.4052638,193.698985 36.9418559,193.633979 C35.4784479,193.568972 33.9485374,193.403944 32.3520784,193.13889 C30.7556194,192.873836 29.1525492,192.560104 27.5428197,192.197685 C25.9330903,191.835266 24.3767882,191.45235 22.873867,191.048927 C21.3709457,190.645504 19.9835514,190.289153 18.7116424,189.979864 C17.4397334,189.670575 16.3504686,189.415737 15.4438154,189.215343 C14.5371621,189.014949 13.8705272,188.950439 13.4438906,189.021811 C13.0001562,188.87072 12.7771241,188.616825 12.7747873,188.260118 C12.7724506,187.903411 12.8279407,187.558662 12.9412592,187.225861 C13.0356912,186.948527 13.219956,186.748209 13.4940589,186.624899 C13.7681618,186.501589 14.0627623,186.431685 14.3778691,186.415183 C14.6929759,186.398681 15.0403834,186.400917 15.4201021,186.42189 C15.7998208,186.442864 16.1541615,186.44746 16.483135,186.43568 C16.8121085,186.4239 17.0972659,186.381729 17.3386157,186.309164 C17.5799655,186.2366 17.7384109,186.089386 17.8139565,185.867519 C17.832843,185.812052 17.8518781,185.733426 17.8710627,185.631637 C17.8902472,185.529849 17.8859728,185.474234 17.8582394,185.46479 C17.316592,184.692333 16.8264424,183.836836 16.387776,182.898276 C15.9491095,181.959716 15.6172563,180.980167 15.3922062,179.959599 C15.1671562,178.939031 15.0602728,177.91229 15.0715528,176.879346 C15.0828329,175.846402 15.249005,174.858477 15.570074,173.915541 C15.9289158,172.861672 16.58956,172.057589 17.5520263,171.503267 C18.5144927,170.948946 19.5731156,170.566646 20.7279271,170.356357 C21.8827385,170.146068 23.0457832,170.093333 24.2170962,170.198151 C25.3884091,170.302969 26.3761851,170.492301 27.1804536,170.766154 Z M25.5534418,173.090382 C24.4606074,173.027761 23.5020309,172.979901 22.6776835,172.946802 C21.8533362,172.913702 21.1511407,172.976351 20.5710761,173.134751 C19.9910114,173.29315 19.5075738,173.55408 19.1207486,173.917547 C18.7339234,174.281014 18.4177539,174.823274 18.1722305,175.544342 C17.8700479,176.431811 17.8055138,177.46208 17.9786262,178.635182 C18.1517386,179.808284 18.4940542,180.961611 19.0055833,182.0952 C19.5171124,183.228788 20.1568364,184.235796 20.9247745,185.116255 C21.6927125,185.996713 22.5204035,186.588025 23.4078722,186.890208 L24.4062695,187.230161 C26.3488961,186.251338 27.8422991,185.251109 28.8865232,184.229445 C29.9307474,183.207781 30.6250385,182.213991 30.9694174,181.248043 C31.3137963,180.282096 31.3868792,179.363056 31.1886682,178.490897 C30.9904573,177.618737 30.6110906,176.824174 30.0505567,176.107183 C29.4900229,175.390191 28.8038048,174.76968 27.9918817,174.24563 C27.1799587,173.721581 26.3671535,173.336502 25.5534418,173.090382 Z M21.6486286,192.686655 C23.1289935,193.046383 24.4916705,193.61117 25.7367002,194.38103 C26.9817299,195.150891 28.014625,196.08024 28.8354164,197.169105 C29.6562077,198.25797 30.2256275,199.481708 30.5436927,200.840356 C30.8617578,202.199003 30.827091,203.675425 30.4396912,205.269664 C30.0975278,206.181455 29.6424293,206.937654 29.0743821,207.538284 C28.5063348,208.138913 27.8769046,208.588945 27.1860724,208.888391 C26.4952402,209.187838 25.7412975,209.343808 24.9242214,209.356306 C24.1425318,209.347253 23.3246709,209.23896 22.4706142,209.031425 C21.4457461,208.782382 20.5931683,208.25864 19.912855,207.460182 C19.2325418,206.661725 18.72551,205.739564 18.3917445,204.693672 C18.057979,203.64778 17.8696194,202.561863 17.8266601,201.435889 C17.7837009,200.309915 17.8729056,199.291446 18.0942769,198.380452 L18.3485068,197.334238 C18.43498,196.978381 18.5697409,196.67195 18.7527937,196.414936 C18.9358465,196.157922 19.1619972,195.971683 19.4312528,195.856215 C19.7005084,195.740746 20.0628792,195.738355 20.5183762,195.849041 C20.6607189,195.88363 20.7765202,195.934381 20.8657834,196.001297 C20.9550465,196.068212 20.9968164,196.206496 20.9910943,196.416153 C20.9853721,196.625809 20.9198528,196.926454 20.7945343,197.318096 C20.6407472,197.70282 20.4239055,198.222961 20.1440028,198.878535 C20.0471529,199.277095 20.042292,199.886434 20.1294202,200.70657 C20.2165483,201.526707 20.3785037,202.380089 20.6152911,203.266742 C20.8520784,204.153395 21.1788571,204.948844 21.5956369,205.653114 C22.0124167,206.357383 22.4912507,206.775231 23.0321533,206.90667 C23.6015244,207.045027 24.1862527,207.089131 24.7863556,207.038984 C25.3864585,206.988836 25.9449818,206.830603 26.4619423,206.56428 C26.9789028,206.297957 27.426016,205.946831 27.8032955,205.510891 C28.180575,205.074952 28.416839,204.536919 28.5120947,203.896775 C28.6688139,202.879622 28.6180052,201.91004 28.3596672,200.988001 C28.1013291,200.065961 27.6783708,199.232066 27.0907797,198.486289 C26.5031886,197.740513 25.806189,197.10383 24.9997601,196.576223 C24.1933312,196.048615 23.3061646,195.667213 22.3382337,195.432006 C21.5980512,195.252142 20.8544209,195.086515 20.1073206,194.935119 C19.3602202,194.783723 18.6083413,194.714076 17.8516613,194.726176 C17.0949814,194.738275 16.3391098,194.871164 15.5840241,195.124848 C14.8289384,195.378531 14.107186,195.836277 13.4187453,196.4981 C12.7303045,197.159923 12.0771248,198.048883 11.4591865,199.165007 C10.8412483,200.281131 10.2751313,201.711321 9.76081866,203.455618 L8.41581558,211.223908 C7.90019299,210.616218 7.52785108,209.915219 7.29877871,209.120889 C7.06970633,208.32656 6.92930137,207.508564 6.87755962,206.666876 C6.82581788,205.825189 6.83640076,205.006197 6.90930859,204.209874 C6.98221642,203.413552 7.1016828,202.673779 7.2677113,201.990534 C7.66894684,200.339357 8.31641147,198.853563 9.21012462,197.533106 C10.1038378,196.212649 11.176659,195.116633 12.4286206,194.245025 C13.6805821,193.373417 15.0889644,192.788567 16.6538097,192.490459 C18.218655,192.19235 19.883578,192.257748 21.6486286,192.686655 Z M16.6445086,235.760342 L16.7690112,234.536189 C16.8282984,233.953255 16.9408139,233.353659 17.106561,232.737381 C17.2723081,232.121103 17.4977031,231.569796 17.7827527,231.083444 C18.0678024,230.597093 18.4289217,230.376153 18.8661217,230.420618 C18.9827084,230.432476 19.1480759,230.47138 19.3622294,230.537333 C19.5763828,230.603286 19.6716006,230.752846 19.6478857,230.98602 L19.5833722,235.529175 C20.6499413,235.755443 21.5227217,235.932553 22.2017396,236.060509 C22.8807575,236.188464 23.5204923,236.268252 24.1209633,236.299875 C24.7214343,236.331498 25.3517835,236.358798 26.01203,236.381776 C26.6722765,236.404754 27.5285091,236.455028 28.5807533,236.532598 C28.78478,236.553349 28.9406377,236.613372 29.0483313,236.712669 C29.1560249,236.811967 29.2323474,236.930158 29.2773011,237.067247 C29.3222548,237.204335 29.3511525,237.354513 29.3639952,237.517784 C29.3768379,237.681055 29.3788127,237.806409 29.3699196,237.893849 C29.3521334,238.068729 29.275314,238.244964 29.139459,238.42256 C29.003604,238.600156 28.840828,238.752925 28.6511262,238.880872 C28.4614244,239.008819 28.2674032,239.106877 28.0690568,239.175049 C27.8707104,239.24322 27.6841,239.268413 27.50922,239.250626 L19.2980495,238.768885 L18.7407696,242.511 C18.7486688,243.012422 18.6072556,243.461841 18.3165257,243.859271 C18.0257958,244.2567 17.5437693,244.435896 16.8704317,244.396862 C16.5270974,244.008565 16.3441967,243.562972 16.3217242,243.060067 C16.2992517,242.557163 16.3227221,242.036853 16.3921361,241.499122 C16.4615501,240.961391 16.5156489,240.429473 16.5544341,239.90335 C16.5932192,239.377228 16.5022037,238.896808 16.2813848,238.462076 C16.1065048,238.444289 15.6241099,238.409951 14.8341856,238.35906 C14.0442614,238.308169 13.1086178,238.242457 12.0272268,238.161922 C10.9458359,238.081388 9.79085455,238.00073 8.56224811,237.919947 C7.33364168,237.839164 6.20051999,237.760729 5.16284905,237.684641 C4.12517812,237.608553 3.24128151,237.540742 2.51113273,237.481206 C1.78098395,237.42167 1.37219569,237.387457 1.2847557,237.378563 C0.944882715,236.666689 1.03615536,236.131189 1.55857638,235.772048 C2.0809974,235.412907 2.82842853,235.157637 3.80089219,235.006233 C4.77335584,234.854828 5.89869837,234.792594 7.17695352,234.819531 C8.45520867,234.846467 9.71442507,234.91564 10.9546405,235.027052 C12.1948559,235.138464 13.3381042,235.2621 14.3844197,235.397964 C15.4307353,235.533828 16.1840907,235.654619 16.6445086,235.760342 Z M8.11258673,244.041602 C8.60951001,244.086085 9.17605685,244.249935 9.81224424,244.533155 C10.4484316,244.816376 11.0654976,245.245559 11.6634606,245.82072 C12.2614237,246.39588 12.7890208,247.115434 13.2462677,247.979405 C13.7035146,248.843375 14.0169667,249.856821 14.1866336,251.019773 C14.3563004,252.182725 14.3307082,253.500904 14.1098561,254.97435 C13.889004,256.447796 13.3994678,258.08155 12.6412328,259.875661 L13.0804812,259.889072 L13.477146,259.857218 C14.2385137,259.880464 15.0212171,259.684535 15.8252797,259.269425 C16.6293423,258.854315 17.3566646,258.3123 18.0072684,257.643364 C18.6578722,256.974428 19.1928992,256.25068 19.6123653,255.472099 C20.0318315,254.693518 20.2527375,253.938197 20.2750899,253.206113 C20.2840308,252.913279 20.2479296,252.655712 20.1667852,252.433405 C20.0856408,252.211097 19.9823119,251.995443 19.8567954,251.786436 C19.7312789,251.577429 19.6201822,251.376193 19.523502,251.182721 C19.4268218,250.98925 19.3825058,250.760743 19.3905527,250.497192 C19.3923409,250.438626 19.4078764,250.40979 19.4371598,250.410684 L19.5276918,250.325516 C19.5880467,250.268738 19.6637128,250.190445 19.7546922,250.090635 C19.8456717,249.990826 19.9058022,249.941369 19.9350856,249.942263 C20.4621863,249.958357 20.9131661,250.067385 21.2880383,250.26935 C21.6629106,250.471315 21.9623347,250.744249 22.1863196,251.088161 C22.4103045,251.432072 22.5816997,251.818339 22.7005105,252.246971 C22.8193213,252.675603 22.8715732,253.12418 22.8572676,253.592714 C22.7043703,254.760472 22.3114557,255.869592 21.678512,256.920106 C21.0455683,257.970621 20.2615809,258.928576 19.3265264,259.794002 C18.3914718,260.659428 17.3206901,261.410783 16.1141492,262.04809 C14.9076083,262.685397 13.6605139,263.211542 12.3728286,263.626541 C11.0851433,264.04154 9.79485051,264.302574 8.50191153,264.409651 C7.14951169,264.544223 5.88989841,264.520419 4.72303388,264.338238 C4.72392798,264.308954 4.73393096,264.221329 4.75304313,264.075359 C4.77215529,263.92939 4.79171422,263.76878 4.81172048,263.593527 C4.83172674,263.418274 4.85815936,263.27253 4.89101912,263.15629 L4.94164965,262.938007 C6.3367443,262.365079 7.4705068,261.710905 8.34297118,260.975466 C9.21543556,260.240027 9.90464498,259.506332 10.4106201,258.774359 C10.9165953,258.042385 11.2745835,257.357197 11.4845955,256.718775 C11.6946076,256.080352 11.849795,255.557506 11.9501625,255.150221 C11.9635739,254.71097 11.950161,254.190304 11.9099232,253.588207 C11.8696854,252.98611 11.7861944,252.360718 11.6594476,251.712013 C11.5327008,251.063308 11.3549344,250.405728 11.1261428,249.739252 C10.8973513,249.072776 10.6150829,248.477953 10.2793291,247.954765 C9.94357523,247.431577 9.53881055,247.008875 9.06502287,246.686647 C8.59123519,246.364419 8.03223261,246.193473 7.38799835,246.173803 C6.68519735,246.152344 6.08372411,246.412427 5.5835606,246.954058 C5.08339708,247.49569 4.66751355,248.157127 4.33589752,248.938391 C4.00428148,249.719654 3.76739293,250.518452 3.62522474,251.33481 C3.48305655,252.151169 3.40437382,252.808246 3.38917418,253.306064 C3.36413949,254.125998 3.38347663,254.93262 3.44718616,255.725954 C3.51089569,256.519287 3.58946926,257.305735 3.68290921,258.085321 C3.77634917,258.864907 3.85536977,259.636713 3.9199734,260.400763 C3.98457703,261.164813 4.00525528,261.92751 3.98200879,262.688878 L3.97262083,262.996352 C3.96815035,263.142769 3.95613568,263.296281 3.93657646,263.456892 C3.91701725,263.617504 3.9052261,263.763695 3.90120267,263.89547 L3.89248527,264.180982 C3.79748238,264.412566 3.6616858,264.540316 3.48509145,264.564235 C3.3084971,264.588154 3.13235245,264.597431 2.9566522,264.592066 C2.78095194,264.586702 2.59620088,264.397872 2.40239345,264.025571 C2.20858603,263.65327 2.01813432,263.171164 1.83103261,262.579238 C1.64393091,261.987311 1.45152296,261.329284 1.253803,260.605136 C1.05608304,259.880987 0.894075633,259.18725 0.767775918,258.523904 C0.641476203,257.860557 0.535799461,257.241816 0.450742521,256.667661 C0.36568558,256.093506 0.326734079,255.6893 0.333886847,255.455033 C0.371438881,254.225132 0.513715834,252.92517 0.760721974,251.55511 C1.00772811,250.18505 1.4195311,248.937284 1.99614329,247.811773 C2.57275547,246.686262 3.35562524,245.76491 4.34477606,245.047689 C5.33392689,244.330468 6.58985122,243.995109 8.11258673,244.041602 Z M17.2006452,266.122469 C17.4639777,266.109069 17.6370544,266.195598 17.7198804,266.38206 C17.8027065,266.568522 17.8500746,266.778787 17.8619862,267.01286 C17.8709199,267.188415 17.8333598,267.314998 17.7493047,267.392613 C17.6652496,267.470228 17.5654497,267.526642 17.449902,267.561857 C17.3343543,267.597072 17.2268675,267.646543 17.1274383,267.710273 C17.0280091,267.774002 16.9820176,267.879014 16.9894624,268.025309 C17.0103077,268.434938 17.1965424,268.924147 17.5481722,269.492952 C17.899802,270.061756 18.2832908,270.680266 18.6986502,271.3485 C19.1140096,272.016734 19.5023375,272.730335 19.8636455,273.489325 C20.2249534,274.248314 20.4249607,275.008166 20.4636734,275.768904 C20.5142977,276.763716 20.3048129,277.691079 19.8352127,278.551022 C19.3656124,279.410964 18.7233148,280.191679 17.9083005,280.89319 C17.0932862,281.594701 16.1710396,282.206321 15.141533,282.72807 C14.1120264,283.249819 13.0568689,283.69953 11.9760288,284.077216 C10.8951888,284.454903 9.83915683,284.743318 8.80790137,284.942472 C7.77664591,285.141625 6.88066253,285.260557 6.11992434,285.299269 C5.8565919,285.31267 5.46048245,285.310826 4.93158413,285.293739 C4.40268581,285.276651 3.8723065,285.230305 3.34043027,285.154699 C2.80855405,285.079093 2.33916785,284.934306 1.93225758,284.720333 C1.5253473,284.506361 1.31296165,284.223824 1.29509425,283.872714 C1.29211635,283.814196 1.29421978,283.711418 1.30140461,283.564378 C1.30858944,283.417338 1.33040353,283.269555 1.36684752,283.121026 C1.40329151,282.972497 1.44816633,282.845541 1.50147333,282.740156 C1.55478032,282.634771 1.63995087,282.579102 1.75698751,282.573146 C4.02334345,282.721829 6.13728611,282.614254 8.09887892,282.250418 C10.0604717,281.886581 11.7724616,281.374111 13.2348998,280.712991 C14.697338,280.051871 15.8458375,279.274731 16.6804327,278.381547 C17.515028,277.488363 17.9077521,276.559008 17.8586167,275.593456 C17.8124593,274.686422 17.6229868,273.845364 17.2901935,273.070256 C16.9574002,272.295148 16.498159,271.629158 15.9124559,271.072265 C15.3267529,270.515371 14.6303516,270.088792 13.8232314,269.792513 C13.0161111,269.496234 12.1444175,269.37192 11.2081243,269.419567 C10.2718312,269.467213 9.34733353,269.602263 8.43460367,269.824719 C7.5218738,270.047176 6.61027432,270.291574 5.69977788,270.55792 C4.78928143,270.824265 3.87036727,271.069035 2.94300783,271.292236 C2.01564838,271.515438 1.08383606,271.65086 0.147542909,271.698506 C0.105852307,270.87925 0.407337808,270.174547 1.05200846,269.584377 C1.69667911,268.994207 2.53710526,268.504088 3.57331212,268.114006 C4.60951899,267.723923 5.78109688,267.400293 7.08808094,267.143106 C8.39506501,266.885918 9.68306328,266.688369 10.9521144,266.550452 C12.2211655,266.412535 13.418912,266.314915 14.5453897,266.257591 L17.2006452,266.122469 Z M16.7877572,290.542916 L16.6429389,289.320999 C16.5739775,288.739131 16.5533438,288.129418 16.5810372,287.491841 C16.6087306,286.854265 16.7087787,286.267126 16.8811847,285.730407 C17.0535907,285.193688 17.3579897,284.899472 17.7943908,284.847751 C17.9107644,284.833959 18.080635,284.835952 18.3040077,284.853732 C18.5273803,284.871511 18.6528571,284.996773 18.6804416,285.22952 L19.605925,289.67788 C20.6961733,289.666675 21.5865797,289.649651 22.2771709,289.626809 C22.9677621,289.603966 23.6095314,289.542656 24.2024982,289.442877 C24.7954649,289.343098 25.4166538,289.232599 26.0660833,289.111378 C26.7155128,288.990156 27.5621722,288.852935 28.6060867,288.699711 C28.8097405,288.675575 28.9749239,288.70025 29.1016417,288.773738 C29.2283596,288.847226 29.3285686,288.94598 29.4022717,289.070005 C29.4759748,289.194029 29.5368544,289.334322 29.5849122,289.490887 C29.63297,289.647453 29.6621705,289.769374 29.6725148,289.856654 C29.6932032,290.031215 29.6565674,290.219942 29.5626062,290.422841 C29.4686451,290.625741 29.3430063,290.810265 29.1856862,290.976421 C29.0283662,291.142576 28.8603272,291.280498 28.6815643,291.390191 C28.5028013,291.499884 28.3261423,291.565073 28.1515819,291.585762 L20.032299,292.90206 L20.3025384,296.675779 C20.4193424,297.163471 20.3790966,297.632891 20.1817997,298.084054 C19.9845028,298.535217 19.5530107,298.814994 18.8873104,298.923393 C18.4677193,298.619097 18.1922525,298.223971 18.0609017,297.738003 C17.929551,297.252036 17.8392557,296.739083 17.790013,296.199131 C17.7407704,295.659179 17.6778441,295.128233 17.6012321,294.606275 C17.5246201,294.084318 17.3312602,293.635209 17.0211465,293.258934 C16.8465861,293.279622 16.3682761,293.351061 15.5862022,293.473252 C14.8041283,293.595443 13.8766013,293.734873 12.8035933,293.891545 C11.7305854,294.048217 10.5857231,294.22078 9.36897218,294.409239 C8.15222124,294.597698 7.02917869,294.767675 5.99981085,294.919175 C4.97044301,295.070675 4.0929667,295.196798 3.36735559,295.297546 C2.64174447,295.398295 2.2353049,295.45384 2.14802469,295.464184 C1.66141136,294.843309 1.6339892,294.300779 2.0657574,293.836578 C2.49752559,293.372377 3.17151312,292.960605 4.08774021,292.601249 C5.00396729,292.241892 6.08881202,291.93631 7.34230693,291.684492 C8.59580183,291.432674 9.83990349,291.226223 11.0746492,291.065133 C12.3093949,290.904043 13.452156,290.775982 14.5029667,290.680945 C15.5537774,290.585908 16.3153666,290.539899 16.7877572,290.542916 Z M6.95518045,322.347044 C7.93979069,321.441908 9.04490885,320.597718 10.2705681,319.814452 C11.4962273,319.031185 12.7535418,318.315573 14.0425492,317.667596 C15.3315566,317.019618 16.6006804,316.444393 17.8499587,315.941905 C19.0992371,315.439416 20.2432728,315.030614 21.2821001,314.715487 C21.4812757,314.666635 21.6982988,314.598323 21.9331759,314.510548 C22.1680531,314.422774 22.4152741,314.354596 22.6748464,314.306013 C22.9344188,314.25743 23.1867394,314.24079 23.4318159,314.256092 C23.6768924,314.271395 23.9057248,314.34347 24.1183202,314.472318 L24.1392568,314.557679 C24.1462357,314.586133 24.1568384,314.598615 24.1710652,314.595125 C24.1852921,314.591636 24.1958948,314.604118 24.2028737,314.632571 C24.2098526,314.661025 24.2062287,314.676996 24.1920018,314.680486 C24.177775,314.683975 24.1776405,314.714173 24.1915983,314.77108 L24.2125349,314.856441 C24.1980391,314.920327 24.1760266,315.076551 24.1464969,315.325117 C24.1169672,315.573683 24.0807281,315.733396 24.0377786,315.804261 C24.3341208,316.274553 24.6695144,316.750342 25.0439697,317.23164 C25.4184249,317.712939 25.7803926,318.204833 26.1298836,318.707338 C26.4793746,319.209842 26.7950386,319.728176 27.0768849,320.262355 C27.3587313,320.796533 27.5659509,321.333924 27.6985501,321.874543 C27.7962547,322.272895 27.8675184,322.624936 27.9123432,322.930678 C27.9571681,323.23642 27.9806523,323.547392 27.9827967,323.863603 C27.984941,324.179813 27.9780928,324.520849 27.9622519,324.886719 C27.946411,325.252589 27.9231879,325.680594 27.8925821,326.170747 C27.7776914,326.440249 27.6646817,326.686663 27.5535495,326.909996 C27.4424173,327.133329 27.3064574,327.347666 27.1456658,327.553013 C26.9848742,327.75836 26.7726817,327.938606 26.5090818,328.093756 C26.245482,328.248906 25.8860583,328.382311 25.4307998,328.493973 C25.2622301,328.052672 25.1669441,327.510451 25.1449391,326.867292 C25.1229341,326.224134 25.1295172,325.543808 25.1646885,324.826295 C25.1998599,324.108782 25.2013433,323.376918 25.169139,322.630682 C25.1369347,321.884447 25.02635,321.187611 24.8373815,320.540156 C24.6484131,319.892701 24.3134229,319.326319 23.832401,318.840993 C23.4013075,318.313255 22.7600417,317.912489 21.9085842,317.638682 C21.034576,317.641895 20.2027226,317.755431 19.4129992,317.979294 C18.6232758,318.203157 17.8723512,318.492915 17.1602028,318.848578 C16.4480545,319.204241 15.7481297,319.609692 15.0604074,320.064942 C14.3726852,320.520193 13.6814839,320.96121 12.9867828,321.388007 C12.2920817,321.814804 11.5992702,322.21851 10.9083275,322.599137 C10.2173849,322.979764 9.49477898,323.292742 8.74048815,323.53808 C8.45595162,323.607869 8.11169604,323.526398 7.70771109,323.293665 C7.30372614,323.060932 7.0528851,322.745395 6.95518045,322.347044 Z M20.9769375,329.948009 C22.4254019,329.475954 23.8815248,329.240204 25.34535,329.240754 C26.8091753,329.241304 28.1763591,329.489033 29.4469427,329.983951 C30.7175262,330.478868 31.8451503,331.220648 32.829849,332.209313 C33.8145476,333.197977 34.5610692,334.472233 35.0694363,336.032117 C35.2575895,336.987647 35.2678856,337.870169 35.100325,338.67971 C34.9327645,339.489252 34.6338284,340.202938 34.203508,340.82079 C33.7731875,341.438643 33.213765,341.967607 32.5252236,342.407698 C31.8554594,342.810856 31.1027623,343.1486 30.2671098,343.420939 C29.2643268,343.747747 28.2637327,343.750303 27.2652976,343.428608 C26.2668626,343.106912 25.3508239,342.588901 24.5171543,341.87456 C23.6834847,341.160218 22.952479,340.335399 22.3241152,339.40008 C21.6957514,338.464761 21.2363287,337.551433 20.9458332,336.660071 L20.612219,335.636402 C20.4987442,335.288213 20.4523277,334.956692 20.4729682,334.64183 C20.4936087,334.326967 20.5881139,334.049662 20.7564867,333.809908 C20.9248594,333.570154 21.2318819,333.377656 21.6775632,333.232408 C21.8168386,333.187018 21.9420293,333.169328 22.0531391,333.179338 C22.1642489,333.189347 22.2724664,333.285035 22.3777949,333.466404 C22.4831234,333.647772 22.5854045,333.937977 22.6846412,334.337026 C22.7560228,334.745153 22.8449379,335.301625 22.9513892,336.006459 C23.078481,336.39643 23.394617,336.917368 23.8998069,337.569286 C24.4049968,338.221205 24.9913183,338.862078 25.6587891,339.491923 C26.3262599,340.121768 27.0223518,340.626723 27.7470856,341.006804 C28.4718194,341.386885 29.0988002,341.490683 29.6280468,341.318202 C30.1851485,341.136642 30.7057751,340.866827 31.1899423,340.508748 C31.6741096,340.150669 32.0660935,339.722493 32.365906,339.224208 C32.6657185,338.725922 32.8615373,338.192204 32.9533683,337.623038 C33.0451993,337.053872 32.9634032,336.47197 32.7079774,335.877314 C32.3066827,334.92962 31.7538417,334.131474 31.0494378,333.482852 C30.3450339,332.83423 29.5469118,332.34712 28.6550475,332.021507 C27.7631832,331.695893 26.8355822,331.520595 25.8722168,331.495607 C24.9088514,331.470619 23.9536466,331.612448 23.0065738,331.921099 C22.2823416,332.157127 21.5626592,332.407078 20.847505,332.670961 C20.1323509,332.934844 19.4560988,333.270784 18.8187286,333.678791 C18.1813584,334.086799 17.6081639,334.597141 17.0991277,335.209834 C16.5900915,335.822526 16.2166694,336.5913 15.97885,337.51618 C15.7410306,338.44106 15.6525931,339.540638 15.713535,340.814948 C15.7744768,342.089259 16.0445786,343.603516 16.5238484,345.357765 L19.4626638,352.673414 C18.7046043,352.427449 18.0193939,352.026793 17.4070121,351.471435 C16.7946303,350.916077 16.2452413,350.293982 15.7588285,349.60513 C15.2724158,348.916278 14.8509527,348.213975 14.4944268,347.4982 C14.1379009,346.782424 13.8507065,346.090286 13.6328349,345.421764 C13.1063118,343.806169 12.8761884,342.20185 12.9424578,340.608759 C13.0087272,339.015668 13.3453364,337.519376 13.9522954,336.119837 C14.5592544,334.720299 15.4500066,333.482498 16.6245786,332.406398 C17.7991505,331.330299 19.2499224,330.510844 20.9769375,329.948009 Z M3.16557477,354.063034 C3.50006571,353.79831 3.8414009,353.665451 4.18959059,353.664451 C4.53778028,353.663452 4.85134621,353.732189 5.13029779,353.870665 C5.40924937,354.009141 5.62886608,354.195854 5.78915451,354.430809 C5.94944295,354.665764 6.00495224,354.896394 5.95568406,355.122707 C5.90641587,355.34902 5.72765954,355.549509 5.41940971,355.724182 C5.11115987,355.898855 4.62797972,355.995147 3.96985477,356.013059 C3.37401089,356.258812 2.89504425,356.749499 2.53294049,357.485132 C2.17083674,358.220765 1.92434266,359.083005 1.79345088,360.071878 C1.6625591,361.060751 1.60301311,362.107333 1.61481112,363.211655 C1.62660914,364.315977 1.68140335,365.370858 1.7791954,366.37633 C1.87698744,367.381802 2.00338998,368.264541 2.15840681,369.024573 C2.29108242,369.730438 2.42444189,370.245865 2.55848923,370.570871 C2.83775451,371.247966 3.25116858,371.750881 3.79874385,372.079629 C4.34631911,372.408378 4.97429367,372.624732 5.68268638,372.728696 C6.39107909,372.832661 7.14601443,372.838197 7.94751505,372.745305 C8.74901567,372.652412 9.530956,372.512125 10.2933595,372.324439 C11.055763,372.136753 11.7810868,371.916823 12.4693527,371.664641 C13.1576186,371.41246 13.7319554,371.191422 14.1923802,371.001522 C14.4090507,370.912157 14.8001531,370.72708 15.3656992,370.446286 C15.9312452,370.165492 16.5764261,369.828086 17.301261,369.434058 C18.0260959,369.040029 18.7724181,368.621294 19.5402501,368.177841 C20.308082,367.734387 21.0161504,367.299739 21.6644765,366.873884 C22.3128025,366.44803 22.8229092,366.071262 23.1948119,365.743572 C23.5667145,365.415881 23.7191517,365.170788 23.6521281,365.008285 C23.5404219,364.737447 23.327919,364.452728 23.0146129,364.15412 C22.7013068,363.855512 22.3688784,363.548953 22.0173179,363.234432 C21.6657573,362.919911 21.3249511,362.593038 20.9948891,362.253805 C20.664827,361.914571 20.4216054,361.555373 20.2652168,361.1762 C19.9524397,360.417853 19.8077529,359.606037 19.8311522,358.740726 C19.8545514,357.875416 20.0146314,357.072585 20.3113969,356.332209 C20.6081624,355.591833 21.0416046,354.913934 21.6117364,354.298493 C22.1818682,353.683051 22.8460975,353.218949 23.6044443,352.906172 C24.796132,352.414665 26.1126267,352.148975 27.5539678,352.109093 C28.9953089,352.069212 30.4009026,352.250055 31.7707911,352.651628 C33.1406796,353.053201 34.3824012,353.68192 35.4959931,354.537803 C36.609585,355.393687 37.428878,356.458082 37.9538967,357.731022 C38.0852006,358.817745 37.7957886,359.864062 37.085652,360.870005 C36.3755154,361.875947 35.3860991,362.838614 34.1173735,363.758033 C32.8486479,364.677453 31.3851151,365.566296 29.7267314,366.424591 C28.0683476,367.282886 26.3565862,368.107735 24.5913958,368.899163 C22.8262054,369.690591 21.0921031,370.461273 19.3890369,371.211233 C17.6859707,371.961192 16.1637932,372.707848 14.8224586,373.451223 C14.1995309,373.708147 13.447545,373.978687 12.5664784,374.262852 C11.6854118,374.547017 10.7644975,374.792159 9.80370802,374.998286 C8.84291853,375.204413 7.86378081,375.346807 6.86626548,375.425472 C5.86875015,375.504137 4.92973776,375.455683 4.04920014,375.280109 C3.16866253,375.104535 2.38166599,374.771548 1.68818691,374.281139 C0.994707838,373.79073 0.469246402,373.112195 0.111786841,372.245513 C-0.178649053,371.541334 -0.446475201,370.661466 -0.691699637,369.605883 C-0.936924073,368.5503 -1.10410857,367.415012 -1.19325815,366.199983 C-1.28240773,364.984955 -1.28751315,363.743204 -1.20857455,362.474693 C-1.12963595,361.206183 -0.931537387,360.015307 -0.614272925,358.902029 C-0.297008464,357.78875 0.16852412,356.804478 0.782338794,355.949182 C1.39615347,355.093886 2.19055752,354.465176 3.16557477,354.063034 Z M25.2501605,354.936977 C24.7626519,355.138048 24.3261819,355.405217 23.9407373,355.738493 C23.5552928,356.071769 23.2451761,356.453201 23.0103779,356.882799 C22.7755798,357.312397 22.6431906,357.778978 22.6132065,358.282557 C22.5832224,358.786135 22.6743498,359.295213 22.8865914,359.809806 C23.4562926,361.19108 24.1599813,362.128858 24.9976788,362.623167 C25.8353762,363.117475 26.716322,363.332487 27.6405425,363.268206 C28.564763,363.203926 29.4872842,362.981889 30.4081338,362.602088 C31.3448967,362.184033 32.1812683,361.791539 32.9172738,361.424594 C33.2964472,361.268206 33.6644445,361.084736 34.0212766,360.87418 C34.3781088,360.663624 34.6855113,360.410074 34.9434934,360.113524 C35.2014754,359.816974 35.3666116,359.487416 35.4389069,359.124842 C35.5112022,358.762268 35.4579857,358.364316 35.2792559,357.930975 C34.9106258,357.037209 34.3194057,356.314492 33.5055781,355.762802 C32.6917504,355.211111 31.803534,354.8248 30.8409023,354.603858 C29.8782705,354.382915 28.895419,354.305007 27.8923184,354.37013 C26.8892178,354.435253 26.0085073,354.6242 25.2501605,354.936977 Z M30.0028387,367.50327 C30.4608806,367.30551 31.037025,367.179496 31.7312893,367.125225 C32.4255536,367.070954 33.1725837,367.154111 33.9724021,367.3747 C34.7722205,367.595289 35.5790085,367.976354 36.3927902,368.517907 C37.206572,369.059459 37.9651951,369.800955 38.6686823,370.742417 C39.3721696,371.683878 39.9779981,372.85487 40.4861862,374.255429 C40.9943742,375.655987 41.3427786,377.325541 41.5314096,379.264142 L41.9239396,379.066559 L42.2574583,378.84948 C42.9378471,378.507001 43.5325192,377.961677 44.0414924,377.213493 C44.5504656,376.465309 44.9314867,375.642144 45.184567,374.743973 C45.4376473,373.845802 45.562999,372.954538 45.5606258,372.070154 C45.5582527,371.185771 45.3924149,370.41648 45.0631076,369.76226 C44.9313846,369.500572 44.7768762,369.291357 44.5995776,369.134608 C44.422279,368.977859 44.2286497,368.837533 44.0186841,368.713627 C43.8087184,368.58972 43.6151331,368.465772 43.4379224,368.341778 C43.2607117,368.217784 43.1128332,368.03803 42.9942826,367.802511 C42.967938,367.750173 42.9678501,367.717418 42.9940189,367.704246 L43.0330082,367.586223 C43.0590012,367.507541 43.088199,367.402648 43.1206024,367.27154 C43.1530057,367.140433 43.1822914,367.068294 43.2084602,367.055121 C43.6794986,366.81802 44.1279182,366.6989 44.5537325,366.697757 C44.9795469,366.696615 45.372864,366.793823 45.7336958,366.989386 C46.0945276,367.184949 46.4293174,367.442813 46.7380753,367.762985 C47.0468332,368.083157 47.3065866,368.452588 47.5173433,368.871289 C47.9395598,369.97073 48.1228295,371.13303 48.0671579,372.358223 C48.0114862,373.583417 47.7789149,374.79924 47.3694371,376.005729 C46.9599592,377.212219 46.3767922,378.383126 45.6199186,379.518487 C44.8630449,380.653847 44.0175346,381.710817 43.0833624,382.689428 C42.1491901,383.668039 41.1393362,384.512545 40.0537705,385.22297 C38.9290394,385.985908 37.8103839,386.565392 36.6977704,386.96144 C36.6845981,386.935271 36.6516239,386.853473 36.5988469,386.716043 C36.5460698,386.578613 36.4867075,386.4281 36.4207581,386.264502 C36.3548087,386.100903 36.3085745,385.960181 36.2820542,385.842334 L36.2225155,385.626311 C37.1758309,384.457668 37.8606862,383.342171 38.2771017,382.279785 C38.6935173,381.2174 38.9496671,380.243898 39.0455588,379.359251 C39.1414505,378.474604 39.1295499,377.701625 39.0098566,377.040291 C38.8901633,376.378958 38.7773655,375.845359 38.6714598,375.439479 C38.4738754,375.046947 38.2139023,374.59563 37.8915326,374.085514 C37.569163,373.575398 37.1976665,373.065422 36.777032,372.55557 C36.3563976,372.045718 35.8866817,371.552382 35.3678702,371.075549 C34.8490588,370.598715 34.3173907,370.210361 33.7728499,369.910474 C33.2283092,369.610588 32.671,369.431933 32.1009057,369.374503 C31.5308114,369.317073 30.957916,369.433252 30.3822024,369.723043 C29.7541512,370.039178 29.3493758,370.554513 29.1678642,371.269063 C28.9863526,371.983613 28.9360373,372.763309 29.0169169,373.608176 C29.0977964,374.453043 29.2703081,375.268172 29.5344571,376.053587 C29.7986062,376.839003 30.0426415,377.454136 30.2665705,377.899006 C30.6353948,378.631732 31.0368801,379.331605 31.4710384,379.998646 C31.9051968,380.665687 32.3491398,381.319589 32.8028808,381.960374 C33.2566218,382.601158 33.6939788,383.241976 34.1149648,383.882848 C34.5359509,384.52372 34.917678,385.18434 35.2601576,385.864729 L35.398466,386.1395 C35.4643275,386.270344 35.5269389,386.411021 35.5863021,386.561536 C35.6456654,386.71205 35.7049837,386.846185 35.7642591,386.963945 L35.8926883,387.21909 C35.9195602,387.467957 35.8610768,387.644989 35.7172363,387.750192 C35.5733958,387.855394 35.4229714,387.947511 35.2659586,388.026545 C35.1089458,388.105579 34.8565256,388.027645 34.5086903,387.792741 C34.160855,387.557837 33.7636296,387.224805 33.3170021,386.793635 C32.8703746,386.362465 32.3875745,385.875716 31.8685872,385.333372 C31.3496,384.791029 30.8765032,384.258397 30.4492826,383.73546 C30.022062,383.212524 29.6342322,382.718969 29.2857816,382.25478 C28.9373311,381.790591 28.7104201,381.453827 28.6050417,381.244476 C28.0518053,380.145387 27.5572365,378.93479 27.1213202,377.612651 C26.685404,376.290511 26.452651,374.997325 26.4230544,373.733055 C26.3934577,372.468784 26.6424941,371.285671 27.170171,370.183681 C27.6978479,369.081691 28.642061,368.18823 30.0028387,367.50327 Z M35.703522,394.560555 C36.3778052,393.405535 37.1852029,392.273259 38.1257394,391.163692 C39.0662759,390.054125 40.056993,388.999886 41.0979204,388.000944 C42.1388478,387.002002 43.1822056,386.078442 44.2280252,385.230237 C45.2738447,384.382031 46.24669,383.654358 47.1465904,383.047195 C47.3225369,382.941837 47.5098064,382.812625 47.7084045,382.659555 C47.9070026,382.506485 48.1231696,382.368506 48.3569121,382.245613 C48.5906545,382.122721 48.8268769,382.03249 49.0655864,381.974919 C49.304296,381.917348 49.5442062,381.918815 49.7853242,381.979319 L49.8304774,382.054724 C49.8455286,382.079859 49.8593377,382.088664 49.8719053,382.081138 C49.8844729,382.073613 49.8982821,382.082418 49.9133333,382.107553 C49.9283844,382.132688 49.9296261,382.149018 49.9170585,382.156544 C49.9044909,382.164069 49.9132581,382.192967 49.9433604,382.243237 L49.9885136,382.318643 C49.9934807,382.383964 50.0184656,382.53974 50.0634691,382.785975 C50.1084726,383.03221 50.1208901,383.195512 50.100722,383.275884 C50.5224537,383.638011 50.9831232,383.993886 51.4827441,384.343521 C51.982365,384.693155 52.4731738,385.056593 52.9551851,385.433846 C53.4371963,385.811099 53.8915446,386.213444 54.3182434,386.640892 C54.7449423,387.068341 55.1012722,387.520843 55.3872439,387.998412 C55.5979598,388.350304 55.7697661,388.665732 55.9026679,388.944702 C56.0355696,389.223673 56.1496183,389.513928 56.2448172,389.815476 C56.3400162,390.117023 56.4339345,390.444943 56.526575,390.799244 C56.6192154,391.153546 56.7231052,391.5694 56.8382474,392.046819 C56.8078453,392.338207 56.7724391,392.606977 56.7320279,392.853138 C56.6916167,393.099298 56.6248295,393.344175 56.5316643,393.587776 C56.4384991,393.831378 56.2888194,394.066134 56.0826208,394.292051 C55.8764221,394.517968 55.5722457,394.751332 55.1700824,394.99215 C54.8789937,394.620089 54.6282076,394.129998 54.4177165,393.52186 C54.2072255,392.913723 54.0131052,392.261647 53.8353498,391.565612 C53.6575945,390.869576 53.4434188,390.169751 53.1928163,389.466115 C52.9422138,388.762479 52.6312615,388.129142 52.2599501,387.566083 C51.8886387,387.003024 51.4016676,386.560456 50.7990223,386.238366 C50.2315963,385.861038 49.5007274,385.66696 48.6063938,385.656126 C47.7721148,385.916663 47.0106194,386.27021 46.3218848,386.716777 C45.6331501,387.163344 45.0009042,387.661453 44.425128,388.21112 C43.8493519,388.760786 43.2999234,389.35443 42.7768263,389.99207 C42.2537291,390.62971 41.7231144,391.254772 41.1849661,391.867277 C40.6468178,392.479781 40.1036731,393.069663 39.5555156,393.636939 C39.0073582,394.204215 38.4090143,394.716171 37.760466,395.172822 C37.509114,395.323334 37.1561345,395.346889 36.7015171,395.24349 C36.2468997,395.140091 35.9142379,394.912448 35.703522,394.560555 Z M49.8685584,398.731538 C50.7544762,398.106892 51.7684573,397.562221 52.9105323,397.09751 C54.0526072,396.6328 55.2156864,396.350431 56.3998048,396.250395 C57.5839232,396.150359 58.7112294,396.287526 59.781757,396.661901 C60.8522846,397.036276 61.7758285,397.774157 62.5524163,398.875569 C62.9575926,399.450218 63.278961,400.083946 63.5165312,400.776772 C63.7541014,401.469598 63.9324995,402.231017 64.0517309,403.061052 C64.1709623,403.891088 64.2532014,404.783039 64.2984507,405.736932 C64.3437,406.690826 64.3765914,407.716149 64.3971258,408.812934 C65.4224042,408.233415 66.3847448,407.501114 67.2841767,406.616008 C68.1836085,405.730903 69.0313052,404.810585 69.8272921,403.855028 C70.623279,402.899471 71.3611609,401.975927 72.0409598,401.084369 C72.7207588,400.19281 73.3656267,399.442389 73.975583,398.833082 C74.5855393,398.223776 75.151739,397.806634 75.6741991,397.581644 C76.1966592,397.356655 76.6865647,397.44139 77.1439302,397.835853 C77.120879,398.81998 76.8369876,399.853582 76.2922474,400.93669 C75.7475072,402.019799 75.018675,403.134118 74.1057291,404.279683 C73.1927832,405.425248 72.1598298,406.565804 71.0068379,407.701385 C69.8538461,408.836966 68.6575909,409.949277 67.4180364,411.038351 C66.1784819,412.127424 64.9537585,413.161229 63.7438293,414.139796 C62.5339001,415.118364 61.4299689,416.031153 60.4320026,416.878192 C59.4340363,417.725232 58.5874962,418.456539 57.8923571,419.072136 C57.197218,419.687733 56.7531091,420.189062 56.5600171,420.576138 C56.1769176,420.846256 55.8404119,420.877402 55.55049,420.669579 C55.2605682,420.461755 55.0143169,420.214185 54.8117287,419.92686 C54.6429053,419.687423 54.5891951,419.420597 54.6505967,419.126373 C54.7119982,418.832149 54.8286511,418.552743 55.000559,418.288144 C55.1724668,418.023546 55.3785219,417.743835 55.6187302,417.449002 C55.8589385,417.15417 56.0709794,416.870238 56.2548591,416.597199 C56.4387388,416.324159 56.5722739,416.068696 56.6554682,415.830801 C56.7386626,415.592906 56.7127308,415.378187 56.577672,415.186637 C56.5439073,415.138749 56.4914957,415.077126 56.4204357,415.001764 C56.3493756,414.926402 56.3018744,414.897163 56.2779307,414.914045 C55.3346293,414.898055 54.3544328,414.791588 53.3373118,414.594641 C52.3201908,414.397693 51.3327099,414.090244 50.3748395,413.672284 C49.4169691,413.254323 48.5235776,412.737147 47.6946381,412.120738 C46.8656986,411.504329 46.1642395,410.789092 45.5902398,409.975005 C44.9487107,409.065144 44.6866732,408.058 44.8041195,406.953546 C44.9215658,405.849091 45.2346965,404.767988 45.7435212,403.710203 C46.2523458,402.652418 46.89346,401.680602 47.6668829,400.794725 C48.4403059,399.908848 49.1741904,399.221126 49.8685584,398.731538 Z M50.7921312,401.414115 C50.0989806,402.261316 49.4967034,403.008592 48.9852816,403.655965 C48.4738598,404.303339 48.1117062,404.908192 47.8988099,405.470545 C47.6859135,406.032898 47.6127644,406.577366 47.6793602,407.103965 C47.7459561,407.630565 47.9987207,408.205124 48.4376616,408.827661 C48.9778967,409.59386 49.7733639,410.251775 50.8240872,410.801426 C51.8748105,411.351077 53.0090154,411.75223 54.2267361,412.004897 C55.4444568,412.257565 56.6351519,412.332114 57.7988573,412.228548 C58.9625627,412.124981 59.9275004,411.803085 60.6936996,411.26285 L61.5556694,410.655089 C61.9059788,408.50819 61.9748672,406.712093 61.7623366,405.266744 C61.5498061,403.821396 61.1540917,402.675503 60.5751815,401.829031 C59.9962713,400.98256 59.2958064,400.383124 58.4737659,400.030704 C57.6517254,399.678285 56.7859497,399.518027 55.8764131,399.549924 C54.9668764,399.581822 54.0614927,399.77211 53.1602347,400.120796 C52.2589768,400.469481 51.4696169,400.900583 50.7921312,401.414115 Z M64.353979,416.101998 C65.5163383,415.117211 66.7751555,414.348282 68.1304684,413.795189 C69.4857812,413.242097 70.8451111,412.954374 72.2084988,412.932014 C73.5718864,412.909654 74.8962929,413.169886 76.1817579,413.71272 C77.467223,414.255553 78.640208,415.152842 79.7007481,416.404614 C80.2362969,417.218018 80.5795879,418.0311 80.7306313,418.843885 C80.8816747,419.65667 80.8748488,420.430404 80.7101534,421.16511 C80.5454579,421.899816 80.2276324,422.60106 79.7566672,423.268863 C79.2891168,423.895375 78.7200542,424.492696 78.0494623,425.060842 C77.2447521,425.742618 76.3194401,426.123397 75.2734987,426.203191 C74.2275574,426.282985 73.1836485,426.149883 72.1417409,425.80388 C71.0998332,425.457877 70.1111836,424.970777 69.1757625,424.342565 C68.2403413,423.714353 67.4696308,423.042608 66.8636079,422.32731 L66.167632,421.505839 C65.9309043,421.226425 65.762558,420.937081 65.6625881,420.637798 C65.5626182,420.338514 65.5452311,420.046065 65.6104263,419.760441 C65.6756215,419.474817 65.8870404,419.180503 66.2446895,418.877492 C66.3564548,418.782801 66.4656573,418.719079 66.5723004,418.686325 C66.6789434,418.653571 66.8153114,418.701225 66.9814086,418.829289 C67.1475057,418.957353 67.3519421,419.187323 67.5947241,419.519204 C67.815153,419.870023 68.1079155,420.351539 68.4730204,420.963765 C68.7381555,421.276708 69.2278241,421.639395 69.9420409,422.051839 C70.6562577,422.464282 71.4414028,422.835816 72.2974997,423.166452 C73.1535966,423.497088 73.988957,423.701286 74.8036061,423.779052 C75.6182551,423.856818 76.2379245,423.71579 76.6626327,423.355964 C77.1096939,422.977199 77.489612,422.530529 77.8023984,422.015939 C78.1151847,421.501349 78.3161244,420.95673 78.4052236,420.382067 C78.4943227,419.807404 78.473752,419.23927 78.3435108,418.677647 C78.2132695,418.116025 77.9174799,417.608276 77.4561331,417.154385 C76.7262363,416.428842 75.912606,415.899053 75.0152179,415.565002 C74.1178297,415.230952 73.1947657,415.08186 72.2459983,415.117723 C71.2972309,415.153586 70.3722284,415.342116 69.470963,415.683317 C68.5696977,416.024518 67.7390754,416.517061 66.9790712,417.16096 C66.3978916,417.653353 65.8261896,418.156916 65.2639482,418.671663 C64.7017068,419.186409 64.2027295,419.753149 63.7670013,420.3719 C63.3312731,420.99065 62.9936559,421.679864 62.7541396,422.439562 C62.5146233,423.199261 62.4596771,424.052161 62.5892994,424.998289 C62.7189218,425.944417 63.0529003,426.995775 63.5912452,428.152393 C64.12959,429.309011 64.9523052,430.608653 66.0594154,432.051357 L71.5466541,437.712239 C70.7518753,437.77123 69.9660331,437.65947 69.1891039,437.376955 C68.4121747,437.09444 67.6683203,436.726321 66.9575183,436.272587 C66.2467163,435.818852 65.5909531,435.328103 64.990209,434.800323 C64.389465,434.272543 63.8618422,433.740424 63.407325,433.203951 C62.3089085,431.907473 61.4891421,430.509339 60.9480013,429.009507 C60.4068605,427.509674 60.152589,425.997212 60.1851793,424.472074 C60.2177696,422.946936 60.5742427,421.464197 61.2546095,420.023811 C61.9349763,418.583425 62.9680891,417.276167 64.353979,416.101998 Z M73.2098796,444.225001 C73.5943581,442.944022 74.1135717,441.653922 74.7675359,440.354662 C75.4215001,439.055401 76.1372252,437.798151 76.9147324,436.582874 C77.6922397,435.367598 78.4897953,434.225029 79.3074231,433.155133 C80.1250508,432.085238 80.9000199,431.149631 81.6323536,430.348286 C81.7786706,430.204589 81.9303981,430.035047 82.0875406,429.839656 C82.2446832,429.644264 82.4224447,429.45942 82.6208307,429.285119 C82.8192166,429.110817 83.0276763,428.967683 83.2462161,428.855715 C83.4647558,428.743746 83.6983138,428.688885 83.9468972,428.691131 L84.0084812,428.753838 C84.0290094,428.77474 84.0444988,428.780059 84.05495,428.769795 C84.0654012,428.759531 84.0808907,428.76485 84.1014188,428.785753 C84.1219469,428.806655 84.1269853,428.822238 84.1165341,428.832502 C84.1060829,428.842766 84.1213851,428.8688 84.1624414,428.910605 L84.2240255,428.973312 C84.2441793,429.035645 84.3050141,429.181211 84.4065318,429.410015 C84.5080495,429.638819 84.5584333,429.794649 84.5576847,429.87751 C85.0526055,430.130585 85.5839105,430.368448 86.1516155,430.591105 C86.7193205,430.813762 87.2816979,431.051905 87.8387645,431.305542 C88.3958312,431.559178 88.9318938,431.843696 89.4469684,432.159104 C89.9620431,432.474512 90.4145908,432.830784 90.8046251,433.22793 C91.0920189,433.520564 91.3330335,433.786879 91.5276764,434.026882 C91.7223193,434.266886 91.9012827,434.522282 92.0645719,434.793078 C92.2278611,435.063874 92.3960927,435.360606 92.5692717,435.683283 C92.7424507,436.005961 92.9410061,436.385834 93.1649439,436.822913 C93.2037543,437.113302 93.2323938,437.382877 93.2508633,437.631647 C93.2693327,437.880418 93.2618614,438.134129 93.2284491,438.39279 C93.1950367,438.65145 93.104612,438.91477 92.957172,439.182759 C92.8097321,439.450747 92.5687963,439.748962 92.2343574,440.077412 C91.8641026,439.784029 91.5053337,439.366455 91.1580399,438.824676 C90.8107462,438.282897 90.4690575,437.694565 90.1329636,437.059661 C89.7968697,436.424757 89.4244829,435.794714 89.0157919,435.169512 C88.607101,434.544311 88.1562376,434.001604 87.6631883,433.541377 C87.170139,433.081149 86.5929272,432.765184 85.9315356,432.593473 C85.2914207,432.359803 84.535418,432.342615 83.6635048,432.541907 C82.9136375,432.990906 82.2563437,433.513242 81.6916038,434.108932 C81.1268638,434.704622 80.6291285,435.337162 80.1983829,436.006572 C79.7676372,436.675982 79.3728217,437.381961 79.0139245,438.124529 C78.6550272,438.867097 78.2858715,439.599204 77.9064462,440.32087 C77.5270208,441.042535 77.1374308,441.743382 76.7376645,442.42343 C76.3378982,443.103479 75.8763673,443.741525 75.3530579,444.337589 C75.1440336,444.542871 74.8064329,444.648583 74.3402456,444.65473 C73.8740582,444.660876 73.4972734,444.517635 73.2098796,444.225001 Z M94.9078596,464.073231 C96.0073145,462.283315 97.1867644,460.569066 98.4462447,458.930434 C99.705725,457.291802 100.998079,455.67088 102.323345,454.067622 C103.648611,452.464363 104.987105,450.891084 106.338867,449.347738 C107.69063,447.804392 109.008501,446.233071 110.29252,444.633727 C110.441845,444.453078 110.612248,444.384881 110.803731,444.429132 C110.995215,444.473383 111.181279,444.570169 111.361928,444.719495 C111.565158,444.887487 111.685141,445.110198 111.721882,445.387635 C111.758622,445.665072 111.744783,445.957711 111.680365,446.26556 C111.615946,446.573409 111.523302,446.857922 111.402431,447.119107 C111.281559,447.380291 111.165128,447.578624 111.053134,447.714111 C108.519423,451.055204 106.383892,453.822622 104.646478,456.01645 C102.909065,458.210277 101.471826,459.948996 100.334719,461.232659 C99.1976126,462.516323 98.3169449,463.432279 97.6926899,463.980554 C97.0684348,464.528829 96.583952,464.850537 96.2392271,464.945689 C95.8945022,465.04084 95.6335491,464.977173 95.45636,464.754686 C95.2791709,464.5322 95.0963392,464.30505 94.9078596,464.073231 Z M102.541791,461.159952 C102.861711,460.777117 103.31939,460.40516 103.914841,460.04407 C104.510292,459.68298 105.214742,459.420836 106.028211,459.257629 C106.841681,459.094422 107.733637,459.071362 108.704106,459.188447 C109.674576,459.305532 110.685832,459.62598 111.737904,460.1498 C112.789977,460.67362 113.858212,461.446358 114.942642,462.468038 C116.027073,463.489717 117.089967,464.823529 118.131358,466.469511 L118.392865,466.116335 L118.592903,465.772326 C119.046182,465.16015 119.331585,464.40546 119.449121,463.508231 C119.566656,462.611003 119.536182,461.704444 119.357696,460.788527 C119.179211,459.87261 118.889791,459.020377 118.489427,458.231803 C118.089063,457.44323 117.594574,456.831029 117.005943,456.395183 C116.770491,456.220845 116.538323,456.103618 116.309433,456.0435 C116.080542,455.983382 115.844466,455.945282 115.601197,455.929199 C115.357929,455.913115 115.129266,455.889618 114.915204,455.858706 C114.701142,455.827795 114.488161,455.733888 114.276254,455.576984 C114.229163,455.542116 114.214335,455.51291 114.231769,455.489365 L114.213435,455.366428 C114.201212,455.28447 114.180048,455.177666 114.149941,455.046012 C114.119834,454.914358 114.113498,454.836759 114.130932,454.813214 C114.444741,454.3894 114.791482,454.081114 115.171165,453.888346 C115.550849,453.695578 115.945805,453.605259 116.356046,453.617387 C116.766287,453.629514 117.18133,453.708995 117.601187,453.855832 C118.021045,454.002669 118.41933,454.215555 118.796053,454.494497 C119.668126,455.286031 120.355156,456.241289 120.857162,457.360301 C121.359169,458.479313 121.699007,459.669618 121.876688,460.931251 C122.054368,462.192884 122.060943,463.500961 121.896412,464.85552 C121.731882,466.210079 121.45291,467.53456 121.05949,468.829001 C120.666069,470.123442 120.144685,471.332224 119.495322,472.455382 C118.834637,473.643065 118.096766,474.66421 117.281687,475.51885 C117.258142,475.501416 117.191865,475.443229 117.082856,475.344287 C116.973847,475.245345 116.853067,475.137688 116.720513,475.021313 C116.587958,474.904937 116.483309,474.800111 116.406562,474.70683 L116.256125,474.540759 C116.581065,473.068024 116.690237,471.76363 116.583643,470.62754 C116.477048,469.491449 116.267382,468.506889 115.954637,467.67383 C115.641892,466.840772 115.283188,466.155958 114.878513,465.61937 C114.473839,465.082782 114.132841,464.65714 113.855509,464.34243 C113.502331,464.080923 113.066976,463.795022 112.549432,463.484719 C112.031887,463.174416 111.470542,462.886359 110.865378,462.620541 C110.260214,462.354723 109.618664,462.125754 108.940709,461.933627 C108.262755,461.7415 107.613163,461.634163 106.991916,461.611614 C106.370669,461.589064 105.792613,461.680508 105.25773,461.885949 C104.722847,462.09139 104.26364,462.453102 103.880096,462.971097 C103.461684,463.536182 103.33233,464.178584 103.492031,464.898323 C103.651732,465.618062 103.95791,466.336889 104.410576,467.054828 C104.863241,467.772766 105.384331,468.422889 105.973862,469.005217 C106.563392,469.587546 107.058285,470.026891 107.458553,470.323266 C108.117819,470.811413 108.791453,471.255519 109.479475,471.655597 C110.167497,472.055675 110.85834,472.439616 111.552023,472.807431 C112.245707,473.175247 112.924777,473.550471 113.589254,473.933115 C114.253731,474.315759 114.892047,474.733715 115.504223,475.186994 L115.751446,475.370049 C115.869172,475.457218 115.988425,475.55463 116.109206,475.662289 C116.229988,475.769948 116.343354,475.863002 116.449307,475.941454 L116.678872,476.111433 C116.814932,476.321539 116.842433,476.505942 116.761375,476.664647 C116.680318,476.823352 116.587489,476.973338 116.482886,477.11461 C116.378283,477.255881 116.117809,477.299963 115.701457,477.246856 C115.285105,477.19375 114.780466,477.075268 114.187525,476.891408 C113.594584,476.707548 112.944318,476.490351 112.236706,476.239811 C111.529095,475.989272 110.866831,475.726738 110.249894,475.452203 C109.632958,475.177668 109.064423,474.911628 108.544273,474.654077 C108.024123,474.396525 107.669873,474.198017 107.481511,474.058547 C106.492612,473.326326 105.505883,472.468125 104.521295,471.483918 C103.536707,470.499712 102.746556,469.449871 102.150819,468.334365 C101.555082,467.21886 101.244674,466.050347 101.219588,464.828792 C101.194501,463.607237 101.635231,462.384303 102.541791,461.159952 Z M131.756878,489.754657 C132.535363,487.803616 133.405564,485.91351 134.367506,484.084282 C135.329449,482.255054 136.326801,480.437679 137.359593,478.632102 C138.392385,476.826525 139.443319,475.048236 140.512426,473.297182 C141.581533,471.546129 142.612478,469.773282 143.605293,467.978589 C143.721664,467.775144 143.877959,467.678916 144.074182,467.689902 C144.270405,467.700888 144.470236,467.764566 144.673682,467.880937 C144.902558,468.011854 145.058725,468.210872 145.142188,468.477996 C145.225651,468.745119 145.261864,469.035839 145.250827,469.350162 C145.23979,469.664485 145.196965,469.960621 145.122351,470.238578 C145.047737,470.516535 144.966792,470.731802 144.879514,470.884386 C142.951968,474.60825 141.31906,477.698995 139.980744,480.156717 C138.642427,482.614438 137.522374,484.572569 136.62055,486.031171 C135.718726,487.489772 135.006957,488.542356 134.48522,489.188956 C133.963484,489.835556 133.540883,490.235091 133.217405,490.387573 C132.893926,490.540055 132.625942,490.521771 132.413443,490.332719 C132.200945,490.143667 131.982092,489.950982 131.756878,489.754657 Z M152.655117,493.743693 C151.882003,493.781108 151.157753,493.933284 150.482343,494.200224 C149.806934,494.467165 149.138158,494.704638 148.475995,494.912652 C147.813832,495.120665 147.135502,495.246749 146.440984,495.290908 C145.746467,495.335066 144.980469,495.146491 144.142967,494.725177 C143.200778,494.251198 142.452238,493.620478 141.897326,492.832996 C141.342415,492.045515 140.944981,491.156892 140.705014,490.167099 C140.465047,489.177306 140.349678,488.135425 140.358905,487.041425 C140.368132,485.947425 140.469039,484.866768 140.661629,483.799421 C140.85422,482.732073 141.105653,481.710742 141.415937,480.735397 C141.726221,479.760052 142.065683,478.905986 142.434334,478.173172 C142.935926,476.654559 143.531442,475.56856 144.220899,474.915143 C144.910355,474.261726 145.513863,473.925829 146.031439,473.907442 C146.549016,473.889055 146.869457,474.115846 146.992772,474.587822 C147.116088,475.059798 146.868987,475.648778 146.251463,476.354779 C146.146455,476.433134 146.024911,476.576958 145.886827,476.786253 C145.748744,476.995548 145.607371,477.211383 145.462704,477.433765 C145.318037,477.656146 145.179956,477.865438 145.048455,478.061648 C144.916955,478.257857 144.831457,478.395217 144.791958,478.473733 C144.515471,479.023344 144.241958,479.697421 143.971413,480.495985 C143.700867,481.29455 143.472755,482.155439 143.287067,483.078681 C143.10138,484.001922 142.977874,484.94823 142.916543,485.917633 C142.855213,486.887036 142.902102,487.804282 143.05721,488.669397 C143.212319,489.534513 143.498644,490.31805 143.916193,491.020032 C144.333742,491.722013 144.908915,492.257321 145.641729,492.625972 C146.112824,492.862961 146.764542,492.903861 147.596903,492.748672 C148.429263,492.593483 149.274978,492.330238 150.134071,491.958931 C150.993165,491.587623 151.783605,491.157195 152.505416,490.667633 C153.227227,490.178071 153.70662,489.697749 153.94361,489.226655 C154.07527,488.964935 154.29905,488.536396 154.614956,487.941025 C154.930862,487.345654 155.259969,486.707743 155.602287,486.027273 C155.944605,485.346802 156.260626,484.702308 156.55036,484.093771 C156.840094,483.485233 157.044205,483.063197 157.162699,482.82765 C157.451392,482.644927 157.723542,482.527676 157.979159,482.475893 C158.234776,482.42411 158.49344,482.464048 158.75516,482.595709 C159.069223,482.753702 159.225611,483.094733 159.224329,483.618812 C159.223048,484.142892 159.123262,484.764987 158.92497,485.485115 C158.726677,486.205244 158.462799,486.957956 158.133327,487.743274 C157.803854,488.528592 157.474467,489.281144 157.145155,490.000952 C156.815843,490.72076 156.529324,491.3555 156.285592,491.905191 C156.041859,492.454881 155.900086,492.834489 155.860267,493.044024 C155.727805,493.633293 155.621316,494.317606 155.540798,495.096982 C155.460279,495.876358 155.383093,496.632802 155.309238,497.366337 C155.235382,498.099872 155.161688,498.767887 155.088153,499.370402 C155.014618,499.972917 154.912022,500.405028 154.780361,500.666747 C154.58287,501.059326 154.353148,501.238915 154.091188,501.205519 C153.829228,501.172123 153.528136,501.069847 153.187901,500.898688 C152.76915,500.688031 152.514298,500.428646 152.423337,500.120525 C152.332376,499.812404 152.323383,499.471733 152.396357,499.098503 C152.469331,498.725272 152.57839,498.329208 152.723538,497.910297 C152.868685,497.491385 152.987699,497.042938 153.080582,496.564939 C153.173466,496.086941 153.200839,495.60879 153.162703,495.130471 C153.124566,494.652153 152.955373,494.189898 152.655117,493.743693 Z M162.470359,486.57681 C162.56894,486.332259 162.72023,486.211618 162.924234,486.214885 C163.128238,486.218151 163.338927,486.263597 163.556306,486.351225 C163.71934,486.416945 163.818391,486.504255 163.853461,486.613155 C163.888532,486.722056 163.897747,486.836326 163.881105,486.955969 C163.864464,487.075612 163.864147,487.193937 163.880155,487.310947 C163.896163,487.427957 163.972096,487.513844 164.107958,487.568611 C164.488371,487.721959 165.010538,487.758719 165.674473,487.678892 C166.338408,487.599064 167.060838,487.511234 167.841783,487.415399 C168.622728,487.319563 169.433467,487.267331 170.274022,487.258701 C171.114578,487.250071 171.888085,487.388148 172.594567,487.672937 C173.518427,488.045354 174.27171,488.625398 174.854438,489.413087 C175.437165,490.200776 175.875387,491.111833 176.169116,492.146284 C176.462845,493.180735 176.629925,494.274674 176.670359,495.428134 C176.710794,496.581594 176.675083,497.728033 176.563225,498.867485 C176.451368,500.006937 176.26895,501.08634 176.015965,502.105726 C175.76298,503.125112 175.494097,503.988033 175.209308,504.694515 C175.110727,504.939067 174.942479,505.297673 174.704559,505.770346 C174.466639,506.243018 174.20155,506.704731 173.909285,507.155496 C173.61702,507.606262 173.288267,507.971239 172.923017,508.250439 C172.557767,508.529638 172.212112,508.603517 171.886044,508.472075 C171.831699,508.450169 171.739336,508.405039 171.608951,508.336686 C171.478565,508.268333 171.353659,508.186394 171.234227,508.090869 C171.114795,507.995343 171.018483,507.901241 170.945286,507.808559 C170.87209,507.715877 170.857399,507.615193 170.901212,507.506503 C171.989178,505.512812 172.780551,503.549637 173.275356,501.616921 C173.770161,499.684205 174.025148,497.915444 174.040326,496.310584 C174.055503,494.705724 173.833397,493.336905 173.374001,492.204084 C172.914605,491.071263 172.236573,490.324133 171.339885,489.96267 C170.497541,489.623113 169.654788,489.441329 168.811599,489.41731 C167.968411,489.393291 167.171047,489.529883 166.419485,489.827089 C165.667922,490.124296 164.988039,490.576737 164.379814,491.184427 C163.771589,491.792117 163.292229,492.530708 162.941719,493.400224 C162.59121,494.26974 162.324959,495.16531 162.142961,496.08696 C161.960962,497.008611 161.799345,497.938462 161.658105,498.876543 C161.516865,499.814623 161.352509,500.751268 161.165034,501.686504 C160.977558,502.621741 160.70857,503.524103 160.35806,504.393619 C159.597234,504.086923 159.084655,503.517044 158.820309,502.683964 C158.555962,501.850885 158.464711,500.882274 158.546552,499.778104 C158.628393,498.673935 158.827453,497.474891 159.143737,496.180936 C159.46002,494.886982 159.822429,493.635333 160.230972,492.425951 C160.639515,491.21657 161.054634,490.088827 161.476341,489.042691 L162.470359,486.57681 Z M178.350735,498.728561 C178.799389,497.272679 179.445603,495.946677 180.289397,494.750518 C181.13319,493.554359 182.123342,492.579597 183.259882,491.826203 C184.396423,491.072809 185.652377,490.578488 187.027782,490.343226 C188.403188,490.107963 189.874805,490.231913 191.442679,490.715079 C192.332092,491.111793 193.059365,491.611819 193.624518,492.215172 C194.189671,492.818526 194.600787,493.474037 194.857879,494.181724 C195.114971,494.889411 195.22503,495.651411 195.188059,496.467746 C195.131718,497.247455 194.97413,498.057263 194.715291,498.897196 C194.404685,499.905114 193.830308,500.724435 192.992144,501.355182 C192.153981,501.98593 191.202826,502.436227 190.138653,502.706088 C189.07448,502.975949 187.979155,503.098249 186.852645,503.07299 C185.726135,503.047732 184.714931,502.897057 183.819003,502.620962 L182.790091,502.303886 C182.440119,502.196036 182.142405,502.042979 181.896939,501.844708 C181.651474,501.646437 181.479262,501.409431 181.3803,501.133681 C181.281337,500.857931 181.300879,500.49608 181.438926,500.048116 C181.482066,499.908127 181.539733,499.795609 181.611927,499.710559 C181.684122,499.625509 181.82468,499.592184 182.033606,499.610583 C182.242532,499.628982 182.538661,499.712575 182.922001,499.861365 C183.296714,500.038152 183.80278,500.286073 184.440214,500.605135 C184.832182,500.725926 185.44011,500.767653 186.264016,500.730315 C187.087922,500.692978 187.949541,500.582962 188.848898,500.400265 C189.748255,500.217568 190.562022,499.939525 191.290222,499.566129 C192.018423,499.192732 192.464482,498.740062 192.628413,498.208105 C192.800972,497.64815 192.880381,497.067162 192.866641,496.465125 C192.852901,495.863087 192.728757,495.296012 192.494206,494.763882 C192.259655,494.231752 191.93623,493.76421 191.523921,493.361241 C191.111612,492.958271 190.588862,492.689881 189.955656,492.556061 C188.949851,492.338076 187.978972,492.330116 187.042989,492.532183 C186.107005,492.73425 185.249043,493.105969 184.469075,493.647353 C183.689107,494.188736 183.011412,494.845929 182.43597,495.618951 C181.860527,496.391973 181.426137,497.254433 181.132786,498.206357 C180.908459,498.934298 180.698134,499.666542 180.501805,500.403112 C180.305475,501.139681 180.190455,501.885967 180.156742,502.641992 C180.123028,503.398018 180.209932,504.160546 180.417456,504.929599 C180.62498,505.698653 181.03821,506.446783 181.657158,507.174013 C182.276107,507.901243 183.12391,508.607021 184.200594,509.29137 C185.277277,509.975719 186.670586,510.627347 188.380562,511.246274 L196.053222,513.058915 C195.415443,513.536818 194.693196,513.866056 193.886459,514.046639 C193.079723,514.227222 192.25473,514.317868 191.411454,514.31858 C190.568178,514.319292 189.751327,514.259166 188.960876,514.138202 C188.170425,514.017238 187.439238,513.853223 186.767292,513.646152 C185.143423,513.14573 183.699533,512.409538 182.43558,511.437554 C181.171626,510.465571 180.142541,509.32839 179.348294,508.025977 C178.554047,506.723564 178.055498,505.28237 177.852634,503.702353 C177.649769,502.122335 177.815801,500.464421 178.350735,498.728561 Z M199.158432,512.930409 C199.21342,512.702574 199.388456,512.383166 199.683546,511.972174 C199.978637,511.561182 200.31104,511.151668 200.680765,510.743621 C201.05049,510.335573 201.411865,509.993327 201.7649,509.716872 C202.117934,509.440418 202.394125,509.32625 202.59348,509.374364 C203.163067,509.511832 203.625362,509.78163 203.980381,510.183764 C204.3354,510.585898 204.593195,511.047442 204.753773,511.568408 C204.914352,512.089375 205.000541,512.637587 205.012342,513.213061 C205.024144,513.788535 204.975058,514.304099 204.865083,514.759768 C204.782602,515.10152 204.590136,515.461928 204.287679,515.841004 C203.985223,516.22008 203.639806,516.558643 203.251419,516.856703 C202.863031,517.154763 202.452798,517.387269 202.020706,517.554229 C201.588614,517.721188 201.187458,517.75999 200.817227,517.670635 C200.390038,517.567534 200.055897,517.328666 199.814795,516.954026 C199.573694,516.579385 199.385378,516.142145 199.249842,515.642291 C199.114306,515.142438 199.046286,514.643817 199.04578,514.146415 C199.045274,513.649013 199.082825,513.243681 199.158432,512.930409 Z" id="de-tant-regarder-la" fill="#0D2026"></path>
                    </g>
                </g>
            </g>
        </g>
    </g>
</svg>