<?xml version="1.0" encoding="UTF-8"?>
<svg width="495px" height="189px" viewBox="0 0 495 189" version="1.1" xmlns="http://www.w3.org/2000/svg" xmlns:xlink="http://www.w3.org/1999/xlink">
    <!-- Generator: Sketch 52.6 (67491) - http://www.bohemiancoding.com/sketch -->
    <title>Les nuages nous reposent</title>
    <desc>Created with Sketch.</desc>
    <defs>
        <path d="M1.51486843,135.183333 C8.66454817,99.8944082 22.127633,90.6722168 63.8158317,64.469597 C105.50403,38.2669771 129.413717,22.6850488 183.042311,21.0864255 C236.670905,19.4878021 243.289935,40.3814863 292.460956,57.6538779 C341.631977,74.9262694 363.558454,46.6716673 392.949993,64.469597 C422.341533,82.2675266 451.542455,114.811649 443.710248,140.194892 C435.878041,165.578134 401.890059,177.138644 360.21399,184.611616 C318.537922,192.084587 285.64368,166.95531 243.303905,166.95531 C200.964129,166.95531 200.853313,187.48781 161.723239,184.611616 C122.593166,181.735421 130.990754,168.42095 104.939183,166.95531 C78.887611,165.489671 68.3427742,184.052637 40.8522978,177.811517 C13.3618214,171.570397 -5.6348113,170.472259 1.51486843,135.183333 Z" id="path-1"></path>
        <filter x="-0.2%" y="-0.6%" width="100.4%" height="101.2%" filterUnits="objectBoundingBox" id="filter-2">
            <feOffset dx="-1" dy="2" in="SourceAlpha" result="shadowOffsetInner1"></feOffset>
            <feComposite in="shadowOffsetInner1" in2="SourceAlpha" operator="arithmetic" k2="-1" k3="1" result="shadowInnerInner1"></feComposite>
            <feColorMatrix values="0 0 0 0 0   0 0 0 0 0   0 0 0 0 0  0 0 0 0.5 0" type="matrix" in="shadowInnerInner1"></feColorMatrix>
        </filter>
    </defs>
    <g id="Les-nuages-nous-reposent" stroke="none" stroke-width="1" fill="none" fill-rule="evenodd">
        <g id="Les-nuages-nous-reposent-Copy-2" transform="translate(17.000000, 3.000000)">
            <g id="Cloud">
                <use fill="#FFFFFF" fill-rule="evenodd" xlink:href="#path-1"></use>
                <use fill="black" fill-opacity="1" filter="url(#filter-2)" xlink:href="#path-1"></use>
            </g>
            <path d="M15.3320329,101.038088 C13.5275807,99.9626566 11.7977199,98.8062261 10.1423987,97.5687616 C8.48707742,96.3312971 6.84902635,95.0607253 5.22819633,93.7570082 C3.6073663,92.4532911 2.01633665,91.1359463 0.455059643,89.8049342 C-1.10621737,88.4739221 -2.69501386,87.1771724 -4.31137751,85.9146461 C-4.49400624,85.7677484 -4.5644758,85.598273 -4.5227883,85.4062148 C-4.4811008,85.2141566 -4.38680961,85.0268159 -4.23991191,84.8441872 C-4.07465199,84.6387299 -3.85356468,84.5157802 -3.57664335,84.4753344 C-3.29972201,84.4348886 -3.00692439,84.4448146 -2.6982417,84.5051127 C-2.38955902,84.5654108 -2.10383338,84.6542432 -1.84105623,84.7716128 C-1.57827907,84.8889823 -1.37840771,85.002752 -1.24143616,85.1129253 C2.13322576,87.6017502 4.92894226,89.7000982 7.14579721,91.4080324 C9.36265216,93.1159665 11.1204274,94.5298357 12.4191756,95.6496823 C13.7179238,96.7695289 14.6455693,97.6378745 15.2021399,98.2547452 C15.7587105,98.8716158 16.0868661,99.351755 16.1866165,99.6951773 C16.286367,100.0386 16.226194,100.30038 16.0060958,100.480528 C15.7859976,100.660675 15.5613122,100.846526 15.3320329,101.038088 Z M10.8344699,88.9593766 C9.84243294,87.8031985 9.06564734,86.5492145 8.50408976,85.197387 C7.94253219,83.8455594 7.6463148,82.4880555 7.61542873,81.1248343 C7.58454265,79.7616131 7.83648789,78.4356051 8.37127201,77.1467706 C8.90605614,75.857936 9.79599228,74.6793626 11.0411071,73.6110152 C11.8511461,73.0703901 12.6620657,72.7220211 13.4738903,72.5658978 C14.2857149,72.4097745 15.0594763,72.4117616 15.7951978,72.5718593 C16.5309193,72.7319569 17.2341372,73.045391 17.9048727,73.5121708 C18.5342963,73.975794 19.1351636,74.5411101 19.7074926,75.2081359 C20.3942874,76.0085668 20.7808457,76.9314795 20.867179,77.9769014 C20.9535123,79.0223233 20.8269406,80.0670441 20.4874603,81.1110952 C20.1479799,82.1551462 19.6670719,83.1468226 19.0447219,84.086154 C18.4223719,85.0254855 17.7554598,85.8003818 17.0439656,86.410866 L16.226863,87.1119655 C15.9489356,87.3504359 15.66065,87.5205884 15.3619975,87.6224279 C15.0633451,87.7242675 14.7710101,87.7434831 14.4849839,87.6800754 C14.1989576,87.6166676 13.9033279,87.4070933 13.5980858,87.0513462 C13.5026976,86.9401753 13.4382943,86.8313733 13.4048738,86.7249372 C13.3714534,86.6185011 13.4182539,86.4818377 13.5452768,86.314943 C13.6722998,86.1480483 13.900986,85.9421776 14.2313423,85.697325 C14.5807763,85.4747065 15.0604517,85.1789385 15.6703829,84.8100121 C15.9816616,84.5429252 16.3412798,84.0509981 16.7492485,83.334216 C17.1572171,82.6174338 17.5238338,81.8299807 17.8491096,80.9718329 C18.1743855,80.113685 18.3733554,79.2770639 18.4460255,78.4619445 C18.5186955,77.6468251 18.3737952,77.0280498 18.0113201,76.6056001 C17.6297675,76.1609162 17.1807298,75.7837988 16.6641937,75.4742367 C16.1476576,75.1646745 15.6017932,74.9671446 15.0265842,74.8816409 C14.4513752,74.7961372 13.8833806,74.8202604 13.3225835,74.9540113 C12.7617865,75.0877621 12.255897,75.3867212 11.8049,75.8508975 C11.0839361,76.5853173 10.5592458,77.4022447 10.2308134,78.3017044 C9.90238106,79.201164 9.75906489,80.1251423 9.80086067,81.0736669 C9.84265644,82.0221915 10.0369667,82.9459969 10.3837972,83.8451109 C10.7306277,84.7442249 11.2283552,85.5717508 11.8769947,86.3277133 C12.3730132,86.9058024 12.8801412,87.4743441 13.3983938,88.0333555 C13.9166465,88.5923669 14.4864958,89.0877903 15.1079589,89.5196405 C15.729422,89.9514907 16.4207338,90.2847912 17.1819152,90.519552 C17.9430966,90.7543128 18.7963239,90.8039242 19.7416229,90.6683877 C20.6869218,90.5328511 21.73617,90.1923043 22.8893989,89.6467369 C24.0426278,89.1011696 25.3370993,88.270343 26.7728522,87.1542323 L32.3993077,81.6316999 C32.4632686,82.4260943 32.3564252,83.2126201 32.0787743,83.9913008 C31.8011234,84.7699815 31.4376632,85.5161235 30.9883827,86.229749 C30.5391023,86.9433746 30.052463,87.6021939 29.5284503,88.2062268 C29.0044376,88.8102597 28.4756289,89.3411998 27.9420082,89.799063 C26.652425,90.9055657 25.2594448,91.7340594 23.7630259,92.284569 C22.2666069,92.8350787 20.7557642,93.0988035 19.2304523,93.0757515 C17.7051404,93.0526995 16.2202006,92.7055058 14.7755884,92.03416 C13.3309762,91.3628141 12.0172831,90.3378966 10.8344699,88.9593766 Z M32.962996,78.3520584 C33.061281,78.0760664 33.1776577,77.8671644 33.3121294,77.7253462 C33.4466011,77.5835281 33.6115238,77.447892 33.8069024,77.3184339 C34.0267034,77.1727936 34.2829105,77.0821049 34.5755316,77.046365 C34.8681527,77.0106252 35.158635,77.0114443 35.4469871,77.0488225 C35.7353392,77.0862007 36.025747,77.1134273 36.3182191,77.1305032 C36.6106913,77.1475791 36.899188,77.1321417 37.183718,77.0841907 C37.9967033,76.9320976 38.6490971,76.8161184 39.1409189,76.7362497 C39.6327408,76.656381 40.0697548,76.560108 40.4519741,76.447428 C40.8341933,76.3347479 41.2409778,76.1530726 41.6723395,75.9023965 C42.1037013,75.6517205 42.6490755,75.3079271 43.3084782,74.8710061 C43.8213471,74.5311787 44.4481526,74.1246428 45.1889135,73.6513862 C45.9296743,73.1781296 46.5852452,72.6558873 47.1556455,72.0846435 C47.7260459,71.5133998 48.1259308,70.8969938 48.3553122,70.2354072 C48.5846937,69.5738206 48.4566525,68.8767028 47.9711847,68.1440331 C47.5263216,67.4196034 46.9689105,66.9894144 46.2989349,66.8534533 C45.6289593,66.7174922 44.87925,66.7661621 44.0497845,66.9994643 C43.2203191,67.2327666 42.3498898,67.5898629 41.4384705,68.0707638 C40.5270512,68.5516647 39.5871781,69.0426349 38.618823,69.5436891 C37.6504679,70.0447434 36.6721253,70.4909152 35.6837658,70.8822179 C34.6954063,71.2735206 33.7298704,71.5003416 32.7871292,71.5626876 C31.8443879,71.6250336 30.9388895,71.4518459 30.0706067,71.0431191 C29.202324,70.6343924 28.3999738,69.90084 27.6635321,68.8424399 C27.2922338,67.963832 27.2440107,67.0556778 27.5188615,66.1179502 C27.7937123,65.1802226 28.2715788,64.2837088 28.9524753,63.4283819 C29.6333719,62.573055 30.4582088,61.8156522 31.4270107,61.1561507 C32.3958126,60.4966492 33.3742297,60.0240699 34.3622913,59.7383987 C35.3503529,59.4527275 36.3052165,59.4086989 37.2269108,59.6063116 C38.1486051,59.8039242 38.8967505,60.3098114 39.4713696,61.1239882 C39.8438594,61.5800702 40.0742298,62.0073056 40.1624875,62.4057071 C40.2507452,62.8041086 40.2436716,63.1514513 40.1412666,63.4477456 C40.0388615,63.7440399 39.8737154,63.9588984 39.6458233,64.0923276 C39.4179312,64.2257568 39.1903405,64.253554 38.9630442,64.1757202 C38.7357479,64.0978864 38.5270693,63.9022873 38.3370022,63.5889171 C38.1469352,63.2755469 38.0324947,62.7978544 37.9936774,62.1558254 C37.5885252,61.7565303 37.0649424,61.576294 36.4229134,61.6151114 C35.7808844,61.6539287 35.1181906,61.8206628 34.4348123,62.1153188 C33.751434,62.4099748 33.0819646,62.8184218 32.426384,63.3406719 C31.7708033,63.8629221 31.220788,64.4118698 30.7763214,64.9875315 C30.3318548,65.5631931 30.0377487,66.127082 29.8939944,66.679215 C29.75024,67.231348 29.840333,67.698815 30.164276,68.08163 C30.6497438,68.8142997 31.2396678,69.2405177 31.9340657,69.3602965 C32.6284637,69.4800754 33.390384,69.4233145 34.2198494,69.1900122 C35.0493148,68.9567099 35.9421061,68.5935826 36.89825,68.1006195 C37.854394,67.6076564 38.8309,67.0924132 39.8277974,66.5548744 C40.8246949,66.0173356 41.8153229,65.5366653 42.7997113,65.1128491 C43.7840997,64.689033 44.7517701,64.4256535 45.7027514,64.3227029 C46.6537327,64.2197523 47.5431236,64.3421106 48.3709507,64.6897815 C49.1987778,65.0374525 49.9444165,65.7119355 50.6078891,66.7132508 C51.1095391,67.4703429 51.3470323,68.2530865 51.3203759,69.0615049 C51.2937195,69.8699234 51.1025876,70.6555209 50.7469745,71.4183211 C50.3913614,72.1811213 49.9160762,72.8826318 49.3211045,73.5228736 C48.7261329,74.1631153 48.1111661,74.6935976 47.4761856,75.1143363 C46.8412051,75.535075 46.1594503,75.9780205 45.4309005,76.4431859 C44.7023508,76.9083514 43.9413735,77.3510734 43.1479458,77.7713653 C42.3545181,78.1916572 41.5266783,78.5732499 40.6644015,78.9161548 C39.8021247,79.2590596 38.9381732,79.480073 38.0725211,79.5792014 C37.206869,79.6783299 36.3477077,79.641374 35.4950114,79.4683325 C34.6423152,79.2952911 33.7983185,78.9232035 32.962996,78.3520584 Z M60.8630661,46.0913005 C60.7240717,45.8672377 60.7161814,45.673897 60.8393949,45.5112725 C60.9626084,45.348648 61.1237962,45.2055626 61.322963,45.082012 C61.4723382,44.9893491 61.6013094,44.961057 61.7098805,44.997135 C61.8184516,45.033213 61.9160713,45.0933209 62.0027424,45.1774605 C62.0894136,45.2616001 62.1846703,45.3317928 62.2885154,45.3880407 C62.3923605,45.4442885 62.506521,45.4338031 62.6310003,45.3565839 C62.9795423,45.1403704 63.3178258,44.7409041 63.6458608,44.1581732 C63.9738959,43.5754423 64.3300496,42.9407983 64.7143325,42.2542222 C65.0986155,41.5676462 65.5356794,40.8828106 66.0255376,40.1996948 C66.5153958,39.516579 67.0839625,38.9742595 67.7312548,38.57272 C68.5777139,38.04763 69.4908293,37.7828532 70.4706281,37.7783817 C71.450427,37.7739102 72.4443254,37.9589185 73.4523531,38.3334123 C74.4603809,38.7079062 75.4415357,39.2197202 76.3958472,39.8688699 C77.3501586,40.5180196 78.2537997,41.2244401 79.1067976,41.9881527 C79.9597954,42.7518653 80.7226505,43.5370017 81.3953855,44.3435856 C82.0681206,45.1501694 82.6052498,45.8770966 83.0067893,46.5243889 C83.1457837,46.7484516 83.3356006,47.0961233 83.5762457,47.5674145 C83.8168907,48.0387057 84.0326367,48.5254334 84.2234901,49.0276122 C84.4143434,49.529791 84.514431,50.0106956 84.5237557,50.4703403 C84.5330805,50.9299849 84.3883699,51.2524654 84.0896196,51.4377913 C84.0398279,51.4686789 83.9488328,51.5165076 83.8166316,51.5812788 C83.6844304,51.64605 83.5445094,51.6983725 83.3968644,51.7382479 C83.2492194,51.7781232 83.1163873,51.8001914 82.9983641,51.804453 C82.8803409,51.8087147 82.7904431,51.7610545 82.7286678,51.6614711 C81.763556,49.6054956 80.6477563,47.8067969 79.3812354,46.2653209 C78.1147145,44.7238449 76.8386971,43.4727196 75.5531449,42.5119074 C74.2675926,41.5510951 73.0321877,40.921196 71.8468931,40.6221912 C70.6615985,40.3231864 69.6581845,40.4285055 68.8366212,40.9381518 C68.0648496,41.4169103 67.4200986,41.989252 66.9023487,42.6551938 C66.3845987,43.3211357 66.023487,44.0450446 65.8190025,44.8269424 C65.614518,45.6088402 65.5776168,46.424673 65.7082977,47.2744651 C65.8389786,48.1242573 66.1514156,48.9474747 66.645618,49.7441422 C67.1398204,50.5408096 67.7048409,51.2849105 68.3406966,51.976467 C68.9765522,52.6680236 69.6310699,53.3479871 70.3042693,54.016378 C70.9774687,54.6847688 71.6358474,55.3709562 72.2794249,56.0749607 C72.9230025,56.7789652 73.4918839,57.5292899 73.9860863,58.3259573 C73.2890023,58.7583844 72.5263571,58.8350108 71.6981278,58.5558388 C70.8698985,58.2766667 70.0346564,57.7777647 69.1923763,57.0591178 C68.3500962,56.3404709 67.5005714,55.4711961 66.6437762,54.4512674 C65.786981,53.4313387 64.9915723,52.3992097 64.2575262,51.3548494 C63.5234802,50.3104892 62.8591735,49.3090788 62.2645862,48.3505883 L60.8630661,46.0913005 Z M98.0082093,36.6267374 C97.6071639,37.2887547 97.3285921,37.9743886 97.1724854,38.6836597 C97.0163787,39.3929309 96.8395435,40.0802332 96.6419744,40.7455872 C96.4444053,41.4109413 96.1698607,42.0439138 95.8183324,42.6445238 C95.466804,43.2451337 94.8823319,43.7749507 94.0648984,44.2339906 C93.1452858,44.7504104 92.2039204,45.0186466 91.2407739,45.0387072 C90.2776274,45.0587677 89.3186184,44.8917132 88.3637181,44.5375385 C87.4088178,44.1833639 86.4803584,43.6967547 85.5783119,43.0776965 C84.6762654,42.4586383 83.8365209,41.7710106 83.0590532,41.0147929 C82.2815855,40.2585751 81.5751628,39.4792789 80.9397641,38.676881 C80.3043654,37.874483 79.7858438,37.1156683 79.3841839,36.400414 C78.4051958,35.1357551 77.8374454,34.0349865 77.6809158,33.0980753 C77.5243862,32.1611641 77.5831264,31.4729797 77.8571383,31.0335015 C78.1311501,30.5940233 78.4983031,30.4550438 78.9586083,30.6165588 C79.4189135,30.7780738 79.7692291,31.3121475 80.0095656,32.2187962 C80.015856,32.3496653 80.0671943,32.5308351 80.163582,32.7623108 C80.2599696,32.9937866 80.3599421,33.231645 80.4635022,33.4758931 C80.5670624,33.7201413 80.6634486,33.9516136 80.7526638,34.1703169 C80.841879,34.3890203 80.9080031,34.5366869 80.951038,34.6133213 C81.252283,35.149762 81.6584051,35.7532966 82.1694167,36.4239433 C82.6804282,37.09459 83.2668381,37.7648814 83.9286637,38.4348376 C84.5904893,39.1047937 85.3061938,39.736078 86.0757985,40.3287093 C86.8454032,40.9213406 87.6322369,41.3950817 88.4363231,41.7499469 C89.2404093,42.104812 90.0501791,42.3052739 90.8656567,42.3513384 C91.6811343,42.3974029 92.4464888,42.2196079 93.161743,41.817948 C93.6215494,41.5597381 94.019693,41.0421565 94.3561858,40.2651876 C94.6926787,39.4882188 94.9470292,38.6397872 95.1192451,37.7198673 C95.291461,36.7999474 95.3762825,35.9039173 95.3737122,35.0317502 C95.3711418,34.1595831 95.2407536,33.4936064 94.9825437,33.0338001 C94.8390937,32.7783521 94.6087909,32.3532831 94.2916284,31.7585803 C93.9744659,31.1638775 93.6294049,30.5344533 93.256435,29.8702886 C92.8834651,29.2061239 92.5256319,28.583872 92.1829245,28.0035142 C91.8402172,27.4231564 91.6043146,27.018032 91.4752097,26.7881289 C91.4850285,26.446611 91.5398951,26.1554007 91.6398112,25.9144893 C91.7397273,25.673578 91.9174066,25.4814002 92.1728546,25.3379503 C92.4793921,25.1658103 92.8495945,25.2267178 93.2834728,25.5206746 C93.7173511,25.8146313 94.1774578,26.2450507 94.6638067,26.8119456 C95.1501555,27.3788405 95.6268701,28.0183329 96.0939645,28.7304419 C96.561059,29.442551 97.0010295,30.1362774 97.4138892,30.8116418 C97.8267489,31.4870063 98.1929818,32.0793413 98.512599,32.5886646 C98.8322162,33.0979879 99.0677736,33.4277064 99.2192782,33.57783 C99.6339021,34.0170009 100.141857,34.4877505 100.743157,34.9900929 C101.344458,35.4924353 101.928604,35.9791981 102.495615,36.4503958 C103.062625,36.9215936 103.575393,37.3560402 104.033934,37.7537487 C104.492475,38.1514572 104.793466,38.4780306 104.936916,38.7334785 C105.152091,39.1166504 105.172631,39.4075155 104.998535,39.6060823 C104.824439,39.8046492 104.571354,39.9971722 104.239271,40.1836571 C103.830555,40.4131771 103.473029,40.4795506 103.166683,40.3827797 C102.860337,40.2860088 102.572809,40.1030749 102.304089,39.8339724 C102.03537,39.56487 101.767882,39.2530825 101.501618,38.8986005 C101.235353,38.5441186 100.92999,38.1948008 100.585518,37.8506365 C100.241047,37.5064723 99.8598364,37.2165472 99.4418757,36.9808525 C99.023915,36.7451578 98.546031,36.6271207 98.0082093,36.6267374 Z M103.956861,32.2913435 C103.786608,31.8223815 103.694978,31.2397788 103.681968,30.5435181 C103.668958,29.8472574 103.796264,29.1064724 104.06389,28.3211409 C104.331515,27.5358095 104.759748,26.753036 105.3486,25.972797 C105.937452,25.1925581 106.722626,24.4792363 107.704143,23.8328101 C108.685661,23.186384 109.890516,22.6510546 111.318742,22.2268059 C112.746969,21.8025571 114.434244,21.5537609 116.380619,21.4804099 L116.206658,21.0768549 L116.009737,20.7310515 C115.708204,20.0315527 115.1991,19.4055923 114.482412,18.8531515 C113.765723,18.3007107 112.966599,17.8715511 112.085014,17.5656596 C111.20343,17.2597681 110.321166,17.08179 109.438198,17.03172 C108.55523,16.9816501 107.77746,17.1015815 107.104865,17.3915179 C106.835827,17.5074924 106.617818,17.6493238 106.450832,17.8170161 C106.283846,17.9847084 106.132286,18.1696764 105.996148,18.3719257 C105.86001,18.574175 105.724801,18.7600703 105.590518,18.929617 C105.456234,19.0991638 105.268028,19.2361237 105.025894,19.3405008 C104.972086,19.3636957 104.939384,19.3618413 104.927787,19.3349375 L104.812283,19.2890187 C104.735281,19.258406 104.632303,19.22304 104.503348,19.1829197 C104.374392,19.1427994 104.304116,19.1092879 104.292519,19.0823841 C104.083765,18.5981157 103.991443,18.1434219 104.015551,17.718289 C104.039659,17.2931561 104.160018,16.9062949 104.376632,16.5576938 C104.593246,16.2090926 104.870507,15.8901817 105.208423,15.6009515 C105.54634,15.3117213 105.930523,15.0743301 106.360984,14.8887708 C107.483526,14.5324877 108.654647,14.4184583 109.874384,14.546679 C111.09412,14.6748998 112.294014,14.9791533 113.474101,15.4594487 C114.654188,15.9397441 115.788457,16.5913132 116.876941,17.4141756 C117.965426,18.237038 118.970402,19.143733 119.8919,20.1342878 C120.813399,21.1248425 121.596539,22.182994 122.241347,23.3087739 C122.936252,24.476764 123.448387,25.6278114 123.777766,26.7619507 C123.750863,26.7735482 123.667253,26.8016142 123.526935,26.8461495 C123.386618,26.8906849 123.23285,26.9410183 123.065629,26.9971511 C122.898407,27.0532839 122.755192,27.0910928 122.63598,27.1105788 L122.416806,27.1572038 C121.306746,26.1362718 120.233819,25.3864788 119.197994,24.9078025 C118.162169,24.4291262 117.205569,24.1157039 116.328164,23.9675263 C115.450759,23.8193488 114.678434,23.7853952 114.011167,23.8656645 C113.3439,23.9459338 112.804552,24.0268938 112.393106,24.1085468 C111.989549,24.2825086 111.523611,24.5152638 110.995278,24.8068192 C110.466945,25.0983747 109.935839,25.4389788 109.401942,25.8286419 C108.868046,26.2183049 108.347727,26.6579424 107.84097,27.1475674 C107.334213,27.6371925 106.915017,28.144898 106.58337,28.6706991 C106.251723,29.1965002 106.040337,29.7422355 105.949205,30.3079215 C105.858073,30.8736075 105.940078,31.4523836 106.195222,32.0442672 C106.473561,32.6899585 106.963988,33.1245781 107.666518,33.3481391 C108.369048,33.5717001 109.14439,33.6681585 109.992566,33.6375171 C110.840742,33.6068756 111.664665,33.483 112.464362,33.2658864 C113.264058,33.0487729 113.892579,32.8416408 114.349943,32.644484 C115.10325,32.3197553 115.825697,31.9604749 116.517308,31.5666322 C117.208918,31.1727895 117.887993,30.7684003 118.554554,30.3534525 C119.221115,29.9385047 119.886739,29.5399141 120.551445,29.1576689 C121.216152,28.7754236 121.898244,28.4335391 122.597743,28.1320053 L122.880231,28.0102326 C123.01475,27.9522453 123.158892,27.8980854 123.312662,27.8477513 C123.466432,27.7974172 123.603848,27.7461567 123.724915,27.6939681 L123.987226,27.5808935 C124.237249,27.5688252 124.410502,27.6377027 124.50699,27.7875281 C124.603479,27.9373534 124.686514,28.0929752 124.756099,28.254398 C124.825684,28.4158208 124.73292,28.6631759 124.477804,28.9964707 C124.222689,29.3297655 123.86669,29.7065451 123.409796,30.1268208 C122.952902,30.5470965 122.438382,31.0001857 121.86622,31.4861019 C121.294058,31.9720181 120.734311,32.4127004 120.186962,32.8081622 C119.639614,33.203624 119.123931,33.5615063 118.639898,33.8818201 C118.155865,34.2021338 117.806239,34.4086773 117.591008,34.501457 C116.461049,34.9885501 115.223257,35.4104673 113.877596,35.7672212 C112.531936,36.123975 111.227224,36.2796399 109.963423,36.2342203 C108.699622,36.1888008 107.533357,35.8700507 106.464594,35.2779604 C105.395831,34.6858702 104.559929,33.6903412 103.956861,32.2913435 Z M124.776888,43.8462397 C124.550291,43.4848298 124.455518,43.1310228 124.492564,42.784808 C124.529611,42.4385933 124.632194,42.1344139 124.800316,41.8722606 C124.968439,41.6101073 125.178028,41.4122036 125.429088,41.2785435 C125.680148,41.1448834 125.915462,41.1149028 126.135038,41.1886008 C126.354613,41.2622988 126.534373,41.4618887 126.674325,41.7873765 C126.814276,42.1128643 126.857203,42.6036721 126.803108,43.2598147 C126.982294,43.8789406 127.417716,44.4086479 128.109386,44.8489523 C128.801056,45.2892568 129.631206,45.6284754 130.599859,45.8666183 C131.568513,46.1047613 132.602325,46.2782902 133.701326,46.3872103 C134.800326,46.4961304 135.85488,46.5569102 136.865017,46.5695517 C137.875154,46.5821931 138.766419,46.5529866 139.538837,46.4819314 C140.254971,46.4271658 140.781883,46.3509152 141.119588,46.2531772 C141.82314,46.0495564 142.36821,45.6935605 142.754814,45.1851787 C143.141418,44.676797 143.425083,44.076218 143.605817,43.3834237 C143.786552,42.6906295 143.874532,41.9408178 143.869759,41.1339662 C143.864987,40.3271146 143.810967,39.5345283 143.707697,38.7561836 C143.604427,37.9778389 143.465055,37.2328292 143.289576,36.5211322 C143.114098,35.8094351 142.95713,35.2143878 142.818667,34.7359723 C142.753509,34.5108356 142.612268,34.1018545 142.394941,33.5090168 C142.177614,32.9161792 141.912714,32.2379985 141.600232,31.4744545 C141.28775,30.7109106 140.953058,29.9233087 140.596145,29.1116254 C140.239231,28.299942 139.884542,27.5486266 139.532066,26.8576564 C139.17959,26.1666863 138.860807,25.618471 138.575708,25.2129942 C138.290609,24.8075173 138.063637,24.6292161 137.894785,24.6780851 C137.613364,24.7595334 137.307133,24.9396587 136.976084,25.2184665 C136.645035,25.4972743 136.303992,25.7942211 135.952946,26.1093158 C135.601899,26.4244105 135.23975,26.7274658 134.866488,27.0184908 C134.493226,27.3095158 134.109606,27.5120391 133.715616,27.6260668 C132.927638,27.8541221 132.104874,27.9092517 131.247299,27.7914571 C130.389725,27.6736625 129.609188,27.4268312 128.905666,27.0509557 C128.202143,26.6750803 127.575656,26.170172 127.026185,25.5362157 C126.476714,24.9022593 126.087957,24.1913026 125.859902,23.4033241 C125.501529,22.1650722 125.381257,20.827431 125.499081,19.3903603 C125.616905,17.9532897 125.950227,16.5758666 126.499058,15.2580498 C127.047888,13.940233 127.808502,12.7746318 128.780922,11.7612111 C129.753343,10.7477904 130.900875,10.049687 132.223553,9.66687981 C133.318117,9.65508672 134.326553,10.0570769 135.248891,10.8728623 C136.17123,11.6886477 137.02004,12.7773132 137.795348,14.1388914 C138.570655,15.5004696 139.294287,17.0523485 139.966265,18.7945745 C140.638244,20.5368006 141.271145,22.3284308 141.864988,24.169519 C142.458831,26.0106072 143.035449,27.8185269 143.594859,29.5933323 C144.154269,31.3681377 144.730158,32.9627763 145.322541,34.3772959 C145.509873,35.024564 145.696639,35.8016053 145.882846,36.7084432 C146.069053,37.615281 146.212118,38.5574648 146.312045,39.5350227 C146.411972,40.5125807 146.446542,41.5014141 146.415757,42.5015528 C146.384972,43.5016914 146.234221,44.4297895 145.963499,45.2858749 C145.692777,46.1419603 145.275804,46.8878673 144.712567,47.523618 C144.149331,48.1593688 143.41745,48.6075548 142.516904,48.8681895 C141.785209,49.0799551 140.881348,49.2500523 139.805293,49.3784862 C138.729238,49.50692 137.582479,49.5490732 136.364984,49.504947 C135.147489,49.4608207 133.912613,49.3302339 132.66032,49.1131827 C131.408026,48.8961315 130.245921,48.5691151 129.173967,48.1321238 C128.102014,47.6951324 127.174493,47.1248543 126.391376,46.4212724 C125.608259,45.7176906 125.070101,44.8593549 124.776888,43.8462397 Z M128.058346,21.9893247 C128.204953,22.4958823 128.422839,22.9589281 128.71201,23.378476 C129.001182,23.7980239 129.346449,24.1479558 129.747824,24.4282822 C130.149199,24.7086086 130.598524,24.8911794 131.095812,24.9760002 C131.593101,25.060821 132.109087,25.025856 132.643787,24.8711041 C134.079034,24.4557177 135.088076,23.8586935 135.670945,23.0800136 C136.253814,22.3013338 136.563781,21.4491511 136.600857,20.5234401 C136.637933,19.5977291 136.518011,18.6564722 136.241086,17.6996412 C135.927875,16.7228129 135.629104,15.8485675 135.344765,15.0768787 C135.230737,14.6828894 135.088569,14.2970508 134.918258,13.9193512 C134.747946,13.5416517 134.529498,13.2083888 134.262907,12.9195528 C133.996317,12.6307167 133.686773,12.4305647 133.334268,12.3190908 C132.981762,12.207617 132.580378,12.2170386 132.130105,12.3473559 C131.201416,12.6161354 130.418434,13.1248594 129.781134,13.8735434 C129.143835,14.6222274 128.662799,15.4629226 128.338011,16.3956543 C128.013224,17.328386 127.828404,18.2968428 127.783548,19.3010538 C127.738693,20.3052649 127.830291,21.2013462 128.058346,21.9893247 Z M141.825597,14.1290753 C141.584076,12.624897 141.577186,11.1498294 141.804926,9.70382845 C142.032666,8.25782746 142.489592,6.94566107 143.175717,5.76728993 C143.861842,4.58891879 144.769649,3.59008963 145.899166,2.7707725 C147.028683,1.95145537 148.403363,1.41175495 150.023247,1.15165505 C150.9964,1.11408792 151.869826,1.24089115 152.64355,1.53206854 C153.417275,1.82324592 154.075915,2.22932925 154.619491,2.7503307 C155.163067,3.27133214 155.598794,3.90607494 155.926685,4.65457813 C156.221004,5.37879945 156.437831,6.17479577 156.57717,7.04259096 C156.744377,8.0839452 156.591602,9.07281056 156.11884,10.0092167 C155.646078,10.9456229 154.992168,11.7701613 154.15709,12.4828566 C153.322012,13.195552 152.393731,13.7896808 151.372219,14.2652609 C150.350707,14.7408409 149.377142,15.0529405 148.451494,15.201569 L147.38845,15.3722587 C147.026868,15.4303167 146.692161,15.424716 146.384317,15.3554564 C146.076474,15.2861968 145.817198,15.1497969 145.606482,14.9462527 C145.395765,14.7427085 145.253252,14.4095293 145.178938,13.9467052 C145.155715,13.8020727 145.15767,13.6756535 145.184803,13.5674437 C145.211937,13.459234 145.323261,13.3671794 145.51878,13.2912771 C145.714299,13.2153749 146.016861,13.1593754 146.426477,13.1232769 C146.840737,13.116105 147.404266,13.1146363 148.117081,13.118871 C148.522052,13.053846 149.085743,12.8223946 149.808172,12.4245098 C150.5306,12.026625 151.254708,11.5468772 151.980517,10.9852519 C152.706327,10.4236267 153.313202,9.81434338 153.801162,9.15738369 C154.289121,8.50042399 154.488974,7.89715138 154.400726,7.34754776 C154.307833,6.76901763 154.122093,6.21282255 153.8435,5.67894584 C153.564907,5.14506913 153.202759,4.69137895 152.757045,4.31786168 C152.311331,3.94434442 151.814474,3.66806126 151.266458,3.48900392 C150.718442,3.30994658 150.130896,3.30043561 149.503802,3.46047072 C148.505309,3.70981268 147.631029,4.13207551 146.880938,4.72727188 C146.130847,5.32246825 145.525764,6.03531512 145.065673,6.86583385 C144.605581,7.69635259 144.288436,8.58550499 144.114228,9.53331775 C143.940021,10.4811305 143.931876,11.446773 144.089794,12.4302742 C144.210554,13.1823634 144.345776,13.932119 144.495463,14.6795635 C144.64515,15.427008 144.87206,16.1472058 145.176198,16.8401783 C145.480336,17.5331507 145.89553,18.1786085 146.421791,18.7765708 C146.948052,19.3745332 147.649552,19.8627502 148.526312,20.2412364 C149.403072,20.6197226 150.4756,20.8777518 151.743926,21.0153317 C153.012253,21.1529116 154.550082,21.121108 156.357459,20.9199197 L164.040584,19.1521653 C163.679942,19.8628627 163.177792,20.4775846 162.534117,20.9963494 C161.890443,21.5151142 161.190616,21.9612914 160.434617,22.3348943 C159.678617,22.7084973 158.91941,23.0158498 158.156973,23.2569611 C157.394536,23.4980724 156.66621,23.6743612 155.971974,23.7858325 C154.294237,24.0552217 152.673643,24.0335532 151.110143,23.7208262 C149.546643,23.4080993 148.120727,22.8433326 146.832353,22.0265091 C145.543979,21.2096856 144.459431,20.1376111 143.578674,18.8102535 C142.697918,17.4828958 142.113565,15.9225187 141.825597,14.1290753 Z M166.229519,16.8286104 C166.454684,16.6411743 166.661242,16.5206874 166.8492,16.4671459 C167.037159,16.4136044 167.248172,16.3808942 167.482247,16.3690143 C167.745581,16.3556494 168.012253,16.4081173 168.28227,16.5264195 C168.552286,16.6447218 168.80184,16.7933949 169.030937,16.9724433 C169.260035,17.1514918 169.496073,17.3228515 169.739058,17.4865278 C169.982042,17.6502041 170.238168,17.7838765 170.507442,17.887549 C171.284521,18.1707923 171.905008,18.4033096 172.368923,18.5851078 C172.832838,18.766906 173.257945,18.9066693 173.644257,19.0044019 C174.030568,19.1021345 174.473165,19.1530073 174.972059,19.1570219 C175.470953,19.1610365 176.115392,19.1429967 176.905394,19.102902 C177.519841,19.0717172 178.266315,19.0411653 179.144838,19.0112453 C180.023362,18.9813254 180.853529,18.8658565 181.635364,18.6648353 C182.417199,18.4638142 183.075305,18.1370707 183.6097,17.6845952 C184.144096,17.2321196 184.389015,16.5670014 184.344465,15.6892205 C184.33066,14.8392141 184.070121,14.185082 183.562839,13.7268049 C183.055557,13.2685277 182.385613,12.9285169 181.552986,12.7067623 C180.720359,12.4850078 179.789421,12.3489159 178.760146,12.2984828 C177.730871,12.2480496 176.671981,12.1917874 175.583445,12.1296945 C174.494909,12.0676016 173.425734,11.9531929 172.375889,11.7864647 C171.326044,11.6197366 170.379625,11.3230919 169.536603,10.8965218 C168.693581,10.4699517 168.002586,9.85966712 167.463598,9.06564979 C166.924609,8.27163245 166.60782,7.2316759 166.513221,5.94574895 C166.641257,5.00053943 167.062363,4.19447502 167.776549,3.52753152 C168.490735,2.86058803 169.358631,2.33252433 170.380261,1.94332457 C171.401891,1.55412482 172.497505,1.3225138 173.667137,1.24848458 C174.836769,1.17445537 175.919459,1.26617747 176.915241,1.52365366 C177.911022,1.78112986 178.755145,2.22963777 179.447635,2.86919086 C180.140125,3.50874395 180.526239,4.32517491 180.605988,5.31850824 C180.694207,5.90072551 180.67482,6.38572519 180.547828,6.77352184 C180.420836,7.16131849 180.237817,7.45661652 179.998765,7.65942477 C179.759713,7.86223303 179.508152,7.96300325 179.244075,7.96173847 C178.979998,7.96047368 178.769989,7.86846221 178.614039,7.6857013 C178.45809,7.50294039 178.37815,7.22832179 178.374218,6.86183727 C178.370285,6.49535275 178.515136,6.02598615 178.808774,5.4537234 C178.663522,4.90373547 178.30477,4.48192873 177.732507,4.18829052 C177.160244,3.89465232 176.505039,3.70056492 175.766873,3.6060225 C175.028706,3.51148008 174.244545,3.52194401 173.414366,3.63741458 C172.584186,3.75288516 171.83125,3.94510363 171.155535,4.21407575 C170.47982,4.48304788 169.939493,4.81848093 169.534537,5.22038497 C169.129581,5.62228901 168.968987,6.0704539 169.052751,6.56489308 C169.0973,7.44267395 169.387841,8.10995046 169.924383,8.56674264 C170.460924,9.02353482 171.145498,9.36280311 171.978125,9.5845577 C172.810752,9.80631228 173.764004,9.94860512 174.837911,10.0114405 C175.911818,10.0742759 177.014596,10.1283106 178.146279,10.1735463 C179.277962,10.218782 180.375281,10.3097616 181.438271,10.4464879 C182.50126,10.5832142 183.468139,10.8494862 184.338935,11.245312 C185.209731,11.6411377 185.912757,12.1994767 186.448033,12.9203457 C186.98331,13.6412146 187.281386,14.6014516 187.34227,15.8010854 C187.388305,16.7081257 187.193956,17.5026816 186.759219,18.184777 C186.324481,18.8668725 185.759831,19.4455479 185.065252,19.9208205 C184.370672,20.3960932 183.604331,20.7576642 182.766204,21.0055444 C181.928077,21.2534246 181.128654,21.3966674 180.367911,21.4352771 C179.607168,21.4738868 178.794861,21.5077799 177.930968,21.5369574 C177.067074,21.5661348 176.186707,21.5594807 175.289842,21.5169948 C174.392976,21.4745088 173.486211,21.3811916 172.569518,21.2370404 C171.652826,21.0928892 170.796782,20.8429928 170.001361,20.4873436 C169.205941,20.1316944 168.485426,19.6622459 167.839795,19.078984 C167.194163,18.4957222 166.65741,17.7456052 166.229519,16.8286104 Z M210.714307,5.51897914 C210.77218,5.26173562 210.902046,5.11828644 211.103909,5.0886273 C211.305772,5.05896816 211.521031,5.0698599 211.749692,5.12130285 C211.921187,5.15988506 212.033016,5.230087 212.085182,5.33191076 C212.137347,5.43373453 212.16486,5.54502515 212.167721,5.66578598 C212.170582,5.7865468 212.189342,5.90337541 212.224001,6.01627529 C212.25866,6.12917518 212.347445,6.20169996 212.490358,6.2338518 C212.890514,6.32387696 213.411778,6.27598957 214.054164,6.09018819 C214.696551,5.90438681 215.395376,5.70125901 216.150663,5.48079869 C216.905949,5.26033838 217.697667,5.07810896 218.52584,4.93410498 C219.354013,4.79010099 220.139662,4.80169362 220.88281,4.96888321 C221.854619,5.18751575 222.691548,5.63855588 223.393621,6.32201713 C224.095694,7.00547839 224.675036,7.83398614 225.131664,8.80756524 C225.588292,9.78114435 225.929515,10.8338481 226.155344,11.9657081 C226.381172,13.0975681 226.530719,14.2347721 226.603989,15.3773542 C226.677259,16.5199363 226.671211,17.6146282 226.585846,18.6614629 C226.500481,19.7082975 226.374206,20.6032754 226.207016,21.3464233 C226.149143,21.6036669 226.040898,21.9847037 225.882277,22.4895452 C225.723657,22.9943867 225.536456,23.4927903 225.320671,23.9847711 C225.104885,24.4767518 224.83926,24.8899472 224.52379,25.2243695 C224.208319,25.5587919 223.879092,25.6874189 223.536101,25.6102545 C223.478936,25.5973937 223.380506,25.5677422 223.240808,25.5212991 C223.10111,25.4748559 222.964629,25.4141224 222.831362,25.3390966 C222.698094,25.2640709 222.587873,25.1867234 222.500695,25.1070519 C222.413516,25.0273803 222.382788,24.9303808 222.40851,24.8160504 C223.160892,22.6730624 223.625479,20.6079995 223.802285,18.6207997 C223.979091,16.6336 223.945643,14.8468665 223.70194,13.2605459 C223.458236,11.6742252 223.018399,10.359105 222.382414,9.31514587 C221.746429,8.27118676 220.956836,7.64311554 220.01361,7.43091337 C219.127548,7.23157194 218.266514,7.18800497 217.430479,7.30021115 C216.594445,7.41241734 215.829525,7.67574763 215.135696,8.09020992 C214.441866,8.50467221 213.843801,9.06078569 213.341481,9.75856702 C212.839161,10.4563484 212.48512,11.2625488 212.279348,12.1771924 C212.073576,13.0918361 211.955162,14.0186113 211.924101,14.9575458 C211.89304,15.8964804 211.883416,16.8402235 211.895229,17.7888037 C211.907042,18.7373838 211.895811,19.6882725 211.861535,20.6414983 C211.827258,21.5947242 211.707236,22.528645 211.501465,23.4432886 C210.701151,23.2632383 210.103418,22.7834318 209.708247,22.0038546 C209.313076,21.2242775 209.06689,20.2830414 208.969684,19.180118 C208.872477,18.0771947 208.875663,16.8617437 208.979243,15.5337287 C209.082822,14.2057137 209.238742,12.9120157 209.447007,11.6525961 C209.655271,10.3931765 209.883185,9.21326904 210.130754,8.1128384 L210.714307,5.51897914 Z M230.383027,18.7506253 C231.060567,17.2886596 231.970836,16.1606061 233.11386,15.366431 C234.256884,14.5722558 235.519175,14.0432582 236.900771,13.7794223 C238.282367,13.5155863 239.70089,13.5029791 241.156384,13.7416001 C242.611877,13.9802211 243.990842,14.4013386 245.293321,15.0049652 C245.984432,15.3252569 246.570502,15.7502448 247.051549,16.2799416 C247.532597,16.8096384 247.94394,17.4200414 248.285593,18.1111688 C248.627245,18.8022961 248.878289,19.532148 249.038731,20.3007463 C249.199174,21.0693445 249.290568,21.8301497 249.312917,22.5831847 C249.335266,23.3362196 249.281438,24.062012 249.15143,24.7605835 C249.021423,25.459155 248.820914,26.1008243 248.549898,26.6856106 C247.921634,28.0412515 247.095324,29.1274905 246.070944,29.9443601 C245.046563,30.7612297 243.913125,31.3257259 242.670594,31.6378659 C241.428064,31.9500058 240.14601,32.0339315 238.824394,31.8896457 C237.502779,31.7453599 236.243913,31.3960467 235.047759,30.8416958 C233.825024,30.2750259 232.791296,29.561849 231.946544,28.7021436 C231.101793,27.8424382 230.46079,26.8914998 230.023518,25.8492998 C229.586245,24.8070998 229.392102,23.6757774 229.44108,22.4552989 C229.490059,21.2348203 229.804039,19.9999415 230.383027,18.7506253 Z M232.484562,19.337088 C232.102675,20.161105 231.889033,21.0227164 231.843628,21.9219479 C231.798222,22.8211794 231.918627,23.6761537 232.204844,24.4868965 C232.491061,25.2976392 232.929307,26.0415966 233.519594,26.7187911 C234.109881,27.3959855 234.830313,27.9316772 235.680911,28.3258824 C236.108154,28.5884662 236.693582,28.7709826 237.437213,28.873437 C238.180844,28.9758913 238.96758,28.9853113 239.797443,28.9016973 C240.627306,28.8180833 241.467533,28.6424094 242.318147,28.3746704 C243.168762,28.1069314 243.944323,27.7398396 244.644854,27.273384 C245.345386,26.8069284 245.905386,26.2430663 246.324871,25.5817808 C246.744356,24.9204953 246.951189,24.16067 246.945375,23.3022819 C246.939561,22.4438939 246.648976,21.4858326 246.073609,20.4280693 C245.498243,19.3703059 244.569068,18.2050908 243.286056,16.9323889 C242.408877,16.5258649 241.43997,16.2302073 240.379308,16.0454073 C239.318646,15.8606074 238.285874,15.8421048 237.28096,15.9898991 C236.276046,16.1376934 235.342457,16.4799831 234.480166,17.0167784 C233.617875,17.5535738 232.95268,18.3270026 232.484562,19.337088 Z M263.666871,38.0461943 C262.892963,38.0592697 262.164284,38.1885857 261.480811,38.4341462 C260.797339,38.6797068 260.121423,38.8960236 259.453044,39.0831031 C258.784665,39.2701826 258.102704,39.3748648 257.407141,39.3971526 C256.711578,39.4194404 255.951891,39.2068611 255.128058,38.7594081 C254.201246,38.2560235 253.472919,37.6020669 252.943055,36.7975185 C252.413192,35.9929701 252.04391,35.0922834 251.835199,34.0954313 C251.626489,33.0985792 251.543954,32.0535847 251.587592,30.9604166 C251.631231,29.8672484 251.766084,28.7903003 251.992157,27.7295401 C252.21823,26.6687798 252.501669,25.6558643 252.842483,24.6907633 C253.183297,23.7256624 253.549459,22.8826976 253.940981,22.1618436 C254.490099,20.6597621 255.119485,19.5930354 255.829156,18.9616315 C256.538827,18.3302276 257.152603,18.0134826 257.670502,18.0113869 C258.188401,18.0092913 258.501549,18.2460508 258.609955,18.7216726 C258.718361,19.1972943 258.452854,19.778209 257.813426,20.464434 C257.706005,20.5394473 257.579996,20.6793757 257.435397,20.8842235 C257.290797,21.0890712 257.142704,21.300352 256.991113,21.5180722 C256.839522,21.7357923 256.694925,21.940637 256.557317,22.1326123 C256.419709,22.3245877 256.329932,22.4591905 256.287983,22.5364249 C255.994342,23.0770653 255.699759,23.7422045 255.404226,24.5318624 C255.108692,25.3215204 254.853609,26.174808 254.63897,27.091751 C254.424331,28.0086939 254.271115,28.9506481 254.179318,29.9176417 C254.087522,30.8846354 254.105532,31.8029019 254.233348,32.672469 C254.361164,33.5420361 254.622698,34.3341927 255.017957,35.0489628 C255.413216,35.7637328 255.971264,36.3168701 256.692118,36.7083915 C257.155524,36.9600838 257.805633,37.0214656 258.642463,36.8925387 C259.479294,36.7636118 260.332871,36.5271031 261.203221,36.1830055 C262.07357,35.8389078 262.87716,35.433559 263.614015,34.9669468 C264.35087,34.5003345 264.845136,34.0353323 265.096828,33.5719263 C265.236657,33.3144784 265.473808,32.8931916 265.808287,32.308053 C266.142766,31.7229145 266.491778,31.0956724 266.855334,30.4263081 C267.218889,29.7569437 267.555029,29.1227103 267.863764,28.5235889 C268.172498,27.9244674 268.389785,27.5090614 268.515631,27.2773584 C268.809929,27.103808 269.085633,26.9951764 269.342753,26.9514604 C269.599872,26.9077445 269.857152,26.9558003 270.1146,27.0956293 C270.423537,27.2634242 270.56912,27.6092063 270.551352,28.1329861 C270.533583,28.6567659 270.414277,29.2754135 270.193428,29.9889476 C269.972579,30.7024817 269.685152,31.4465198 269.331137,32.2210843 C268.977122,32.9956488 268.624224,33.737466 268.27243,34.446558 C267.920636,35.1556501 267.614292,35.7810622 267.353387,36.3228131 C267.092482,36.8645641 266.938837,37.2395236 266.892446,37.4477029 C266.741512,38.032513 266.613548,38.7131365 266.508551,39.4895937 C266.403554,40.2660508 266.302609,41.0196924 266.205714,41.7505409 C266.108818,42.4813895 266.014146,43.1467555 265.921693,43.7466591 C265.829239,44.3465627 265.7131,44.775232 265.573271,45.0326798 C265.363527,45.4188516 265.128269,45.5911247 264.86749,45.5495044 C264.606711,45.507884 264.308984,45.3961866 263.974302,45.2144089 C263.562386,44.9906824 263.31582,44.7234081 263.234597,44.4125781 C263.153375,44.101748 263.155103,43.7609631 263.239783,43.3902132 C263.324462,43.0194632 263.445927,42.6270254 263.604181,42.2128878 C263.762435,41.7987503 263.895498,41.3542684 264.003373,40.8794288 C264.111248,40.4045892 264.153649,39.9275357 264.130579,39.4482541 C264.107509,38.9689724 263.952942,38.5016238 263.666871,38.0461943 Z M268.545454,41.6873716 C268.830941,41.6215791 269.069636,41.6071572 269.261547,41.6441053 C269.453459,41.6810534 269.656557,41.7469897 269.870849,41.8419164 C270.111928,41.9487088 270.326305,42.1157684 270.513988,42.3431002 C270.70167,42.570432 270.857395,42.8156472 270.981166,43.0787533 C271.104937,43.3418594 271.238369,43.6012314 271.381466,43.8568772 C271.524563,44.1125229 271.692917,44.3473115 271.886532,44.56125 C272.452458,45.1644133 272.901479,45.6517005 273.233609,46.0231265 C273.565739,46.3945525 273.88218,46.7109616 274.182942,46.9723635 C274.483703,47.2337653 274.855831,47.4787153 275.299336,47.7072209 C275.742841,47.9357265 276.326202,48.2101639 277.049438,48.5305412 C277.611955,48.7797236 278.292035,49.0889942 279.089698,49.4583623 C279.88736,49.8277304 280.680429,50.0989361 281.468927,50.2719876 C282.257425,50.4450391 282.992162,50.4500879 283.67316,50.2871341 C284.354159,50.1241803 284.872638,49.6409128 285.228612,48.8373172 C285.599508,48.072374 285.661859,47.3710311 285.415668,46.7332674 C285.169476,46.0955036 284.724772,45.4899699 284.081542,44.9166481 C283.438312,44.3433262 282.66871,43.802145 281.772712,43.2930883 C280.876714,42.7840315 279.95691,42.2564201 279.013272,41.7102384 C278.069634,41.1640567 277.166865,40.5799068 276.304937,39.957771 C275.44301,39.3356352 274.731972,38.6441639 274.171802,37.8833365 C273.611633,37.122509 273.26999,36.2662373 273.146862,35.3144957 C273.023735,34.3627541 273.209823,33.291663 273.705133,32.1011904 C274.245558,31.3152167 274.984846,30.7855721 275.923017,30.5122405 C276.861189,30.238909 277.873949,30.1588403 278.961327,30.2720323 C280.048706,30.3852242 281.131075,30.6724357 282.208469,31.1336756 C283.285863,31.5949154 284.210924,32.1649087 284.983682,32.8436723 C285.756439,33.522436 286.3077,34.3033417 286.637483,35.1864127 C286.967266,36.0694838 286.943832,36.9723095 286.56718,37.894917 C286.383436,38.454379 286.147474,38.8785515 285.859286,39.1674471 C285.571097,39.4563427 285.274601,39.6374142 284.969788,39.710667 C284.664974,39.7839199 284.394999,39.7604538 284.159853,39.6402681 C283.924707,39.5200824 283.778734,39.3432714 283.72193,39.1098299 C283.665125,38.8763884 283.71758,38.5952226 283.879296,38.266324 C284.041012,37.9374254 284.381916,37.5837716 284.902019,37.2053518 C285.020323,36.6489446 284.890268,36.1106979 284.511848,35.5905955 C284.133428,35.070493 283.636092,34.6018563 283.019826,34.1846713 C282.403559,33.7674863 281.698896,33.423294 280.905815,33.1520842 C280.112735,32.8808744 279.354001,32.7129947 278.629592,32.6484399 C277.905182,32.5838851 277.271656,32.639692 276.728996,32.8158622 C276.186336,32.9920324 275.840938,33.3196639 275.692792,33.7987664 C275.336817,34.6023619 275.295319,35.3289636 275.568297,35.9785931 C275.841275,36.6282227 276.299372,37.2396892 276.942602,37.8130111 C277.585832,38.3863329 278.372558,38.9431099 279.302802,39.4833587 C280.233047,40.0236075 281.19303,40.5690173 282.182781,41.1196044 C283.172531,41.6701916 284.110986,42.2461177 284.998173,42.8473998 C285.88536,43.448682 286.628353,44.1222664 287.227174,44.8681732 C287.825996,45.61408 288.201797,46.4294088 288.354589,47.3141841 C288.507382,48.1989594 288.340531,49.1904558 287.854032,50.2887031 C287.486191,51.1190852 286.954496,51.7406886 286.258931,52.153532 C285.563365,52.5663755 284.798465,52.8283358 283.964208,52.9394208 C283.129951,53.0505058 282.2829,53.0277469 281.423031,52.8711436 C280.563161,52.7145402 279.785013,52.4819862 279.088563,52.1734747 C278.392114,51.8649632 277.651765,51.5289949 276.867496,51.1655597 C276.083227,50.8021245 275.300408,50.3992793 274.519017,49.957012 C273.737625,49.5147447 272.970314,49.022642 272.21706,48.4806889 C271.463806,47.9387359 270.812361,47.3297373 270.262707,46.6536749 C269.713053,45.9776124 269.281565,45.2337427 268.968231,44.4220434 C268.654896,43.6103441 268.513972,42.698796 268.545454,41.6873716 Z M307.712438,61.5453858 C307.262453,60.2859242 306.915552,58.9392242 306.671724,57.5052453 C306.427896,56.0712664 306.25871,54.6344937 306.164162,53.1948842 C306.069614,51.7552746 306.034323,50.3623234 306.058287,49.0159887 C306.082251,47.669654 306.151494,46.4567476 306.266018,45.3772332 C306.298629,45.1747635 306.320272,44.9482747 306.330947,44.6977599 C306.341622,44.4472451 306.375154,44.1929971 306.431545,43.9350083 C306.487935,43.6770195 306.570919,43.4381551 306.6805,43.2184079 C306.79008,42.9986608 306.945617,42.8159934 307.147115,42.6704002 L307.233887,42.6843763 C307.262811,42.6890351 307.278438,42.6841334 307.280767,42.6696713 C307.283096,42.6552092 307.298723,42.6503076 307.327647,42.6549663 C307.356571,42.659625 307.369869,42.6691853 307.367539,42.6836474 C307.36521,42.6981095 307.392969,42.7099991 307.450818,42.7193166 L307.53759,42.7332926 C307.59078,42.7715343 307.726081,42.8526752 307.943499,42.9767177 C308.160917,43.1007602 308.293889,43.1963629 308.34242,43.2635289 C308.891009,43.1738404 309.459875,43.0503278 310.049035,42.8929874 C310.638194,42.735647 311.232247,42.5939355 311.83121,42.4678487 C312.430173,42.341762 313.030535,42.2529965 313.632313,42.2015497 C314.234092,42.1501028 314.809753,42.168637 315.359313,42.2571527 C315.764253,42.3223747 316.11624,42.3939051 316.415286,42.4717459 C316.714332,42.5495867 317.009879,42.6491192 317.301937,42.7703463 C317.593994,42.8915735 317.905411,43.0307547 318.236197,43.1878942 C318.566982,43.3450337 318.952116,43.533181 319.39161,43.7523417 C319.595052,43.9631569 319.777962,44.163244 319.940347,44.352609 C320.102732,44.5419741 320.247158,44.7506998 320.37363,44.9787924 C320.500103,45.2068851 320.58343,45.4725367 320.623616,45.7757553 C320.663801,46.0789739 320.646625,46.4619714 320.572085,46.9247592 C320.09998,46.9080682 319.563482,46.7845638 318.962575,46.5542422 C318.361668,46.3239206 317.737669,46.0527891 317.090561,45.7408395 C316.443452,45.4288899 315.770001,45.1423748 315.070189,44.8812856 C314.370377,44.6201964 313.685522,44.4505412 313.015606,44.3723149 C312.34569,44.2940886 311.693547,44.3819324 311.059157,44.6358489 C310.405161,44.8272582 309.786215,45.2617017 309.2023,45.9391925 C308.864728,46.7453845 308.645185,47.5557371 308.543665,48.3702746 C308.442145,49.1848121 308.41643,49.9892912 308.466519,50.7837359 C308.516609,51.5781807 308.617314,52.3807661 308.768638,53.1915164 C308.919963,54.0022666 309.056823,54.8106754 309.179223,55.6167669 C309.301623,56.4228585 309.403493,57.218213 309.484836,58.0028543 C309.566179,58.7874957 309.572881,59.5749405 309.504945,60.3652125 C309.458357,60.6544549 309.249196,60.9397633 308.877454,61.2211462 C308.505712,61.5025291 308.117377,61.6106078 307.712438,61.5453858 Z M318.614598,51.4366356 C318.54414,49.9148207 318.703538,48.4483746 319.092796,47.0372534 C319.482054,45.6261323 320.083953,44.3738229 320.898512,43.2802877 C321.713071,42.1867524 322.727666,41.2965995 323.942325,40.6098022 C325.156985,39.9230049 326.583732,39.5416734 328.22261,39.4657962 C329.193797,39.5381455 330.047367,39.7625784 330.783345,40.1391016 C331.519323,40.5156247 332.128,40.9933514 332.609395,41.572296 C333.090789,42.1512405 333.452203,42.8310469 333.693646,43.6117354 C333.904469,44.3645132 334.030202,45.1798749 334.070851,46.0578451 C334.119629,47.1114093 333.856379,48.0767561 333.281094,48.9539146 C332.705808,49.831073 331.963137,50.5766605 331.053057,51.1906995 C330.142977,51.8047385 329.15365,52.2904621 328.085047,52.6478848 C327.016444,53.0053075 326.013907,53.205695 325.077405,53.2490534 L324.001897,53.2988476 C323.636076,53.3157844 323.304133,53.2724969 323.006056,53.1689837 C322.70798,53.0654705 322.465728,52.9007186 322.279295,52.6747229 C322.092861,52.4487272 321.988806,52.1016092 321.967127,51.6333584 C321.960352,51.4870301 321.976543,51.3616366 322.015699,51.2571744 C322.054855,51.1527121 322.175845,51.0737906 322.378672,51.0204074 C322.5815,50.9670242 322.888446,50.9454812 323.29952,50.9557776 C323.711949,50.9953396 324.272054,51.0573916 324.97985,51.1419355 C325.389569,51.1229662 325.975754,50.9565191 326.738422,50.642589 C327.501091,50.328659 328.274654,49.9335768 329.059136,49.4573306 C329.843618,48.9810844 330.515294,48.4440795 331.074186,47.8462999 C331.633078,47.2485203 331.899648,46.6716153 331.873904,46.1155675 C331.846805,45.530254 331.724933,44.9566692 331.508285,44.3947958 C331.291636,43.8329223 330.982928,43.3413076 330.58215,42.9199369 C330.181372,42.4985661 329.718818,42.168046 329.194474,41.9283666 C328.67013,41.6886871 328.0874,41.6130187 327.446265,41.7013589 C326.426031,41.8365792 325.509732,42.1576179 324.697339,42.6644847 C323.884947,43.1713515 323.20338,43.8114622 322.652618,44.5848358 C322.101855,45.3582094 321.686521,46.2059537 321.406602,47.128094 C321.126683,48.0502343 321.009759,49.0088065 321.055828,50.0038393 C321.091056,50.7647468 321.140917,51.5249654 321.205412,52.2845179 C321.269906,53.0440705 321.414201,53.7852529 321.638302,54.5080876 C321.862402,55.2309222 322.202206,55.9190611 322.657722,56.5725248 C323.113238,57.2259885 323.755245,57.7901559 324.583763,58.2650441 C325.41228,58.7399322 326.448894,59.1171943 327.693634,59.3968417 C328.938374,59.676489 330.469989,59.8182056 332.288526,59.8219958 L340.121931,58.9314141 C339.683489,59.5969381 339.115257,60.1511496 338.417217,60.5940653 C337.719177,61.036981 336.973524,61.401443 336.180235,61.6874624 C335.386946,61.9734817 334.597937,62.1933112 333.813184,62.3469576 C333.02843,62.5006039 332.284877,62.593685 331.582501,62.6262038 C329.885092,62.7047909 328.277264,62.5006148 326.758971,62.0136695 C325.240678,61.5267242 323.887498,60.804851 322.699391,59.8480283 C321.511284,58.8912057 320.554471,57.7037299 319.828923,56.2855655 C319.103376,54.8674011 318.698605,53.2511073 318.614598,51.4366356 Z M341.296118,56.4550866 C340.978021,54.6369919 341.02786,53.0519666 341.445636,51.6999633 C341.863412,50.34796 342.533322,49.204666 343.455384,48.2700468 C344.377446,47.3354277 345.507988,46.5725355 346.847042,45.9813475 C348.186097,45.3901595 349.620356,44.9607692 351.149865,44.6931637 C352.390786,44.4760498 353.63096,44.467258 354.870424,44.6667881 C356.109887,44.8663181 357.254455,45.246024 358.30416,45.805917 C359.353866,46.36581 360.243748,47.1172339 360.973832,48.0602111 C361.703916,49.0031883 362.185081,50.1384087 362.417342,51.4659064 C362.619309,52.6202523 362.56823,53.6032269 362.264104,54.4148598 C361.959978,55.2264926 361.469366,55.9071631 360.792254,56.4568917 C360.115142,57.0066202 359.337221,57.4475781 358.458469,57.7797785 C357.579717,58.1119789 356.664187,58.3613865 355.711851,58.5280088 C354.788375,58.6895819 353.835694,58.8116521 352.853782,58.8942231 C351.87187,58.976794 350.949137,58.9300458 350.085554,58.7539772 C349.221971,58.5779086 348.474922,58.217877 347.844385,57.6738717 C347.213848,57.1298664 346.797602,56.2807035 346.595636,55.1263577 C347.201667,55.0203253 347.807505,55.0407288 348.413166,55.1875686 C349.018828,55.3344085 349.634219,55.494413 350.259359,55.6675869 C350.884499,55.8407609 351.505843,55.9922885 352.123409,56.1221745 C352.717166,56.2859683 353.33148,56.312324 353.96637,56.2012425 C354.428109,56.1204559 355.033772,55.9698756 355.783379,55.7494969 C356.532985,55.5291182 357.225408,55.2369563 357.860669,54.8730026 C358.495929,54.5090488 359.020981,54.0677209 359.435841,53.5490055 C359.8507,53.03029 360.000062,52.4390668 359.883932,51.7753179 C359.71226,50.794124 359.346876,49.9806748 358.787767,49.3349461 C358.228658,48.6892173 357.561155,48.1888665 356.785236,47.8338787 C356.009317,47.4788909 355.16577,47.247274 354.254568,47.139021 C353.343366,47.030768 352.454899,47.0523785 351.589139,47.2038533 C351.473705,47.22405 351.197386,47.3021368 350.760176,47.438116 C350.322965,47.5740953 349.827141,47.7575058 349.27269,47.9883529 C348.718238,48.2192 348.139985,48.4839509 347.537915,48.7826136 C346.935844,49.0812764 346.391858,49.414386 345.90594,49.7819526 C345.420022,50.1495192 345.034212,50.5367436 344.748498,50.9436372 C344.462784,51.3505309 344.357798,51.7704113 344.433535,52.203291 L344.524419,52.722744 C344.608819,53.03514 344.719366,53.4544873 344.856063,53.9807985 C344.99276,54.5071097 345.122241,55.0346753 345.244509,55.5635111 C345.366778,56.0923468 345.492112,56.5537192 345.620518,56.9476419 C345.748924,57.3415646 345.818174,57.5673813 345.828273,57.6250985 C345.966777,58.0767386 346.192745,58.7733075 346.506185,59.7148264 C346.819625,60.6563452 347.167686,61.7107582 347.550378,62.8780971 C347.93307,64.0454359 348.348761,65.2739014 348.797462,66.5635305 C349.246163,67.8531595 349.676283,69.0791004 350.087833,70.2413901 C350.499384,71.4036798 350.867826,72.4470915 351.193171,73.3716564 C351.518516,74.2962213 351.762341,74.9673599 351.924655,75.3850921 C351.934753,75.4428094 351.950803,75.492049 351.972806,75.5328123 C351.994809,75.5735757 352.008335,75.6083862 352.013385,75.6372449 L352.020958,75.6805326 L351.992818,75.7746818 L352.007965,75.8612573 C351.965395,75.9579316 351.860779,76.1249435 351.694113,76.3622982 C351.493538,76.5758433 351.369444,76.7165216 351.321825,76.7843372 L351.062098,76.8297794 C350.773512,76.880271 350.423796,76.666348 350.012942,76.1880038 C349.602087,75.7096596 349.151205,75.0450065 348.660282,74.1940245 C348.169359,73.3430424 347.654461,72.3549967 347.115571,71.2298575 C346.576681,70.1047184 346.03744,68.9350465 345.497831,67.7208069 C344.958223,66.5065672 344.450006,65.3017258 343.973164,64.1062465 C343.496323,62.9107671 343.063493,61.7968313 342.674664,60.7644055 C342.285835,59.7319797 341.972758,58.8350246 341.735426,58.0735132 C341.498093,57.3120018 341.351659,56.7725317 341.296118,56.4550866 Z M366.323787,49.8085884 C366.483842,48.2052211 366.973345,46.8408603 367.79231,45.715465 C368.611274,44.5900697 369.629949,43.6760027 370.848365,42.9732365 C372.066781,42.2704703 373.402551,41.7928871 374.855716,41.5404726 C376.30888,41.2880582 377.749668,41.233149 379.178123,41.3757434 C379.936078,41.4514057 380.629184,41.6604449 381.257461,42.0028672 C381.885738,42.3452895 382.474669,42.7868275 383.024271,43.3274945 C383.573874,43.8681616 384.050601,44.4751521 384.454468,45.1484844 C384.858336,45.8218167 385.194423,46.510455 385.46274,47.2144201 C385.731058,47.9183852 385.918477,48.621625 386.025002,49.3241607 C386.131528,50.0266964 386.15278,50.6986276 386.088758,51.3399745 C385.940343,52.8267333 385.516419,54.1240349 384.816973,55.2319185 C384.117527,56.339802 383.232217,57.2451005 382.161017,57.9478411 C381.089817,58.6505817 379.906365,59.1507305 378.610627,59.4483026 C377.314889,59.7458746 376.011117,59.8291824 374.699271,59.6982284 C373.358273,59.5643642 372.147712,59.230065 371.067551,58.6953206 C369.98739,58.1605762 369.069737,57.4727679 368.314563,56.6318749 C367.55939,55.7909818 367.004613,54.7860911 366.650218,53.6171726 C366.295822,52.448254 366.187013,51.1787387 366.323787,49.8085884 Z M368.501379,49.6726551 C368.411166,50.5763712 368.492215,51.460367 368.744527,52.3246688 C368.996839,53.1889706 369.391242,53.9570358 369.927749,54.6288874 C370.464256,55.300739 371.122441,55.8595986 371.902325,56.3054827 C372.682208,56.7513669 373.538572,57.0208664 374.47144,57.1139892 C374.961206,57.221765 375.574106,57.2019813 376.310159,57.0546375 C377.046212,56.9072937 377.792439,56.6579212 378.548863,56.3065125 C379.305286,55.9551038 380.041277,55.5133352 380.756857,54.9811935 C381.472436,54.4490518 382.084507,53.847702 382.593086,53.1771261 C383.101665,52.5065502 383.445525,51.7900999 383.624674,51.0277536 C383.803824,50.2654074 383.749758,49.4797923 383.462474,48.6708847 C383.175189,47.861977 382.586194,47.0524052 381.695471,46.242145 C380.804748,45.4318848 379.544549,44.6362766 377.914838,43.8552967 C376.952817,43.7592637 375.940549,43.7980652 374.878002,43.9717022 C373.815456,44.1453393 372.833845,44.466902 371.933142,44.9363999 C371.032438,45.4058978 370.262957,46.0356974 369.624673,46.8258176 C368.98639,47.6159377 368.611963,48.5648741 368.501379,49.6726551 Z M389.668991,57.0246077 C389.961222,57.0038071 390.199272,57.0265135 390.383149,57.0927275 C390.567026,57.1589414 390.757468,57.2555262 390.95448,57.3824847 C391.176118,57.5253129 391.362047,57.7235478 391.512271,57.9771953 C391.662496,58.2308429 391.778379,58.4972105 391.859924,58.7763064 C391.941469,59.0554022 392.033136,59.3323047 392.13493,59.6070221 C392.236723,59.8817396 392.366697,60.1397616 392.524857,60.3810959 C392.990578,61.0646024 393.358744,61.6155311 393.629366,62.0338986 C393.899988,62.4522662 394.163628,62.8138512 394.420294,63.1186647 C394.676959,63.4234782 395.006677,63.7230871 395.409458,64.0175003 C395.812239,64.3119135 396.346079,64.673357 397.010994,65.1018418 C397.528151,65.4351077 398.15215,65.8459382 398.88301,66.3343456 C399.613871,66.822753 400.355389,67.2134703 401.107589,67.5065093 C401.859788,67.7995483 402.584885,67.918287 403.282901,67.862729 C403.980917,67.8071709 404.567963,67.4100003 405.044057,66.6712052 C405.528908,65.9729063 405.699088,65.2896726 405.554603,64.6214835 C405.410117,63.9532944 405.064522,63.2862133 404.517809,62.6202202 C403.971095,61.9542271 403.294556,61.3004224 402.488173,60.6587864 C401.681789,60.0171504 400.854759,59.353498 400.007058,58.6678092 C399.159357,57.9821204 398.357909,57.2652483 397.602692,56.5171714 C396.847474,55.7690945 396.252062,54.9758786 395.816437,54.1375 C395.380812,53.2991214 395.175854,52.4002811 395.201558,51.4409523 C395.227262,50.4816235 395.576931,49.4522565 396.250576,48.3528205 C396.906169,47.6599912 397.718541,47.2511877 398.687718,47.1263979 C399.656895,47.0016081 400.66984,47.0792987 401.726583,47.3594719 C402.783327,47.6396452 403.808181,48.0909646 404.801176,48.7134436 C405.794171,49.3359225 406.619834,50.0422598 407.278189,50.8324766 C407.936544,51.6226934 408.36026,52.479529 408.549351,53.4030093 C408.738442,54.3264895 408.575517,55.2148018 408.06057,56.0679727 C407.792427,56.5922424 407.49364,56.9747693 407.1642,57.2155649 C406.83476,57.4563604 406.513805,57.5893456 406.201326,57.6145246 C405.888847,57.6397035 405.625759,57.5747232 405.412056,57.4195817 C405.198352,57.2644402 405.081513,57.0671618 405.061534,56.8277405 C405.041555,56.5883191 405.136907,56.3186643 405.347593,56.0187679 C405.558279,55.7188715 405.949825,55.4222599 406.522243,55.1289242 C406.725263,54.5975413 406.680106,54.0456493 406.38677,53.4732314 C406.093434,52.9008136 405.674649,52.3608305 405.1304,51.8532661 C404.586152,51.3457017 403.943272,50.8965647 403.201742,50.5058415 C402.460212,50.1151183 401.736617,49.8317967 401.030936,49.6558683 C400.325255,49.47994 399.690728,49.4369926 399.127336,49.527025 C398.563944,49.6170574 398.171987,49.8872646 397.951454,50.3376548 C397.47536,51.0764499 397.321871,51.7878663 397.490983,52.4719252 C397.660095,53.1559842 398.018002,53.831 398.564716,54.4969931 C399.11143,55.1629862 399.802471,55.8348497 400.637859,56.5126036 C401.473247,57.1903575 402.337217,57.8778143 403.229793,58.5749946 C404.122369,59.2721748 404.960344,59.9864469 405.743745,60.7178322 C406.527145,61.4492175 407.156897,62.2297094 407.633018,63.0593313 C408.10914,63.8889532 408.354182,64.7526325 408.368153,65.6503951 C408.382123,66.5481576 408.063783,67.501868 407.41312,68.5115547 C406.921157,69.2749763 406.299637,69.8067689 405.548542,70.1069484 C404.797447,70.4071279 404.001213,70.5475092 403.159817,70.5280965 C402.318421,70.5086838 401.485106,70.3550604 400.659849,70.0672216 C399.834592,69.7793828 399.101829,69.4291611 398.46154,69.0165462 C397.821251,68.6039312 397.141843,68.1573942 396.423296,67.6769217 C395.704749,67.1964492 394.993737,66.6772664 394.290238,66.1193578 C393.586739,65.5614493 392.904866,64.9564859 392.244598,64.3044497 C391.58433,63.6524134 391.035024,62.949902 390.596664,62.1968943 C390.158304,61.4438867 389.847184,60.6421836 389.663293,59.7917611 C389.479402,58.9413386 389.481301,58.0189633 389.668991,57.0246077 Z M414.266795,64.9835065 C415.278442,63.8444476 416.416063,62.9054634 417.679691,62.1665256 C418.943318,61.4275878 420.248397,60.950794 421.594965,60.73613 C422.941533,60.521466 424.289416,60.5920679 425.638655,60.9479379 C426.987893,61.3038078 428.275833,62.026465 429.502512,63.1159312 C430.147557,63.8455579 430.602225,64.6020155 430.866531,65.3853266 C431.130836,66.1686378 431.23334,66.9355822 431.174045,67.6861829 C431.114749,68.4367836 430.899133,69.1758817 430.52719,69.9034994 C430.152796,70.5897574 429.673785,71.2614509 429.090142,71.9186003 C428.389771,72.7071795 427.527503,73.2148088 426.50331,73.4415033 C425.479118,73.6681979 424.426874,73.6838424 423.346547,73.4884374 C422.26622,73.2930324 421.218693,72.9504233 420.203934,72.4605997 C419.189174,71.9707761 418.331328,71.4145966 417.630369,70.7920446 L416.825365,70.077086 C416.551553,69.8339016 416.344034,69.5712296 416.202804,69.2890621 C416.061573,69.0068947 416.003062,68.7198311 416.02727,68.4278628 C416.051479,68.1358944 416.219218,67.8146753 416.530494,67.4641956 C416.627768,67.3546707 416.726878,67.2761668 416.827827,67.2286815 C416.928776,67.1811962 417.070507,67.2091161 417.253024,67.3124419 C417.435541,67.4157677 417.670403,67.6145633 417.957618,67.9088348 C418.225379,68.2250113 418.583204,68.66036 419.031104,69.214894 C419.337774,69.4872605 419.873752,69.7771663 420.639054,70.0846199 C421.404356,70.3920736 422.234098,70.6490121 423.128307,70.8554431 C424.022515,71.0618741 424.87834,71.1460624 425.695807,71.1080103 C426.513274,71.0699583 427.106819,70.8428384 427.476459,70.4266438 C427.865554,69.9885443 428.17859,69.4927004 428.415575,68.9390975 C428.65256,68.3854945 428.77458,67.8179583 428.781636,67.2364719 C428.788693,66.6549854 428.6881,66.0954491 428.479856,65.5578461 C428.271612,65.0202431 427.907085,64.5593513 427.386266,64.1751567 C426.561228,63.5599552 425.680938,63.1503703 424.74537,62.9463895 C423.809802,62.7424087 422.874934,62.7251595 421.940738,62.8946414 C421.006543,63.0641233 420.117432,63.3813855 419.27338,63.8464375 C418.429328,64.3114896 417.676582,64.9163912 417.015121,65.6611604 C416.509297,66.2306899 416.014434,66.809938 415.530515,67.3989222 C415.046596,67.9879063 414.63265,68.6194291 414.288664,69.2935095 C413.944677,69.9675898 413.707769,70.6975733 413.577932,71.4834817 C413.448095,72.2693901 413.51414,73.1215029 413.776068,74.0398457 C414.037997,74.9581885 414.517094,75.9518485 415.213373,77.0208553 C415.909653,78.0898622 416.90765,79.2603029 418.207394,80.5322125 L424.439035,85.3614998 C423.660551,85.5321332 422.866801,85.5324641 422.057763,85.3624924 C421.248724,85.1925206 420.460341,84.933132 419.692589,84.5843186 C418.924836,84.2355052 418.206344,83.8422752 417.537091,83.4046168 C416.867837,82.9669584 416.27036,82.5146789 415.74464,82.0477649 C414.474152,80.9193892 413.465166,79.6510269 412.717652,78.24264 C411.970138,76.834253 411.504836,75.3728529 411.321731,73.8583958 C411.138626,72.3439387 411.282145,70.8257187 411.752293,69.3036904 C412.222442,67.781662 413.0606,66.3416151 414.266795,64.9835065 Z M437.313396,78.9416676 C437.519489,78.7772014 437.710548,78.7465488 437.886577,78.8497089 C438.062606,78.9528689 438.223715,79.0960438 438.369907,79.2792378 C438.479551,79.4166333 438.522866,79.5413642 438.499853,79.6534344 C438.476841,79.7655046 438.428674,79.8695358 438.355351,79.9655311 C438.282028,80.0615265 438.223567,80.1644014 438.179968,80.274159 C438.136369,80.3839165 438.160254,80.4960418 438.251624,80.610538 C438.50746,80.9311275 438.944058,81.2199032 439.56143,81.476874 C440.178802,81.7338447 440.851043,82.0126109 441.578173,82.3131809 C442.305303,82.6137509 443.036933,82.9669385 443.773087,83.3727544 C444.50924,83.7785702 445.11487,84.2791608 445.589994,84.8745413 C446.211311,85.6531157 446.582,86.5286018 446.702073,87.5010257 C446.822146,88.4734497 446.755727,89.4822364 446.502814,90.5274162 C446.249902,91.5725959 445.857457,92.6072966 445.325468,93.6315494 C444.79348,94.6558022 444.198641,95.6364977 443.540933,96.5736653 C442.883226,97.5108329 442.193606,98.3610159 441.472052,99.12424 C440.750499,99.887464 440.092042,100.506629 439.496662,100.981754 C439.290569,101.14622 438.967728,101.375741 438.528131,101.670325 C438.088533,101.964908 437.630668,102.236589 437.154523,102.485374 C436.678377,102.734159 436.212646,102.890301 435.757313,102.953807 C435.301981,103.017312 434.964676,102.911671 434.745388,102.63688 C434.70884,102.591081 434.650607,102.506367 434.570686,102.382734 C434.490766,102.2591 434.422296,102.126332 434.365275,101.984425 C434.308253,101.842518 434.270663,101.713218 434.252502,101.596523 C434.234342,101.479827 434.271059,101.384933 434.362656,101.311837 C436.290365,100.11083 437.944811,98.790552 439.326044,97.3509622 C440.707277,95.9113724 441.799067,94.4966187 442.601449,93.1066586 C443.40383,91.7166985 443.883529,90.4155885 444.040559,89.2032896 C444.19759,87.9909907 443.974588,87.0070185 443.371545,86.2513433 C442.80505,85.5414666 442.160617,84.9687671 441.438226,84.5332276 C440.715835,84.0976882 439.954367,83.8245333 439.153801,83.7137548 C438.353235,83.6029762 437.538749,83.6626147 436.710318,83.892672 C435.881887,84.1227292 435.101295,84.5301361 434.368519,85.1149048 C433.635743,85.6996736 432.963524,86.3485618 432.351842,87.061589 C431.74016,87.7746162 431.142192,88.5048069 430.557921,89.252183 C429.97365,89.9995591 429.369958,90.7343182 428.746826,91.4564824 C428.123694,92.1786466 427.44575,92.8321033 426.712974,93.416872 C426.201302,92.7756931 426.035206,92.0274207 426.214682,91.1720325 C426.394158,90.3166442 426.791002,89.4283603 427.405223,88.5071542 C428.019445,87.585948 428.782387,86.639771 429.694072,85.6685949 C430.605757,84.6974188 431.536801,83.7857603 432.487234,82.9335922 C433.437666,82.0814241 434.353679,81.3035768 435.2353,80.6000269 L437.313396,78.9416676 Z M452.15466,103.39542 L451.602142,102.295976 C451.339036,101.772429 451.111878,101.206236 450.920661,100.597379 C450.729443,99.988522 450.623437,99.4024294 450.602638,98.8390834 C450.58184,98.2757374 450.767768,97.8954056 451.160429,97.6980765 C451.265138,97.6454554 451.425522,97.5894465 451.641585,97.530048 C451.857648,97.4706495 452.018299,97.5456586 452.123541,97.7550775 L454.509413,101.621864 C455.530596,101.239829 456.361915,100.920419 457.003393,100.663625 C457.644872,100.40683 458.227343,100.130507 458.750823,99.8346469 C459.274304,99.5387865 459.820665,99.2232312 460.389923,98.8879716 C460.959181,98.5527119 461.708413,98.1352048 462.637643,97.6354377 C462.820884,97.5433508 462.98459,97.5102633 463.128766,97.5361743 C463.272941,97.5620853 463.400803,97.6207837 463.512357,97.7122713 C463.62391,97.8037589 463.728951,97.9149111 463.827482,98.0457314 C463.926014,98.1765516 463.995011,98.2812262 464.034477,98.3597583 C464.113409,98.5168224 464.143274,98.7067386 464.124074,98.9295126 C464.104874,99.1522865 464.04963,99.3685795 463.958343,99.5783979 C463.867055,99.7882163 463.756069,99.9751434 463.625382,100.139185 C463.494695,100.303226 463.350821,100.424711 463.193757,100.503642 L456.008906,104.507804 L457.548864,107.963598 C457.824859,108.382303 457.946976,108.837344 457.91522,109.328736 C457.883464,109.820127 457.573128,110.230191 456.984204,110.55894 C456.486035,110.41583 456.092415,110.138216 455.803332,109.726089 C455.514249,109.313962 455.25457,108.862476 455.024286,108.371617 C454.794002,107.880758 454.553922,107.403028 454.304038,106.938414 C454.054155,106.473799 453.719333,106.117454 453.299563,105.869368 C453.142499,105.9483 452.717156,106.178447 452.023523,106.559817 C451.329889,106.941186 450.505381,107.388326 449.549974,107.901248 C448.594567,108.41417 447.57702,108.966517 446.497304,109.558305 C445.417588,110.150092 444.419674,110.692572 443.503533,111.185762 C442.587392,111.678951 441.805405,112.096525 441.157548,112.438495 C440.509692,112.780466 440.146503,112.971181 440.067971,113.010647 C439.398917,112.592741 439.188269,112.092024 439.436022,111.508479 C439.683775,110.924934 440.177116,110.308143 440.91606,109.658089 C441.655005,109.008036 442.570799,108.351081 443.663471,107.687206 C444.756143,107.023331 445.855442,106.405309 446.961403,105.833121 C448.067363,105.260933 449.098098,104.751141 450.053638,104.303728 C451.009178,103.856316 451.709512,103.55355 452.15466,103.39542 Z" id="les-nuages-nous-repo" fill="#FFFFFF"></path>
        </g>
    </g>
</svg>