<?xml version="1.0" encoding="UTF-8"?>
<svg width="474px" height="68px" viewBox="0 0 474 68" version="1.1" xmlns="http://www.w3.org/2000/svg" xmlns:xlink="http://www.w3.org/1999/xlink">
    <!-- Generator: Sketch 52.6 (67491) - http://www.bohemiancoding.com/sketch -->
    <title>De temps en temps</title>
    <desc>Created with Sketch.</desc>
    <defs>
        <radialGradient cx="50%" cy="50%" fx="50%" fy="50%" r="50%" id="radialGradient-1">
            <stop stop-color="#FFFFFF" offset="0%"></stop>
            <stop stop-color="#FFFFFF" stop-opacity="0" offset="100%"></stop>
        </radialGradient>
    </defs>
    <g id="De-temps-en-temps" stroke="none" stroke-width="1" fill="none" fill-rule="evenodd">
        <g>
            <path d="M17.9423828,41.2753906 C17.9423828,41.0410145 17.9790035,40.7993177 18.0522461,40.550293 C18.1254886,40.3012683 18.3085923,40.1767578 18.6015625,40.1767578 C18.7480476,40.1767578 19.121579,40.2573234 19.722168,40.418457 C20.3227569,40.5795906 20.9746059,40.7626943 21.6777344,40.9677734 C22.3808629,41.1728526 23.0693326,41.3632804 23.7431641,41.5390625 C24.4169956,41.7148446 24.8857409,41.8173827 25.1494141,41.8466797 L25.3691406,41.8466797 C26.6582096,41.8466797 27.9619075,41.6049829 29.2802734,41.121582 C30.5986394,40.6381812 31.7997993,39.9570356 32.8837891,39.078125 C33.9677789,38.1992144 34.8540005,37.1811581 35.5424805,36.0239258 C36.2309605,34.8666934 36.5751953,33.6142646 36.5751953,32.2666016 C36.5751953,31.2119088 36.3701192,30.1792043 35.9599609,29.168457 C35.5498026,28.1577098 35.0004917,27.1835984 34.3120117,26.2460938 C33.6235317,25.3085891 32.8178757,24.4443399 31.8950195,23.6533203 C30.9721634,22.8623007 29.998052,22.1518586 28.9726562,21.5219727 C27.9472605,20.8920867 26.9072318,20.3574241 25.8525391,19.9179688 C24.7978463,19.4785134 23.7871142,19.1708993 22.8203125,18.9951172 C22.8496095,20.8701266 23.0034166,22.6425698 23.2817383,24.3125 C23.56006,25.9824302 23.8383775,27.5864181 24.1166992,29.1245117 C24.3950209,30.6626053 24.6074211,32.1640552 24.7539062,33.6289062 C24.9296884,35.0937573 24.9296884,36.5585864 24.7539062,38.0234375 L24.7539062,38.5727539 C24.7539062,38.7631845 24.7172855,38.9536123 24.644043,39.144043 C24.5708004,39.3344736 24.4536141,39.4882807 24.2924805,39.6054688 C24.1313469,39.7226568 23.9335949,39.78125 23.6992188,39.78125 C23.2597634,40.0156262 22.9228527,39.9277364 22.6884766,39.5175781 C22.4541004,39.1074198 22.2783209,38.4848675 22.1611328,37.6499023 C22.0439447,36.8149372 21.9707033,35.8261776 21.9414062,34.6835938 C21.9121092,33.5410099 21.8608402,32.3471742 21.7875977,31.1020508 C21.7143551,29.8569274 21.6191412,28.6337951 21.5019531,27.4326172 C21.384765,26.2314393 21.1943373,25.1328175 20.9306641,24.1367188 C20.87207,23.7851545 20.7988286,23.3310575 20.7109375,22.7744141 C20.6230464,22.2177707 20.5058601,21.6391632 20.359375,21.0385742 C20.2128899,20.4379853 20.0444345,19.8813502 19.8540039,19.3686523 C19.6635733,18.8559545 19.4658213,18.482423 19.2607422,18.2480469 C17.1513566,18.2480469 15.4668032,18.3139642 14.2070312,18.4458008 C12.9472593,18.5776374 11.9438514,18.7314444 11.1967773,18.9072266 C10.4497033,19.0830087 9.90771653,19.2661123 9.57080078,19.456543 C9.23388503,19.6469736 8.93359507,19.8007807 8.66992188,19.9179688 L8.58203125,19.9619141 C8.52343721,19.9912111 8.47949233,20.0058594 8.45019531,20.0058594 C8.39160127,20.0058594 8.36230469,19.9912111 8.36230469,19.9619141 C8.33300767,19.932617 8.30371108,19.9179688 8.27441406,19.9179688 C8.24511704,19.8886717 8.21582046,19.8300786 8.18652344,19.7421875 L8.07666016,19.4125977 C8.03271462,19.2807611 7.98876975,19.1416023 7.94482422,18.9951172 C7.90087869,18.8486321 7.87890625,18.746094 7.87890625,18.6875 L7.87890625,18.5117188 C7.87890625,18.1015604 8.09130647,17.7500015 8.51611328,17.4570312 C8.94092009,17.164061 9.46825857,16.9150401 10.0981445,16.7099609 C10.7280305,16.5048818 11.4238243,16.3364264 12.1855469,16.2045898 C12.9472694,16.0727532 13.6577115,15.9775394 14.3168945,15.9189453 C14.9760775,15.8603513 15.5327126,15.8090823 15.9868164,15.7651367 C16.4409202,15.7211912 16.682617,15.6992188 16.7119141,15.6992188 C18.2060622,15.6992188 19.8027259,15.8676741 21.5019531,16.2045898 C23.2011804,16.5415056 24.8784097,17.0322233 26.5336914,17.6767578 C28.1889731,18.3212923 29.7709885,19.1196241 31.2797852,20.0717773 C32.7885818,21.0239305 34.1215762,22.1152282 35.2788086,23.3457031 C36.4360409,24.576178 37.3588833,25.9531174 38.0473633,27.4765625 C38.7358433,29.0000076 39.0800781,30.6406162 39.0800781,32.3984375 C39.0800781,34.0097737 38.8310572,35.4599545 38.3330078,36.7490234 C37.8349584,38.0380924 37.1464888,39.1660108 36.2675781,40.1328125 C35.3886675,41.0996142 34.3632871,41.9125944 33.1914062,42.5717773 C32.0195254,43.2309603 30.7744207,43.7143539 29.4560547,44.0219727 C28.1376887,44.3295914 26.7827218,44.4833984 25.3911133,44.4833984 C23.9995048,44.4833984 22.6445378,44.3222672 21.3261719,44 C21.0624987,43.9121089 20.7402363,43.7875985 20.359375,43.6264648 C19.9785137,43.4653312 19.6049823,43.2822276 19.2387695,43.0771484 C18.8725568,42.8720693 18.5649427,42.6157242 18.315918,42.3081055 C18.0668933,42.0004867 17.9423828,41.6562519 17.9423828,41.2753906 Z M41.1894531,32.2226562 C41.1894531,30.6992111 41.4165016,29.2417062 41.8706055,27.8500977 C42.3247093,26.4584891 42.9838824,25.2353568 43.8481445,24.1806641 C44.7124067,23.1259713 45.7670836,22.2836946 47.012207,21.6538086 C48.2573304,21.0239226 49.7001871,20.7089844 51.3408203,20.7089844 C52.307622,20.8261725 53.1498988,21.0898417 53.8676758,21.5 C54.5854528,21.9101583 55.1713844,22.4155243 55.6254883,23.0161133 C56.0795921,23.6167022 56.4091787,24.312496 56.6142578,25.1035156 C56.7900399,25.8652382 56.8779297,26.6855425 56.8779297,27.5644531 C56.8779297,28.6191459 56.5703156,29.5712848 55.9550781,30.4208984 C55.3398407,31.2705121 54.5634813,31.9809542 53.6259766,32.5522461 C52.6884719,33.123538 51.6777398,33.5629867 50.59375,33.8706055 C49.5097602,34.1782242 48.4990281,34.3320312 47.5615234,34.3320312 L46.4848633,34.3320312 C46.1186505,34.3320312 45.789064,34.2734381 45.4960938,34.15625 C45.2031235,34.0390619 44.9687509,33.8632824 44.7929688,33.6289062 C44.6171866,33.3945301 44.5292969,33.0429711 44.5292969,32.5742188 C44.5292969,32.4277336 44.5512693,32.3032232 44.5952148,32.2006836 C44.6391604,32.098144 44.7636708,32.0249026 44.96875,31.980957 C45.1738292,31.9370115 45.4814433,31.9296874 45.8916016,31.9589844 C46.3017599,32.0175784 46.8583949,32.1054682 47.5615234,32.2226562 C47.9716817,32.2226562 48.5649375,32.0834975 49.3413086,31.8051758 C50.1176797,31.5268541 50.9086874,31.1679709 51.7143555,30.7285156 C52.5200236,30.2890603 53.2158174,29.7836943 53.8017578,29.2124023 C54.3876982,28.6411104 54.6806641,28.0771512 54.6806641,27.5205078 C54.6806641,26.9345674 54.5854502,26.3559599 54.3950195,25.784668 C54.2045889,25.213376 53.9189472,24.70801 53.5380859,24.2685547 C53.1572247,23.8290994 52.7104518,23.4775404 52.1977539,23.2138672 C51.685056,22.950194 51.1064485,22.847656 50.4619141,22.90625 C49.4365183,22.9941411 48.5063518,23.2724586 47.6713867,23.7412109 C46.8364216,24.2099633 46.1259795,24.8178674 45.5400391,25.5649414 C44.9540986,26.3120155 44.5000016,27.1396439 44.1777344,28.0478516 C43.8554671,28.9560592 43.6943359,29.9081981 43.6943359,30.9042969 C43.6943359,31.6660194 43.7089842,32.4277306 43.7382812,33.1894531 C43.7675783,33.9511757 43.8774405,34.6982385 44.0678711,35.4306641 C44.2583017,36.1630896 44.5659158,36.8662076 44.9907227,37.5400391 C45.4155295,38.2138706 46.0307577,38.8071263 46.8364258,39.3198242 C47.6420939,39.8325221 48.6601501,40.2573225 49.890625,40.5942383 C51.1210999,40.931154 52.6445222,41.1435542 54.4609375,41.2314453 L62.3271484,40.7041016 C61.8583961,41.348636 61.2651403,41.8759745 60.5473633,42.2861328 C59.8295863,42.6962911 59.0678751,43.0258777 58.262207,43.2749023 C57.4565389,43.523927 56.6582071,43.7070307 55.8671875,43.8242188 C55.0761679,43.9414068 54.3291051,44 53.6259766,44 C51.9267493,44 50.3300856,43.7216825 48.8359375,43.1650391 C47.3417894,42.6083957 46.0234432,41.8247121 44.8808594,40.8139648 C43.7382755,39.8032176 42.8374056,38.5727612 42.1782227,37.1225586 C41.5190397,35.672356 41.1894531,34.0390716 41.1894531,32.2226562 Z M86.4091797,28.8828125 L85.1787109,28.8828125 C84.5927705,28.8828125 83.9848664,28.8315435 83.3549805,28.7290039 C82.7250945,28.6264643 82.1538112,28.458009 81.6411133,28.2236328 C81.1284154,27.9892566 80.8720703,27.6523459 80.8720703,27.2128906 C80.8720703,27.0957025 80.8940427,26.9272472 80.9379883,26.7075195 C80.9819338,26.4877919 81.1210926,26.3779297 81.3554688,26.3779297 L85.8818359,25.9824219 C85.999024,24.8984321 86.0869138,24.0122105 86.1455078,23.3237305 C86.2041019,22.6352505 86.2187501,21.9907257 86.1894531,21.3901367 C86.1601561,20.7895478 86.1235354,20.1596713 86.0795898,19.5004883 C86.0356443,18.8413053 85.9990236,17.9843803 85.9697266,16.9296875 C85.9697266,16.7246083 86.0136714,16.5634771 86.1015625,16.4462891 C86.1894536,16.329101 86.2993157,16.2412112 86.4311523,16.1826172 C86.5629889,16.1240231 86.7094719,16.0800783 86.8706055,16.0507812 C87.0317391,16.0214842 87.1562496,16.0068359 87.2441406,16.0068359 C87.4199228,16.0068359 87.6030264,16.0654291 87.793457,16.1826172 C87.9838877,16.2998053 88.152343,16.4462882 88.2988281,16.6220703 C88.4453132,16.7978524 88.5624996,16.9809561 88.6503906,17.1713867 C88.7382817,17.3618174 88.7822266,17.544921 88.7822266,17.7207031 L89.1337891,25.9384766 L92.9130859,26.1142578 C93.4111353,26.0556638 93.8725565,26.1508777 94.2973633,26.3999023 C94.7221701,26.648927 94.9492186,27.1103482 94.9785156,27.7841797 C94.6269514,28.165041 94.2021509,28.3920895 93.7041016,28.465332 C93.2060522,28.5385746 92.6860379,28.5678712 92.144043,28.5532227 C91.6020481,28.5385741 91.0673854,28.5385741 90.5400391,28.5532227 C90.0126927,28.5678712 89.5439474,28.7070299 89.1337891,28.9707031 C89.1337891,29.1464853 89.1484374,29.6298789 89.1777344,30.4208984 C89.2070314,31.211918 89.236328,32.1494086 89.265625,33.2333984 C89.294922,34.3173882 89.3315427,35.4746032 89.3754883,36.7050781 C89.4194338,37.935553 89.4560545,39.0707956 89.4853516,40.1108398 C89.5146486,41.1508841 89.536621,42.0371057 89.5512695,42.7695312 C89.565918,43.5019568 89.5732422,43.9121089 89.5732422,44 C88.8994107,44.4101583 88.3574239,44.3735376 87.9472656,43.8901367 C87.5371073,43.4067359 87.2075208,42.6889696 86.9584961,41.7368164 C86.7094714,40.7846632 86.5336919,39.6713931 86.4311523,38.3969727 C86.3286128,37.1225522 86.2700196,35.8627992 86.2553711,34.6176758 C86.2407226,33.3725524 86.2480467,32.2226615 86.2773438,31.1679688 C86.3066408,30.113276 86.3505856,29.3515648 86.4091797,28.8828125 Z M96.0332031,32.2226562 C96.0332031,30.6992111 96.2602516,29.2417062 96.7143555,27.8500977 C97.1684593,26.4584891 97.8276324,25.2353568 98.6918945,24.1806641 C99.5561567,23.1259713 100.610834,22.2836946 101.855957,21.6538086 C103.10108,21.0239226 104.543937,20.7089844 106.18457,20.7089844 C107.151372,20.8261725 107.993649,21.0898417 108.711426,21.5 C109.429203,21.9101583 110.015134,22.4155243 110.469238,23.0161133 C110.923342,23.6167022 111.252929,24.312496 111.458008,25.1035156 C111.63379,25.8652382 111.72168,26.6855425 111.72168,27.5644531 C111.72168,28.6191459 111.414066,29.5712848 110.798828,30.4208984 C110.183591,31.2705121 109.407231,31.9809542 108.469727,32.5522461 C107.532222,33.123538 106.52149,33.5629867 105.4375,33.8706055 C104.35351,34.1782242 103.342778,34.3320312 102.405273,34.3320312 L101.328613,34.3320312 C100.962401,34.3320312 100.632814,34.2734381 100.339844,34.15625 C100.046874,34.0390619 99.8125009,33.8632824 99.6367188,33.6289062 C99.4609366,33.3945301 99.3730469,33.0429711 99.3730469,32.5742188 C99.3730469,32.4277336 99.3950193,32.3032232 99.4389648,32.2006836 C99.4829104,32.098144 99.6074208,32.0249026 99.8125,31.980957 C100.017579,31.9370115 100.325193,31.9296874 100.735352,31.9589844 C101.14551,32.0175784 101.702145,32.1054682 102.405273,32.2226562 C102.815432,32.2226562 103.408688,32.0834975 104.185059,31.8051758 C104.96143,31.5268541 105.752437,31.1679709 106.558105,30.7285156 C107.363774,30.2890603 108.059567,29.7836943 108.645508,29.2124023 C109.231448,28.6411104 109.524414,28.0771512 109.524414,27.5205078 C109.524414,26.9345674 109.4292,26.3559599 109.23877,25.784668 C109.048339,25.213376 108.762697,24.70801 108.381836,24.2685547 C108.000975,23.8290994 107.554202,23.4775404 107.041504,23.2138672 C106.528806,22.950194 105.950199,22.847656 105.305664,22.90625 C104.280268,22.9941411 103.350102,23.2724586 102.515137,23.7412109 C101.680172,24.2099633 100.969729,24.8178674 100.383789,25.5649414 C99.7978486,26.3120155 99.3437516,27.1396439 99.0214844,28.0478516 C98.6992171,28.9560592 98.5380859,29.9081981 98.5380859,30.9042969 C98.5380859,31.6660194 98.5527342,32.4277306 98.5820312,33.1894531 C98.6113283,33.9511757 98.7211905,34.6982385 98.9116211,35.4306641 C99.1020517,36.1630896 99.4096658,36.8662076 99.8344727,37.5400391 C100.259279,38.2138706 100.874508,38.8071263 101.680176,39.3198242 C102.485844,39.8325221 103.5039,40.2573225 104.734375,40.5942383 C105.96485,40.931154 107.488272,41.1435542 109.304688,41.2314453 L117.170898,40.7041016 C116.702146,41.348636 116.10889,41.8759745 115.391113,42.2861328 C114.673336,42.6962911 113.911625,43.0258777 113.105957,43.2749023 C112.300289,43.523927 111.501957,43.7070307 110.710938,43.8242188 C109.919918,43.9414068 109.172855,44 108.469727,44 C106.770499,44 105.173836,43.7216825 103.679688,43.1650391 C102.185539,42.6083957 100.867193,41.8247121 99.7246094,40.8139648 C98.5820255,39.8032176 97.6811556,38.5727612 97.0219727,37.1225586 C96.3627897,35.672356 96.0332031,34.0390716 96.0332031,32.2226562 Z M147.888672,42.4619141 C147.888672,42.374023 147.895996,42.2568367 147.910645,42.1103516 C147.925293,41.9638665 147.932617,41.8173835 147.932617,41.6708984 L147.932617,41.2753906 L147.976562,41.0117188 C147.976562,40.9238277 147.998535,40.6748067 148.04248,40.2646484 C148.086426,39.8544901 148.137695,39.4150414 148.196289,38.9462891 C148.254883,38.4775367 148.298828,38.0307638 148.328125,37.605957 C148.357422,37.1811502 148.37207,36.9101568 148.37207,36.7929688 C148.313476,36.1777313 148.181642,35.3720753 147.976562,34.3759766 C147.771483,33.3798778 147.456545,32.3984423 147.031738,31.4316406 C146.606931,30.4648389 146.072269,29.6298863 145.427734,28.9267578 C144.7832,28.2236293 144.021489,27.8720703 143.142578,27.8720703 C142.351559,27.8720703 141.52393,28.0698222 140.659668,28.465332 C139.795406,28.8608418 138.98975,29.373532 138.242676,30.003418 C137.495602,30.6333039 136.887698,31.3583943 136.418945,32.1787109 C135.920896,32.9697305 135.671875,33.8046831 135.671875,34.6835938 C135.671875,35.1230491 135.745116,35.5551737 135.891602,35.9799805 C136.038087,36.4047873 136.191894,36.8222636 136.353027,37.2324219 C136.514161,37.6425802 136.667968,38.0673806 136.814453,38.5068359 C136.960938,38.9462913 137.03418,39.4003883 137.03418,39.8691406 C137.03418,40.2207049 136.968262,40.5722639 136.836426,40.9238281 C136.704589,41.2753924 136.389651,41.4511719 135.891602,41.4511719 C135.364255,41.4511719 134.932131,41.1435578 134.595215,40.5283203 C134.258299,39.9130829 133.950685,39.1293993 133.672363,38.1772461 C133.394042,37.2250929 133.101076,36.2070367 132.793457,35.1230469 C132.485838,34.0390571 132.104983,33.0210009 131.650879,32.0688477 C131.196775,31.1166945 130.64014,30.3330109 129.980957,29.7177734 C129.321774,29.102536 128.479497,28.7949219 127.454102,28.7949219 C126.663082,28.7949219 125.959964,28.9633772 125.344727,29.300293 C124.729489,29.6372087 124.224123,30.0839816 123.828613,30.640625 C123.433103,31.1972684 123.125489,31.8271449 122.905762,32.5302734 C122.686034,33.233402 122.576172,33.9511682 122.576172,34.6835938 C122.576172,35.8554746 122.656737,37.0053655 122.817871,38.1333008 C122.979005,39.2612361 123.05957,40.3964787 123.05957,41.5390625 C123.05957,41.9492208 123.015625,42.3227522 122.927734,42.659668 C122.839843,42.9965837 122.546877,43.1650391 122.048828,43.1650391 C121.726561,43.1650391 121.455568,43.0844735 121.23584,42.9233398 C121.016112,42.7622062 120.833009,42.5571302 120.686523,42.3081055 C120.540038,42.0590808 120.422852,41.7807633 120.334961,41.4731445 C120.24707,41.1655258 120.173828,40.8945324 120.115234,40.6601562 C120.173828,39.4589784 120.181153,38.3457083 120.137207,37.3203125 C120.093261,36.2949167 120.034668,35.3208054 119.961426,34.3979492 C119.888183,33.475093 119.814942,32.5449266 119.741699,31.6074219 C119.668457,30.6699172 119.631836,29.6738334 119.631836,28.6191406 L119.631836,28.3115234 C119.631836,28.1650383 119.63916,28.0112313 119.653809,27.8500977 C119.668457,27.688964 119.675781,27.5424811 119.675781,27.4106445 L119.675781,27.125 C119.705078,27.066406 119.77832,26.9931645 119.895508,26.9052734 C120.012696,26.8173824 120.085937,26.7441409 120.115234,26.6855469 L120.334961,26.6855469 C120.83301,26.6855469 121.199218,26.8613264 121.433594,27.2128906 C121.66797,27.5058608 121.785156,27.8867164 121.785156,28.3554688 C122.253909,27.8574194 122.671385,27.4692397 123.037598,27.190918 C123.40381,26.9125963 123.755369,26.700196 124.092285,26.5537109 C124.429201,26.4072258 124.78076,26.3193361 125.146973,26.2900391 C125.513185,26.260742 125.959958,26.2460938 126.487305,26.2460938 C127.336918,26.2460938 128.105954,26.3339835 128.794434,26.5097656 C129.482914,26.6855478 130.105466,26.9418928 130.662109,27.2788086 C131.218753,27.6157243 131.731443,28.0624972 132.200195,28.6191406 C132.668948,29.146487 133.137693,29.7617152 133.606445,30.4648438 C133.635742,30.4648438 133.672363,30.4721679 133.716309,30.4868164 C133.760254,30.5014649 133.796875,30.5087891 133.826172,30.5087891 C133.855469,30.5087891 134.001952,30.3696303 134.265625,30.0913086 C134.529298,29.8129869 134.880857,29.4760762 135.320312,29.0805664 C135.759768,28.6850566 136.272458,28.2456079 136.858398,27.762207 C137.444339,27.2788062 138.059567,26.8320333 138.704102,26.421875 C139.348636,26.0117167 140.007809,25.6674819 140.681641,25.3891602 C141.355472,25.1108385 142.014645,24.9716797 142.65918,24.9716797 C143.655278,24.9716797 144.5415,25.1767558 145.317871,25.5869141 C146.094242,25.9970724 146.790036,26.5463833 147.405273,27.2348633 C148.020511,27.9233433 148.547849,28.6997027 148.987305,29.5639648 C149.42676,30.428227 149.792967,31.3217727 150.085938,32.2446289 C150.378908,33.1674851 150.591308,34.0830033 150.723145,34.9912109 C150.854981,35.8994186 150.920898,36.7343712 150.920898,37.4960938 C150.920898,37.789064 150.913574,38.29443 150.898926,39.012207 C150.884277,39.7299841 150.811036,40.4623986 150.679199,41.2094727 C150.547363,41.9565467 150.334962,42.6157198 150.041992,43.1870117 C149.749022,43.7583036 149.33887,44.0439453 148.811523,44.0439453 C148.54785,44.0439453 148.357422,43.9926763 148.240234,43.8901367 C148.123046,43.7875971 148.035157,43.6630867 147.976562,43.5166016 C147.917968,43.3701165 147.888672,43.2089853 147.888672,43.0332031 L147.888672,42.4619141 Z M152.986328,38.2431641 C152.986328,36.3974517 153.308591,34.8447329 153.953125,33.5849609 C154.597659,32.325189 155.454584,31.3144569 156.523926,30.5527344 C157.593267,29.7910118 158.838372,29.2343768 160.259277,28.8828125 C161.680183,28.5312482 163.166984,28.3554688 164.719727,28.3554688 C165.979498,28.3554688 167.202631,28.5605448 168.38916,28.9707031 C169.57569,29.3808614 170.637691,29.9521448 171.575195,30.6845703 C172.5127,31.4169958 173.259763,32.3105416 173.816406,33.3652344 C174.37305,34.4199271 174.651367,35.621087 174.651367,36.96875 C174.651367,38.1406309 174.431643,39.1000939 173.992188,39.847168 C173.552732,40.594242 172.952152,41.1801737 172.19043,41.6049805 C171.428707,42.0297873 170.58643,42.3300772 169.663574,42.5058594 C168.740718,42.6816415 167.795903,42.7695312 166.829102,42.7695312 C165.891597,42.7695312 164.932134,42.7255864 163.950684,42.6376953 C162.969233,42.5498042 162.068363,42.3447282 161.248047,42.0224609 C160.42773,41.7001937 159.753909,41.2168001 159.226562,40.5722656 C158.699216,39.9277312 158.435547,39.0195371 158.435547,37.8476562 C159.050784,37.8476562 159.64404,37.9721667 160.215332,38.2211914 C160.786624,38.4702161 161.365231,38.7338853 161.951172,39.012207 C162.537112,39.2905287 163.123044,39.5468738 163.708984,39.78125 C164.265628,40.0449232 164.866208,40.1767578 165.510742,40.1767578 C165.979495,40.1767578 166.602047,40.1328129 167.378418,40.0449219 C168.154789,39.9570308 168.887204,39.7885755 169.575684,39.5395508 C170.264164,39.2905261 170.857419,38.9462913 171.355469,38.5068359 C171.853518,38.0673806 172.102539,37.5107456 172.102539,36.8369141 C172.102539,35.8408153 171.882815,34.9765662 171.443359,34.2441406 C171.003904,33.5117151 170.432621,32.903811 169.729492,32.4204102 C169.026364,31.9370093 168.235356,31.5634779 167.356445,31.2998047 C166.477535,31.0361315 165.598637,30.9042969 164.719727,30.9042969 C164.602538,30.9042969 164.316897,30.9335935 163.862793,30.9921875 C163.408689,31.0507815 162.888675,31.1459954 162.302734,31.277832 C161.716794,31.4096686 161.101566,31.5707998 160.457031,31.7612305 C159.812497,31.9516611 159.219241,32.1860338 158.677246,32.4643555 C158.135251,32.7426772 157.688478,33.0576154 157.336914,33.4091797 C156.98535,33.7607439 156.80957,34.1562478 156.80957,34.5957031 L156.80957,35.1230469 C156.838867,35.4453141 156.875488,35.8774387 156.919434,36.4194336 C156.963379,36.9614285 157,37.5034153 157.029297,38.0454102 C157.058594,38.5874051 157.102539,39.0634745 157.161133,39.4736328 C157.219727,39.8837911 157.249023,40.1181638 157.249023,40.1767578 C157.307617,40.6455102 157.410156,41.3706006 157.556641,42.3520508 C157.703126,43.333501 157.864257,44.4321228 158.040039,45.6479492 C158.215821,46.8637756 158.413573,48.1455011 158.633301,49.4931641 C158.853028,50.8408271 159.065429,52.1225525 159.270508,53.3383789 C159.475587,54.5542053 159.658691,55.645503 159.819824,56.6123047 C159.980958,57.5791064 160.105468,58.2822244 160.193359,58.7216797 C160.193359,58.7802737 160.200684,58.8315427 160.215332,58.8754883 C160.229981,58.9194338 160.237305,58.9560545 160.237305,58.9853516 L160.237305,59.0292969 L160.193359,59.1171875 L160.193359,59.2050781 C160.134765,59.2929692 160.002931,59.4394521 159.797852,59.6445312 C159.563475,59.8203134 159.416992,59.9374997 159.358398,59.9960938 L159.094727,59.9960938 C158.801756,59.9960938 158.494142,59.7251004 158.171875,59.1831055 C157.849608,58.6411106 157.520021,57.908696 157.183105,56.9858398 C156.84619,56.0629837 156.509279,55.0009826 156.172363,53.7998047 C155.835448,52.5986268 155.505861,51.3535221 155.183594,50.0644531 C154.861327,48.7753842 154.568361,47.5009829 154.304688,46.2412109 C154.041014,44.981439 153.806642,43.8095757 153.601562,42.7255859 C153.396483,41.6415961 153.242676,40.7041055 153.140137,39.9130859 C153.037597,39.1220664 152.986328,38.5654313 152.986328,38.2431641 Z M176.321289,38.6826172 C176.555665,38.5068351 176.768065,38.3969729 176.958496,38.3530273 C177.148927,38.3090818 177.361327,38.2871094 177.595703,38.2871094 C177.859376,38.2871094 178.123046,38.3530267 178.386719,38.4848633 C178.650392,38.6166999 178.892089,38.7778311 179.111816,38.9682617 C179.331544,39.1586924 179.558593,39.341796 179.792969,39.5175781 C180.027345,39.6933603 180.276366,39.8398432 180.540039,39.9570312 C181.301762,40.2792985 181.909666,40.5429677 182.36377,40.7480469 C182.817873,40.953126 183.23535,41.1142572 183.616211,41.2314453 C183.997072,41.3486334 184.436521,41.4218749 184.93457,41.4511719 C185.43262,41.4804689 186.077144,41.4951172 186.868164,41.4951172 C187.483402,41.4951172 188.230464,41.5024413 189.109375,41.5170898 C189.988286,41.5317384 190.823238,41.4584969 191.614258,41.2973633 C192.405277,41.1362297 193.079099,40.8432638 193.635742,40.418457 C194.192386,39.9936502 194.470703,39.3418013 194.470703,38.4628906 C194.5,37.613277 194.272952,36.9467798 193.789551,36.4633789 C193.30615,35.9799781 192.654301,35.6064466 191.833984,35.3427734 C191.013668,35.0791002 190.090825,34.8959966 189.06543,34.793457 C188.040034,34.6909175 186.985357,34.5810553 185.901367,34.4638672 C184.817377,34.3466791 183.755376,34.1782238 182.715332,33.9584961 C181.675288,33.7387684 180.745121,33.3945336 179.924805,32.9257812 C179.104488,32.4570289 178.445315,31.8125041 177.947266,30.9921875 C177.449216,30.1718709 177.185547,29.1171939 177.15625,27.828125 C177.332032,26.8906203 177.793453,26.1069367 178.540527,25.4770508 C179.287601,24.8471648 180.181147,24.3637712 181.221191,24.0268555 C182.261236,23.6899397 183.367182,23.5141602 184.539062,23.4995117 C185.710943,23.4848632 186.787593,23.6313461 187.769043,23.9389648 C188.750493,24.2465836 189.570797,24.7373013 190.22998,25.4111328 C190.889163,26.0849643 191.233398,26.9199169 191.262695,27.9160156 C191.321289,28.5019561 191.277344,28.9853497 191.130859,29.3662109 C190.984374,29.7470722 190.786622,30.0327139 190.537598,30.2231445 C190.288573,30.4135752 190.032228,30.5014649 189.768555,30.4868164 C189.504881,30.4721679 189.299805,30.3696299 189.15332,30.1791992 C189.006835,29.9887686 188.940918,29.710451 188.955566,29.3442383 C188.970215,28.9780255 189.13867,28.5166043 189.460938,27.9599609 C189.343749,27.4033175 189.006839,26.9638688 188.450195,26.6416016 C187.893552,26.3193343 187.249027,26.0922858 186.516602,25.9604492 C185.784176,25.8286126 185.000492,25.799316 184.165527,25.8725586 C183.330562,25.9458011 182.568851,26.0996082 181.880371,26.3339844 C181.191891,26.5683605 180.635256,26.8759747 180.210449,27.2568359 C179.785642,27.6376972 179.602539,28.0771459 179.661133,28.5751953 C179.661133,29.454106 179.917478,30.1352515 180.430176,30.6186523 C180.942874,31.1020532 181.609371,31.4755846 182.429688,31.7392578 C183.250004,32.002931 184.194819,32.1933588 185.26416,32.3105469 C186.333501,32.427735 187.432123,32.5375971 188.560059,32.6401367 C189.687994,32.7426763 190.779292,32.8891592 191.833984,33.0795898 C192.888677,33.2700205 193.840816,33.5849587 194.69043,34.0244141 C195.540043,34.4638694 196.213865,35.0571252 196.711914,35.8041992 C197.209963,36.5512733 197.458984,37.5253846 197.458984,38.7265625 C197.458984,39.6347702 197.224612,40.4184537 196.755859,41.0776367 C196.287107,41.7368197 195.693851,42.2861306 194.976074,42.7255859 C194.258297,43.1650413 193.474614,43.4873037 192.625,43.6923828 C191.775386,43.897462 190.96973,44 190.208008,44 C189.446285,44 188.633305,43.9926759 187.769043,43.9780273 C186.904781,43.9633788 186.025883,43.9121098 185.132324,43.8242188 C184.238765,43.7363277 183.337895,43.5971689 182.429688,43.4067383 C181.52148,43.2163076 180.679203,42.9233418 179.902832,42.527832 C179.126461,42.1323222 178.430667,41.6269562 177.81543,41.0117188 C177.200192,40.3964813 176.70215,39.6201219 176.321289,38.6826172 Z M216.443359,32.2226562 C216.443359,30.6992111 216.670408,29.2417062 217.124512,27.8500977 C217.578616,26.4584891 218.237789,25.2353568 219.102051,24.1806641 C219.966313,23.1259713 221.02099,22.2836946 222.266113,21.6538086 C223.511237,21.0239226 224.954093,20.7089844 226.594727,20.7089844 C227.561528,20.8261725 228.403805,21.0898417 229.121582,21.5 C229.839359,21.9101583 230.425291,22.4155243 230.879395,23.0161133 C231.333498,23.6167022 231.663085,24.312496 231.868164,25.1035156 C232.043946,25.8652382 232.131836,26.6855425 232.131836,27.5644531 C232.131836,28.6191459 231.824222,29.5712848 231.208984,30.4208984 C230.593747,31.2705121 229.817387,31.9809542 228.879883,32.5522461 C227.942378,33.123538 226.931646,33.5629867 225.847656,33.8706055 C224.763666,34.1782242 223.752934,34.3320312 222.81543,34.3320312 L221.73877,34.3320312 C221.372557,34.3320312 221.04297,34.2734381 220.75,34.15625 C220.45703,34.0390619 220.222657,33.8632824 220.046875,33.6289062 C219.871093,33.3945301 219.783203,33.0429711 219.783203,32.5742188 C219.783203,32.4277336 219.805176,32.3032232 219.849121,32.2006836 C219.893067,32.098144 220.017577,32.0249026 220.222656,31.980957 C220.427735,31.9370115 220.73535,31.9296874 221.145508,31.9589844 C221.555666,32.0175784 222.112301,32.1054682 222.81543,32.2226562 C223.225588,32.2226562 223.818844,32.0834975 224.595215,31.8051758 C225.371586,31.5268541 226.162594,31.1679709 226.968262,30.7285156 C227.77393,30.2890603 228.469724,29.7836943 229.055664,29.2124023 C229.641604,28.6411104 229.93457,28.0771512 229.93457,27.5205078 C229.93457,26.9345674 229.839356,26.3559599 229.648926,25.784668 C229.458495,25.213376 229.172853,24.70801 228.791992,24.2685547 C228.411131,23.8290994 227.964358,23.4775404 227.45166,23.2138672 C226.938962,22.950194 226.360355,22.847656 225.71582,22.90625 C224.690425,22.9941411 223.760258,23.2724586 222.925293,23.7412109 C222.090328,24.2099633 221.379886,24.8178674 220.793945,25.5649414 C220.208005,26.3120155 219.753908,27.1396439 219.431641,28.0478516 C219.109373,28.9560592 218.948242,29.9081981 218.948242,30.9042969 C218.948242,31.6660194 218.96289,32.4277306 218.992188,33.1894531 C219.021485,33.9511757 219.131347,34.6982385 219.321777,35.4306641 C219.512208,36.1630896 219.819822,36.8662076 220.244629,37.5400391 C220.669436,38.2138706 221.284664,38.8071263 222.090332,39.3198242 C222.896,39.8325221 223.914056,40.2573225 225.144531,40.5942383 C226.375006,40.931154 227.898428,41.1435542 229.714844,41.2314453 L237.581055,40.7041016 C237.112302,41.348636 236.519047,41.8759745 235.80127,42.2861328 C235.083493,42.6962911 234.321781,43.0258777 233.516113,43.2749023 C232.710445,43.523927 231.912113,43.7070307 231.121094,43.8242188 C230.330074,43.9414068 229.583011,44 228.879883,44 C227.180656,44 225.583992,43.7216825 224.089844,43.1650391 C222.595696,42.6083957 221.277349,41.8247121 220.134766,40.8139648 C218.992182,39.8032176 218.091312,38.5727612 217.432129,37.1225586 C216.772946,35.672356 216.443359,34.0390716 216.443359,32.2226562 Z M240.085938,26.8613281 C240.085938,26.5976549 240.181151,26.4291996 240.371582,26.355957 C240.562013,26.2827145 240.774413,26.2460938 241.008789,26.2460938 C241.184571,26.2460938 241.309082,26.2900386 241.382324,26.3779297 C241.455567,26.4658208 241.506836,26.5683588 241.536133,26.6855469 C241.56543,26.802735 241.609375,26.9125971 241.667969,27.0151367 C241.726563,27.1176763 241.829101,27.1689453 241.975586,27.1689453 C242.385744,27.1689453 242.883786,27.0078141 243.469727,26.6855469 C244.055667,26.3632796 244.692868,26.0117207 245.381348,25.6308594 C246.069828,25.2499981 246.802242,24.8984391 247.578613,24.5761719 C248.354984,24.2539046 249.12402,24.0927734 249.885742,24.0927734 C250.881841,24.0927734 251.797359,24.3491185 252.632324,24.8618164 C253.467289,25.3745143 254.214352,26.0556598 254.873535,26.9052734 C255.532718,27.7548871 256.096677,28.707026 256.56543,29.7617188 C257.034182,30.8164115 257.429686,31.8930609 257.751953,32.9916992 C258.07422,34.0903375 258.308593,35.1596628 258.455078,36.199707 C258.601563,37.2397513 258.674805,38.1406212 258.674805,38.9023438 C258.674805,39.1660169 258.652832,39.5615208 258.608887,40.0888672 C258.564941,40.6162136 258.4917,41.1435521 258.38916,41.6708984 C258.286621,42.1982448 258.118165,42.659666 257.883789,43.0551758 C257.649413,43.4506856 257.356447,43.6484375 257.004883,43.6484375 C256.946289,43.6484375 256.843751,43.6411134 256.697266,43.6264648 C256.550781,43.6118163 256.404298,43.5825198 256.257812,43.5385742 C256.111327,43.4946287 255.986817,43.4433597 255.884277,43.3847656 C255.781738,43.3261716 255.730469,43.2382818 255.730469,43.1210938 C255.994142,40.8652231 255.994142,38.748545 255.730469,36.7709961 C255.466796,34.7934471 255.041995,33.0576247 254.456055,31.5634766 C253.870114,30.0693285 253.152348,28.8828169 252.302734,28.0039062 C251.453121,27.1249956 250.544927,26.6855469 249.578125,26.6855469 C248.669917,26.6855469 247.820316,26.8320298 247.029297,27.125 C246.238277,27.4179702 245.549808,27.8427707 244.963867,28.3994141 C244.377927,28.9560575 243.916506,29.6298789 243.57959,30.4208984 C243.242674,31.211918 243.074219,32.0761672 243.074219,33.0136719 C243.074219,33.9511766 243.162108,34.881343 243.337891,35.8041992 C243.513673,36.7270554 243.711425,37.6498977 243.931152,38.5727539 C244.15088,39.4956101 244.348632,40.4257766 244.524414,41.3632812 C244.700196,42.3007859 244.788086,43.2382766 244.788086,44.1757812 C243.967769,44.1757812 243.2793,43.8388706 242.722656,43.1650391 C242.166013,42.4912076 241.71924,41.6269584 241.382324,40.5722656 C241.045408,39.5175729 240.781739,38.3310613 240.591309,37.0126953 C240.400878,35.6943293 240.269043,34.3979556 240.195801,33.1235352 C240.122558,31.8491147 240.085938,30.6479549 240.085938,29.5200195 L240.085938,26.8613281 Z M282.361328,28.8828125 L281.130859,28.8828125 C280.544919,28.8828125 279.937015,28.8315435 279.307129,28.7290039 C278.677243,28.6264643 278.10596,28.458009 277.593262,28.2236328 C277.080564,27.9892566 276.824219,27.6523459 276.824219,27.2128906 C276.824219,27.0957025 276.846191,26.9272472 276.890137,26.7075195 C276.934082,26.4877919 277.073241,26.3779297 277.307617,26.3779297 L281.833984,25.9824219 C281.951172,24.8984321 282.039062,24.0122105 282.097656,23.3237305 C282.15625,22.6352505 282.170899,21.9907257 282.141602,21.3901367 C282.112305,20.7895478 282.075684,20.1596713 282.031738,19.5004883 C281.987793,18.8413053 281.951172,17.9843803 281.921875,16.9296875 C281.921875,16.7246083 281.96582,16.5634771 282.053711,16.4462891 C282.141602,16.329101 282.251464,16.2412112 282.383301,16.1826172 C282.515137,16.1240231 282.66162,16.0800783 282.822754,16.0507812 C282.983888,16.0214842 283.108398,16.0068359 283.196289,16.0068359 C283.372071,16.0068359 283.555175,16.0654291 283.745605,16.1826172 C283.936036,16.2998053 284.104491,16.4462882 284.250977,16.6220703 C284.397462,16.7978524 284.514648,16.9809561 284.602539,17.1713867 C284.69043,17.3618174 284.734375,17.544921 284.734375,17.7207031 L285.085938,25.9384766 L288.865234,26.1142578 C289.363284,26.0556638 289.824705,26.1508777 290.249512,26.3999023 C290.674319,26.648927 290.901367,27.1103482 290.930664,27.7841797 C290.5791,28.165041 290.154299,28.3920895 289.65625,28.465332 C289.158201,28.5385746 288.638186,28.5678712 288.096191,28.5532227 C287.554197,28.5385741 287.019534,28.5385741 286.492188,28.5532227 C285.964841,28.5678712 285.496096,28.7070299 285.085938,28.9707031 C285.085938,29.1464853 285.100586,29.6298789 285.129883,30.4208984 C285.15918,31.211918 285.188476,32.1494086 285.217773,33.2333984 C285.24707,34.3173882 285.283691,35.4746032 285.327637,36.7050781 C285.371582,37.935553 285.408203,39.0707956 285.4375,40.1108398 C285.466797,41.1508841 285.488769,42.0371057 285.503418,42.7695312 C285.518066,43.5019568 285.525391,43.9121089 285.525391,44 C284.851559,44.4101583 284.309572,44.3735376 283.899414,43.8901367 C283.489256,43.4067359 283.159669,42.6889696 282.910645,41.7368164 C282.66162,40.7846632 282.48584,39.6713931 282.383301,38.3969727 C282.280761,37.1225522 282.222168,35.8627992 282.20752,34.6176758 C282.192871,33.3725524 282.200195,32.2226615 282.229492,31.1679688 C282.258789,30.113276 282.302734,29.3515648 282.361328,28.8828125 Z M291.985352,32.2226562 C291.985352,30.6992111 292.2124,29.2417062 292.666504,27.8500977 C293.120608,26.4584891 293.779781,25.2353568 294.644043,24.1806641 C295.508305,23.1259713 296.562982,22.2836946 297.808105,21.6538086 C299.053229,21.0239226 300.496086,20.7089844 302.136719,20.7089844 C303.10352,20.8261725 303.945797,21.0898417 304.663574,21.5 C305.381351,21.9101583 305.967283,22.4155243 306.421387,23.0161133 C306.875491,23.6167022 307.205077,24.312496 307.410156,25.1035156 C307.585938,25.8652382 307.673828,26.6855425 307.673828,27.5644531 C307.673828,28.6191459 307.366214,29.5712848 306.750977,30.4208984 C306.135739,31.2705121 305.35938,31.9809542 304.421875,32.5522461 C303.48437,33.123538 302.473638,33.5629867 301.389648,33.8706055 C300.305659,34.1782242 299.294927,34.3320312 298.357422,34.3320312 L297.280762,34.3320312 C296.914549,34.3320312 296.584962,34.2734381 296.291992,34.15625 C295.999022,34.0390619 295.764649,33.8632824 295.588867,33.6289062 C295.413085,33.3945301 295.325195,33.0429711 295.325195,32.5742188 C295.325195,32.4277336 295.347168,32.3032232 295.391113,32.2006836 C295.435059,32.098144 295.559569,32.0249026 295.764648,31.980957 C295.969728,31.9370115 296.277342,31.9296874 296.6875,31.9589844 C297.097658,32.0175784 297.654293,32.1054682 298.357422,32.2226562 C298.76758,32.2226562 299.360836,32.0834975 300.137207,31.8051758 C300.913578,31.5268541 301.704586,31.1679709 302.510254,30.7285156 C303.315922,30.2890603 304.011716,29.7836943 304.597656,29.2124023 C305.183597,28.6411104 305.476562,28.0771512 305.476562,27.5205078 C305.476562,26.9345674 305.381349,26.3559599 305.190918,25.784668 C305.000487,25.213376 304.714846,24.70801 304.333984,24.2685547 C303.953123,23.8290994 303.50635,23.4775404 302.993652,23.2138672 C302.480954,22.950194 301.902347,22.847656 301.257812,22.90625 C300.232417,22.9941411 299.30225,23.2724586 298.467285,23.7412109 C297.63232,24.2099633 296.921878,24.8178674 296.335938,25.5649414 C295.749997,26.3120155 295.2959,27.1396439 294.973633,28.0478516 C294.651366,28.9560592 294.490234,29.9081981 294.490234,30.9042969 C294.490234,31.6660194 294.504883,32.4277306 294.53418,33.1894531 C294.563477,33.9511757 294.673339,34.6982385 294.86377,35.4306641 C295.0542,36.1630896 295.361814,36.8662076 295.786621,37.5400391 C296.211428,38.2138706 296.826656,38.8071263 297.632324,39.3198242 C298.437992,39.8325221 299.456049,40.2573225 300.686523,40.5942383 C301.916998,40.931154 303.440421,41.1435542 305.256836,41.2314453 L313.123047,40.7041016 C312.654295,41.348636 312.061039,41.8759745 311.343262,42.2861328 C310.625485,42.6962911 309.863774,43.0258777 309.058105,43.2749023 C308.252437,43.523927 307.454106,43.7070307 306.663086,43.8242188 C305.872066,43.9414068 305.125004,44 304.421875,44 C302.722648,44 301.125984,43.7216825 299.631836,43.1650391 C298.137688,42.6083957 296.819342,41.8247121 295.676758,40.8139648 C294.534174,39.8032176 293.633304,38.5727612 292.974121,37.1225586 C292.314938,35.672356 291.985352,34.0390716 291.985352,32.2226562 Z M343.84082,42.4619141 C343.84082,42.374023 343.848144,42.2568367 343.862793,42.1103516 C343.877441,41.9638665 343.884766,41.8173835 343.884766,41.6708984 L343.884766,41.2753906 L343.928711,41.0117188 C343.928711,40.9238277 343.950683,40.6748067 343.994629,40.2646484 C344.038574,39.8544901 344.089843,39.4150414 344.148438,38.9462891 C344.207032,38.4775367 344.250976,38.0307638 344.280273,37.605957 C344.30957,37.1811502 344.324219,36.9101568 344.324219,36.7929688 C344.265625,36.1777313 344.13379,35.3720753 343.928711,34.3759766 C343.723632,33.3798778 343.408694,32.3984423 342.983887,31.4316406 C342.55908,30.4648389 342.024417,29.6298863 341.379883,28.9267578 C340.735348,28.2236293 339.973637,27.8720703 339.094727,27.8720703 C338.303707,27.8720703 337.476079,28.0698222 336.611816,28.465332 C335.747554,28.8608418 334.941898,29.373532 334.194824,30.003418 C333.44775,30.6333039 332.839846,31.3583943 332.371094,32.1787109 C331.873044,32.9697305 331.624023,33.8046831 331.624023,34.6835938 C331.624023,35.1230491 331.697265,35.5551737 331.84375,35.9799805 C331.990235,36.4047873 332.144042,36.8222636 332.305176,37.2324219 C332.466309,37.6425802 332.620116,38.0673806 332.766602,38.5068359 C332.913087,38.9462913 332.986328,39.4003883 332.986328,39.8691406 C332.986328,40.2207049 332.920411,40.5722639 332.788574,40.9238281 C332.656738,41.2753924 332.341799,41.4511719 331.84375,41.4511719 C331.316404,41.4511719 330.884279,41.1435578 330.547363,40.5283203 C330.210448,39.9130829 329.902833,39.1293993 329.624512,38.1772461 C329.34619,37.2250929 329.053224,36.2070367 328.745605,35.1230469 C328.437987,34.0390571 328.057131,33.0210009 327.603027,32.0688477 C327.148924,31.1166945 326.592288,30.3330109 325.933105,29.7177734 C325.273922,29.102536 324.431646,28.7949219 323.40625,28.7949219 C322.61523,28.7949219 321.912112,28.9633772 321.296875,29.300293 C320.681638,29.6372087 320.176272,30.0839816 319.780762,30.640625 C319.385252,31.1972684 319.077638,31.8271449 318.85791,32.5302734 C318.638182,33.233402 318.52832,33.9511682 318.52832,34.6835938 C318.52832,35.8554746 318.608886,37.0053655 318.77002,38.1333008 C318.931153,39.2612361 319.011719,40.3964787 319.011719,41.5390625 C319.011719,41.9492208 318.967774,42.3227522 318.879883,42.659668 C318.791992,42.9965837 318.499026,43.1650391 318.000977,43.1650391 C317.678709,43.1650391 317.407716,43.0844735 317.187988,42.9233398 C316.968261,42.7622062 316.785157,42.5571302 316.638672,42.3081055 C316.492187,42.0590808 316.375,41.7807633 316.287109,41.4731445 C316.199218,41.1655258 316.125977,40.8945324 316.067383,40.6601562 C316.125977,39.4589784 316.133301,38.3457083 316.089355,37.3203125 C316.04541,36.2949167 315.986817,35.3208054 315.913574,34.3979492 C315.840332,33.475093 315.76709,32.5449266 315.693848,31.6074219 C315.620605,30.6699172 315.583984,29.6738334 315.583984,28.6191406 L315.583984,28.3115234 C315.583984,28.1650383 315.591309,28.0112313 315.605957,27.8500977 C315.620606,27.688964 315.62793,27.5424811 315.62793,27.4106445 L315.62793,27.125 C315.657227,27.066406 315.730468,26.9931645 315.847656,26.9052734 C315.964844,26.8173824 316.038086,26.7441409 316.067383,26.6855469 L316.287109,26.6855469 C316.785159,26.6855469 317.151366,26.8613264 317.385742,27.2128906 C317.620118,27.5058608 317.737305,27.8867164 317.737305,28.3554688 C318.206057,27.8574194 318.623533,27.4692397 318.989746,27.190918 C319.355959,26.9125963 319.707518,26.700196 320.044434,26.5537109 C320.381349,26.4072258 320.732908,26.3193361 321.099121,26.2900391 C321.465334,26.260742 321.912107,26.2460938 322.439453,26.2460938 C323.289067,26.2460938 324.058102,26.3339835 324.746582,26.5097656 C325.435062,26.6855478 326.057614,26.9418928 326.614258,27.2788086 C327.170901,27.6157243 327.683591,28.0624972 328.152344,28.6191406 C328.621096,29.146487 329.089841,29.7617152 329.558594,30.4648438 C329.587891,30.4648438 329.624511,30.4721679 329.668457,30.4868164 C329.712403,30.5014649 329.749023,30.5087891 329.77832,30.5087891 C329.807617,30.5087891 329.9541,30.3696303 330.217773,30.0913086 C330.481447,29.8129869 330.833006,29.4760762 331.272461,29.0805664 C331.711916,28.6850566 332.224606,28.2456079 332.810547,27.762207 C333.396487,27.2788062 334.011716,26.8320333 334.65625,26.421875 C335.300784,26.0117167 335.959958,25.6674819 336.633789,25.3891602 C337.307621,25.1108385 337.966794,24.9716797 338.611328,24.9716797 C339.607427,24.9716797 340.493648,25.1767558 341.27002,25.5869141 C342.046391,25.9970724 342.742184,26.5463833 343.357422,27.2348633 C343.972659,27.9233433 344.499998,28.6997027 344.939453,29.5639648 C345.378908,30.428227 345.745116,31.3217727 346.038086,32.2446289 C346.331056,33.1674851 346.543456,34.0830033 346.675293,34.9912109 C346.80713,35.8994186 346.873047,36.7343712 346.873047,37.4960938 C346.873047,37.789064 346.865723,38.29443 346.851074,39.012207 C346.836426,39.7299841 346.763184,40.4623986 346.631348,41.2094727 C346.499511,41.9565467 346.287111,42.6157198 345.994141,43.1870117 C345.70117,43.7583036 345.291018,44.0439453 344.763672,44.0439453 C344.499999,44.0439453 344.309571,43.9926763 344.192383,43.8901367 C344.075195,43.7875971 343.987305,43.6630867 343.928711,43.5166016 C343.870117,43.3701165 343.84082,43.2089853 343.84082,43.0332031 L343.84082,42.4619141 Z M348.938477,38.2431641 C348.938477,36.3974517 349.260739,34.8447329 349.905273,33.5849609 C350.549808,32.325189 351.406733,31.3144569 352.476074,30.5527344 C353.545416,29.7910118 354.79052,29.2343768 356.211426,28.8828125 C357.632331,28.5312482 359.119133,28.3554688 360.671875,28.3554688 C361.931647,28.3554688 363.154779,28.5605448 364.341309,28.9707031 C365.527838,29.3808614 366.589839,29.9521448 367.527344,30.6845703 C368.464848,31.4169958 369.211911,32.3105416 369.768555,33.3652344 C370.325198,34.4199271 370.603516,35.621087 370.603516,36.96875 C370.603516,38.1406309 370.383791,39.1000939 369.944336,39.847168 C369.504881,40.594242 368.904301,41.1801737 368.142578,41.6049805 C367.380856,42.0297873 366.538579,42.3300772 365.615723,42.5058594 C364.692866,42.6816415 363.748052,42.7695312 362.78125,42.7695312 C361.843745,42.7695312 360.884282,42.7255864 359.902832,42.6376953 C358.921382,42.5498042 358.020512,42.3447282 357.200195,42.0224609 C356.379879,41.7001937 355.706057,41.2168001 355.178711,40.5722656 C354.651365,39.9277312 354.387695,39.0195371 354.387695,37.8476562 C355.002933,37.8476562 355.596189,37.9721667 356.16748,38.2211914 C356.738772,38.4702161 357.31738,38.7338853 357.90332,39.012207 C358.489261,39.2905287 359.075192,39.5468738 359.661133,39.78125 C360.217776,40.0449232 360.818356,40.1767578 361.462891,40.1767578 C361.931643,40.1767578 362.554195,40.1328129 363.330566,40.0449219 C364.106937,39.9570308 364.839352,39.7885755 365.527832,39.5395508 C366.216312,39.2905261 366.809568,38.9462913 367.307617,38.5068359 C367.805667,38.0673806 368.054688,37.5107456 368.054688,36.8369141 C368.054688,35.8408153 367.834963,34.9765662 367.395508,34.2441406 C366.956052,33.5117151 366.384769,32.903811 365.681641,32.4204102 C364.978512,31.9370093 364.187504,31.5634779 363.308594,31.2998047 C362.429683,31.0361315 361.550786,30.9042969 360.671875,30.9042969 C360.554687,30.9042969 360.269045,30.9335935 359.814941,30.9921875 C359.360838,31.0507815 358.840823,31.1459954 358.254883,31.277832 C357.668942,31.4096686 357.053714,31.5707998 356.40918,31.7612305 C355.764645,31.9516611 355.171389,32.1860338 354.629395,32.4643555 C354.0874,32.7426772 353.640627,33.0576154 353.289062,33.4091797 C352.937498,33.7607439 352.761719,34.1562478 352.761719,34.5957031 L352.761719,35.1230469 C352.791016,35.4453141 352.827636,35.8774387 352.871582,36.4194336 C352.915528,36.9614285 352.952148,37.5034153 352.981445,38.0454102 C353.010742,38.5874051 353.054687,39.0634745 353.113281,39.4736328 C353.171875,39.8837911 353.201172,40.1181638 353.201172,40.1767578 C353.259766,40.6455102 353.362304,41.3706006 353.508789,42.3520508 C353.655274,43.333501 353.816405,44.4321228 353.992188,45.6479492 C354.16797,46.8637756 354.365722,48.1455011 354.585449,49.4931641 C354.805177,50.8408271 355.017577,52.1225525 355.222656,53.3383789 C355.427735,54.5542053 355.610839,55.645503 355.771973,56.6123047 C355.933106,57.5791064 356.057617,58.2822244 356.145508,58.7216797 C356.145508,58.7802737 356.152832,58.8315427 356.16748,58.8754883 C356.182129,58.9194338 356.189453,58.9560545 356.189453,58.9853516 L356.189453,59.0292969 L356.145508,59.1171875 L356.145508,59.2050781 C356.086914,59.2929692 355.955079,59.4394521 355.75,59.6445312 C355.515624,59.8203134 355.369141,59.9374997 355.310547,59.9960938 L355.046875,59.9960938 C354.753905,59.9960938 354.446291,59.7251004 354.124023,59.1831055 C353.801756,58.6411106 353.47217,57.908696 353.135254,56.9858398 C352.798338,56.0629837 352.461427,55.0009826 352.124512,53.7998047 C351.787596,52.5986268 351.458009,51.3535221 351.135742,50.0644531 C350.813475,48.7753842 350.520509,47.5009829 350.256836,46.2412109 C349.993163,44.981439 349.75879,43.8095757 349.553711,42.7255859 C349.348632,41.6415961 349.194825,40.7041055 349.092285,39.9130859 C348.989746,39.1220664 348.938477,38.5654313 348.938477,38.2431641 Z M372.273438,38.6826172 C372.507814,38.5068351 372.720214,38.3969729 372.910645,38.3530273 C373.101075,38.3090818 373.313475,38.2871094 373.547852,38.2871094 C373.811525,38.2871094 374.075194,38.3530267 374.338867,38.4848633 C374.60254,38.6166999 374.844237,38.7778311 375.063965,38.9682617 C375.283693,39.1586924 375.510741,39.341796 375.745117,39.5175781 C375.979493,39.6933603 376.228514,39.8398432 376.492188,39.9570312 C377.25391,40.2792985 377.861814,40.5429677 378.315918,40.7480469 C378.770022,40.953126 379.187498,41.1142572 379.568359,41.2314453 C379.949221,41.3486334 380.388669,41.4218749 380.886719,41.4511719 C381.384768,41.4804689 382.029293,41.4951172 382.820312,41.4951172 C383.43555,41.4951172 384.182613,41.5024413 385.061523,41.5170898 C385.940434,41.5317384 386.775387,41.4584969 387.566406,41.2973633 C388.357426,41.1362297 389.031247,40.8432638 389.587891,40.418457 C390.144534,39.9936502 390.422852,39.3418013 390.422852,38.4628906 C390.452149,37.613277 390.2251,36.9467798 389.741699,36.4633789 C389.258298,35.9799781 388.606449,35.6064466 387.786133,35.3427734 C386.965816,35.0791002 386.042974,34.8959966 385.017578,34.793457 C383.992182,34.6909175 382.937505,34.5810553 381.853516,34.4638672 C380.769526,34.3466791 379.707525,34.1782238 378.66748,33.9584961 C377.627436,33.7387684 376.69727,33.3945336 375.876953,32.9257812 C375.056637,32.4570289 374.397463,31.8125041 373.899414,30.9921875 C373.401365,30.1718709 373.137695,29.1171939 373.108398,27.828125 C373.284181,26.8906203 373.745602,26.1069367 374.492676,25.4770508 C375.23975,24.8471648 376.133296,24.3637712 377.17334,24.0268555 C378.213384,23.6899397 379.31933,23.5141602 380.491211,23.4995117 C381.663092,23.4848632 382.739741,23.6313461 383.721191,23.9389648 C384.702642,24.2465836 385.522946,24.7373013 386.182129,25.4111328 C386.841312,26.0849643 387.185547,26.9199169 387.214844,27.9160156 C387.273438,28.5019561 387.229493,28.9853497 387.083008,29.3662109 C386.936523,29.7470722 386.738771,30.0327139 386.489746,30.2231445 C386.240721,30.4135752 385.984376,30.5014649 385.720703,30.4868164 C385.45703,30.4721679 385.251954,30.3696299 385.105469,30.1791992 C384.958984,29.9887686 384.893066,29.710451 384.907715,29.3442383 C384.922363,28.9780255 385.090819,28.5166043 385.413086,27.9599609 C385.295898,27.4033175 384.958987,26.9638688 384.402344,26.6416016 C383.8457,26.3193343 383.201176,26.0922858 382.46875,25.9604492 C381.736324,25.8286126 380.952641,25.799316 380.117676,25.8725586 C379.282711,25.9458011 378.521,26.0996082 377.83252,26.3339844 C377.14404,26.5683605 376.587404,26.8759747 376.162598,27.2568359 C375.737791,27.6376972 375.554687,28.0771459 375.613281,28.5751953 C375.613281,29.454106 375.869626,30.1352515 376.382324,30.6186523 C376.895022,31.1020532 377.561519,31.4755846 378.381836,31.7392578 C379.202153,32.002931 380.146967,32.1933588 381.216309,32.3105469 C382.28565,32.427735 383.384272,32.5375971 384.512207,32.6401367 C385.640142,32.7426763 386.73144,32.8891592 387.786133,33.0795898 C388.840826,33.2700205 389.792965,33.5849587 390.642578,34.0244141 C391.492192,34.4638694 392.166013,35.0571252 392.664062,35.8041992 C393.162112,36.5512733 393.411133,37.5253846 393.411133,38.7265625 C393.411133,39.6347702 393.17676,40.4184537 392.708008,41.0776367 C392.239255,41.7368197 391.646,42.2861306 390.928223,42.7255859 C390.210446,43.1650413 389.426762,43.4873037 388.577148,43.6923828 C387.727535,43.897462 386.921879,44 386.160156,44 C385.398434,44 384.585454,43.9926759 383.721191,43.9780273 C382.856929,43.9633788 381.978032,43.9121098 381.084473,43.8242188 C380.190914,43.7363277 379.290044,43.5971689 378.381836,43.4067383 C377.473628,43.2163076 376.631352,42.9233418 375.85498,42.527832 C375.078609,42.1323222 374.382816,41.6269562 373.767578,41.0117188 C373.152341,40.3964813 372.654299,39.6201219 372.273438,38.6826172 Z" fill="#FFFFFF"></path>
            <g id="Star" transform="translate(0.000000, 11.000000)">
                <g>
                    <circle id="Oval" fill-opacity="0.7" fill="url(#radialGradient-1)" cx="7.5" cy="7.5" r="7.5"></circle>
                    <path d="M7.5,0.5 L7.5,14.5" id="Line" stroke="#FFFFFF" stroke-linecap="round"></path>
                    <path d="M7.66941738,3.27297077 L7.66941738,11.7582521" id="Line-Copy" stroke="#FFFFFF" stroke-linecap="round" transform="translate(7.603553, 7.303301) rotate(45.000000) translate(-7.603553, -7.303301) "></path>
                    <path d="M7.59834957,3.2123106 L7.59834957,11.697592" id="Line-Copy-2" stroke="#FFFFFF" stroke-linecap="round" transform="translate(7.603553, 7.596194) rotate(-45.000000) translate(-7.603553, -7.596194) "></path>
                    <path d="M0.5,7.5 L14.5,7.5" id="Line-2" stroke="#FFFFFF" stroke-linecap="round"></path>
                </g>
            </g>
            <g id="Star" transform="translate(151.000000, 53.000000)">
                <g>
                    <circle id="Oval" fill-opacity="0.7" fill="url(#radialGradient-1)" cx="7.5" cy="7.5" r="7.5"></circle>
                    <path d="M7.5,0.5 L7.5,14.5" id="Line" stroke="#FFFFFF" stroke-linecap="round"></path>
                    <path d="M7.66941738,3.27297077 L7.66941738,11.7582521" id="Line-Copy" stroke="#FFFFFF" stroke-linecap="round" transform="translate(7.603553, 7.303301) rotate(45.000000) translate(-7.603553, -7.303301) "></path>
                    <path d="M7.59834957,3.2123106 L7.59834957,11.697592" id="Line-Copy-2" stroke="#FFFFFF" stroke-linecap="round" transform="translate(7.603553, 7.596194) rotate(-45.000000) translate(-7.603553, -7.596194) "></path>
                    <path d="M0.5,7.5 L14.5,7.5" id="Line-2" stroke="#FFFFFF" stroke-linecap="round"></path>
                </g>
            </g>
            <g id="Star" transform="translate(80.000000, 8.000000)">
                <g>
                    <circle id="Oval" fill-opacity="0.7" fill="url(#radialGradient-1)" cx="7.5" cy="7.5" r="7.5"></circle>
                    <path d="M7.5,0.5 L7.5,14.5" id="Line" stroke="#FFFFFF" stroke-linecap="round"></path>
                    <path d="M7.66941738,3.27297077 L7.66941738,11.7582521" id="Line-Copy" stroke="#FFFFFF" stroke-linecap="round" transform="translate(7.603553, 7.303301) rotate(45.000000) translate(-7.603553, -7.303301) "></path>
                    <path d="M7.59834957,3.2123106 L7.59834957,11.697592" id="Line-Copy-2" stroke="#FFFFFF" stroke-linecap="round" transform="translate(7.603553, 7.596194) rotate(-45.000000) translate(-7.603553, -7.596194) "></path>
                    <path d="M0.5,7.5 L14.5,7.5" id="Line-2" stroke="#FFFFFF" stroke-linecap="round"></path>
                </g>
            </g>
            <g id="Star" transform="translate(347.000000, 53.000000)">
                <g>
                    <circle id="Oval" fill-opacity="0.7" fill="url(#radialGradient-1)" cx="7.5" cy="7.5" r="7.5"></circle>
                    <path d="M7.5,0.5 L7.5,14.5" id="Line" stroke="#FFFFFF" stroke-linecap="round"></path>
                    <path d="M7.66941738,3.27297077 L7.66941738,11.7582521" id="Line-Copy" stroke="#FFFFFF" stroke-linecap="round" transform="translate(7.603553, 7.303301) rotate(45.000000) translate(-7.603553, -7.303301) "></path>
                    <path d="M7.59834957,3.2123106 L7.59834957,11.697592" id="Line-Copy-2" stroke="#FFFFFF" stroke-linecap="round" transform="translate(7.603553, 7.596194) rotate(-45.000000) translate(-7.603553, -7.596194) "></path>
                    <path d="M0.5,7.5 L14.5,7.5" id="Line-2" stroke="#FFFFFF" stroke-linecap="round"></path>
                </g>
            </g>
            <g id="Star" transform="translate(275.000000, 7.000000)">
                <g>
                    <circle id="Oval" fill-opacity="0.7" fill="url(#radialGradient-1)" cx="7.5" cy="7.5" r="7.5"></circle>
                    <path d="M7.5,0.5 L7.5,14.5" id="Line" stroke="#FFFFFF" stroke-linecap="round"></path>
                    <path d="M7.66941738,3.27297077 L7.66941738,11.7582521" id="Line-Copy" stroke="#FFFFFF" stroke-linecap="round" transform="translate(7.603553, 7.303301) rotate(45.000000) translate(-7.603553, -7.303301) "></path>
                    <path d="M7.59834957,3.2123106 L7.59834957,11.697592" id="Line-Copy-2" stroke="#FFFFFF" stroke-linecap="round" transform="translate(7.603553, 7.596194) rotate(-45.000000) translate(-7.603553, -7.596194) "></path>
                    <path d="M0.5,7.5 L14.5,7.5" id="Line-2" stroke="#FFFFFF" stroke-linecap="round"></path>
                </g>
            </g>
        </g>
    </g>
</svg>