<?xml version="1.0" encoding="UTF-8"?>
<svg width="486px" height="278px" viewBox="0 0 486 278" version="1.1" xmlns="http://www.w3.org/2000/svg" xmlns:xlink="http://www.w3.org/1999/xlink">
    <!-- Generator: Sketch 52.6 (67491) - http://www.bohemiancoding.com/sketch -->
    <title>Path</title>
    <desc>Created with Sketch.</desc>
    <g id="Maquettes" stroke="none" stroke-width="1" fill="none" fill-rule="evenodd">
        <g id="Animation" transform="translate(-309.000000, -693.000000)" stroke="#25363C">
            <g id="Update" transform="translate(-223.000000, -7.000000)">
                <g id="Path" transform="translate(535.000000, 700.000000)">
                    <g id="regular">
                        <path id="away" d="M168,276.930664 C168,268.754883 209.725895,208.302734 264.884962,208.302734 C320.044029,208.302734 318.083496,172.69873 318.083496,167.241699" stroke-width="20"></path>
                        <path id="far-away" d="M476.852539,142.686523 C472.284668,125.373535 467.826172,108.871094 441.931641,104.935547 C416.037109,101 196.829102,110.942871 181.061523,87.956543" stroke-width="12"></path>
                        <path id="far-far-away" d="M79.5859375,132.316528 C80.1217041,124.562012 79.6598591,97.1738281 50.9899372,102 C22.3200153,106.826172 0.876953125,97.0429688 0.876953125,89 C0.876953125,80.9570313 0.55078125,68.3066406 56,68.3066406 C111.449219,68.3066406 128.634905,64.0667796 140.642578,60.3496094 C152.650251,56.6324392 166.722656,45 140.642578,38 C114.5625,31 26.5532227,35.4555664 9.84375,31.2246094 C0.782527826,28.9302436 3.86357613e-14,15.7290039 8.82128906,12.0615234 C17.3841223,8.50149684 67.7543945,11.1593606 67.7543945,2.27373675e-13" stroke-width="6"></path>
                    </g>
                </g>
            </g>
        </g>
    </g>
</svg>
