<?xml version="1.0" encoding="UTF-8"?>
<svg width="199px" height="157px" viewBox="0 0 199 157" version="1.1" xmlns="http://www.w3.org/2000/svg" xmlns:xlink="http://www.w3.org/1999/xlink">
    <!-- Generator: Sketch 52.6 (67491) - http://www.bohemiancoding.com/sketch -->
    <title>path-far-far-away</title>
    <desc>Created with Sketch.</desc>
    <g id="Maquettes" stroke="none" stroke-width="1" fill="none" fill-rule="evenodd">
        <g id="Animation" transform="translate(-309.000000, -693.000000)" stroke="#25363C" stroke-width="6">
            <path d="M497.347656,785.254883 C499.226563,787.683268 501.503581,792.748047 504.178711,800.449219 C508.191406,812.000977 479.378501,826.387338 459.445313,836.293945 C439.512124,846.200553 425.665039,846.085022 412.354431,846.085022 C399.043823,846.085022 391.050171,833.071045 391.585938,825.316528 C392.121704,817.562012 391.659859,790.173828 362.989937,795 C334.320015,799.826172 312.876953,790.042969 312.876953,782 C312.876953,773.957031 312.550781,761.306641 368,761.306641 C423.449219,761.306641 440.634905,757.06678 452.642578,753.349609 C464.650251,749.632439 478.722656,738 452.642578,731 C426.5625,724 338.553223,728.455566 321.84375,724.224609 C312.782528,721.930244 312,708.729004 320.821289,705.061523 C329.384122,701.501497 379.754395,704.159361 379.754395,693" id="path-far-far-away"></path>
        </g>
    </g>
</svg>