<?xml version="1.0" encoding="UTF-8"?>
<svg width="72px" height="150px" viewBox="0 0 72 150" version="1.1" xmlns="http://www.w3.org/2000/svg" xmlns:xlink="http://www.w3.org/1999/xlink">
    <!-- Generator: Sketch 52.6 (67491) - http://www.bohemiancoding.com/sketch -->
    <title>samourai</title>
    <desc>Created with Sketch.</desc>
    <defs>
        <path d="M59.8733062,85 C52.8940733,88.153191 3.51028424,99.6795582 1.43092337,99.6795582 C-0.6484375,99.6795582 -0.6484375,104.982228 5.41041556,104.982228 C11.4692686,104.982228 59.8733062,95.1083138 65.2294922,88.6275104 C70.5856782,82.146707 66.8525391,81.846809 59.8733062,85 Z" id="path-1"></path>
        <filter x="-0.7%" y="-2.3%" width="101.5%" height="109.1%" filterUnits="objectBoundingBox" id="filter-2">
            <feOffset dx="0" dy="1" in="SourceAlpha" result="shadowOffsetOuter1"></feOffset>
            <feColorMatrix values="0 0 0 0 0   0 0 0 0 0   0 0 0 0 0  0 0 0 0.5 0" type="matrix" in="shadowOffsetOuter1"></feColorMatrix>
        </filter>
        <circle id="path-3" cx="48" cy="23" r="11"></circle>
        <filter x="-2.3%" y="-2.3%" width="104.5%" height="104.5%" filterUnits="objectBoundingBox" id="filter-4">
            <feOffset dx="-1" dy="0" in="SourceAlpha" result="shadowOffsetInner1"></feOffset>
            <feComposite in="shadowOffsetInner1" in2="SourceAlpha" operator="arithmetic" k2="-1" k3="1" result="shadowInnerInner1"></feComposite>
            <feColorMatrix values="0 0 0 0 0   0 0 0 0 0   0 0 0 0 0  0 0 0 0.5 0" type="matrix" in="shadowInnerInner1"></feColorMatrix>
        </filter>
        <path d="M42.6933333,38.9345757 C36.4141996,48.1613248 31.7949887,60.4079455 36.9755859,72.921875 C42.1561832,85.4358045 57.9108545,86.6422481 62.3544922,88.6275104 C66.7981298,90.6127727 72.5927734,88.6275104 71.1181641,84.3113304 C69.6435547,79.9951504 48.2417602,75.3475194 45.3984375,67.2958984 C42.5551148,59.2442775 54.4608886,45.1836531 53.5937239,40.2685601 C52.7265593,35.3534671 48.972467,29.7078266 42.6933333,38.9345757 Z" id="path-5"></path>
        <filter x="-1.4%" y="-0.9%" width="102.7%" height="103.6%" filterUnits="objectBoundingBox" id="filter-6">
            <feOffset dx="0" dy="1" in="SourceAlpha" result="shadowOffsetOuter1"></feOffset>
            <feColorMatrix values="0 0 0 0 0   0 0 0 0 0   0 0 0 0 0  0 0 0 0.5 0" type="matrix" in="shadowOffsetOuter1"></feColorMatrix>
        </filter>
    </defs>
    <g id="Maquettes" stroke="none" stroke-width="1" fill="none" fill-rule="evenodd">
        <g id="Illustration" transform="translate(-120.000000, -840.000000)">
            <g id="samourai" transform="translate(120.000000, 840.000000)">
                <path d="M37.7213408,87.0387579 C36.1514517,86.3325144 33.9282399,95.3684516 32.2702745,106.755885 C29.6182238,124.971012 28.4124469,149.20282 33.6402861,149.20282 C42.1363799,149.20282 47.5491901,147.030774 63.3619658,149.20282 C79.1747416,151.374867 60.0475127,85.2028204 55.5328643,87.0387579 C51.0182158,88.8746954 41.8023955,88.8746954 37.7213408,87.0387579 Z" id="Path-5" fill="#25363C"></path>
                <path d="M37.1086736,88.5710717 C33.9441228,85.4490014 30.4321909,51.0842676 37.1086736,40.846333 C43.7851562,30.6083984 53.1894531,34.1621094 55.0947266,37.0107422 C57,39.859375 57.8086422,52.4499899 58.1584783,58.7919922 C58.9136505,72.4821316 60.0501988,86.4374218 58.1584783,88.5710717 C55.3904118,91.693142 51.3017074,90.1783642 47.6335759,90.1783642 C43.9654444,90.1783642 40.2732243,91.693142 37.1086736,88.5710717 Z" id="Path-6" fill="#FFFFFF"></path>
                <g id="sword">
                    <use fill="black" fill-opacity="1" filter="url(#filter-2)" xlink:href="#path-1"></use>
                    <use fill="#0D2026" fill-rule="evenodd" xlink:href="#path-1"></use>
                </g>
                <g id="visage">
                    <use fill="#D8D8D8" fill-rule="evenodd" xlink:href="#path-3"></use>
                    <use fill="black" fill-opacity="1" filter="url(#filter-4)" xlink:href="#path-3"></use>
                </g>
                <g id="bras">
                    <use fill="black" fill-opacity="1" filter="url(#filter-6)" xlink:href="#path-5"></use>
                    <use fill="#D8D8D8" fill-rule="evenodd" xlink:href="#path-5"></use>
                </g>
                <path d="M47.5488281,32.8696289 C45.7734969,34.6159682 42.6196883,34.6159682 38.0874023,32.8696289 C33.527181,17.5255534 35.796224,9.85351563 44.8945312,9.85351562 C53.9928385,9.85351562 56.7093099,9.85351562 53.0439453,9.85351562 C56.585612,13.046875 56.585612,15.4290365 53.0439453,17 C47.7314453,19.3564453 50.211825,30.25012 47.5488281,32.8696289 Z" id="cheveux" fill="#0A191E"></path>
                <path d="M44.5372445,7.03603335 C45.3453499,7.52626773 47.6477181,7.34572573 48.5372445,7.03603335 C49.4267708,6.72634097 49.2652718,11.4203107 48.5372445,11.0360334 C47.8092171,10.651756 45.1555306,10.8490216 44.5372445,11.0360334 C43.9189583,11.2230451 43.729139,6.54579898 44.5372445,7.03603335 Z" id="elastique" fill="#FFFFFF"></path>
                <path d="M46.5,8 C48.3764009,8 50.3509153,8.91280915 51.3435059,8 C51.9577465,7.43513021 52,5.2389233 52,4.5 C52,3.55142887 52.3064446,2.2016629 51.3435059,1.57128906 C50.3441697,0.91708817 48.0469544,1 46.5,1 C44.7631395,1 42.6527348,0.771157245 41.6447754,1.57128906 C40.8899316,2.17049429 41,3.67227827 41,4.5 C41,5.41038302 41.0537379,7.3774467 41.9489746,8 C42.9545747,8.69930069 44.8930358,8 46.5,8 Z" id="chignon" fill="#0A191E"></path>
            </g>
        </g>
    </g>
</svg>